G75*
%MOIN*%
%OFA0B0*%
%FSLAX25Y25*%
%IPPOS*%
%LPD*%
%AMOC8*
5,1,8,0,0,1.08239X$1,22.5*
%
%ADD10C,0.05200*%
%ADD11C,0.08268*%
%ADD12C,0.03969*%
%ADD13R,0.04799X0.08799*%
%ADD14R,0.14173X0.08661*%
%ADD15C,0.10000*%
%ADD16C,0.06000*%
%ADD17C,0.07600*%
%ADD18OC8,0.06300*%
%ADD19C,0.06300*%
%ADD20C,0.06496*%
%ADD21C,0.06600*%
%ADD22R,0.05118X0.06299*%
%ADD23R,0.05906X0.05118*%
%ADD24R,0.05118X0.05906*%
%ADD25R,0.03937X0.05512*%
%ADD26C,0.07800*%
%ADD27C,0.01000*%
%ADD28C,0.04000*%
%ADD29C,0.05600*%
%ADD30C,0.08600*%
%ADD31C,0.20000*%
%ADD32C,0.07000*%
D10*
X0119513Y0084208D02*
X0124713Y0084208D01*
X0124713Y0094208D02*
X0119513Y0094208D01*
X0154713Y0094208D02*
X0159913Y0094208D01*
X0159913Y0084208D02*
X0154713Y0084208D01*
X0179717Y0074285D02*
X0179717Y0069085D01*
X0179717Y0044285D02*
X0179717Y0039085D01*
D11*
X0167764Y0015201D03*
X0120520Y0015201D03*
X0120520Y0063232D03*
X0144142Y0071106D03*
X0167764Y0063232D03*
D12*
X0190969Y0075059D02*
X0194937Y0075059D01*
X0194937Y0079980D02*
X0190969Y0079980D01*
X0190969Y0084902D02*
X0194937Y0084902D01*
X0194937Y0089823D02*
X0190969Y0089823D01*
X0190969Y0094744D02*
X0194937Y0094744D01*
X0194937Y0099665D02*
X0190969Y0099665D01*
X0095583Y0125925D02*
X0091614Y0125925D01*
X0091614Y0130846D02*
X0095583Y0130846D01*
X0095583Y0135768D02*
X0091614Y0135768D01*
X0091657Y0158039D02*
X0095626Y0158039D01*
X0095626Y0162961D02*
X0091657Y0162961D01*
D13*
X0039248Y0048319D03*
X0030150Y0048319D03*
X0021051Y0048319D03*
D14*
X0030150Y0072720D03*
D15*
X0008700Y0179638D02*
X0008700Y0189638D01*
X0097300Y0189638D02*
X0097300Y0179638D01*
D16*
X0066591Y0146776D02*
X0066591Y0140776D01*
X0036591Y0146776D02*
X0036591Y0152776D01*
X0184799Y0019630D02*
X0190799Y0019630D01*
X0190799Y0049630D02*
X0196799Y0049630D01*
X0195335Y0111937D02*
X0189335Y0111937D01*
X0189335Y0121937D02*
X0195335Y0121937D01*
X0195335Y0131937D02*
X0189335Y0131937D01*
X0189335Y0141937D02*
X0195335Y0141937D01*
X0195335Y0151937D02*
X0189335Y0151937D01*
X0189335Y0161937D02*
X0195335Y0161937D01*
D17*
X0080524Y0114437D03*
X0060839Y0114437D03*
X0074563Y0012480D03*
X0059264Y0008138D03*
X0039972Y0008138D03*
X0020287Y0008138D03*
X0013933Y0012480D03*
D18*
X0101335Y0073543D03*
X0101228Y0094370D03*
D19*
X0101228Y0104370D03*
X0101335Y0083543D03*
D20*
X0054091Y0124980D02*
X0054091Y0131476D01*
X0034406Y0131476D02*
X0034406Y0124980D01*
D21*
X0108465Y0066736D03*
X0108465Y0026736D03*
D22*
X0130457Y0123150D03*
X0137937Y0123150D03*
X0153685Y0123134D03*
X0161165Y0123134D03*
X0161559Y0138654D03*
X0154079Y0138654D03*
X0138413Y0139441D03*
X0130933Y0139441D03*
X0130992Y0155898D03*
X0138472Y0155898D03*
X0153827Y0155961D03*
X0161307Y0155961D03*
D23*
X0056224Y0071705D03*
X0056224Y0064224D03*
X0056264Y0048224D03*
X0056264Y0040744D03*
D24*
X0142803Y0109789D03*
X0150283Y0109789D03*
D25*
X0150709Y0047689D03*
X0143228Y0047689D03*
X0146969Y0039028D03*
D26*
X0050818Y0159017D02*
X0050818Y0166817D01*
X0031118Y0166817D02*
X0031118Y0159017D01*
X0011418Y0159017D02*
X0011418Y0166817D01*
D27*
X0007665Y0140622D02*
X0007665Y0006000D01*
X0015220Y0006000D01*
X0014814Y0006980D01*
X0012839Y0006980D01*
X0010818Y0007818D01*
X0009270Y0009365D01*
X0008433Y0011386D01*
X0008433Y0013574D01*
X0009270Y0015596D01*
X0010818Y0017143D01*
X0011765Y0017536D01*
X0011765Y0027611D01*
X0025254Y0041100D01*
X0024135Y0042219D01*
X0017947Y0042219D01*
X0016952Y0043215D01*
X0016952Y0053423D01*
X0017947Y0054418D01*
X0024155Y0054418D01*
X0025151Y0053423D01*
X0025151Y0047426D01*
X0026050Y0046527D01*
X0026050Y0053423D01*
X0027046Y0054418D01*
X0027965Y0054418D01*
X0027965Y0066690D01*
X0022359Y0066690D01*
X0021363Y0067686D01*
X0021363Y0077755D01*
X0022359Y0078751D01*
X0037940Y0078751D01*
X0038936Y0077755D01*
X0038936Y0074800D01*
X0051572Y0074800D01*
X0051572Y0074968D01*
X0052567Y0075964D01*
X0059881Y0075964D01*
X0060877Y0074968D01*
X0060877Y0074800D01*
X0065833Y0074800D01*
X0066769Y0075737D01*
X0068129Y0076300D01*
X0069601Y0076300D01*
X0070961Y0075737D01*
X0072002Y0074696D01*
X0072565Y0073336D01*
X0072565Y0071864D01*
X0072002Y0070504D01*
X0070961Y0069463D01*
X0069601Y0068900D01*
X0068129Y0068900D01*
X0066769Y0069463D01*
X0065833Y0070400D01*
X0060877Y0070400D01*
X0060877Y0068441D01*
X0060259Y0067823D01*
X0060377Y0067704D01*
X0060575Y0067362D01*
X0060677Y0066981D01*
X0060677Y0064724D01*
X0056724Y0064724D01*
X0056724Y0063724D01*
X0056724Y0060165D01*
X0059375Y0060165D01*
X0059756Y0060268D01*
X0060098Y0060465D01*
X0060377Y0060744D01*
X0060575Y0061086D01*
X0060677Y0061468D01*
X0060677Y0063724D01*
X0056724Y0063724D01*
X0055724Y0063724D01*
X0055724Y0060165D01*
X0053074Y0060165D01*
X0052693Y0060268D01*
X0052351Y0060465D01*
X0052071Y0060744D01*
X0051874Y0061086D01*
X0051772Y0061468D01*
X0051772Y0063724D01*
X0055724Y0063724D01*
X0055724Y0064724D01*
X0051772Y0064724D01*
X0051772Y0066981D01*
X0051874Y0067362D01*
X0052071Y0067704D01*
X0052190Y0067823D01*
X0051572Y0068441D01*
X0051572Y0070400D01*
X0038936Y0070400D01*
X0038936Y0067686D01*
X0037940Y0066690D01*
X0032365Y0066690D01*
X0032365Y0054418D01*
X0033253Y0054418D01*
X0034249Y0053423D01*
X0034249Y0043300D01*
X0035474Y0043300D01*
X0035451Y0043340D01*
X0035348Y0043722D01*
X0035348Y0047819D01*
X0038748Y0047819D01*
X0038748Y0048819D01*
X0038748Y0054218D01*
X0036651Y0054218D01*
X0036269Y0054116D01*
X0035927Y0053919D01*
X0035648Y0053640D01*
X0035451Y0053297D01*
X0035348Y0052916D01*
X0035348Y0048819D01*
X0038748Y0048819D01*
X0039748Y0048819D01*
X0039748Y0054218D01*
X0041845Y0054218D01*
X0042227Y0054116D01*
X0042569Y0053919D01*
X0042848Y0053640D01*
X0043045Y0053297D01*
X0043148Y0052916D01*
X0043148Y0048819D01*
X0039748Y0048819D01*
X0039748Y0047819D01*
X0043148Y0047819D01*
X0043148Y0043722D01*
X0043045Y0043340D01*
X0043022Y0043300D01*
X0051611Y0043300D01*
X0051611Y0044007D01*
X0052229Y0044626D01*
X0052111Y0044744D01*
X0051913Y0045086D01*
X0051811Y0045468D01*
X0051811Y0047724D01*
X0055764Y0047724D01*
X0056764Y0047724D01*
X0056764Y0045003D01*
X0055764Y0045003D01*
X0055764Y0047724D01*
X0055764Y0048724D01*
X0051811Y0048724D01*
X0051811Y0050981D01*
X0051913Y0051362D01*
X0052111Y0051704D01*
X0052390Y0051984D01*
X0052732Y0052181D01*
X0053114Y0052283D01*
X0055764Y0052283D01*
X0055764Y0048724D01*
X0056764Y0048724D01*
X0060717Y0048724D01*
X0060717Y0050981D01*
X0060614Y0051362D01*
X0060417Y0051704D01*
X0060138Y0051984D01*
X0059796Y0052181D01*
X0059414Y0052283D01*
X0056764Y0052283D01*
X0056764Y0048724D01*
X0056764Y0047724D01*
X0060717Y0047724D01*
X0060717Y0045468D01*
X0060614Y0045086D01*
X0060417Y0044744D01*
X0060298Y0044626D01*
X0060917Y0044007D01*
X0060917Y0037481D01*
X0059921Y0036485D01*
X0052607Y0036485D01*
X0051611Y0037481D01*
X0051611Y0038900D01*
X0029277Y0038900D01*
X0016165Y0025789D01*
X0016165Y0017509D01*
X0017049Y0017143D01*
X0018596Y0015596D01*
X0019407Y0013638D01*
X0021381Y0013638D01*
X0023403Y0012800D01*
X0024950Y0011253D01*
X0025787Y0009232D01*
X0025787Y0007044D01*
X0025355Y0006000D01*
X0034905Y0006000D01*
X0034472Y0007044D01*
X0034472Y0009232D01*
X0035310Y0011253D01*
X0036857Y0012800D01*
X0038878Y0013638D01*
X0041066Y0013638D01*
X0043088Y0012800D01*
X0044635Y0011253D01*
X0045472Y0009232D01*
X0045472Y0007044D01*
X0045040Y0006000D01*
X0054405Y0006000D01*
X0054352Y0006103D01*
X0054094Y0006897D01*
X0053974Y0007654D01*
X0058779Y0007654D01*
X0058779Y0008622D01*
X0053974Y0008622D01*
X0054094Y0009379D01*
X0054352Y0010172D01*
X0054731Y0010916D01*
X0055221Y0011591D01*
X0055811Y0012180D01*
X0056486Y0012671D01*
X0057229Y0013049D01*
X0058023Y0013307D01*
X0058780Y0013427D01*
X0058780Y0008622D01*
X0059748Y0008622D01*
X0064553Y0008622D01*
X0064433Y0009379D01*
X0064175Y0010172D01*
X0063797Y0010916D01*
X0063306Y0011591D01*
X0062716Y0012180D01*
X0062042Y0012671D01*
X0061298Y0013049D01*
X0060505Y0013307D01*
X0059748Y0013427D01*
X0059748Y0008622D01*
X0059748Y0007654D01*
X0064553Y0007654D01*
X0064433Y0006897D01*
X0064175Y0006103D01*
X0064123Y0006000D01*
X0092213Y0006000D01*
X0091038Y0008035D01*
X0090241Y0011011D01*
X0090241Y0014092D01*
X0091038Y0017067D01*
X0092579Y0019735D01*
X0094757Y0021913D01*
X0097425Y0023454D01*
X0100401Y0024251D01*
X0103481Y0024251D01*
X0104157Y0024070D01*
X0103465Y0025742D01*
X0103465Y0027731D01*
X0104226Y0029568D01*
X0105632Y0030975D01*
X0107470Y0031736D01*
X0109459Y0031736D01*
X0109694Y0031639D01*
X0107246Y0034087D01*
X0082428Y0034087D01*
X0080774Y0034772D01*
X0078097Y0037449D01*
X0076831Y0038715D01*
X0076146Y0040369D01*
X0076146Y0111037D01*
X0075861Y0111322D01*
X0075024Y0113343D01*
X0075024Y0113573D01*
X0064868Y0123728D01*
X0058928Y0123728D01*
X0058285Y0122177D01*
X0056893Y0120786D01*
X0055075Y0120032D01*
X0053106Y0120032D01*
X0051288Y0120786D01*
X0049896Y0122177D01*
X0049143Y0123996D01*
X0049143Y0132461D01*
X0049591Y0133542D01*
X0049591Y0142845D01*
X0041291Y0151145D01*
X0041291Y0145841D01*
X0040575Y0144113D01*
X0039253Y0142791D01*
X0037525Y0142076D01*
X0035656Y0142076D01*
X0034205Y0142677D01*
X0034205Y0136914D01*
X0034695Y0136424D01*
X0035390Y0136424D01*
X0037208Y0135671D01*
X0038600Y0134279D01*
X0039354Y0132461D01*
X0039354Y0131766D01*
X0039492Y0131627D01*
X0040405Y0129422D01*
X0040405Y0128592D01*
X0050061Y0118937D01*
X0057560Y0118937D01*
X0057723Y0119100D01*
X0059745Y0119937D01*
X0061933Y0119937D01*
X0063954Y0119100D01*
X0065501Y0117552D01*
X0066339Y0115531D01*
X0066339Y0113343D01*
X0065501Y0111322D01*
X0063954Y0109774D01*
X0061933Y0108937D01*
X0059745Y0108937D01*
X0057723Y0109774D01*
X0057560Y0109937D01*
X0047302Y0109937D01*
X0045648Y0110622D01*
X0044382Y0111888D01*
X0035989Y0120281D01*
X0035390Y0120032D01*
X0033421Y0120032D01*
X0031603Y0120786D01*
X0030211Y0122177D01*
X0029457Y0123996D01*
X0029457Y0124691D01*
X0024806Y0129343D01*
X0023118Y0131030D01*
X0022205Y0133236D01*
X0022205Y0150882D01*
X0023118Y0153088D01*
X0024806Y0154776D01*
X0026618Y0155526D01*
X0026618Y0155598D01*
X0026371Y0155845D01*
X0025518Y0157903D01*
X0025518Y0167931D01*
X0026371Y0169989D01*
X0027946Y0171565D01*
X0030004Y0172417D01*
X0032232Y0172417D01*
X0034290Y0171565D01*
X0035866Y0169989D01*
X0036718Y0167931D01*
X0036718Y0157903D01*
X0036541Y0157476D01*
X0037525Y0157476D01*
X0038390Y0157118D01*
X0038390Y0173458D01*
X0039075Y0175112D01*
X0040184Y0176221D01*
X0038406Y0175745D01*
X0035326Y0175745D01*
X0032350Y0176542D01*
X0029682Y0178083D01*
X0027504Y0180261D01*
X0025963Y0182929D01*
X0025166Y0185905D01*
X0025166Y0188985D01*
X0025963Y0191961D01*
X0027054Y0193850D01*
X0013963Y0193850D01*
X0014380Y0193433D01*
X0015400Y0190971D01*
X0015400Y0178305D01*
X0014380Y0175843D01*
X0012495Y0173958D01*
X0011091Y0173376D01*
X0011091Y0172417D01*
X0012532Y0172417D01*
X0014590Y0171565D01*
X0016166Y0169989D01*
X0017018Y0167931D01*
X0017018Y0157903D01*
X0016166Y0155845D01*
X0015918Y0155598D01*
X0015918Y0145039D01*
X0015233Y0143385D01*
X0013967Y0142119D01*
X0013155Y0141307D01*
X0011501Y0140622D01*
X0007665Y0140622D01*
X0007665Y0140293D02*
X0022205Y0140293D01*
X0022205Y0139295D02*
X0007665Y0139295D01*
X0007665Y0138296D02*
X0022205Y0138296D01*
X0022205Y0137298D02*
X0007665Y0137298D01*
X0007665Y0136299D02*
X0022205Y0136299D01*
X0022205Y0135301D02*
X0007665Y0135301D01*
X0007665Y0134302D02*
X0022205Y0134302D01*
X0022205Y0133303D02*
X0007665Y0133303D01*
X0007665Y0132305D02*
X0022590Y0132305D01*
X0023004Y0131306D02*
X0007665Y0131306D01*
X0007665Y0130308D02*
X0023841Y0130308D01*
X0024839Y0129309D02*
X0007665Y0129309D01*
X0007665Y0128311D02*
X0025838Y0128311D01*
X0026836Y0127312D02*
X0007665Y0127312D01*
X0007665Y0126314D02*
X0027835Y0126314D01*
X0028833Y0125315D02*
X0007665Y0125315D01*
X0007665Y0124317D02*
X0029457Y0124317D01*
X0029738Y0123318D02*
X0007665Y0123318D01*
X0007665Y0122320D02*
X0030152Y0122320D01*
X0031067Y0121321D02*
X0007665Y0121321D01*
X0007665Y0120323D02*
X0032720Y0120323D01*
X0036946Y0119324D02*
X0007665Y0119324D01*
X0007665Y0118326D02*
X0037944Y0118326D01*
X0038943Y0117327D02*
X0007665Y0117327D01*
X0007665Y0116329D02*
X0039941Y0116329D01*
X0040940Y0115330D02*
X0007665Y0115330D01*
X0007665Y0114332D02*
X0041938Y0114332D01*
X0042937Y0113333D02*
X0007665Y0113333D01*
X0007665Y0112335D02*
X0043935Y0112335D01*
X0044934Y0111336D02*
X0007665Y0111336D01*
X0007665Y0110338D02*
X0046334Y0110338D01*
X0049673Y0119324D02*
X0058265Y0119324D01*
X0057429Y0121321D02*
X0067275Y0121321D01*
X0068274Y0120323D02*
X0055776Y0120323D01*
X0058344Y0122320D02*
X0066277Y0122320D01*
X0065278Y0123318D02*
X0058758Y0123318D01*
X0063412Y0119324D02*
X0069272Y0119324D01*
X0070271Y0118326D02*
X0064728Y0118326D01*
X0065595Y0117327D02*
X0071269Y0117327D01*
X0072268Y0116329D02*
X0066008Y0116329D01*
X0066339Y0115330D02*
X0073266Y0115330D01*
X0074265Y0114332D02*
X0066339Y0114332D01*
X0066335Y0113333D02*
X0075028Y0113333D01*
X0075441Y0112335D02*
X0065921Y0112335D01*
X0065507Y0111336D02*
X0075855Y0111336D01*
X0076146Y0110338D02*
X0064517Y0110338D01*
X0062904Y0109339D02*
X0076146Y0109339D01*
X0076146Y0108341D02*
X0007665Y0108341D01*
X0007665Y0109339D02*
X0058774Y0109339D01*
X0052405Y0120323D02*
X0048675Y0120323D01*
X0047676Y0121321D02*
X0050752Y0121321D01*
X0049837Y0122320D02*
X0046678Y0122320D01*
X0045679Y0123318D02*
X0049423Y0123318D01*
X0049143Y0124317D02*
X0044681Y0124317D01*
X0043682Y0125315D02*
X0049143Y0125315D01*
X0049143Y0126314D02*
X0042684Y0126314D01*
X0041685Y0127312D02*
X0049143Y0127312D01*
X0049143Y0128311D02*
X0040687Y0128311D01*
X0040405Y0129309D02*
X0049143Y0129309D01*
X0049143Y0130308D02*
X0040038Y0130308D01*
X0039625Y0131306D02*
X0049143Y0131306D01*
X0049143Y0132305D02*
X0039354Y0132305D01*
X0039004Y0133303D02*
X0049492Y0133303D01*
X0049591Y0134302D02*
X0038577Y0134302D01*
X0037579Y0135301D02*
X0049591Y0135301D01*
X0049591Y0136299D02*
X0035692Y0136299D01*
X0034205Y0137298D02*
X0049591Y0137298D01*
X0049591Y0138296D02*
X0034205Y0138296D01*
X0034205Y0139295D02*
X0049591Y0139295D01*
X0049591Y0140293D02*
X0034205Y0140293D01*
X0034205Y0141292D02*
X0049591Y0141292D01*
X0049591Y0142290D02*
X0038043Y0142290D01*
X0039750Y0143289D02*
X0049147Y0143289D01*
X0048148Y0144287D02*
X0040647Y0144287D01*
X0041061Y0145286D02*
X0047150Y0145286D01*
X0046151Y0146284D02*
X0041291Y0146284D01*
X0041291Y0147283D02*
X0045153Y0147283D01*
X0044154Y0148281D02*
X0041291Y0148281D01*
X0041291Y0149280D02*
X0043156Y0149280D01*
X0042157Y0150278D02*
X0041291Y0150278D01*
X0038390Y0157268D02*
X0038027Y0157268D01*
X0038390Y0158266D02*
X0036718Y0158266D01*
X0036718Y0159265D02*
X0038390Y0159265D01*
X0038390Y0160263D02*
X0036718Y0160263D01*
X0036718Y0161262D02*
X0038390Y0161262D01*
X0038390Y0162260D02*
X0036718Y0162260D01*
X0036718Y0163259D02*
X0038390Y0163259D01*
X0038390Y0164257D02*
X0036718Y0164257D01*
X0036718Y0165256D02*
X0038390Y0165256D01*
X0038390Y0166254D02*
X0036718Y0166254D01*
X0036718Y0167253D02*
X0038390Y0167253D01*
X0038390Y0168251D02*
X0036585Y0168251D01*
X0036172Y0169250D02*
X0038390Y0169250D01*
X0038390Y0170248D02*
X0035607Y0170248D01*
X0034608Y0171247D02*
X0038390Y0171247D01*
X0038390Y0172245D02*
X0032647Y0172245D01*
X0029589Y0172245D02*
X0012947Y0172245D01*
X0012780Y0174242D02*
X0038715Y0174242D01*
X0038390Y0173244D02*
X0011091Y0173244D01*
X0013778Y0175241D02*
X0039204Y0175241D01*
X0033480Y0176239D02*
X0014544Y0176239D01*
X0014958Y0177238D02*
X0031145Y0177238D01*
X0029528Y0178237D02*
X0015372Y0178237D01*
X0015400Y0179235D02*
X0028530Y0179235D01*
X0027531Y0180234D02*
X0015400Y0180234D01*
X0015400Y0181232D02*
X0026943Y0181232D01*
X0026367Y0182231D02*
X0015400Y0182231D01*
X0015400Y0183229D02*
X0025883Y0183229D01*
X0025615Y0184228D02*
X0015400Y0184228D01*
X0015400Y0185226D02*
X0025348Y0185226D01*
X0025166Y0186225D02*
X0015400Y0186225D01*
X0015400Y0187223D02*
X0025166Y0187223D01*
X0025166Y0188222D02*
X0015400Y0188222D01*
X0015400Y0189220D02*
X0025229Y0189220D01*
X0025497Y0190219D02*
X0015400Y0190219D01*
X0015298Y0191217D02*
X0025764Y0191217D01*
X0026111Y0192216D02*
X0014884Y0192216D01*
X0014471Y0193214D02*
X0026687Y0193214D01*
X0027628Y0171247D02*
X0014908Y0171247D01*
X0015907Y0170248D02*
X0026630Y0170248D01*
X0026064Y0169250D02*
X0016472Y0169250D01*
X0016885Y0168251D02*
X0025651Y0168251D01*
X0025518Y0167253D02*
X0017018Y0167253D01*
X0017018Y0166254D02*
X0025518Y0166254D01*
X0025518Y0165256D02*
X0017018Y0165256D01*
X0017018Y0164257D02*
X0025518Y0164257D01*
X0025518Y0163259D02*
X0017018Y0163259D01*
X0017018Y0162260D02*
X0025518Y0162260D01*
X0025518Y0161262D02*
X0017018Y0161262D01*
X0017018Y0160263D02*
X0025518Y0160263D01*
X0025518Y0159265D02*
X0017018Y0159265D01*
X0017018Y0158266D02*
X0025518Y0158266D01*
X0025781Y0157268D02*
X0016755Y0157268D01*
X0016341Y0156269D02*
X0026195Y0156269D01*
X0026002Y0155271D02*
X0015918Y0155271D01*
X0015918Y0154272D02*
X0024303Y0154272D01*
X0023304Y0153274D02*
X0015918Y0153274D01*
X0015918Y0152275D02*
X0022782Y0152275D01*
X0022368Y0151277D02*
X0015918Y0151277D01*
X0015918Y0150278D02*
X0022205Y0150278D01*
X0022205Y0149280D02*
X0015918Y0149280D01*
X0015918Y0148281D02*
X0022205Y0148281D01*
X0022205Y0147283D02*
X0015918Y0147283D01*
X0015918Y0146284D02*
X0022205Y0146284D01*
X0022205Y0145286D02*
X0015918Y0145286D01*
X0015607Y0144287D02*
X0022205Y0144287D01*
X0022205Y0143289D02*
X0015137Y0143289D01*
X0014138Y0142290D02*
X0022205Y0142290D01*
X0022205Y0141292D02*
X0013118Y0141292D01*
X0034205Y0142290D02*
X0035138Y0142290D01*
X0056010Y0168917D02*
X0055566Y0169989D01*
X0053990Y0171565D01*
X0051932Y0172417D01*
X0049704Y0172417D01*
X0048686Y0171996D01*
X0056829Y0180138D01*
X0090600Y0180138D01*
X0090600Y0178305D01*
X0091620Y0175843D01*
X0093505Y0173958D01*
X0095967Y0172938D01*
X0098633Y0172938D01*
X0101095Y0173958D01*
X0102980Y0175843D01*
X0103565Y0177256D01*
X0103565Y0172833D01*
X0102629Y0171896D01*
X0102065Y0170536D01*
X0102065Y0169064D01*
X0102629Y0167704D01*
X0103669Y0166663D01*
X0103822Y0166600D01*
X0100377Y0166600D01*
X0098965Y0168011D01*
X0097677Y0169300D01*
X0089554Y0169300D01*
X0088265Y0168011D01*
X0086854Y0166600D01*
X0085565Y0165311D01*
X0085565Y0156289D01*
X0098165Y0143689D01*
X0099454Y0142400D01*
X0120922Y0142400D01*
X0120769Y0142337D01*
X0119729Y0141296D01*
X0119165Y0139936D01*
X0119165Y0138464D01*
X0119729Y0137104D01*
X0120769Y0136063D01*
X0122129Y0135500D01*
X0123601Y0135500D01*
X0124961Y0136063D01*
X0125898Y0137000D01*
X0126674Y0137000D01*
X0126674Y0135587D01*
X0127670Y0134591D01*
X0134196Y0134591D01*
X0134673Y0135068D01*
X0135150Y0134591D01*
X0141677Y0134591D01*
X0142470Y0135384D01*
X0150146Y0127708D01*
X0149426Y0126988D01*
X0149426Y0126100D01*
X0148977Y0126100D01*
X0143965Y0131111D01*
X0142677Y0132400D01*
X0099454Y0132400D01*
X0099081Y0132027D01*
X0098706Y0132933D01*
X0098191Y0133448D01*
X0098289Y0133547D01*
X0098670Y0134117D01*
X0098933Y0134751D01*
X0099067Y0135425D01*
X0099067Y0135768D01*
X0099067Y0136111D01*
X0098933Y0136784D01*
X0098670Y0137418D01*
X0098289Y0137989D01*
X0097804Y0138474D01*
X0097233Y0138855D01*
X0096599Y0139118D01*
X0095926Y0139252D01*
X0093598Y0139252D01*
X0091271Y0139252D01*
X0090598Y0139118D01*
X0089964Y0138855D01*
X0089393Y0138474D01*
X0088908Y0137989D01*
X0088526Y0137418D01*
X0088264Y0136784D01*
X0088130Y0136111D01*
X0088130Y0135768D01*
X0093598Y0135768D01*
X0093598Y0135768D01*
X0093598Y0139252D01*
X0093598Y0135768D01*
X0093598Y0135768D01*
X0088130Y0135768D01*
X0088130Y0135425D01*
X0088264Y0134751D01*
X0088526Y0134117D01*
X0088908Y0133547D01*
X0089006Y0133448D01*
X0088491Y0132933D01*
X0087930Y0131579D01*
X0087930Y0130114D01*
X0088491Y0128759D01*
X0088864Y0128386D01*
X0088491Y0128012D01*
X0087930Y0126658D01*
X0087930Y0125658D01*
X0071291Y0142298D01*
X0071291Y0147710D01*
X0071248Y0147813D01*
X0071248Y0157712D01*
X0071835Y0158298D01*
X0072748Y0160503D01*
X0072748Y0162890D01*
X0071835Y0165096D01*
X0068926Y0168004D01*
X0066721Y0168917D01*
X0056010Y0168917D01*
X0055872Y0169250D02*
X0089504Y0169250D01*
X0088505Y0168251D02*
X0068329Y0168251D01*
X0069677Y0167253D02*
X0087507Y0167253D01*
X0086854Y0166600D02*
X0086854Y0166600D01*
X0086508Y0166254D02*
X0070676Y0166254D01*
X0071674Y0165256D02*
X0085565Y0165256D01*
X0085565Y0164257D02*
X0072182Y0164257D01*
X0072595Y0163259D02*
X0085565Y0163259D01*
X0085565Y0162260D02*
X0072748Y0162260D01*
X0072748Y0161262D02*
X0085565Y0161262D01*
X0085565Y0160263D02*
X0072649Y0160263D01*
X0072235Y0159265D02*
X0085565Y0159265D01*
X0085565Y0158266D02*
X0071803Y0158266D01*
X0071248Y0157268D02*
X0085565Y0157268D01*
X0085585Y0156269D02*
X0071248Y0156269D01*
X0071248Y0155271D02*
X0086583Y0155271D01*
X0087582Y0154272D02*
X0071248Y0154272D01*
X0071248Y0153274D02*
X0088580Y0153274D01*
X0089579Y0152275D02*
X0071248Y0152275D01*
X0071248Y0151277D02*
X0090577Y0151277D01*
X0091576Y0150278D02*
X0071248Y0150278D01*
X0071248Y0149280D02*
X0092574Y0149280D01*
X0093573Y0148281D02*
X0071248Y0148281D01*
X0071291Y0147283D02*
X0094571Y0147283D01*
X0095570Y0146284D02*
X0071291Y0146284D01*
X0071291Y0145286D02*
X0096568Y0145286D01*
X0097567Y0144287D02*
X0071291Y0144287D01*
X0071291Y0143289D02*
X0098565Y0143289D01*
X0100365Y0144600D02*
X0141765Y0144600D01*
X0148065Y0138300D01*
X0149279Y0134798D02*
X0150068Y0135125D01*
X0150122Y0134925D01*
X0150319Y0134583D01*
X0150599Y0134304D01*
X0150941Y0134106D01*
X0151322Y0134004D01*
X0153579Y0134004D01*
X0153579Y0138153D01*
X0154579Y0138153D01*
X0154579Y0134004D01*
X0156835Y0134004D01*
X0157217Y0134106D01*
X0157559Y0134304D01*
X0157677Y0134422D01*
X0158296Y0133804D01*
X0164822Y0133804D01*
X0165818Y0134800D01*
X0165818Y0139036D01*
X0182765Y0122089D01*
X0182765Y0113011D01*
X0182277Y0113500D01*
X0165177Y0130600D01*
X0163354Y0130600D01*
X0153477Y0130600D01*
X0149279Y0134798D01*
X0149775Y0134302D02*
X0150601Y0134302D01*
X0150773Y0133303D02*
X0171551Y0133303D01*
X0172549Y0132305D02*
X0151772Y0132305D01*
X0152770Y0131306D02*
X0173548Y0131306D01*
X0174546Y0130308D02*
X0165469Y0130308D01*
X0165165Y0130200D02*
X0183165Y0112200D01*
X0183165Y0102300D01*
X0190365Y0095100D01*
X0192165Y0095100D01*
X0192953Y0094744D01*
X0192953Y0099665D02*
X0192165Y0100500D01*
X0184965Y0107700D01*
X0184965Y0123000D01*
X0161565Y0146400D01*
X0161565Y0155400D01*
X0161307Y0155961D01*
X0166965Y0159000D02*
X0173265Y0152700D01*
X0192165Y0152700D01*
X0192335Y0151937D01*
X0192335Y0161937D02*
X0192165Y0162600D01*
X0104865Y0162600D01*
X0103065Y0160800D01*
X0102165Y0156300D02*
X0095865Y0162600D01*
X0094065Y0162600D01*
X0093642Y0162961D01*
X0093642Y0158039D02*
X0094065Y0157200D01*
X0098565Y0157200D01*
X0109365Y0146400D01*
X0146265Y0146400D01*
X0153465Y0139200D01*
X0154079Y0138654D01*
X0154365Y0138300D01*
X0162465Y0130200D01*
X0165165Y0130200D01*
X0166467Y0129309D02*
X0175545Y0129309D01*
X0176543Y0128311D02*
X0167466Y0128311D01*
X0168464Y0127312D02*
X0177542Y0127312D01*
X0178540Y0126314D02*
X0169463Y0126314D01*
X0170461Y0125315D02*
X0179539Y0125315D01*
X0180537Y0124317D02*
X0171460Y0124317D01*
X0172458Y0123318D02*
X0181536Y0123318D01*
X0182534Y0122320D02*
X0173457Y0122320D01*
X0174455Y0121321D02*
X0182765Y0121321D01*
X0182765Y0120323D02*
X0175454Y0120323D01*
X0176452Y0119324D02*
X0182765Y0119324D01*
X0182765Y0118326D02*
X0177451Y0118326D01*
X0178449Y0117327D02*
X0182765Y0117327D01*
X0182765Y0116329D02*
X0179448Y0116329D01*
X0180446Y0115330D02*
X0182765Y0115330D01*
X0182765Y0114332D02*
X0181445Y0114332D01*
X0182443Y0113333D02*
X0182765Y0113333D01*
X0181365Y0111300D02*
X0181365Y0101400D01*
X0187665Y0095100D01*
X0187665Y0093300D01*
X0190365Y0090600D01*
X0192165Y0090600D01*
X0192953Y0089823D01*
X0192953Y0084902D02*
X0192953Y0084902D01*
X0192165Y0084300D01*
X0185865Y0084300D01*
X0180465Y0078900D01*
X0154365Y0078900D01*
X0139965Y0093300D01*
X0149865Y0103200D01*
X0149865Y0109500D01*
X0150283Y0109789D01*
X0150784Y0109339D02*
X0158465Y0109339D01*
X0158465Y0108341D02*
X0154343Y0108341D01*
X0154343Y0109289D02*
X0150784Y0109289D01*
X0150784Y0110289D01*
X0154343Y0110289D01*
X0154343Y0112940D01*
X0154240Y0113321D01*
X0154043Y0113663D01*
X0153764Y0113942D01*
X0153421Y0114140D01*
X0153040Y0114242D01*
X0150783Y0114242D01*
X0150783Y0110289D01*
X0149783Y0110289D01*
X0149783Y0114242D01*
X0147527Y0114242D01*
X0147145Y0114140D01*
X0146803Y0113942D01*
X0146685Y0113824D01*
X0146066Y0114442D01*
X0144865Y0114442D01*
X0144865Y0123989D01*
X0147154Y0121700D01*
X0149426Y0121700D01*
X0149426Y0119280D01*
X0150422Y0118284D01*
X0156948Y0118284D01*
X0157425Y0118761D01*
X0157902Y0118284D01*
X0158465Y0118284D01*
X0158465Y0106811D01*
X0149854Y0098200D01*
X0148565Y0096911D01*
X0148565Y0086989D01*
X0150436Y0085118D01*
X0150413Y0085063D01*
X0150413Y0083352D01*
X0151067Y0081772D01*
X0152277Y0080562D01*
X0153857Y0079908D01*
X0160768Y0079908D01*
X0162348Y0080562D01*
X0163558Y0081772D01*
X0164213Y0083352D01*
X0164213Y0085063D01*
X0163558Y0086643D01*
X0162348Y0087853D01*
X0160768Y0088508D01*
X0153857Y0088508D01*
X0153441Y0088335D01*
X0152965Y0088811D01*
X0152965Y0090277D01*
X0153857Y0089908D01*
X0160768Y0089908D01*
X0162348Y0090562D01*
X0163558Y0091772D01*
X0163631Y0091948D01*
X0163631Y0089054D01*
X0164428Y0086078D01*
X0165968Y0083411D01*
X0168147Y0081232D01*
X0170815Y0079692D01*
X0173790Y0078894D01*
X0176871Y0078894D01*
X0179847Y0079692D01*
X0182515Y0081232D01*
X0184693Y0083411D01*
X0186233Y0086078D01*
X0187031Y0089054D01*
X0187031Y0090823D01*
X0187288Y0090566D01*
X0187284Y0090556D01*
X0187284Y0089090D01*
X0187845Y0087736D01*
X0188360Y0087221D01*
X0188262Y0087123D01*
X0187881Y0086552D01*
X0187618Y0085918D01*
X0187484Y0085245D01*
X0187484Y0084902D01*
X0192953Y0084902D01*
X0187484Y0084902D01*
X0187484Y0084558D01*
X0187618Y0083885D01*
X0187881Y0083251D01*
X0188262Y0082680D01*
X0188360Y0082582D01*
X0187845Y0082067D01*
X0187284Y0080713D01*
X0187284Y0079247D01*
X0187845Y0077893D01*
X0188219Y0077520D01*
X0187845Y0077146D01*
X0187284Y0075792D01*
X0187284Y0074326D01*
X0187845Y0072972D01*
X0188882Y0071936D01*
X0190236Y0071375D01*
X0195516Y0071375D01*
X0195516Y0054330D01*
X0195463Y0054330D01*
X0192431Y0057362D01*
X0190777Y0058047D01*
X0170491Y0058047D01*
X0171068Y0058287D01*
X0172709Y0059928D01*
X0173598Y0062072D01*
X0173598Y0064393D01*
X0172709Y0066537D01*
X0171068Y0068178D01*
X0168924Y0069066D01*
X0166603Y0069066D01*
X0164459Y0068178D01*
X0162818Y0066537D01*
X0161930Y0064393D01*
X0161930Y0062072D01*
X0162818Y0059928D01*
X0164459Y0058287D01*
X0165037Y0058047D01*
X0163565Y0058047D01*
X0152112Y0069500D01*
X0175417Y0069500D01*
X0175417Y0068230D01*
X0176071Y0066649D01*
X0177281Y0065440D01*
X0178861Y0064785D01*
X0180572Y0064785D01*
X0182152Y0065440D01*
X0183362Y0066649D01*
X0184017Y0068230D01*
X0184017Y0075140D01*
X0183362Y0076721D01*
X0182152Y0077930D01*
X0180572Y0078585D01*
X0178861Y0078585D01*
X0177281Y0077930D01*
X0176071Y0076721D01*
X0175417Y0075140D01*
X0175417Y0073900D01*
X0152577Y0073900D01*
X0148465Y0078011D01*
X0147177Y0079300D01*
X0125554Y0079300D01*
X0122574Y0076320D01*
X0122965Y0077264D01*
X0122965Y0078736D01*
X0122480Y0079908D01*
X0125568Y0079908D01*
X0127148Y0080562D01*
X0128358Y0081772D01*
X0129013Y0083352D01*
X0129013Y0085063D01*
X0128358Y0086643D01*
X0127439Y0087562D01*
X0138177Y0098300D01*
X0139465Y0099589D01*
X0139465Y0105211D01*
X0139540Y0105137D01*
X0146066Y0105137D01*
X0146685Y0105755D01*
X0146803Y0105636D01*
X0147145Y0105439D01*
X0147527Y0105337D01*
X0149783Y0105337D01*
X0149783Y0109289D01*
X0150783Y0109289D01*
X0150783Y0105337D01*
X0153040Y0105337D01*
X0153421Y0105439D01*
X0153764Y0105636D01*
X0154043Y0105916D01*
X0154240Y0106258D01*
X0154343Y0106639D01*
X0154343Y0109289D01*
X0154343Y0110338D02*
X0158465Y0110338D01*
X0158465Y0111336D02*
X0154343Y0111336D01*
X0154343Y0112335D02*
X0158465Y0112335D01*
X0158465Y0113333D02*
X0154233Y0113333D01*
X0150783Y0113333D02*
X0149783Y0113333D01*
X0149783Y0112335D02*
X0150783Y0112335D01*
X0150783Y0111336D02*
X0149783Y0111336D01*
X0149783Y0110338D02*
X0150783Y0110338D01*
X0150783Y0108341D02*
X0149783Y0108341D01*
X0149783Y0107342D02*
X0150783Y0107342D01*
X0150783Y0106344D02*
X0149783Y0106344D01*
X0149783Y0105345D02*
X0150783Y0105345D01*
X0153072Y0105345D02*
X0156999Y0105345D01*
X0156001Y0104347D02*
X0139465Y0104347D01*
X0139465Y0103348D02*
X0155002Y0103348D01*
X0154004Y0102350D02*
X0139465Y0102350D01*
X0139465Y0101351D02*
X0153005Y0101351D01*
X0152007Y0100353D02*
X0139465Y0100353D01*
X0139231Y0099354D02*
X0151008Y0099354D01*
X0150010Y0098356D02*
X0138232Y0098356D01*
X0137234Y0097357D02*
X0149011Y0097357D01*
X0148565Y0096359D02*
X0136235Y0096359D01*
X0135237Y0095360D02*
X0148565Y0095360D01*
X0148565Y0094362D02*
X0134238Y0094362D01*
X0133240Y0093363D02*
X0148565Y0093363D01*
X0148565Y0092365D02*
X0132241Y0092365D01*
X0131243Y0091366D02*
X0148565Y0091366D01*
X0148565Y0090368D02*
X0130244Y0090368D01*
X0129246Y0089369D02*
X0148565Y0089369D01*
X0148565Y0088370D02*
X0128247Y0088370D01*
X0127629Y0087372D02*
X0148565Y0087372D01*
X0149181Y0086373D02*
X0128470Y0086373D01*
X0128883Y0085375D02*
X0150179Y0085375D01*
X0150413Y0084376D02*
X0129013Y0084376D01*
X0129013Y0083378D02*
X0150413Y0083378D01*
X0150816Y0082379D02*
X0128610Y0082379D01*
X0127967Y0081381D02*
X0151458Y0081381D01*
X0152711Y0080382D02*
X0126714Y0080382D01*
X0124639Y0078385D02*
X0122965Y0078385D01*
X0122965Y0077387D02*
X0123641Y0077387D01*
X0122642Y0076388D02*
X0122603Y0076388D01*
X0120945Y0074691D02*
X0115654Y0069400D01*
X0112773Y0069400D01*
X0112703Y0069568D01*
X0111297Y0070975D01*
X0109459Y0071736D01*
X0107470Y0071736D01*
X0105632Y0070975D01*
X0104226Y0069568D01*
X0103465Y0067731D01*
X0103465Y0065742D01*
X0104226Y0063904D01*
X0105632Y0062497D01*
X0107470Y0061736D01*
X0109459Y0061736D01*
X0111297Y0062497D01*
X0112703Y0063904D01*
X0113157Y0065000D01*
X0114937Y0065000D01*
X0114686Y0064393D01*
X0114686Y0062072D01*
X0115574Y0059928D01*
X0117215Y0058287D01*
X0119359Y0057398D01*
X0121680Y0057398D01*
X0123824Y0058287D01*
X0125465Y0059928D01*
X0126354Y0062072D01*
X0126354Y0064393D01*
X0125465Y0066537D01*
X0123824Y0068178D01*
X0121680Y0069066D01*
X0121543Y0069066D01*
X0127377Y0074900D01*
X0139685Y0074900D01*
X0139196Y0074411D01*
X0138308Y0072267D01*
X0138308Y0069946D01*
X0139196Y0067802D01*
X0139642Y0067356D01*
X0139642Y0067175D01*
X0123349Y0050882D01*
X0093138Y0050882D01*
X0093138Y0119482D01*
X0092453Y0121136D01*
X0091347Y0122241D01*
X0094565Y0122241D01*
X0094565Y0091489D01*
X0095854Y0090200D01*
X0098493Y0087561D01*
X0097223Y0086291D01*
X0096485Y0084508D01*
X0096485Y0082579D01*
X0097223Y0080796D01*
X0098587Y0079432D01*
X0100370Y0078693D01*
X0102299Y0078693D01*
X0104082Y0079432D01*
X0105446Y0080796D01*
X0106185Y0082579D01*
X0106185Y0084508D01*
X0105446Y0086291D01*
X0104082Y0087655D01*
X0103465Y0087910D01*
X0103465Y0088811D01*
X0102557Y0089720D01*
X0103154Y0089720D01*
X0105878Y0092444D01*
X0105878Y0094070D01*
X0101528Y0094070D01*
X0101528Y0094670D01*
X0100928Y0094670D01*
X0100928Y0099020D01*
X0099302Y0099020D01*
X0098965Y0098683D01*
X0098965Y0100058D01*
X0100264Y0099520D01*
X0102193Y0099520D01*
X0103976Y0100258D01*
X0105340Y0101623D01*
X0106078Y0103405D01*
X0106078Y0105335D01*
X0105678Y0106301D01*
X0125577Y0126200D01*
X0126198Y0126200D01*
X0126198Y0119296D01*
X0127193Y0118300D01*
X0127865Y0118300D01*
X0127865Y0100511D01*
X0125776Y0098422D01*
X0125568Y0098508D01*
X0118657Y0098508D01*
X0117077Y0097853D01*
X0115867Y0096643D01*
X0115213Y0095063D01*
X0115213Y0093352D01*
X0115867Y0091772D01*
X0117047Y0090593D01*
X0112565Y0086111D01*
X0112565Y0081589D01*
X0113854Y0080300D01*
X0115565Y0078589D01*
X0115565Y0077264D01*
X0116129Y0075904D01*
X0117169Y0074863D01*
X0118529Y0074300D01*
X0120001Y0074300D01*
X0120945Y0074691D01*
X0121065Y0074400D02*
X0106665Y0074400D01*
X0106665Y0085200D01*
X0101265Y0090600D01*
X0101265Y0094200D01*
X0101228Y0094370D01*
X0101528Y0094362D02*
X0115213Y0094362D01*
X0115213Y0093363D02*
X0105878Y0093363D01*
X0105799Y0092365D02*
X0115622Y0092365D01*
X0116273Y0091366D02*
X0104800Y0091366D01*
X0103802Y0090368D02*
X0116822Y0090368D01*
X0115823Y0089369D02*
X0102908Y0089369D01*
X0103465Y0088370D02*
X0114825Y0088370D01*
X0113826Y0087372D02*
X0104365Y0087372D01*
X0105363Y0086373D02*
X0112828Y0086373D01*
X0112565Y0085375D02*
X0105826Y0085375D01*
X0106185Y0084376D02*
X0112565Y0084376D01*
X0112565Y0083378D02*
X0106185Y0083378D01*
X0106102Y0082379D02*
X0112565Y0082379D01*
X0112773Y0081381D02*
X0105689Y0081381D01*
X0105033Y0080382D02*
X0113772Y0080382D01*
X0114770Y0079384D02*
X0103967Y0079384D01*
X0103261Y0078193D02*
X0101635Y0078193D01*
X0101635Y0073843D01*
X0105985Y0073843D01*
X0105985Y0075469D01*
X0103261Y0078193D01*
X0104067Y0077387D02*
X0115565Y0077387D01*
X0115565Y0078385D02*
X0093138Y0078385D01*
X0093138Y0077387D02*
X0098602Y0077387D01*
X0099409Y0078193D02*
X0096685Y0075469D01*
X0096685Y0073843D01*
X0101035Y0073843D01*
X0101035Y0073243D01*
X0101635Y0073243D01*
X0101635Y0073843D01*
X0101035Y0073843D01*
X0101035Y0078193D01*
X0099409Y0078193D01*
X0098703Y0079384D02*
X0093138Y0079384D01*
X0093138Y0080382D02*
X0097637Y0080382D01*
X0096981Y0081381D02*
X0093138Y0081381D01*
X0093138Y0082379D02*
X0096567Y0082379D01*
X0096485Y0083378D02*
X0093138Y0083378D01*
X0093138Y0084376D02*
X0096485Y0084376D01*
X0096844Y0085375D02*
X0093138Y0085375D01*
X0093138Y0086373D02*
X0097306Y0086373D01*
X0098304Y0087372D02*
X0093138Y0087372D01*
X0093138Y0088370D02*
X0097684Y0088370D01*
X0096685Y0089369D02*
X0093138Y0089369D01*
X0093138Y0090368D02*
X0095687Y0090368D01*
X0094688Y0091366D02*
X0093138Y0091366D01*
X0093138Y0092365D02*
X0094565Y0092365D01*
X0094565Y0093363D02*
X0093138Y0093363D01*
X0093138Y0094362D02*
X0094565Y0094362D01*
X0094565Y0095360D02*
X0093138Y0095360D01*
X0093138Y0096359D02*
X0094565Y0096359D01*
X0094565Y0097357D02*
X0093138Y0097357D01*
X0093138Y0098356D02*
X0094565Y0098356D01*
X0094565Y0099354D02*
X0093138Y0099354D01*
X0093138Y0100353D02*
X0094565Y0100353D01*
X0094565Y0101351D02*
X0093138Y0101351D01*
X0093138Y0102350D02*
X0094565Y0102350D01*
X0094565Y0103348D02*
X0093138Y0103348D01*
X0093138Y0104347D02*
X0094565Y0104347D01*
X0094565Y0105345D02*
X0093138Y0105345D01*
X0093138Y0106344D02*
X0094565Y0106344D01*
X0094565Y0107342D02*
X0093138Y0107342D01*
X0093138Y0108341D02*
X0094565Y0108341D01*
X0094565Y0109339D02*
X0093138Y0109339D01*
X0093138Y0110338D02*
X0094565Y0110338D01*
X0094565Y0111336D02*
X0093138Y0111336D01*
X0093138Y0112335D02*
X0094565Y0112335D01*
X0094565Y0113333D02*
X0093138Y0113333D01*
X0093138Y0114332D02*
X0094565Y0114332D01*
X0094565Y0115330D02*
X0093138Y0115330D01*
X0093138Y0116329D02*
X0094565Y0116329D01*
X0094565Y0117327D02*
X0093138Y0117327D01*
X0093138Y0118326D02*
X0094565Y0118326D01*
X0094565Y0119324D02*
X0093138Y0119324D01*
X0092789Y0120323D02*
X0094565Y0120323D01*
X0094565Y0121321D02*
X0092267Y0121321D01*
X0093598Y0125925D02*
X0096765Y0126600D01*
X0096765Y0092400D01*
X0101265Y0087900D01*
X0101265Y0084300D01*
X0101335Y0083543D01*
X0101035Y0077387D02*
X0101635Y0077387D01*
X0101635Y0076388D02*
X0101035Y0076388D01*
X0101035Y0075390D02*
X0101635Y0075390D01*
X0101635Y0074391D02*
X0101035Y0074391D01*
X0101335Y0073543D02*
X0102165Y0074400D01*
X0106665Y0074400D01*
X0105985Y0074391D02*
X0118309Y0074391D01*
X0119647Y0073393D02*
X0101635Y0073393D01*
X0101635Y0073243D02*
X0105985Y0073243D01*
X0105985Y0071617D01*
X0103261Y0068893D01*
X0101635Y0068893D01*
X0101635Y0073243D01*
X0101035Y0073243D02*
X0101035Y0068893D01*
X0099409Y0068893D01*
X0096685Y0071617D01*
X0096685Y0073243D01*
X0101035Y0073243D01*
X0101035Y0073393D02*
X0093138Y0073393D01*
X0093138Y0074391D02*
X0096685Y0074391D01*
X0096685Y0075390D02*
X0093138Y0075390D01*
X0093138Y0076388D02*
X0097604Y0076388D01*
X0096685Y0072394D02*
X0093138Y0072394D01*
X0093138Y0071396D02*
X0096906Y0071396D01*
X0097905Y0070397D02*
X0093138Y0070397D01*
X0093138Y0069399D02*
X0098903Y0069399D01*
X0101035Y0069399D02*
X0101635Y0069399D01*
X0101635Y0070397D02*
X0101035Y0070397D01*
X0101035Y0071396D02*
X0101635Y0071396D01*
X0101635Y0072394D02*
X0101035Y0072394D01*
X0103766Y0069399D02*
X0104155Y0069399D01*
X0103742Y0068400D02*
X0093138Y0068400D01*
X0093138Y0067402D02*
X0103465Y0067402D01*
X0103465Y0066403D02*
X0093138Y0066403D01*
X0093138Y0065405D02*
X0103604Y0065405D01*
X0104018Y0064406D02*
X0093138Y0064406D01*
X0093138Y0063408D02*
X0104722Y0063408D01*
X0105845Y0062409D02*
X0093138Y0062409D01*
X0093138Y0061411D02*
X0114960Y0061411D01*
X0114686Y0062409D02*
X0111084Y0062409D01*
X0112207Y0063408D02*
X0114686Y0063408D01*
X0114691Y0064406D02*
X0112911Y0064406D01*
X0116565Y0067200D02*
X0108465Y0067200D01*
X0108465Y0066736D01*
X0111875Y0070397D02*
X0116651Y0070397D01*
X0117650Y0071396D02*
X0110281Y0071396D01*
X0106648Y0071396D02*
X0105763Y0071396D01*
X0105985Y0072394D02*
X0118648Y0072394D01*
X0120222Y0074391D02*
X0120645Y0074391D01*
X0121065Y0074400D02*
X0139965Y0093300D01*
X0137265Y0100500D02*
X0137265Y0123000D01*
X0137937Y0123150D01*
X0142665Y0126600D02*
X0140865Y0128400D01*
X0124665Y0128400D01*
X0101265Y0105000D01*
X0101228Y0104370D01*
X0105641Y0102350D02*
X0127865Y0102350D01*
X0127865Y0103348D02*
X0106055Y0103348D01*
X0106078Y0104347D02*
X0127865Y0104347D01*
X0127865Y0105345D02*
X0106074Y0105345D01*
X0105720Y0106344D02*
X0127865Y0106344D01*
X0127865Y0107342D02*
X0106719Y0107342D01*
X0107717Y0108341D02*
X0127865Y0108341D01*
X0127865Y0109339D02*
X0108716Y0109339D01*
X0109714Y0110338D02*
X0127865Y0110338D01*
X0127865Y0111336D02*
X0110713Y0111336D01*
X0111711Y0112335D02*
X0127865Y0112335D01*
X0127865Y0113333D02*
X0112710Y0113333D01*
X0113708Y0114332D02*
X0127865Y0114332D01*
X0127865Y0115330D02*
X0114707Y0115330D01*
X0115705Y0116329D02*
X0127865Y0116329D01*
X0127865Y0117327D02*
X0116704Y0117327D01*
X0117702Y0118326D02*
X0127168Y0118326D01*
X0126198Y0119324D02*
X0118701Y0119324D01*
X0119699Y0120323D02*
X0126198Y0120323D01*
X0126198Y0121321D02*
X0120698Y0121321D01*
X0121696Y0122320D02*
X0126198Y0122320D01*
X0126198Y0123318D02*
X0122695Y0123318D01*
X0123694Y0124317D02*
X0126198Y0124317D01*
X0126198Y0125315D02*
X0124692Y0125315D01*
X0130065Y0123000D02*
X0130457Y0123150D01*
X0130065Y0123000D02*
X0130065Y0099600D01*
X0125565Y0095100D01*
X0124713Y0094208D01*
X0126465Y0089700D02*
X0119265Y0089700D01*
X0114765Y0085200D01*
X0114765Y0082500D01*
X0119265Y0078000D01*
X0116643Y0075390D02*
X0105985Y0075390D01*
X0105066Y0076388D02*
X0115928Y0076388D01*
X0122697Y0079384D02*
X0171964Y0079384D01*
X0169619Y0080382D02*
X0161914Y0080382D01*
X0163167Y0081381D02*
X0167998Y0081381D01*
X0166999Y0082379D02*
X0163810Y0082379D01*
X0164213Y0083378D02*
X0166001Y0083378D01*
X0165411Y0084376D02*
X0164213Y0084376D01*
X0164083Y0085375D02*
X0164834Y0085375D01*
X0164349Y0086373D02*
X0163670Y0086373D01*
X0164081Y0087372D02*
X0162829Y0087372D01*
X0163814Y0088370D02*
X0161099Y0088370D01*
X0161878Y0090368D02*
X0163631Y0090368D01*
X0163631Y0091366D02*
X0163152Y0091366D01*
X0163631Y0089369D02*
X0152965Y0089369D01*
X0153406Y0088370D02*
X0153526Y0088370D01*
X0150765Y0087900D02*
X0154365Y0084300D01*
X0154713Y0084208D01*
X0150765Y0087900D02*
X0150765Y0096000D01*
X0160665Y0105900D01*
X0160665Y0123000D01*
X0161165Y0123134D01*
X0164265Y0128400D02*
X0181365Y0111300D01*
X0187165Y0115882D02*
X0187165Y0117748D01*
X0188400Y0117237D01*
X0195516Y0117237D01*
X0195516Y0116437D01*
X0192835Y0116437D01*
X0192835Y0112437D01*
X0191835Y0112437D01*
X0191835Y0116437D01*
X0188980Y0116437D01*
X0188281Y0116326D01*
X0187607Y0116107D01*
X0187165Y0115882D01*
X0187165Y0116329D02*
X0188297Y0116329D01*
X0188182Y0117327D02*
X0187165Y0117327D01*
X0191835Y0116329D02*
X0192835Y0116329D01*
X0192835Y0115330D02*
X0191835Y0115330D01*
X0191835Y0114332D02*
X0192835Y0114332D01*
X0192835Y0113333D02*
X0191835Y0113333D01*
X0191835Y0111437D02*
X0192835Y0111437D01*
X0192835Y0107437D01*
X0195516Y0107437D01*
X0195516Y0103350D01*
X0192427Y0103350D01*
X0188204Y0107573D01*
X0188281Y0107548D01*
X0188980Y0107437D01*
X0191835Y0107437D01*
X0191835Y0111437D01*
X0191835Y0111336D02*
X0192835Y0111336D01*
X0192835Y0110338D02*
X0191835Y0110338D01*
X0191835Y0109339D02*
X0192835Y0109339D01*
X0192835Y0108341D02*
X0191835Y0108341D01*
X0189433Y0106344D02*
X0195516Y0106344D01*
X0195516Y0107342D02*
X0188434Y0107342D01*
X0190431Y0105345D02*
X0195516Y0105345D01*
X0195516Y0104347D02*
X0191430Y0104347D01*
X0187284Y0090368D02*
X0187031Y0090368D01*
X0187031Y0089369D02*
X0187284Y0089369D01*
X0187582Y0088370D02*
X0186848Y0088370D01*
X0186580Y0087372D02*
X0188209Y0087372D01*
X0187807Y0086373D02*
X0186312Y0086373D01*
X0185827Y0085375D02*
X0187510Y0085375D01*
X0187520Y0084376D02*
X0185251Y0084376D01*
X0184660Y0083378D02*
X0187828Y0083378D01*
X0188157Y0082379D02*
X0183662Y0082379D01*
X0182663Y0081381D02*
X0187561Y0081381D01*
X0187284Y0080382D02*
X0181043Y0080382D01*
X0181054Y0078385D02*
X0187641Y0078385D01*
X0187284Y0079384D02*
X0178697Y0079384D01*
X0178379Y0078385D02*
X0148091Y0078385D01*
X0149090Y0077387D02*
X0176737Y0077387D01*
X0175933Y0076388D02*
X0150088Y0076388D01*
X0151087Y0075390D02*
X0175520Y0075390D01*
X0175417Y0074391D02*
X0152085Y0074391D01*
X0151665Y0071700D02*
X0146265Y0077100D01*
X0126465Y0077100D01*
X0116565Y0067200D01*
X0121875Y0069399D02*
X0138534Y0069399D01*
X0138308Y0070397D02*
X0122874Y0070397D01*
X0123872Y0071396D02*
X0138308Y0071396D01*
X0138361Y0072394D02*
X0124871Y0072394D01*
X0125869Y0073393D02*
X0138774Y0073393D01*
X0139188Y0074391D02*
X0126868Y0074391D01*
X0123288Y0068400D02*
X0138948Y0068400D01*
X0139596Y0067402D02*
X0124601Y0067402D01*
X0125521Y0066403D02*
X0138870Y0066403D01*
X0137871Y0065405D02*
X0125934Y0065405D01*
X0126348Y0064406D02*
X0136873Y0064406D01*
X0135874Y0063408D02*
X0126354Y0063408D01*
X0126354Y0062409D02*
X0134876Y0062409D01*
X0133877Y0061411D02*
X0126080Y0061411D01*
X0125666Y0060412D02*
X0132879Y0060412D01*
X0131880Y0059414D02*
X0124951Y0059414D01*
X0123953Y0058415D02*
X0130882Y0058415D01*
X0129883Y0057417D02*
X0121724Y0057417D01*
X0119315Y0057417D02*
X0093138Y0057417D01*
X0093138Y0058415D02*
X0117086Y0058415D01*
X0116088Y0059414D02*
X0093138Y0059414D01*
X0093138Y0060412D02*
X0115373Y0060412D01*
X0123892Y0051426D02*
X0093138Y0051426D01*
X0093138Y0052424D02*
X0124891Y0052424D01*
X0125889Y0053423D02*
X0093138Y0053423D01*
X0093138Y0054421D02*
X0126888Y0054421D01*
X0127886Y0055420D02*
X0093138Y0055420D01*
X0093138Y0056418D02*
X0128885Y0056418D01*
X0136904Y0051709D02*
X0146691Y0061496D01*
X0147039Y0061845D01*
X0157886Y0050998D01*
X0159152Y0049732D01*
X0160806Y0049047D01*
X0186099Y0049047D01*
X0186099Y0048695D01*
X0186815Y0046968D01*
X0188137Y0045645D01*
X0189864Y0044930D01*
X0195516Y0044930D01*
X0195516Y0006000D01*
X0189699Y0006000D01*
X0190348Y0006650D01*
X0191614Y0007916D01*
X0192299Y0009569D01*
X0192299Y0015164D01*
X0193462Y0015645D01*
X0194784Y0016968D01*
X0195499Y0018695D01*
X0195499Y0020565D01*
X0194784Y0022292D01*
X0193462Y0023614D01*
X0191734Y0024330D01*
X0183864Y0024330D01*
X0182137Y0023614D01*
X0180815Y0022292D01*
X0180099Y0020565D01*
X0180099Y0018695D01*
X0180815Y0016968D01*
X0182137Y0015645D01*
X0183299Y0015164D01*
X0183299Y0012329D01*
X0181695Y0010724D01*
X0171538Y0010724D01*
X0172709Y0011896D01*
X0173598Y0014040D01*
X0173598Y0016361D01*
X0172709Y0018505D01*
X0171068Y0020146D01*
X0168924Y0021035D01*
X0166603Y0021035D01*
X0164459Y0020146D01*
X0162818Y0018505D01*
X0161930Y0016361D01*
X0161930Y0014040D01*
X0162818Y0011896D01*
X0163990Y0010724D01*
X0131360Y0010724D01*
X0126354Y0015731D01*
X0126354Y0016361D01*
X0125465Y0018505D01*
X0125020Y0018951D01*
X0125020Y0028072D01*
X0124335Y0029726D01*
X0112925Y0041136D01*
X0112179Y0041882D01*
X0126108Y0041882D01*
X0127762Y0042567D01*
X0132056Y0046862D01*
X0132329Y0046204D01*
X0133369Y0045163D01*
X0134729Y0044600D01*
X0136054Y0044600D01*
X0143300Y0037354D01*
X0143300Y0035567D01*
X0144296Y0034572D01*
X0149641Y0034572D01*
X0150637Y0035567D01*
X0150637Y0042488D01*
X0149692Y0043433D01*
X0150224Y0043433D01*
X0150224Y0047205D01*
X0147240Y0047205D01*
X0147240Y0044736D01*
X0147342Y0044354D01*
X0147540Y0044012D01*
X0147819Y0043733D01*
X0148161Y0043535D01*
X0148355Y0043483D01*
X0146151Y0043483D01*
X0146897Y0044229D01*
X0146897Y0050330D01*
X0147240Y0050472D01*
X0147240Y0048173D01*
X0150224Y0048173D01*
X0150224Y0047205D01*
X0151193Y0047205D01*
X0151193Y0048173D01*
X0154177Y0048173D01*
X0154177Y0050642D01*
X0154075Y0051024D01*
X0153877Y0051366D01*
X0153598Y0051645D01*
X0153256Y0051843D01*
X0152875Y0051945D01*
X0151193Y0051945D01*
X0151193Y0048173D01*
X0150224Y0048173D01*
X0150224Y0051945D01*
X0148643Y0051945D01*
X0149065Y0052964D01*
X0149065Y0054436D01*
X0148502Y0055796D01*
X0147461Y0056837D01*
X0146101Y0057400D01*
X0144629Y0057400D01*
X0143269Y0056837D01*
X0142229Y0055796D01*
X0141665Y0054436D01*
X0141665Y0053111D01*
X0141365Y0052811D01*
X0141365Y0052145D01*
X0140556Y0052145D01*
X0139560Y0051149D01*
X0139560Y0047317D01*
X0139165Y0047711D01*
X0139165Y0049036D01*
X0138602Y0050396D01*
X0137561Y0051437D01*
X0136904Y0051709D01*
X0137572Y0051426D02*
X0139836Y0051426D01*
X0139560Y0050427D02*
X0138571Y0050427D01*
X0139003Y0049429D02*
X0139560Y0049429D01*
X0139560Y0048430D02*
X0139165Y0048430D01*
X0139445Y0047432D02*
X0139560Y0047432D01*
X0135465Y0048300D02*
X0144465Y0039300D01*
X0146265Y0039300D01*
X0146969Y0039028D01*
X0150637Y0039443D02*
X0175417Y0039443D01*
X0175417Y0038445D02*
X0150637Y0038445D01*
X0150637Y0037446D02*
X0175741Y0037446D01*
X0175417Y0038230D02*
X0176071Y0036649D01*
X0177281Y0035440D01*
X0178861Y0034785D01*
X0180572Y0034785D01*
X0182152Y0035440D01*
X0183362Y0036649D01*
X0184017Y0038230D01*
X0184017Y0045140D01*
X0183362Y0046721D01*
X0182152Y0047930D01*
X0180572Y0048585D01*
X0178861Y0048585D01*
X0177281Y0047930D01*
X0176071Y0046721D01*
X0175417Y0045140D01*
X0175417Y0038230D01*
X0176273Y0036448D02*
X0150637Y0036448D01*
X0150519Y0035449D02*
X0177271Y0035449D01*
X0182162Y0035449D02*
X0195516Y0035449D01*
X0195516Y0034451D02*
X0119610Y0034451D01*
X0118611Y0035449D02*
X0143418Y0035449D01*
X0143300Y0036448D02*
X0117613Y0036448D01*
X0116614Y0037446D02*
X0143208Y0037446D01*
X0142209Y0038445D02*
X0115616Y0038445D01*
X0114617Y0039443D02*
X0141211Y0039443D01*
X0140212Y0040442D02*
X0113619Y0040442D01*
X0112620Y0041440D02*
X0139214Y0041440D01*
X0138215Y0042439D02*
X0127453Y0042439D01*
X0128632Y0043437D02*
X0137217Y0043437D01*
X0136218Y0044436D02*
X0129631Y0044436D01*
X0130629Y0045434D02*
X0133098Y0045434D01*
X0132234Y0046433D02*
X0131628Y0046433D01*
X0137619Y0052424D02*
X0141365Y0052424D01*
X0141665Y0053423D02*
X0138617Y0053423D01*
X0139616Y0054421D02*
X0141665Y0054421D01*
X0142073Y0055420D02*
X0140614Y0055420D01*
X0141613Y0056418D02*
X0142851Y0056418D01*
X0142611Y0057417D02*
X0151467Y0057417D01*
X0150469Y0058415D02*
X0143610Y0058415D01*
X0144608Y0059414D02*
X0149470Y0059414D01*
X0148472Y0060412D02*
X0145607Y0060412D01*
X0146605Y0061411D02*
X0147473Y0061411D01*
X0147880Y0056418D02*
X0152466Y0056418D01*
X0153464Y0055420D02*
X0148658Y0055420D01*
X0149065Y0054421D02*
X0154463Y0054421D01*
X0155461Y0053423D02*
X0149065Y0053423D01*
X0148842Y0052424D02*
X0156460Y0052424D01*
X0157458Y0051426D02*
X0153818Y0051426D01*
X0154177Y0050427D02*
X0158457Y0050427D01*
X0159885Y0049429D02*
X0154177Y0049429D01*
X0154177Y0048430D02*
X0178487Y0048430D01*
X0176782Y0047432D02*
X0151193Y0047432D01*
X0151193Y0047205D02*
X0154177Y0047205D01*
X0154177Y0044736D01*
X0154075Y0044354D01*
X0153877Y0044012D01*
X0153598Y0043733D01*
X0153256Y0043535D01*
X0152875Y0043433D01*
X0151193Y0043433D01*
X0151193Y0047205D01*
X0150709Y0047689D02*
X0150765Y0048300D01*
X0150765Y0053700D01*
X0151193Y0051426D02*
X0150224Y0051426D01*
X0150224Y0050427D02*
X0151193Y0050427D01*
X0151193Y0049429D02*
X0150224Y0049429D01*
X0150224Y0048430D02*
X0151193Y0048430D01*
X0150224Y0047432D02*
X0146897Y0047432D01*
X0146897Y0048430D02*
X0147240Y0048430D01*
X0147240Y0049429D02*
X0146897Y0049429D01*
X0147132Y0050427D02*
X0147240Y0050427D01*
X0145365Y0053700D02*
X0143565Y0051900D01*
X0143565Y0048300D01*
X0143228Y0047689D01*
X0146897Y0046433D02*
X0147240Y0046433D01*
X0147240Y0045434D02*
X0146897Y0045434D01*
X0146897Y0044436D02*
X0147320Y0044436D01*
X0150224Y0044436D02*
X0151193Y0044436D01*
X0151193Y0045434D02*
X0150224Y0045434D01*
X0150224Y0046433D02*
X0151193Y0046433D01*
X0154177Y0046433D02*
X0175952Y0046433D01*
X0175538Y0045434D02*
X0154177Y0045434D01*
X0154097Y0044436D02*
X0175417Y0044436D01*
X0175417Y0043437D02*
X0152891Y0043437D01*
X0151193Y0043437D02*
X0150224Y0043437D01*
X0150637Y0042439D02*
X0175417Y0042439D01*
X0175417Y0041440D02*
X0150637Y0041440D01*
X0150637Y0040442D02*
X0175417Y0040442D01*
X0184017Y0040442D02*
X0195516Y0040442D01*
X0195516Y0041440D02*
X0184017Y0041440D01*
X0184017Y0042439D02*
X0195516Y0042439D01*
X0195516Y0043437D02*
X0184017Y0043437D01*
X0184017Y0044436D02*
X0195516Y0044436D01*
X0195516Y0039443D02*
X0184017Y0039443D01*
X0184017Y0038445D02*
X0195516Y0038445D01*
X0195516Y0037446D02*
X0183692Y0037446D01*
X0183161Y0036448D02*
X0195516Y0036448D01*
X0195516Y0033452D02*
X0120608Y0033452D01*
X0121607Y0032454D02*
X0195516Y0032454D01*
X0195516Y0031455D02*
X0122605Y0031455D01*
X0123604Y0030457D02*
X0195516Y0030457D01*
X0195516Y0029458D02*
X0124446Y0029458D01*
X0124859Y0028460D02*
X0195516Y0028460D01*
X0195516Y0027461D02*
X0125020Y0027461D01*
X0125020Y0026463D02*
X0195516Y0026463D01*
X0195516Y0025464D02*
X0125020Y0025464D01*
X0125020Y0024466D02*
X0195516Y0024466D01*
X0195516Y0023467D02*
X0193609Y0023467D01*
X0194607Y0022469D02*
X0195516Y0022469D01*
X0195516Y0021470D02*
X0195124Y0021470D01*
X0195499Y0020472D02*
X0195516Y0020472D01*
X0195499Y0019473D02*
X0195516Y0019473D01*
X0195516Y0018475D02*
X0195408Y0018475D01*
X0195516Y0017476D02*
X0194994Y0017476D01*
X0195516Y0016478D02*
X0194294Y0016478D01*
X0195516Y0015479D02*
X0193060Y0015479D01*
X0192299Y0014481D02*
X0195516Y0014481D01*
X0195516Y0013482D02*
X0192299Y0013482D01*
X0192299Y0012484D02*
X0195516Y0012484D01*
X0195516Y0011485D02*
X0192299Y0011485D01*
X0192299Y0010487D02*
X0195516Y0010487D01*
X0195516Y0009488D02*
X0192265Y0009488D01*
X0191852Y0008490D02*
X0195516Y0008490D01*
X0195516Y0007491D02*
X0191190Y0007491D01*
X0190191Y0006493D02*
X0195516Y0006493D01*
X0183299Y0012484D02*
X0172953Y0012484D01*
X0173366Y0013482D02*
X0183299Y0013482D01*
X0183299Y0014481D02*
X0173598Y0014481D01*
X0173598Y0015479D02*
X0182538Y0015479D01*
X0181305Y0016478D02*
X0173549Y0016478D01*
X0173136Y0017476D02*
X0180604Y0017476D01*
X0180190Y0018475D02*
X0172722Y0018475D01*
X0171742Y0019473D02*
X0180099Y0019473D01*
X0180099Y0020472D02*
X0170283Y0020472D01*
X0165244Y0020472D02*
X0125020Y0020472D01*
X0125020Y0021470D02*
X0180474Y0021470D01*
X0180991Y0022469D02*
X0125020Y0022469D01*
X0125020Y0023467D02*
X0181990Y0023467D01*
X0182456Y0011485D02*
X0172298Y0011485D01*
X0163229Y0011485D02*
X0130599Y0011485D01*
X0129601Y0012484D02*
X0162575Y0012484D01*
X0162161Y0013482D02*
X0128602Y0013482D01*
X0127604Y0014481D02*
X0161930Y0014481D01*
X0161930Y0015479D02*
X0126605Y0015479D01*
X0126305Y0016478D02*
X0161978Y0016478D01*
X0162392Y0017476D02*
X0125892Y0017476D01*
X0125478Y0018475D02*
X0162805Y0018475D01*
X0163786Y0019473D02*
X0125020Y0019473D01*
X0108879Y0032454D02*
X0022830Y0032454D01*
X0021832Y0031455D02*
X0106792Y0031455D01*
X0105114Y0030457D02*
X0020833Y0030457D01*
X0019835Y0029458D02*
X0104180Y0029458D01*
X0103767Y0028460D02*
X0018836Y0028460D01*
X0017838Y0027461D02*
X0103465Y0027461D01*
X0103465Y0026463D02*
X0016839Y0026463D01*
X0016165Y0025464D02*
X0103579Y0025464D01*
X0103993Y0024466D02*
X0016165Y0024466D01*
X0016165Y0023467D02*
X0097475Y0023467D01*
X0095719Y0022469D02*
X0016165Y0022469D01*
X0016165Y0021470D02*
X0094314Y0021470D01*
X0093315Y0020472D02*
X0016165Y0020472D01*
X0016165Y0019473D02*
X0092427Y0019473D01*
X0091851Y0018475D02*
X0016165Y0018475D01*
X0016244Y0017476D02*
X0072788Y0017476D01*
X0072528Y0017392D02*
X0071785Y0017013D01*
X0071110Y0016523D01*
X0070520Y0015933D01*
X0070030Y0015258D01*
X0069651Y0014515D01*
X0069393Y0013721D01*
X0069276Y0012980D01*
X0074063Y0012980D01*
X0074063Y0011980D01*
X0075063Y0011980D01*
X0075063Y0007193D01*
X0075804Y0007311D01*
X0076597Y0007569D01*
X0077341Y0007947D01*
X0078016Y0008438D01*
X0078606Y0009028D01*
X0079096Y0009702D01*
X0079475Y0010446D01*
X0079732Y0011239D01*
X0079850Y0011980D01*
X0075063Y0011980D01*
X0075063Y0012980D01*
X0079850Y0012980D01*
X0079732Y0013721D01*
X0079475Y0014515D01*
X0079096Y0015258D01*
X0078606Y0015933D01*
X0078016Y0016523D01*
X0077341Y0017013D01*
X0076597Y0017392D01*
X0075804Y0017650D01*
X0075063Y0017767D01*
X0075063Y0012980D01*
X0074063Y0012980D01*
X0074063Y0017767D01*
X0073322Y0017650D01*
X0072528Y0017392D01*
X0074063Y0017476D02*
X0075063Y0017476D01*
X0075063Y0016478D02*
X0074063Y0016478D01*
X0074063Y0015479D02*
X0075063Y0015479D01*
X0075063Y0014481D02*
X0074063Y0014481D01*
X0074063Y0013482D02*
X0075063Y0013482D01*
X0075063Y0012484D02*
X0090241Y0012484D01*
X0090241Y0013482D02*
X0079770Y0013482D01*
X0079486Y0014481D02*
X0090345Y0014481D01*
X0090613Y0015479D02*
X0078935Y0015479D01*
X0078061Y0016478D02*
X0090880Y0016478D01*
X0091274Y0017476D02*
X0076338Y0017476D01*
X0074063Y0012484D02*
X0062299Y0012484D01*
X0063383Y0011485D02*
X0069355Y0011485D01*
X0069393Y0011239D02*
X0069651Y0010446D01*
X0070030Y0009702D01*
X0070520Y0009028D01*
X0071110Y0008438D01*
X0071785Y0007947D01*
X0072528Y0007569D01*
X0073322Y0007311D01*
X0074063Y0007193D01*
X0074063Y0011980D01*
X0069276Y0011980D01*
X0069393Y0011239D01*
X0069638Y0010487D02*
X0064015Y0010487D01*
X0064398Y0009488D02*
X0070186Y0009488D01*
X0071058Y0008490D02*
X0059748Y0008490D01*
X0059865Y0008700D02*
X0059264Y0008138D01*
X0058779Y0008490D02*
X0045472Y0008490D01*
X0045472Y0007491D02*
X0054000Y0007491D01*
X0054226Y0006493D02*
X0045244Y0006493D01*
X0045366Y0009488D02*
X0054130Y0009488D01*
X0054512Y0010487D02*
X0044953Y0010487D01*
X0044403Y0011485D02*
X0055145Y0011485D01*
X0056228Y0012484D02*
X0043405Y0012484D01*
X0041442Y0013482D02*
X0069356Y0013482D01*
X0069640Y0014481D02*
X0019058Y0014481D01*
X0018644Y0015479D02*
X0070191Y0015479D01*
X0071065Y0016478D02*
X0017714Y0016478D01*
X0013965Y0013200D02*
X0013933Y0012480D01*
X0013965Y0013200D02*
X0013965Y0026700D01*
X0028365Y0041100D01*
X0021165Y0048300D01*
X0021051Y0048319D01*
X0016952Y0048430D02*
X0007665Y0048430D01*
X0007665Y0047432D02*
X0016952Y0047432D01*
X0016952Y0046433D02*
X0007665Y0046433D01*
X0007665Y0045434D02*
X0016952Y0045434D01*
X0016952Y0044436D02*
X0007665Y0044436D01*
X0007665Y0043437D02*
X0016952Y0043437D01*
X0017728Y0042439D02*
X0007665Y0042439D01*
X0007665Y0041440D02*
X0024914Y0041440D01*
X0024596Y0040442D02*
X0007665Y0040442D01*
X0007665Y0039443D02*
X0023598Y0039443D01*
X0022599Y0038445D02*
X0007665Y0038445D01*
X0007665Y0037446D02*
X0021601Y0037446D01*
X0020602Y0036448D02*
X0007665Y0036448D01*
X0007665Y0035449D02*
X0019603Y0035449D01*
X0018605Y0034451D02*
X0007665Y0034451D01*
X0007665Y0033452D02*
X0017606Y0033452D01*
X0016608Y0032454D02*
X0007665Y0032454D01*
X0007665Y0031455D02*
X0015609Y0031455D01*
X0014611Y0030457D02*
X0007665Y0030457D01*
X0007665Y0029458D02*
X0013612Y0029458D01*
X0012614Y0028460D02*
X0007665Y0028460D01*
X0007665Y0027461D02*
X0011765Y0027461D01*
X0011765Y0026463D02*
X0007665Y0026463D01*
X0007665Y0025464D02*
X0011765Y0025464D01*
X0011765Y0024466D02*
X0007665Y0024466D01*
X0007665Y0023467D02*
X0011765Y0023467D01*
X0011765Y0022469D02*
X0007665Y0022469D01*
X0007665Y0021470D02*
X0011765Y0021470D01*
X0011765Y0020472D02*
X0007665Y0020472D01*
X0007665Y0019473D02*
X0011765Y0019473D01*
X0011765Y0018475D02*
X0007665Y0018475D01*
X0007665Y0017476D02*
X0011622Y0017476D01*
X0010152Y0016478D02*
X0007665Y0016478D01*
X0007665Y0015479D02*
X0009222Y0015479D01*
X0008808Y0014481D02*
X0007665Y0014481D01*
X0007665Y0013482D02*
X0008433Y0013482D01*
X0008433Y0012484D02*
X0007665Y0012484D01*
X0007665Y0011485D02*
X0008433Y0011485D01*
X0008806Y0010487D02*
X0007665Y0010487D01*
X0007665Y0009488D02*
X0009219Y0009488D01*
X0010146Y0008490D02*
X0007665Y0008490D01*
X0007665Y0007491D02*
X0011606Y0007491D01*
X0015016Y0006493D02*
X0007665Y0006493D01*
X0021757Y0013482D02*
X0038503Y0013482D01*
X0036540Y0012484D02*
X0023720Y0012484D01*
X0024718Y0011485D02*
X0035542Y0011485D01*
X0034992Y0010487D02*
X0025268Y0010487D01*
X0025681Y0009488D02*
X0034579Y0009488D01*
X0034472Y0008490D02*
X0025787Y0008490D01*
X0025787Y0007491D02*
X0034472Y0007491D01*
X0034701Y0006493D02*
X0025559Y0006493D01*
X0023829Y0033452D02*
X0107881Y0033452D01*
X0090241Y0011485D02*
X0079771Y0011485D01*
X0079488Y0010487D02*
X0090381Y0010487D01*
X0090649Y0009488D02*
X0078940Y0009488D01*
X0078068Y0008490D02*
X0090916Y0008490D01*
X0091352Y0007491D02*
X0076359Y0007491D01*
X0075063Y0007491D02*
X0074063Y0007491D01*
X0074063Y0008490D02*
X0075063Y0008490D01*
X0075063Y0009488D02*
X0074063Y0009488D01*
X0074063Y0010487D02*
X0075063Y0010487D01*
X0075063Y0011485D02*
X0074063Y0011485D01*
X0072767Y0007491D02*
X0064527Y0007491D01*
X0064302Y0006493D02*
X0091929Y0006493D01*
X0081548Y0034451D02*
X0024827Y0034451D01*
X0025826Y0035449D02*
X0080096Y0035449D01*
X0079098Y0036448D02*
X0026825Y0036448D01*
X0027823Y0037446D02*
X0051645Y0037446D01*
X0051611Y0038445D02*
X0028822Y0038445D01*
X0028365Y0041100D02*
X0055365Y0041100D01*
X0056264Y0040744D01*
X0060917Y0040442D02*
X0076146Y0040442D01*
X0076146Y0041440D02*
X0060917Y0041440D01*
X0060917Y0042439D02*
X0076146Y0042439D01*
X0076146Y0043437D02*
X0060917Y0043437D01*
X0060765Y0043800D02*
X0060765Y0009600D01*
X0059865Y0008700D01*
X0059748Y0009488D02*
X0058780Y0009488D01*
X0058780Y0010487D02*
X0059748Y0010487D01*
X0059748Y0011485D02*
X0058780Y0011485D01*
X0058780Y0012484D02*
X0059748Y0012484D01*
X0060882Y0037446D02*
X0078099Y0037446D01*
X0077101Y0038445D02*
X0060917Y0038445D01*
X0060917Y0039443D02*
X0076529Y0039443D01*
X0076146Y0044436D02*
X0060488Y0044436D01*
X0059865Y0044700D02*
X0060765Y0043800D01*
X0059865Y0044700D02*
X0058965Y0044700D01*
X0056265Y0047400D01*
X0056264Y0048224D01*
X0055365Y0048300D01*
X0040065Y0048300D01*
X0039248Y0048319D01*
X0038748Y0048430D02*
X0034249Y0048430D01*
X0034249Y0047432D02*
X0035348Y0047432D01*
X0035348Y0046433D02*
X0034249Y0046433D01*
X0034249Y0045434D02*
X0035348Y0045434D01*
X0035348Y0044436D02*
X0034249Y0044436D01*
X0034249Y0043437D02*
X0035425Y0043437D01*
X0030150Y0048319D02*
X0030165Y0049200D01*
X0030165Y0072600D01*
X0030150Y0072720D01*
X0030165Y0072600D02*
X0055365Y0072600D01*
X0056224Y0071705D01*
X0056265Y0072600D01*
X0068865Y0072600D01*
X0066423Y0075390D02*
X0060455Y0075390D01*
X0060877Y0070397D02*
X0065835Y0070397D01*
X0066925Y0069399D02*
X0060877Y0069399D01*
X0060836Y0068400D02*
X0076146Y0068400D01*
X0076146Y0067402D02*
X0060552Y0067402D01*
X0060677Y0066403D02*
X0076146Y0066403D01*
X0076146Y0065405D02*
X0060677Y0065405D01*
X0060677Y0063408D02*
X0076146Y0063408D01*
X0076146Y0064406D02*
X0056724Y0064406D01*
X0056224Y0064224D02*
X0056265Y0063600D01*
X0056265Y0048300D01*
X0056264Y0048224D01*
X0056764Y0048430D02*
X0076146Y0048430D01*
X0076146Y0047432D02*
X0060717Y0047432D01*
X0060717Y0046433D02*
X0076146Y0046433D01*
X0076146Y0045434D02*
X0060708Y0045434D01*
X0056764Y0045434D02*
X0055764Y0045434D01*
X0055764Y0046433D02*
X0056764Y0046433D01*
X0056764Y0047432D02*
X0055764Y0047432D01*
X0055764Y0048430D02*
X0039748Y0048430D01*
X0039748Y0049429D02*
X0038748Y0049429D01*
X0038748Y0050427D02*
X0039748Y0050427D01*
X0039748Y0051426D02*
X0038748Y0051426D01*
X0038748Y0052424D02*
X0039748Y0052424D01*
X0039748Y0053423D02*
X0038748Y0053423D01*
X0035523Y0053423D02*
X0034249Y0053423D01*
X0034249Y0052424D02*
X0035348Y0052424D01*
X0035348Y0051426D02*
X0034249Y0051426D01*
X0034249Y0050427D02*
X0035348Y0050427D01*
X0035348Y0049429D02*
X0034249Y0049429D01*
X0032365Y0054421D02*
X0076146Y0054421D01*
X0076146Y0053423D02*
X0042973Y0053423D01*
X0043148Y0052424D02*
X0076146Y0052424D01*
X0076146Y0051426D02*
X0060578Y0051426D01*
X0060717Y0050427D02*
X0076146Y0050427D01*
X0076146Y0049429D02*
X0060717Y0049429D01*
X0056764Y0049429D02*
X0055764Y0049429D01*
X0055764Y0050427D02*
X0056764Y0050427D01*
X0056764Y0051426D02*
X0055764Y0051426D01*
X0051950Y0051426D02*
X0043148Y0051426D01*
X0043148Y0050427D02*
X0051811Y0050427D01*
X0051811Y0049429D02*
X0043148Y0049429D01*
X0043148Y0047432D02*
X0051811Y0047432D01*
X0051811Y0046433D02*
X0043148Y0046433D01*
X0043148Y0045434D02*
X0051820Y0045434D01*
X0052040Y0044436D02*
X0043148Y0044436D01*
X0043071Y0043437D02*
X0051611Y0043437D01*
X0052442Y0060412D02*
X0032365Y0060412D01*
X0032365Y0059414D02*
X0076146Y0059414D01*
X0076146Y0060412D02*
X0060007Y0060412D01*
X0060662Y0061411D02*
X0076146Y0061411D01*
X0076146Y0062409D02*
X0060677Y0062409D01*
X0056724Y0062409D02*
X0055724Y0062409D01*
X0055724Y0061411D02*
X0056724Y0061411D01*
X0056724Y0060412D02*
X0055724Y0060412D01*
X0055724Y0063408D02*
X0056724Y0063408D01*
X0055724Y0064406D02*
X0032365Y0064406D01*
X0032365Y0063408D02*
X0051772Y0063408D01*
X0051772Y0062409D02*
X0032365Y0062409D01*
X0032365Y0061411D02*
X0051787Y0061411D01*
X0051772Y0065405D02*
X0032365Y0065405D01*
X0032365Y0066403D02*
X0051772Y0066403D01*
X0051897Y0067402D02*
X0038652Y0067402D01*
X0038936Y0068400D02*
X0051613Y0068400D01*
X0051572Y0069399D02*
X0038936Y0069399D01*
X0038936Y0070397D02*
X0051572Y0070397D01*
X0051994Y0075390D02*
X0038936Y0075390D01*
X0038936Y0076388D02*
X0076146Y0076388D01*
X0076146Y0075390D02*
X0071308Y0075390D01*
X0072128Y0074391D02*
X0076146Y0074391D01*
X0076146Y0073393D02*
X0072542Y0073393D01*
X0072565Y0072394D02*
X0076146Y0072394D01*
X0076146Y0071396D02*
X0072371Y0071396D01*
X0071895Y0070397D02*
X0076146Y0070397D01*
X0076146Y0069399D02*
X0070805Y0069399D01*
X0076146Y0077387D02*
X0038936Y0077387D01*
X0038306Y0078385D02*
X0076146Y0078385D01*
X0076146Y0079384D02*
X0007665Y0079384D01*
X0007665Y0080382D02*
X0076146Y0080382D01*
X0076146Y0081381D02*
X0007665Y0081381D01*
X0007665Y0082379D02*
X0076146Y0082379D01*
X0076146Y0083378D02*
X0007665Y0083378D01*
X0007665Y0084376D02*
X0076146Y0084376D01*
X0076146Y0085375D02*
X0007665Y0085375D01*
X0007665Y0086373D02*
X0076146Y0086373D01*
X0076146Y0087372D02*
X0007665Y0087372D01*
X0007665Y0088370D02*
X0076146Y0088370D01*
X0076146Y0089369D02*
X0007665Y0089369D01*
X0007665Y0090368D02*
X0076146Y0090368D01*
X0076146Y0091366D02*
X0007665Y0091366D01*
X0007665Y0092365D02*
X0076146Y0092365D01*
X0076146Y0093363D02*
X0007665Y0093363D01*
X0007665Y0094362D02*
X0076146Y0094362D01*
X0076146Y0095360D02*
X0007665Y0095360D01*
X0007665Y0096359D02*
X0076146Y0096359D01*
X0076146Y0097357D02*
X0007665Y0097357D01*
X0007665Y0098356D02*
X0076146Y0098356D01*
X0076146Y0099354D02*
X0007665Y0099354D01*
X0007665Y0100353D02*
X0076146Y0100353D01*
X0076146Y0101351D02*
X0007665Y0101351D01*
X0007665Y0102350D02*
X0076146Y0102350D01*
X0076146Y0103348D02*
X0007665Y0103348D01*
X0007665Y0104347D02*
X0076146Y0104347D01*
X0076146Y0105345D02*
X0007665Y0105345D01*
X0007665Y0106344D02*
X0076146Y0106344D01*
X0076146Y0107342D02*
X0007665Y0107342D01*
X0007665Y0078385D02*
X0021993Y0078385D01*
X0021363Y0077387D02*
X0007665Y0077387D01*
X0007665Y0076388D02*
X0021363Y0076388D01*
X0021363Y0075390D02*
X0007665Y0075390D01*
X0007665Y0074391D02*
X0021363Y0074391D01*
X0021363Y0073393D02*
X0007665Y0073393D01*
X0007665Y0072394D02*
X0021363Y0072394D01*
X0021363Y0071396D02*
X0007665Y0071396D01*
X0007665Y0070397D02*
X0021363Y0070397D01*
X0021363Y0069399D02*
X0007665Y0069399D01*
X0007665Y0068400D02*
X0021363Y0068400D01*
X0021647Y0067402D02*
X0007665Y0067402D01*
X0007665Y0066403D02*
X0027965Y0066403D01*
X0027965Y0065405D02*
X0007665Y0065405D01*
X0007665Y0064406D02*
X0027965Y0064406D01*
X0027965Y0063408D02*
X0007665Y0063408D01*
X0007665Y0062409D02*
X0027965Y0062409D01*
X0027965Y0061411D02*
X0007665Y0061411D01*
X0007665Y0060412D02*
X0027965Y0060412D01*
X0027965Y0059414D02*
X0007665Y0059414D01*
X0007665Y0058415D02*
X0027965Y0058415D01*
X0027965Y0057417D02*
X0007665Y0057417D01*
X0007665Y0056418D02*
X0027965Y0056418D01*
X0027965Y0055420D02*
X0007665Y0055420D01*
X0007665Y0054421D02*
X0027965Y0054421D01*
X0026050Y0053423D02*
X0025151Y0053423D01*
X0025151Y0052424D02*
X0026050Y0052424D01*
X0026050Y0051426D02*
X0025151Y0051426D01*
X0025151Y0050427D02*
X0026050Y0050427D01*
X0026050Y0049429D02*
X0025151Y0049429D01*
X0025151Y0048430D02*
X0026050Y0048430D01*
X0026050Y0047432D02*
X0025151Y0047432D01*
X0016952Y0049429D02*
X0007665Y0049429D01*
X0007665Y0050427D02*
X0016952Y0050427D01*
X0016952Y0051426D02*
X0007665Y0051426D01*
X0007665Y0052424D02*
X0016952Y0052424D01*
X0016952Y0053423D02*
X0007665Y0053423D01*
X0032365Y0055420D02*
X0076146Y0055420D01*
X0076146Y0056418D02*
X0032365Y0056418D01*
X0032365Y0057417D02*
X0076146Y0057417D01*
X0076146Y0058415D02*
X0032365Y0058415D01*
X0098965Y0099354D02*
X0126708Y0099354D01*
X0127707Y0100353D02*
X0104070Y0100353D01*
X0105068Y0101351D02*
X0127865Y0101351D01*
X0137265Y0100500D02*
X0126465Y0089700D01*
X0118290Y0098356D02*
X0103819Y0098356D01*
X0103154Y0099020D02*
X0101528Y0099020D01*
X0101528Y0094670D01*
X0105878Y0094670D01*
X0105878Y0096296D01*
X0103154Y0099020D01*
X0101528Y0098356D02*
X0100928Y0098356D01*
X0100928Y0097357D02*
X0101528Y0097357D01*
X0101528Y0096359D02*
X0100928Y0096359D01*
X0100928Y0095360D02*
X0101528Y0095360D01*
X0104817Y0097357D02*
X0116581Y0097357D01*
X0115749Y0096359D02*
X0105816Y0096359D01*
X0105878Y0095360D02*
X0115336Y0095360D01*
X0105055Y0070397D02*
X0104765Y0070397D01*
X0146275Y0105345D02*
X0147495Y0105345D01*
X0142803Y0109789D02*
X0142665Y0110400D01*
X0142665Y0126600D01*
X0144865Y0123318D02*
X0145536Y0123318D01*
X0144865Y0122320D02*
X0146534Y0122320D01*
X0144865Y0121321D02*
X0149426Y0121321D01*
X0149426Y0120323D02*
X0144865Y0120323D01*
X0144865Y0119324D02*
X0149426Y0119324D01*
X0150380Y0118326D02*
X0144865Y0118326D01*
X0144865Y0117327D02*
X0158465Y0117327D01*
X0158465Y0116329D02*
X0144865Y0116329D01*
X0144865Y0115330D02*
X0158465Y0115330D01*
X0158465Y0114332D02*
X0146177Y0114332D01*
X0154343Y0107342D02*
X0158465Y0107342D01*
X0157998Y0106344D02*
X0154263Y0106344D01*
X0156990Y0118326D02*
X0157861Y0118326D01*
X0153685Y0123134D02*
X0153465Y0123900D01*
X0148065Y0123900D01*
X0141765Y0130200D01*
X0100365Y0130200D01*
X0096765Y0126600D01*
X0094065Y0126600D01*
X0093598Y0125925D01*
X0088790Y0128311D02*
X0085277Y0128311D01*
X0084279Y0129309D02*
X0088263Y0129309D01*
X0087930Y0130308D02*
X0083280Y0130308D01*
X0082282Y0131306D02*
X0087930Y0131306D01*
X0088231Y0132305D02*
X0081283Y0132305D01*
X0080285Y0133303D02*
X0088861Y0133303D01*
X0088450Y0134302D02*
X0079286Y0134302D01*
X0078288Y0135301D02*
X0088155Y0135301D01*
X0088167Y0136299D02*
X0077289Y0136299D01*
X0076291Y0137298D02*
X0088477Y0137298D01*
X0089215Y0138296D02*
X0075292Y0138296D01*
X0074294Y0139295D02*
X0119165Y0139295D01*
X0119235Y0138296D02*
X0097982Y0138296D01*
X0098720Y0137298D02*
X0119649Y0137298D01*
X0120534Y0136299D02*
X0099030Y0136299D01*
X0099067Y0135768D02*
X0093599Y0135768D01*
X0093599Y0135768D01*
X0099067Y0135768D01*
X0099042Y0135301D02*
X0126961Y0135301D01*
X0126674Y0136299D02*
X0125197Y0136299D01*
X0122865Y0139200D02*
X0130065Y0139200D01*
X0130933Y0139441D01*
X0138413Y0139441D02*
X0139065Y0139200D01*
X0141765Y0139200D01*
X0152565Y0128400D01*
X0164265Y0128400D01*
X0165320Y0134302D02*
X0170552Y0134302D01*
X0169554Y0135301D02*
X0165818Y0135301D01*
X0165818Y0136299D02*
X0168555Y0136299D01*
X0167557Y0137298D02*
X0165818Y0137298D01*
X0165818Y0138296D02*
X0166558Y0138296D01*
X0161559Y0138654D02*
X0160665Y0139200D01*
X0160665Y0141000D01*
X0153358Y0148307D01*
X0152256Y0148307D01*
X0148556Y0148281D02*
X0145058Y0148281D01*
X0144902Y0147904D02*
X0145465Y0149264D01*
X0145465Y0150736D01*
X0144902Y0152096D01*
X0143861Y0153137D01*
X0142731Y0153605D01*
X0142731Y0159751D01*
X0142083Y0160400D01*
X0150153Y0160400D01*
X0149568Y0159814D01*
X0149568Y0158230D01*
X0149261Y0158537D01*
X0147901Y0159100D01*
X0146429Y0159100D01*
X0145069Y0158537D01*
X0144029Y0157496D01*
X0143465Y0156136D01*
X0143465Y0154664D01*
X0144029Y0153304D01*
X0145069Y0152263D01*
X0146429Y0151700D01*
X0147901Y0151700D01*
X0149261Y0152263D01*
X0149568Y0152570D01*
X0149568Y0152107D01*
X0150210Y0151465D01*
X0150160Y0151444D01*
X0149119Y0150403D01*
X0148556Y0149043D01*
X0148556Y0147571D01*
X0149119Y0146211D01*
X0150160Y0145170D01*
X0151520Y0144607D01*
X0152992Y0144607D01*
X0153667Y0144887D01*
X0155251Y0143303D01*
X0154579Y0143303D01*
X0154579Y0139154D01*
X0153579Y0139154D01*
X0153579Y0143303D01*
X0151322Y0143303D01*
X0150941Y0143201D01*
X0150599Y0143003D01*
X0150319Y0142724D01*
X0150122Y0142382D01*
X0150020Y0142001D01*
X0150020Y0141495D01*
X0148801Y0142000D01*
X0147477Y0142000D01*
X0142979Y0146498D01*
X0143861Y0146863D01*
X0144902Y0147904D01*
X0144281Y0147283D02*
X0148675Y0147283D01*
X0149089Y0146284D02*
X0143192Y0146284D01*
X0144191Y0145286D02*
X0150045Y0145286D01*
X0151268Y0143289D02*
X0146188Y0143289D01*
X0145189Y0144287D02*
X0154267Y0144287D01*
X0154579Y0143289D02*
X0153579Y0143289D01*
X0153579Y0142290D02*
X0154579Y0142290D01*
X0154579Y0141292D02*
X0153579Y0141292D01*
X0153579Y0140293D02*
X0154579Y0140293D01*
X0154579Y0139295D02*
X0153579Y0139295D01*
X0153579Y0137298D02*
X0154579Y0137298D01*
X0154579Y0136299D02*
X0153579Y0136299D01*
X0153579Y0135301D02*
X0154579Y0135301D01*
X0154579Y0134302D02*
X0153579Y0134302D01*
X0157556Y0134302D02*
X0157798Y0134302D01*
X0149543Y0128311D02*
X0146766Y0128311D01*
X0147764Y0127312D02*
X0149751Y0127312D01*
X0149426Y0126314D02*
X0148763Y0126314D01*
X0148545Y0129309D02*
X0145767Y0129309D01*
X0144769Y0130308D02*
X0147546Y0130308D01*
X0146548Y0131306D02*
X0143770Y0131306D01*
X0142772Y0132305D02*
X0145549Y0132305D01*
X0144551Y0133303D02*
X0098336Y0133303D01*
X0098747Y0134302D02*
X0143552Y0134302D01*
X0142554Y0135301D02*
X0142386Y0135301D01*
X0147187Y0142290D02*
X0150097Y0142290D01*
X0148654Y0149280D02*
X0145465Y0149280D01*
X0145465Y0150278D02*
X0149068Y0150278D01*
X0149993Y0151277D02*
X0145241Y0151277D01*
X0145058Y0152275D02*
X0144723Y0152275D01*
X0144059Y0153274D02*
X0143530Y0153274D01*
X0143628Y0154272D02*
X0142731Y0154272D01*
X0142731Y0155271D02*
X0143465Y0155271D01*
X0143521Y0156269D02*
X0142731Y0156269D01*
X0142731Y0157268D02*
X0143934Y0157268D01*
X0144799Y0158266D02*
X0142731Y0158266D01*
X0142731Y0159265D02*
X0149568Y0159265D01*
X0149532Y0158266D02*
X0149568Y0158266D01*
X0150017Y0160263D02*
X0142220Y0160263D01*
X0138472Y0155898D02*
X0139065Y0155400D01*
X0139065Y0152700D01*
X0141765Y0150000D01*
X0139250Y0147283D02*
X0100794Y0147283D01*
X0101277Y0146800D02*
X0139822Y0146800D01*
X0139669Y0146863D01*
X0138629Y0147904D01*
X0138065Y0149264D01*
X0138065Y0150589D01*
X0137606Y0151048D01*
X0135209Y0151048D01*
X0134732Y0151525D01*
X0134255Y0151048D01*
X0127729Y0151048D01*
X0126733Y0152044D01*
X0126733Y0154100D01*
X0101254Y0154100D01*
X0098787Y0156567D01*
X0098714Y0156389D01*
X0098332Y0155818D01*
X0097847Y0155333D01*
X0097276Y0154952D01*
X0096642Y0154689D01*
X0095969Y0154555D01*
X0093642Y0154555D01*
X0093642Y0158039D01*
X0093642Y0158039D01*
X0093642Y0154555D01*
X0093521Y0154555D01*
X0101277Y0146800D01*
X0099795Y0148281D02*
X0138472Y0148281D01*
X0138065Y0149280D02*
X0098797Y0149280D01*
X0097798Y0150278D02*
X0138065Y0150278D01*
X0134981Y0151277D02*
X0134484Y0151277D01*
X0130992Y0155898D02*
X0130965Y0156300D01*
X0102165Y0156300D01*
X0101082Y0154272D02*
X0093804Y0154272D01*
X0093642Y0155271D02*
X0093642Y0155271D01*
X0093642Y0156269D02*
X0093642Y0156269D01*
X0093642Y0157268D02*
X0093642Y0157268D01*
X0094803Y0153274D02*
X0126733Y0153274D01*
X0126733Y0152275D02*
X0095801Y0152275D01*
X0096800Y0151277D02*
X0127500Y0151277D01*
X0120723Y0142290D02*
X0071298Y0142290D01*
X0072297Y0141292D02*
X0119727Y0141292D01*
X0119313Y0140293D02*
X0073295Y0140293D01*
X0086276Y0127312D02*
X0088201Y0127312D01*
X0087930Y0126314D02*
X0087274Y0126314D01*
X0093598Y0136299D02*
X0093598Y0136299D01*
X0093598Y0137298D02*
X0093598Y0137298D01*
X0093598Y0138296D02*
X0093598Y0138296D01*
X0098966Y0132305D02*
X0099359Y0132305D01*
X0100365Y0144600D02*
X0087765Y0157200D01*
X0087765Y0164400D01*
X0090465Y0167100D01*
X0096765Y0167100D01*
X0099465Y0164400D01*
X0179565Y0164400D01*
X0185865Y0170700D01*
X0175632Y0148639D02*
X0166020Y0148639D01*
X0175632Y0148639D02*
X0192335Y0131937D01*
X0153827Y0155961D02*
X0153465Y0155400D01*
X0147165Y0155400D01*
X0149273Y0152275D02*
X0149568Y0152275D01*
X0105765Y0169800D02*
X0105765Y0188700D01*
X0103565Y0177238D02*
X0103558Y0177238D01*
X0103565Y0176239D02*
X0103144Y0176239D01*
X0103565Y0175241D02*
X0102378Y0175241D01*
X0101380Y0174242D02*
X0103565Y0174242D01*
X0103565Y0173244D02*
X0099372Y0173244D01*
X0095228Y0173244D02*
X0049935Y0173244D01*
X0049289Y0172245D02*
X0048936Y0172245D01*
X0050933Y0174242D02*
X0093220Y0174242D01*
X0092222Y0175241D02*
X0051932Y0175241D01*
X0052930Y0176239D02*
X0091456Y0176239D01*
X0091042Y0177238D02*
X0053929Y0177238D01*
X0054927Y0178237D02*
X0090628Y0178237D01*
X0090600Y0179235D02*
X0055926Y0179235D01*
X0052347Y0172245D02*
X0102978Y0172245D01*
X0102360Y0171247D02*
X0054308Y0171247D01*
X0055307Y0170248D02*
X0102065Y0170248D01*
X0102065Y0169250D02*
X0097727Y0169250D01*
X0098725Y0168251D02*
X0102402Y0168251D01*
X0103080Y0167253D02*
X0099724Y0167253D01*
X0099085Y0156269D02*
X0098634Y0156269D01*
X0097754Y0155271D02*
X0100083Y0155271D01*
X0088265Y0168011D02*
X0088265Y0168011D01*
X0182696Y0077387D02*
X0188086Y0077387D01*
X0187531Y0076388D02*
X0183500Y0076388D01*
X0183913Y0075390D02*
X0187284Y0075390D01*
X0187284Y0074391D02*
X0184017Y0074391D01*
X0184017Y0073393D02*
X0187671Y0073393D01*
X0188423Y0072394D02*
X0184017Y0072394D01*
X0184017Y0071396D02*
X0190185Y0071396D01*
X0195516Y0070397D02*
X0184017Y0070397D01*
X0184017Y0069399D02*
X0195516Y0069399D01*
X0195516Y0068400D02*
X0184017Y0068400D01*
X0183674Y0067402D02*
X0195516Y0067402D01*
X0195516Y0066403D02*
X0183116Y0066403D01*
X0182068Y0065405D02*
X0195516Y0065405D01*
X0195516Y0064406D02*
X0173592Y0064406D01*
X0173598Y0063408D02*
X0195516Y0063408D01*
X0195516Y0062409D02*
X0173598Y0062409D01*
X0173324Y0061411D02*
X0195516Y0061411D01*
X0195516Y0060412D02*
X0172910Y0060412D01*
X0172195Y0059414D02*
X0195516Y0059414D01*
X0195516Y0058415D02*
X0171197Y0058415D01*
X0164331Y0058415D02*
X0163197Y0058415D01*
X0163332Y0059414D02*
X0162198Y0059414D01*
X0162617Y0060412D02*
X0161200Y0060412D01*
X0160201Y0061411D02*
X0162204Y0061411D01*
X0161930Y0062409D02*
X0159203Y0062409D01*
X0158204Y0063408D02*
X0161930Y0063408D01*
X0161936Y0064406D02*
X0157206Y0064406D01*
X0156207Y0065405D02*
X0162349Y0065405D01*
X0162763Y0066403D02*
X0155209Y0066403D01*
X0154210Y0067402D02*
X0163683Y0067402D01*
X0164996Y0068400D02*
X0153212Y0068400D01*
X0152213Y0069399D02*
X0175417Y0069399D01*
X0175417Y0068400D02*
X0170532Y0068400D01*
X0171845Y0067402D02*
X0175759Y0067402D01*
X0176317Y0066403D02*
X0172765Y0066403D01*
X0173178Y0065405D02*
X0177365Y0065405D01*
X0179565Y0071700D02*
X0179717Y0071685D01*
X0179565Y0071700D02*
X0151665Y0071700D01*
X0180946Y0048430D02*
X0186209Y0048430D01*
X0186623Y0047432D02*
X0182651Y0047432D01*
X0183481Y0046433D02*
X0187349Y0046433D01*
X0188646Y0045434D02*
X0183895Y0045434D01*
X0194373Y0055420D02*
X0195516Y0055420D01*
X0195516Y0056418D02*
X0193375Y0056418D01*
X0192299Y0057417D02*
X0195516Y0057417D01*
X0195516Y0054421D02*
X0195372Y0054421D01*
D28*
X0150765Y0053700D03*
X0145365Y0053700D03*
X0135465Y0048300D03*
X0119265Y0078000D03*
X0068865Y0072600D03*
X0122865Y0139200D03*
X0141765Y0150000D03*
X0147165Y0155400D03*
X0152256Y0148307D03*
X0148065Y0138300D03*
X0166020Y0148639D03*
X0166965Y0159000D03*
X0185865Y0170700D03*
X0105765Y0169800D03*
X0103065Y0160800D03*
X0105765Y0188700D03*
D29*
X0097300Y0184638D02*
X0054965Y0184638D01*
X0042890Y0172563D01*
X0042890Y0155909D01*
X0054091Y0144709D01*
X0054091Y0128228D01*
X0066732Y0128228D01*
X0080524Y0114437D01*
X0080646Y0114315D01*
X0080646Y0041264D01*
X0083323Y0038587D01*
X0109110Y0038587D01*
X0120520Y0027177D01*
X0120520Y0015201D01*
X0129496Y0006224D01*
X0183559Y0006224D01*
X0187799Y0010465D01*
X0187799Y0019630D01*
X0193799Y0049630D02*
X0189882Y0053547D01*
X0161701Y0053547D01*
X0144142Y0071106D01*
X0144142Y0065311D01*
X0125213Y0046382D01*
X0089543Y0046382D01*
X0088638Y0047287D01*
X0088638Y0118587D01*
X0066591Y0140634D01*
X0066591Y0143776D01*
X0066748Y0143933D01*
X0066748Y0161697D01*
X0036591Y0149776D02*
X0031118Y0155248D01*
X0031118Y0162917D01*
X0028291Y0149776D02*
X0036591Y0149776D01*
X0028291Y0149776D02*
X0028205Y0149689D01*
X0011418Y0145934D02*
X0011418Y0162917D01*
X0011418Y0145934D02*
X0010606Y0145122D01*
X0006709Y0145122D01*
X0006591Y0145240D01*
X0006591Y0182528D01*
X0008700Y0184638D01*
X0034406Y0128228D02*
X0048197Y0114437D01*
X0060839Y0114437D01*
D30*
X0034406Y0128228D02*
X0028205Y0134429D01*
X0028205Y0149689D01*
X0050818Y0162917D02*
X0065528Y0162917D01*
X0066748Y0161697D01*
D31*
X0036866Y0187445D03*
X0175331Y0090594D03*
X0101941Y0012551D03*
D32*
X0028156Y0147187D03*
X0008348Y0147457D03*
X0066031Y0162413D03*
M02*
