%
M48
M72
T01C0.01969
T02C0.02400
T03C0.03200
T04C0.03937
T05C0.04000
T06C0.04331
T07C0.04400
T08C0.05118
T09C0.05200
T10C0.12205
%
T01
X93598Y125925
X93598Y130846
X93598Y135768
X93642Y158039
X93642Y162961
X192953Y99665
X192953Y94744
X192953Y89823
X192953Y84902
X192953Y79980
X192953Y75059
T02
X150765Y53700
X145365Y53700
X135465Y48300
X119265Y78000
X68865Y72600
X122865Y139200
X141765Y150000
X147165Y155400
X152256Y148307
X148065Y138300
X166020Y148639
X166965Y159000
X185865Y170700
X105765Y169800
X103065Y160800
X105765Y188700
T03
X101228Y104370
X101228Y94370
X101335Y83543
X101335Y73543
X124713Y84208
X124713Y94208
X154713Y94208
X154713Y84208
X179717Y71685
X179717Y41685
T04
X80524Y114437
X60839Y114437
X28156Y147187
X8348Y147457
X66031Y162413
X59264Y8138
X39972Y8138
X20287Y8138
T05
X66591Y143776
X36591Y149776
X187799Y19630
X193799Y49630
X192335Y111937
X192335Y121937
X192335Y131937
X192335Y141937
X192335Y151937
X192335Y161937
T06
X13933Y12480
X74563Y12480
X54091Y128228
X34406Y128228
T07
X108465Y66736
X108465Y26736
T08
X120520Y15201
X167764Y15201
X167764Y63232
X144142Y71106
X120520Y63232
T09
X50818Y162917
X31118Y162917
X11418Y162917
X8700Y184638
X97300Y184638
T10
X36866Y187445
X175331Y90594
X101941Y12551
M30
