G75*
%MOIN*%
%OFA0B0*%
%FSLAX25Y25*%
%IPPOS*%
%LPD*%
%AMOC8*
5,1,8,0,0,1.08239X$1,22.5*
%
%ADD10C,0.00600*%
%ADD11C,0.00500*%
%ADD12C,0.00800*%
%ADD13C,0.00200*%
%ADD14R,0.03445X0.01969*%
%ADD15R,0.02500X0.04500*%
%ADD16R,0.02500X0.16000*%
%ADD17R,0.40000X0.02000*%
%ADD18R,0.15500X0.00500*%
%ADD19R,0.19000X0.02000*%
%ADD20C,0.00400*%
%ADD21R,0.08000X0.02000*%
%ADD22R,0.02000X0.02500*%
%ADD23R,0.10000X0.02000*%
%ADD24R,0.03000X0.07500*%
%ADD25C,0.02400*%
D10*
X0091335Y0078543D02*
X0091338Y0078788D01*
X0091347Y0079034D01*
X0091362Y0079279D01*
X0091383Y0079523D01*
X0091410Y0079767D01*
X0091443Y0080010D01*
X0091482Y0080253D01*
X0091527Y0080494D01*
X0091578Y0080734D01*
X0091635Y0080973D01*
X0091697Y0081210D01*
X0091766Y0081446D01*
X0091840Y0081680D01*
X0091920Y0081912D01*
X0092005Y0082142D01*
X0092096Y0082370D01*
X0092193Y0082595D01*
X0092295Y0082819D01*
X0092403Y0083039D01*
X0092516Y0083257D01*
X0092634Y0083472D01*
X0092758Y0083684D01*
X0092886Y0083893D01*
X0093020Y0084099D01*
X0093159Y0084301D01*
X0093303Y0084500D01*
X0093452Y0084695D01*
X0093605Y0084887D01*
X0093763Y0085075D01*
X0093925Y0085259D01*
X0094093Y0085438D01*
X0094264Y0085614D01*
X0094440Y0085785D01*
X0094619Y0085953D01*
X0094803Y0086115D01*
X0094991Y0086273D01*
X0095183Y0086426D01*
X0095378Y0086575D01*
X0095577Y0086719D01*
X0095779Y0086858D01*
X0095985Y0086992D01*
X0096194Y0087120D01*
X0096406Y0087244D01*
X0096621Y0087362D01*
X0096839Y0087475D01*
X0097059Y0087583D01*
X0097283Y0087685D01*
X0097508Y0087782D01*
X0097736Y0087873D01*
X0097966Y0087958D01*
X0098198Y0088038D01*
X0098432Y0088112D01*
X0098668Y0088181D01*
X0098905Y0088243D01*
X0099144Y0088300D01*
X0099384Y0088351D01*
X0099625Y0088396D01*
X0099868Y0088435D01*
X0100111Y0088468D01*
X0100355Y0088495D01*
X0100599Y0088516D01*
X0100844Y0088531D01*
X0101090Y0088540D01*
X0101335Y0088543D01*
X0101580Y0088540D01*
X0101826Y0088531D01*
X0102071Y0088516D01*
X0102315Y0088495D01*
X0102559Y0088468D01*
X0102802Y0088435D01*
X0103045Y0088396D01*
X0103286Y0088351D01*
X0103526Y0088300D01*
X0103765Y0088243D01*
X0104002Y0088181D01*
X0104238Y0088112D01*
X0104472Y0088038D01*
X0104704Y0087958D01*
X0104934Y0087873D01*
X0105162Y0087782D01*
X0105387Y0087685D01*
X0105611Y0087583D01*
X0105831Y0087475D01*
X0106049Y0087362D01*
X0106264Y0087244D01*
X0106476Y0087120D01*
X0106685Y0086992D01*
X0106891Y0086858D01*
X0107093Y0086719D01*
X0107292Y0086575D01*
X0107487Y0086426D01*
X0107679Y0086273D01*
X0107867Y0086115D01*
X0108051Y0085953D01*
X0108230Y0085785D01*
X0108406Y0085614D01*
X0108577Y0085438D01*
X0108745Y0085259D01*
X0108907Y0085075D01*
X0109065Y0084887D01*
X0109218Y0084695D01*
X0109367Y0084500D01*
X0109511Y0084301D01*
X0109650Y0084099D01*
X0109784Y0083893D01*
X0109912Y0083684D01*
X0110036Y0083472D01*
X0110154Y0083257D01*
X0110267Y0083039D01*
X0110375Y0082819D01*
X0110477Y0082595D01*
X0110574Y0082370D01*
X0110665Y0082142D01*
X0110750Y0081912D01*
X0110830Y0081680D01*
X0110904Y0081446D01*
X0110973Y0081210D01*
X0111035Y0080973D01*
X0111092Y0080734D01*
X0111143Y0080494D01*
X0111188Y0080253D01*
X0111227Y0080010D01*
X0111260Y0079767D01*
X0111287Y0079523D01*
X0111308Y0079279D01*
X0111323Y0079034D01*
X0111332Y0078788D01*
X0111335Y0078543D01*
X0111332Y0078298D01*
X0111323Y0078052D01*
X0111308Y0077807D01*
X0111287Y0077563D01*
X0111260Y0077319D01*
X0111227Y0077076D01*
X0111188Y0076833D01*
X0111143Y0076592D01*
X0111092Y0076352D01*
X0111035Y0076113D01*
X0110973Y0075876D01*
X0110904Y0075640D01*
X0110830Y0075406D01*
X0110750Y0075174D01*
X0110665Y0074944D01*
X0110574Y0074716D01*
X0110477Y0074491D01*
X0110375Y0074267D01*
X0110267Y0074047D01*
X0110154Y0073829D01*
X0110036Y0073614D01*
X0109912Y0073402D01*
X0109784Y0073193D01*
X0109650Y0072987D01*
X0109511Y0072785D01*
X0109367Y0072586D01*
X0109218Y0072391D01*
X0109065Y0072199D01*
X0108907Y0072011D01*
X0108745Y0071827D01*
X0108577Y0071648D01*
X0108406Y0071472D01*
X0108230Y0071301D01*
X0108051Y0071133D01*
X0107867Y0070971D01*
X0107679Y0070813D01*
X0107487Y0070660D01*
X0107292Y0070511D01*
X0107093Y0070367D01*
X0106891Y0070228D01*
X0106685Y0070094D01*
X0106476Y0069966D01*
X0106264Y0069842D01*
X0106049Y0069724D01*
X0105831Y0069611D01*
X0105611Y0069503D01*
X0105387Y0069401D01*
X0105162Y0069304D01*
X0104934Y0069213D01*
X0104704Y0069128D01*
X0104472Y0069048D01*
X0104238Y0068974D01*
X0104002Y0068905D01*
X0103765Y0068843D01*
X0103526Y0068786D01*
X0103286Y0068735D01*
X0103045Y0068690D01*
X0102802Y0068651D01*
X0102559Y0068618D01*
X0102315Y0068591D01*
X0102071Y0068570D01*
X0101826Y0068555D01*
X0101580Y0068546D01*
X0101335Y0068543D01*
X0101090Y0068546D01*
X0100844Y0068555D01*
X0100599Y0068570D01*
X0100355Y0068591D01*
X0100111Y0068618D01*
X0099868Y0068651D01*
X0099625Y0068690D01*
X0099384Y0068735D01*
X0099144Y0068786D01*
X0098905Y0068843D01*
X0098668Y0068905D01*
X0098432Y0068974D01*
X0098198Y0069048D01*
X0097966Y0069128D01*
X0097736Y0069213D01*
X0097508Y0069304D01*
X0097283Y0069401D01*
X0097059Y0069503D01*
X0096839Y0069611D01*
X0096621Y0069724D01*
X0096406Y0069842D01*
X0096194Y0069966D01*
X0095985Y0070094D01*
X0095779Y0070228D01*
X0095577Y0070367D01*
X0095378Y0070511D01*
X0095183Y0070660D01*
X0094991Y0070813D01*
X0094803Y0070971D01*
X0094619Y0071133D01*
X0094440Y0071301D01*
X0094264Y0071472D01*
X0094093Y0071648D01*
X0093925Y0071827D01*
X0093763Y0072011D01*
X0093605Y0072199D01*
X0093452Y0072391D01*
X0093303Y0072586D01*
X0093159Y0072785D01*
X0093020Y0072987D01*
X0092886Y0073193D01*
X0092758Y0073402D01*
X0092634Y0073614D01*
X0092516Y0073829D01*
X0092403Y0074047D01*
X0092295Y0074267D01*
X0092193Y0074491D01*
X0092096Y0074716D01*
X0092005Y0074944D01*
X0091920Y0075174D01*
X0091840Y0075406D01*
X0091766Y0075640D01*
X0091697Y0075876D01*
X0091635Y0076113D01*
X0091578Y0076352D01*
X0091527Y0076592D01*
X0091482Y0076833D01*
X0091443Y0077076D01*
X0091410Y0077319D01*
X0091383Y0077563D01*
X0091362Y0077807D01*
X0091347Y0078052D01*
X0091338Y0078298D01*
X0091335Y0078543D01*
X0105335Y0084043D02*
X0106335Y0084043D01*
X0107335Y0084043D01*
X0106335Y0084043D02*
X0106335Y0083043D01*
X0106335Y0084043D02*
X0106335Y0085043D01*
X0091228Y0099370D02*
X0091231Y0099615D01*
X0091240Y0099861D01*
X0091255Y0100106D01*
X0091276Y0100350D01*
X0091303Y0100594D01*
X0091336Y0100837D01*
X0091375Y0101080D01*
X0091420Y0101321D01*
X0091471Y0101561D01*
X0091528Y0101800D01*
X0091590Y0102037D01*
X0091659Y0102273D01*
X0091733Y0102507D01*
X0091813Y0102739D01*
X0091898Y0102969D01*
X0091989Y0103197D01*
X0092086Y0103422D01*
X0092188Y0103646D01*
X0092296Y0103866D01*
X0092409Y0104084D01*
X0092527Y0104299D01*
X0092651Y0104511D01*
X0092779Y0104720D01*
X0092913Y0104926D01*
X0093052Y0105128D01*
X0093196Y0105327D01*
X0093345Y0105522D01*
X0093498Y0105714D01*
X0093656Y0105902D01*
X0093818Y0106086D01*
X0093986Y0106265D01*
X0094157Y0106441D01*
X0094333Y0106612D01*
X0094512Y0106780D01*
X0094696Y0106942D01*
X0094884Y0107100D01*
X0095076Y0107253D01*
X0095271Y0107402D01*
X0095470Y0107546D01*
X0095672Y0107685D01*
X0095878Y0107819D01*
X0096087Y0107947D01*
X0096299Y0108071D01*
X0096514Y0108189D01*
X0096732Y0108302D01*
X0096952Y0108410D01*
X0097176Y0108512D01*
X0097401Y0108609D01*
X0097629Y0108700D01*
X0097859Y0108785D01*
X0098091Y0108865D01*
X0098325Y0108939D01*
X0098561Y0109008D01*
X0098798Y0109070D01*
X0099037Y0109127D01*
X0099277Y0109178D01*
X0099518Y0109223D01*
X0099761Y0109262D01*
X0100004Y0109295D01*
X0100248Y0109322D01*
X0100492Y0109343D01*
X0100737Y0109358D01*
X0100983Y0109367D01*
X0101228Y0109370D01*
X0101473Y0109367D01*
X0101719Y0109358D01*
X0101964Y0109343D01*
X0102208Y0109322D01*
X0102452Y0109295D01*
X0102695Y0109262D01*
X0102938Y0109223D01*
X0103179Y0109178D01*
X0103419Y0109127D01*
X0103658Y0109070D01*
X0103895Y0109008D01*
X0104131Y0108939D01*
X0104365Y0108865D01*
X0104597Y0108785D01*
X0104827Y0108700D01*
X0105055Y0108609D01*
X0105280Y0108512D01*
X0105504Y0108410D01*
X0105724Y0108302D01*
X0105942Y0108189D01*
X0106157Y0108071D01*
X0106369Y0107947D01*
X0106578Y0107819D01*
X0106784Y0107685D01*
X0106986Y0107546D01*
X0107185Y0107402D01*
X0107380Y0107253D01*
X0107572Y0107100D01*
X0107760Y0106942D01*
X0107944Y0106780D01*
X0108123Y0106612D01*
X0108299Y0106441D01*
X0108470Y0106265D01*
X0108638Y0106086D01*
X0108800Y0105902D01*
X0108958Y0105714D01*
X0109111Y0105522D01*
X0109260Y0105327D01*
X0109404Y0105128D01*
X0109543Y0104926D01*
X0109677Y0104720D01*
X0109805Y0104511D01*
X0109929Y0104299D01*
X0110047Y0104084D01*
X0110160Y0103866D01*
X0110268Y0103646D01*
X0110370Y0103422D01*
X0110467Y0103197D01*
X0110558Y0102969D01*
X0110643Y0102739D01*
X0110723Y0102507D01*
X0110797Y0102273D01*
X0110866Y0102037D01*
X0110928Y0101800D01*
X0110985Y0101561D01*
X0111036Y0101321D01*
X0111081Y0101080D01*
X0111120Y0100837D01*
X0111153Y0100594D01*
X0111180Y0100350D01*
X0111201Y0100106D01*
X0111216Y0099861D01*
X0111225Y0099615D01*
X0111228Y0099370D01*
X0111225Y0099125D01*
X0111216Y0098879D01*
X0111201Y0098634D01*
X0111180Y0098390D01*
X0111153Y0098146D01*
X0111120Y0097903D01*
X0111081Y0097660D01*
X0111036Y0097419D01*
X0110985Y0097179D01*
X0110928Y0096940D01*
X0110866Y0096703D01*
X0110797Y0096467D01*
X0110723Y0096233D01*
X0110643Y0096001D01*
X0110558Y0095771D01*
X0110467Y0095543D01*
X0110370Y0095318D01*
X0110268Y0095094D01*
X0110160Y0094874D01*
X0110047Y0094656D01*
X0109929Y0094441D01*
X0109805Y0094229D01*
X0109677Y0094020D01*
X0109543Y0093814D01*
X0109404Y0093612D01*
X0109260Y0093413D01*
X0109111Y0093218D01*
X0108958Y0093026D01*
X0108800Y0092838D01*
X0108638Y0092654D01*
X0108470Y0092475D01*
X0108299Y0092299D01*
X0108123Y0092128D01*
X0107944Y0091960D01*
X0107760Y0091798D01*
X0107572Y0091640D01*
X0107380Y0091487D01*
X0107185Y0091338D01*
X0106986Y0091194D01*
X0106784Y0091055D01*
X0106578Y0090921D01*
X0106369Y0090793D01*
X0106157Y0090669D01*
X0105942Y0090551D01*
X0105724Y0090438D01*
X0105504Y0090330D01*
X0105280Y0090228D01*
X0105055Y0090131D01*
X0104827Y0090040D01*
X0104597Y0089955D01*
X0104365Y0089875D01*
X0104131Y0089801D01*
X0103895Y0089732D01*
X0103658Y0089670D01*
X0103419Y0089613D01*
X0103179Y0089562D01*
X0102938Y0089517D01*
X0102695Y0089478D01*
X0102452Y0089445D01*
X0102208Y0089418D01*
X0101964Y0089397D01*
X0101719Y0089382D01*
X0101473Y0089373D01*
X0101228Y0089370D01*
X0100983Y0089373D01*
X0100737Y0089382D01*
X0100492Y0089397D01*
X0100248Y0089418D01*
X0100004Y0089445D01*
X0099761Y0089478D01*
X0099518Y0089517D01*
X0099277Y0089562D01*
X0099037Y0089613D01*
X0098798Y0089670D01*
X0098561Y0089732D01*
X0098325Y0089801D01*
X0098091Y0089875D01*
X0097859Y0089955D01*
X0097629Y0090040D01*
X0097401Y0090131D01*
X0097176Y0090228D01*
X0096952Y0090330D01*
X0096732Y0090438D01*
X0096514Y0090551D01*
X0096299Y0090669D01*
X0096087Y0090793D01*
X0095878Y0090921D01*
X0095672Y0091055D01*
X0095470Y0091194D01*
X0095271Y0091338D01*
X0095076Y0091487D01*
X0094884Y0091640D01*
X0094696Y0091798D01*
X0094512Y0091960D01*
X0094333Y0092128D01*
X0094157Y0092299D01*
X0093986Y0092475D01*
X0093818Y0092654D01*
X0093656Y0092838D01*
X0093498Y0093026D01*
X0093345Y0093218D01*
X0093196Y0093413D01*
X0093052Y0093612D01*
X0092913Y0093814D01*
X0092779Y0094020D01*
X0092651Y0094229D01*
X0092527Y0094441D01*
X0092409Y0094656D01*
X0092296Y0094874D01*
X0092188Y0095094D01*
X0092086Y0095318D01*
X0091989Y0095543D01*
X0091898Y0095771D01*
X0091813Y0096001D01*
X0091733Y0096233D01*
X0091659Y0096467D01*
X0091590Y0096703D01*
X0091528Y0096940D01*
X0091471Y0097179D01*
X0091420Y0097419D01*
X0091375Y0097660D01*
X0091336Y0097903D01*
X0091303Y0098146D01*
X0091276Y0098390D01*
X0091255Y0098634D01*
X0091240Y0098879D01*
X0091231Y0099125D01*
X0091228Y0099370D01*
X0105228Y0104870D02*
X0106228Y0104870D01*
X0107228Y0104870D01*
X0106228Y0104870D02*
X0106228Y0103870D01*
X0106228Y0104870D02*
X0106228Y0105870D01*
X0128213Y0099208D02*
X0151213Y0099208D01*
X0151213Y0079208D01*
X0143713Y0079208D01*
X0143711Y0079334D01*
X0143705Y0079459D01*
X0143695Y0079584D01*
X0143681Y0079709D01*
X0143664Y0079834D01*
X0143642Y0079958D01*
X0143617Y0080081D01*
X0143587Y0080203D01*
X0143554Y0080324D01*
X0143517Y0080444D01*
X0143477Y0080563D01*
X0143432Y0080680D01*
X0143384Y0080797D01*
X0143332Y0080911D01*
X0143277Y0081024D01*
X0143218Y0081135D01*
X0143156Y0081244D01*
X0143090Y0081351D01*
X0143021Y0081456D01*
X0142949Y0081559D01*
X0142874Y0081660D01*
X0142795Y0081758D01*
X0142713Y0081853D01*
X0142629Y0081946D01*
X0142541Y0082036D01*
X0142451Y0082124D01*
X0142358Y0082208D01*
X0142263Y0082290D01*
X0142165Y0082369D01*
X0142064Y0082444D01*
X0141961Y0082516D01*
X0141856Y0082585D01*
X0141749Y0082651D01*
X0141640Y0082713D01*
X0141529Y0082772D01*
X0141416Y0082827D01*
X0141302Y0082879D01*
X0141185Y0082927D01*
X0141068Y0082972D01*
X0140949Y0083012D01*
X0140829Y0083049D01*
X0140708Y0083082D01*
X0140586Y0083112D01*
X0140463Y0083137D01*
X0140339Y0083159D01*
X0140214Y0083176D01*
X0140089Y0083190D01*
X0139964Y0083200D01*
X0139839Y0083206D01*
X0139713Y0083208D01*
X0139587Y0083206D01*
X0139462Y0083200D01*
X0139337Y0083190D01*
X0139212Y0083176D01*
X0139087Y0083159D01*
X0138963Y0083137D01*
X0138840Y0083112D01*
X0138718Y0083082D01*
X0138597Y0083049D01*
X0138477Y0083012D01*
X0138358Y0082972D01*
X0138241Y0082927D01*
X0138124Y0082879D01*
X0138010Y0082827D01*
X0137897Y0082772D01*
X0137786Y0082713D01*
X0137677Y0082651D01*
X0137570Y0082585D01*
X0137465Y0082516D01*
X0137362Y0082444D01*
X0137261Y0082369D01*
X0137163Y0082290D01*
X0137068Y0082208D01*
X0136975Y0082124D01*
X0136885Y0082036D01*
X0136797Y0081946D01*
X0136713Y0081853D01*
X0136631Y0081758D01*
X0136552Y0081660D01*
X0136477Y0081559D01*
X0136405Y0081456D01*
X0136336Y0081351D01*
X0136270Y0081244D01*
X0136208Y0081135D01*
X0136149Y0081024D01*
X0136094Y0080911D01*
X0136042Y0080797D01*
X0135994Y0080680D01*
X0135949Y0080563D01*
X0135909Y0080444D01*
X0135872Y0080324D01*
X0135839Y0080203D01*
X0135809Y0080081D01*
X0135784Y0079958D01*
X0135762Y0079834D01*
X0135745Y0079709D01*
X0135731Y0079584D01*
X0135721Y0079459D01*
X0135715Y0079334D01*
X0135713Y0079208D01*
X0128213Y0079208D01*
X0128213Y0099208D01*
X0113465Y0054736D02*
X0103465Y0054736D01*
X0103465Y0038736D01*
X0113465Y0038736D01*
X0113465Y0054736D01*
X0110965Y0050736D02*
X0108465Y0046736D01*
X0105965Y0046736D01*
X0105965Y0047736D01*
X0108465Y0046736D02*
X0110965Y0046736D01*
X0108465Y0046736D02*
X0105965Y0050736D01*
X0110965Y0050736D01*
X0108465Y0052736D02*
X0108465Y0046736D01*
X0108465Y0044236D01*
X0175717Y0048685D02*
X0175717Y0064685D01*
X0175719Y0064745D01*
X0175724Y0064806D01*
X0175733Y0064865D01*
X0175746Y0064924D01*
X0175762Y0064983D01*
X0175782Y0065040D01*
X0175805Y0065095D01*
X0175832Y0065150D01*
X0175861Y0065202D01*
X0175894Y0065253D01*
X0175930Y0065302D01*
X0175968Y0065348D01*
X0176010Y0065392D01*
X0176054Y0065434D01*
X0176100Y0065472D01*
X0176149Y0065508D01*
X0176200Y0065541D01*
X0176252Y0065570D01*
X0176307Y0065597D01*
X0176362Y0065620D01*
X0176419Y0065640D01*
X0176478Y0065656D01*
X0176537Y0065669D01*
X0176596Y0065678D01*
X0176657Y0065683D01*
X0176717Y0065685D01*
X0182717Y0065685D01*
X0182777Y0065683D01*
X0182838Y0065678D01*
X0182897Y0065669D01*
X0182956Y0065656D01*
X0183015Y0065640D01*
X0183072Y0065620D01*
X0183127Y0065597D01*
X0183182Y0065570D01*
X0183234Y0065541D01*
X0183285Y0065508D01*
X0183334Y0065472D01*
X0183380Y0065434D01*
X0183424Y0065392D01*
X0183466Y0065348D01*
X0183504Y0065302D01*
X0183540Y0065253D01*
X0183573Y0065202D01*
X0183602Y0065150D01*
X0183629Y0065095D01*
X0183652Y0065040D01*
X0183672Y0064983D01*
X0183688Y0064924D01*
X0183701Y0064865D01*
X0183710Y0064806D01*
X0183715Y0064745D01*
X0183717Y0064685D01*
X0183717Y0048685D01*
X0183715Y0048625D01*
X0183710Y0048564D01*
X0183701Y0048505D01*
X0183688Y0048446D01*
X0183672Y0048387D01*
X0183652Y0048330D01*
X0183629Y0048275D01*
X0183602Y0048220D01*
X0183573Y0048168D01*
X0183540Y0048117D01*
X0183504Y0048068D01*
X0183466Y0048022D01*
X0183424Y0047978D01*
X0183380Y0047936D01*
X0183334Y0047898D01*
X0183285Y0047862D01*
X0183234Y0047829D01*
X0183182Y0047800D01*
X0183127Y0047773D01*
X0183072Y0047750D01*
X0183015Y0047730D01*
X0182956Y0047714D01*
X0182897Y0047701D01*
X0182838Y0047692D01*
X0182777Y0047687D01*
X0182717Y0047685D01*
X0176717Y0047685D01*
X0176657Y0047687D01*
X0176596Y0047692D01*
X0176537Y0047701D01*
X0176478Y0047714D01*
X0176419Y0047730D01*
X0176362Y0047750D01*
X0176307Y0047773D01*
X0176252Y0047800D01*
X0176200Y0047829D01*
X0176149Y0047862D01*
X0176100Y0047898D01*
X0176054Y0047936D01*
X0176010Y0047978D01*
X0175968Y0048022D01*
X0175930Y0048068D01*
X0175894Y0048117D01*
X0175861Y0048168D01*
X0175832Y0048220D01*
X0175805Y0048275D01*
X0175782Y0048330D01*
X0175762Y0048387D01*
X0175746Y0048446D01*
X0175733Y0048505D01*
X0175724Y0048564D01*
X0175719Y0048625D01*
X0175717Y0048685D01*
X0179717Y0054185D02*
X0179717Y0056685D01*
X0182217Y0056685D01*
X0179717Y0056685D02*
X0182217Y0060685D01*
X0177217Y0060685D01*
X0179717Y0056685D01*
X0177217Y0056685D01*
X0179717Y0056685D02*
X0179717Y0062685D01*
X0185299Y0064630D02*
X0185299Y0024130D01*
X0182799Y0020130D02*
X0182799Y0042130D01*
X0182801Y0042228D01*
X0182807Y0042326D01*
X0182816Y0042424D01*
X0182830Y0042521D01*
X0182847Y0042618D01*
X0182868Y0042714D01*
X0182893Y0042809D01*
X0182921Y0042903D01*
X0182954Y0042995D01*
X0182989Y0043087D01*
X0183029Y0043177D01*
X0183071Y0043265D01*
X0183118Y0043352D01*
X0183167Y0043436D01*
X0183220Y0043519D01*
X0183276Y0043599D01*
X0183336Y0043678D01*
X0183398Y0043754D01*
X0183463Y0043827D01*
X0183531Y0043898D01*
X0183602Y0043966D01*
X0183675Y0044031D01*
X0183751Y0044093D01*
X0183830Y0044153D01*
X0183910Y0044209D01*
X0183993Y0044262D01*
X0184077Y0044311D01*
X0184164Y0044358D01*
X0184252Y0044400D01*
X0184342Y0044440D01*
X0184434Y0044475D01*
X0184526Y0044508D01*
X0184620Y0044536D01*
X0184715Y0044561D01*
X0184811Y0044582D01*
X0184908Y0044599D01*
X0185005Y0044613D01*
X0185103Y0044622D01*
X0185201Y0044628D01*
X0185299Y0044630D01*
X0196299Y0045130D02*
X0196299Y0004630D01*
X0196297Y0004532D01*
X0196291Y0004434D01*
X0196282Y0004336D01*
X0196268Y0004239D01*
X0196251Y0004142D01*
X0196230Y0004046D01*
X0196205Y0003951D01*
X0196177Y0003857D01*
X0196144Y0003765D01*
X0196109Y0003673D01*
X0196069Y0003583D01*
X0196027Y0003495D01*
X0195980Y0003408D01*
X0195931Y0003324D01*
X0195878Y0003241D01*
X0195822Y0003161D01*
X0195762Y0003082D01*
X0195700Y0003006D01*
X0195635Y0002933D01*
X0195567Y0002862D01*
X0195496Y0002794D01*
X0195423Y0002729D01*
X0195347Y0002667D01*
X0195268Y0002607D01*
X0195188Y0002551D01*
X0195105Y0002498D01*
X0195021Y0002449D01*
X0194934Y0002402D01*
X0194846Y0002360D01*
X0194756Y0002320D01*
X0194664Y0002285D01*
X0194572Y0002252D01*
X0194478Y0002224D01*
X0194383Y0002199D01*
X0194287Y0002178D01*
X0194190Y0002161D01*
X0194093Y0002147D01*
X0193995Y0002138D01*
X0193897Y0002132D01*
X0193799Y0002130D01*
X0187799Y0002130D01*
X0187701Y0002132D01*
X0187603Y0002138D01*
X0187505Y0002147D01*
X0187408Y0002161D01*
X0187311Y0002178D01*
X0187215Y0002199D01*
X0187120Y0002224D01*
X0187026Y0002252D01*
X0186934Y0002285D01*
X0186842Y0002320D01*
X0186752Y0002360D01*
X0186664Y0002402D01*
X0186577Y0002449D01*
X0186493Y0002498D01*
X0186410Y0002551D01*
X0186330Y0002607D01*
X0186251Y0002667D01*
X0186175Y0002729D01*
X0186102Y0002794D01*
X0186031Y0002862D01*
X0185963Y0002933D01*
X0185898Y0003006D01*
X0185836Y0003082D01*
X0185776Y0003161D01*
X0185720Y0003241D01*
X0185667Y0003324D01*
X0185618Y0003408D01*
X0185571Y0003495D01*
X0185529Y0003583D01*
X0185489Y0003673D01*
X0185454Y0003765D01*
X0185421Y0003857D01*
X0185393Y0003951D01*
X0185368Y0004046D01*
X0185347Y0004142D01*
X0185330Y0004239D01*
X0185316Y0004336D01*
X0185307Y0004434D01*
X0185301Y0004532D01*
X0185299Y0004630D01*
X0185299Y0015130D01*
X0196299Y0024630D02*
X0196397Y0024632D01*
X0196495Y0024638D01*
X0196593Y0024647D01*
X0196690Y0024661D01*
X0196787Y0024678D01*
X0196883Y0024699D01*
X0196978Y0024724D01*
X0197072Y0024752D01*
X0197164Y0024785D01*
X0197256Y0024820D01*
X0197346Y0024860D01*
X0197434Y0024902D01*
X0197521Y0024949D01*
X0197605Y0024998D01*
X0197688Y0025051D01*
X0197768Y0025107D01*
X0197847Y0025167D01*
X0197923Y0025229D01*
X0197996Y0025294D01*
X0198067Y0025362D01*
X0198135Y0025433D01*
X0198200Y0025506D01*
X0198262Y0025582D01*
X0198322Y0025661D01*
X0198378Y0025741D01*
X0198431Y0025824D01*
X0198480Y0025908D01*
X0198527Y0025995D01*
X0198569Y0026083D01*
X0198609Y0026173D01*
X0198644Y0026265D01*
X0198677Y0026357D01*
X0198705Y0026451D01*
X0198730Y0026546D01*
X0198751Y0026642D01*
X0198768Y0026739D01*
X0198782Y0026836D01*
X0198791Y0026934D01*
X0198797Y0027032D01*
X0198799Y0027130D01*
X0198799Y0049130D01*
X0196299Y0054130D02*
X0196299Y0064630D01*
X0196297Y0064728D01*
X0196291Y0064826D01*
X0196282Y0064924D01*
X0196268Y0065021D01*
X0196251Y0065118D01*
X0196230Y0065214D01*
X0196205Y0065309D01*
X0196177Y0065403D01*
X0196144Y0065495D01*
X0196109Y0065587D01*
X0196069Y0065677D01*
X0196027Y0065765D01*
X0195980Y0065852D01*
X0195931Y0065936D01*
X0195878Y0066019D01*
X0195822Y0066099D01*
X0195762Y0066178D01*
X0195700Y0066254D01*
X0195635Y0066327D01*
X0195567Y0066398D01*
X0195496Y0066466D01*
X0195423Y0066531D01*
X0195347Y0066593D01*
X0195268Y0066653D01*
X0195188Y0066709D01*
X0195105Y0066762D01*
X0195021Y0066811D01*
X0194934Y0066858D01*
X0194846Y0066900D01*
X0194756Y0066940D01*
X0194664Y0066975D01*
X0194572Y0067008D01*
X0194478Y0067036D01*
X0194383Y0067061D01*
X0194287Y0067082D01*
X0194190Y0067099D01*
X0194093Y0067113D01*
X0193995Y0067122D01*
X0193897Y0067128D01*
X0193799Y0067130D01*
X0187799Y0067130D01*
X0187701Y0067128D01*
X0187603Y0067122D01*
X0187505Y0067113D01*
X0187408Y0067099D01*
X0187311Y0067082D01*
X0187215Y0067061D01*
X0187120Y0067036D01*
X0187026Y0067008D01*
X0186934Y0066975D01*
X0186842Y0066940D01*
X0186752Y0066900D01*
X0186664Y0066858D01*
X0186577Y0066811D01*
X0186493Y0066762D01*
X0186410Y0066709D01*
X0186330Y0066653D01*
X0186251Y0066593D01*
X0186175Y0066531D01*
X0186102Y0066466D01*
X0186031Y0066398D01*
X0185963Y0066327D01*
X0185898Y0066254D01*
X0185836Y0066178D01*
X0185776Y0066099D01*
X0185720Y0066019D01*
X0185667Y0065936D01*
X0185618Y0065852D01*
X0185571Y0065765D01*
X0185529Y0065677D01*
X0185489Y0065587D01*
X0185454Y0065495D01*
X0185421Y0065403D01*
X0185393Y0065309D01*
X0185368Y0065214D01*
X0185347Y0065118D01*
X0185330Y0065021D01*
X0185316Y0064924D01*
X0185307Y0064826D01*
X0185301Y0064728D01*
X0185299Y0064630D01*
X0189835Y0106937D02*
X0187335Y0109437D01*
X0187335Y0114437D01*
X0189835Y0116937D01*
X0187335Y0119437D01*
X0187335Y0124437D01*
X0189835Y0126937D01*
X0187335Y0129437D01*
X0187335Y0134437D01*
X0189835Y0136937D01*
X0187335Y0139437D01*
X0187335Y0144437D01*
X0189835Y0146937D01*
X0187335Y0149437D01*
X0187335Y0154437D01*
X0189835Y0156937D01*
X0187335Y0159437D01*
X0187335Y0164437D01*
X0189835Y0166937D01*
X0194835Y0166937D01*
X0197335Y0164437D01*
X0197335Y0159437D01*
X0194835Y0156937D01*
X0197335Y0154437D01*
X0197335Y0149437D01*
X0194835Y0146937D01*
X0189835Y0146937D01*
X0194835Y0146937D02*
X0197335Y0144437D01*
X0197335Y0139437D01*
X0194835Y0136937D01*
X0197335Y0134437D01*
X0197335Y0129437D01*
X0194835Y0126937D01*
X0197335Y0124437D01*
X0197335Y0119437D01*
X0194835Y0116937D01*
X0197335Y0114437D01*
X0197335Y0109437D01*
X0194835Y0106937D01*
X0189835Y0106937D01*
X0189835Y0116937D02*
X0194835Y0116937D01*
X0194835Y0126937D02*
X0189835Y0126937D01*
X0189835Y0136937D02*
X0194835Y0136937D01*
X0194835Y0156937D02*
X0189835Y0156937D01*
X0102500Y0169138D02*
X0102500Y0178138D01*
X0095500Y0174638D02*
X0075500Y0174638D01*
X0075500Y0170138D01*
X0095500Y0170138D01*
X0095500Y0174638D01*
X0102500Y0169138D02*
X0003500Y0169138D01*
X0003500Y0178138D01*
X0003418Y0176417D02*
X0003418Y0186417D01*
X0019418Y0186417D01*
X0019418Y0176417D01*
X0003418Y0176417D01*
X0001418Y0175417D02*
X0001418Y0187417D01*
X0060818Y0187417D01*
X0062818Y0187417D01*
X0062818Y0168417D01*
X0060818Y0169417D01*
X0060818Y0175417D01*
X0001418Y0175417D01*
X0001418Y0165417D01*
X0004918Y0165417D01*
X0004918Y0163917D02*
X0003418Y0163917D01*
X0003418Y0145917D01*
X0003418Y0138417D01*
X0019418Y0138417D01*
X0023118Y0138417D01*
X0039118Y0138417D01*
X0039118Y0145917D01*
X0023118Y0145917D01*
X0023118Y0163917D01*
X0024618Y0163917D01*
X0024618Y0165417D02*
X0017918Y0165417D01*
X0017918Y0163917D02*
X0019418Y0163917D01*
X0019418Y0145917D01*
X0003418Y0145917D01*
X0004918Y0148417D02*
X0004918Y0160917D01*
X0001418Y0165417D02*
X0001418Y0138417D01*
X0003418Y0138417D01*
X0004918Y0148417D02*
X0017918Y0148417D01*
X0017918Y0160917D01*
X0024618Y0160917D02*
X0024618Y0148417D01*
X0037618Y0148417D01*
X0037618Y0160917D01*
X0037618Y0163917D02*
X0039118Y0163917D01*
X0039118Y0145917D01*
X0042818Y0145917D02*
X0042818Y0163917D01*
X0044418Y0163917D01*
X0044318Y0165417D02*
X0037718Y0165417D01*
X0044318Y0160917D02*
X0044318Y0148417D01*
X0057318Y0148417D01*
X0057318Y0160917D01*
X0057318Y0163917D02*
X0058818Y0163917D01*
X0058818Y0145917D01*
X0042818Y0145917D01*
X0042818Y0138417D01*
X0058818Y0138417D01*
X0058818Y0145917D01*
X0060818Y0146917D02*
X0060818Y0165417D01*
X0057318Y0165417D01*
X0060818Y0165417D02*
X0060818Y0169417D01*
X0060818Y0175417D02*
X0060818Y0187417D01*
X0058818Y0186417D02*
X0058818Y0176417D01*
X0042818Y0176417D01*
X0042818Y0186417D01*
X0058818Y0186417D01*
X0056418Y0182917D02*
X0044418Y0180417D01*
X0044918Y0179917D02*
X0056918Y0182417D01*
X0056817Y0182817D02*
X0056884Y0182740D01*
X0056947Y0182661D01*
X0057007Y0182580D01*
X0057065Y0182497D01*
X0057119Y0182411D01*
X0057169Y0182323D01*
X0057217Y0182234D01*
X0057261Y0182143D01*
X0057302Y0182050D01*
X0057339Y0181956D01*
X0057372Y0181861D01*
X0057402Y0181764D01*
X0057429Y0181666D01*
X0057451Y0181567D01*
X0057470Y0181468D01*
X0057485Y0181368D01*
X0057496Y0181267D01*
X0057504Y0181166D01*
X0057508Y0181065D01*
X0057507Y0180964D01*
X0057504Y0180863D01*
X0057496Y0180762D01*
X0057484Y0180661D01*
X0057469Y0180561D01*
X0057450Y0180462D01*
X0057427Y0180363D01*
X0057401Y0180265D01*
X0057371Y0180169D01*
X0057337Y0180073D01*
X0057300Y0179979D01*
X0057259Y0179887D01*
X0057215Y0179795D01*
X0057167Y0179706D01*
X0057116Y0179619D01*
X0057062Y0179533D01*
X0057004Y0179450D01*
X0056944Y0179369D01*
X0056880Y0179290D01*
X0056814Y0179214D01*
X0056745Y0179140D01*
X0056673Y0179069D01*
X0056598Y0179000D01*
X0056836Y0182833D02*
X0056706Y0182979D01*
X0056572Y0183123D01*
X0056434Y0183263D01*
X0056293Y0183400D01*
X0056149Y0183534D01*
X0056001Y0183663D01*
X0055851Y0183790D01*
X0055697Y0183912D01*
X0055541Y0184031D01*
X0055381Y0184146D01*
X0055219Y0184257D01*
X0055054Y0184364D01*
X0054887Y0184468D01*
X0054717Y0184567D01*
X0054545Y0184661D01*
X0054371Y0184752D01*
X0054194Y0184839D01*
X0054016Y0184921D01*
X0053835Y0184998D01*
X0053653Y0185072D01*
X0053469Y0185141D01*
X0053284Y0185205D01*
X0053096Y0185265D01*
X0052908Y0185321D01*
X0052718Y0185371D01*
X0052527Y0185418D01*
X0052335Y0185459D01*
X0052142Y0185496D01*
X0051948Y0185528D01*
X0051753Y0185556D01*
X0051558Y0185578D01*
X0051363Y0185596D01*
X0051167Y0185610D01*
X0050970Y0185618D01*
X0050774Y0185622D01*
X0050577Y0185621D01*
X0050381Y0185615D01*
X0050185Y0185604D01*
X0049989Y0185589D01*
X0049793Y0185569D01*
X0049598Y0185544D01*
X0049404Y0185515D01*
X0049210Y0185481D01*
X0049018Y0185442D01*
X0048826Y0185398D01*
X0048636Y0185350D01*
X0048446Y0185297D01*
X0048258Y0185240D01*
X0048072Y0185178D01*
X0047887Y0185111D01*
X0047704Y0185041D01*
X0047522Y0184965D01*
X0047343Y0184886D01*
X0047165Y0184802D01*
X0046989Y0184713D01*
X0046816Y0184621D01*
X0046645Y0184524D01*
X0046476Y0184423D01*
X0046310Y0184318D01*
X0046146Y0184210D01*
X0045985Y0184097D01*
X0045827Y0183980D01*
X0045672Y0183860D01*
X0045520Y0183735D01*
X0045371Y0183608D01*
X0045224Y0183476D01*
X0045082Y0183341D01*
X0044942Y0183203D01*
X0044806Y0183061D01*
X0044673Y0182916D01*
X0044544Y0182768D01*
X0044419Y0182617D01*
X0044618Y0182818D02*
X0044553Y0182746D01*
X0044492Y0182672D01*
X0044433Y0182595D01*
X0044378Y0182516D01*
X0044326Y0182435D01*
X0044277Y0182351D01*
X0044232Y0182266D01*
X0044190Y0182179D01*
X0044152Y0182090D01*
X0044118Y0182000D01*
X0044088Y0181908D01*
X0044061Y0181816D01*
X0044038Y0181722D01*
X0044019Y0181627D01*
X0044004Y0181532D01*
X0043993Y0181436D01*
X0043986Y0181340D01*
X0043983Y0181243D01*
X0043984Y0181147D01*
X0043989Y0181050D01*
X0043998Y0180954D01*
X0044011Y0180859D01*
X0044027Y0180763D01*
X0044048Y0180669D01*
X0044073Y0180576D01*
X0044101Y0180484D01*
X0044133Y0180393D01*
X0044169Y0180303D01*
X0044209Y0180215D01*
X0044252Y0180129D01*
X0044299Y0180044D01*
X0044349Y0179962D01*
X0044403Y0179882D01*
X0044459Y0179804D01*
X0044519Y0179728D01*
X0044582Y0179655D01*
X0044648Y0179585D01*
X0044717Y0179517D01*
X0044789Y0179452D01*
X0044863Y0179391D01*
X0044940Y0179332D01*
X0045019Y0179277D01*
X0045100Y0179225D01*
X0045184Y0179176D01*
X0039118Y0176417D02*
X0023118Y0176417D01*
X0023118Y0186417D01*
X0039118Y0186417D01*
X0039118Y0176417D01*
X0036898Y0179000D02*
X0036973Y0179069D01*
X0037045Y0179140D01*
X0037114Y0179214D01*
X0037180Y0179290D01*
X0037244Y0179369D01*
X0037304Y0179450D01*
X0037362Y0179533D01*
X0037416Y0179619D01*
X0037467Y0179706D01*
X0037515Y0179795D01*
X0037559Y0179887D01*
X0037600Y0179979D01*
X0037637Y0180073D01*
X0037671Y0180169D01*
X0037701Y0180265D01*
X0037727Y0180363D01*
X0037750Y0180462D01*
X0037769Y0180561D01*
X0037784Y0180661D01*
X0037796Y0180762D01*
X0037804Y0180863D01*
X0037807Y0180964D01*
X0037808Y0181065D01*
X0037804Y0181166D01*
X0037796Y0181267D01*
X0037785Y0181368D01*
X0037770Y0181468D01*
X0037751Y0181567D01*
X0037729Y0181666D01*
X0037702Y0181764D01*
X0037672Y0181861D01*
X0037639Y0181956D01*
X0037602Y0182050D01*
X0037561Y0182143D01*
X0037517Y0182234D01*
X0037469Y0182323D01*
X0037419Y0182411D01*
X0037365Y0182497D01*
X0037307Y0182580D01*
X0037247Y0182661D01*
X0037184Y0182740D01*
X0037117Y0182817D01*
X0036718Y0182917D02*
X0024718Y0180417D01*
X0025218Y0179917D02*
X0037218Y0182417D01*
X0037081Y0179133D02*
X0036892Y0178995D01*
X0036699Y0178861D01*
X0036503Y0178732D01*
X0036304Y0178608D01*
X0036102Y0178488D01*
X0035898Y0178374D01*
X0035690Y0178265D01*
X0035480Y0178161D01*
X0035268Y0178062D01*
X0035053Y0177968D01*
X0034836Y0177879D01*
X0034617Y0177796D01*
X0034395Y0177718D01*
X0034172Y0177646D01*
X0033948Y0177579D01*
X0033721Y0177518D01*
X0033494Y0177462D01*
X0033265Y0177411D01*
X0033034Y0177367D01*
X0032803Y0177328D01*
X0032571Y0177294D01*
X0032338Y0177266D01*
X0032105Y0177244D01*
X0031871Y0177228D01*
X0031637Y0177217D01*
X0031402Y0177212D01*
X0031168Y0177213D01*
X0030934Y0177220D01*
X0030699Y0177232D01*
X0030466Y0177250D01*
X0030232Y0177274D01*
X0030000Y0177303D01*
X0029768Y0177338D01*
X0029537Y0177379D01*
X0029307Y0177425D01*
X0029078Y0177477D01*
X0028851Y0177534D01*
X0028625Y0177597D01*
X0028401Y0177666D01*
X0028178Y0177740D01*
X0027958Y0177819D01*
X0027739Y0177904D01*
X0027523Y0177994D01*
X0027308Y0178089D01*
X0027097Y0178189D01*
X0026887Y0178295D01*
X0026681Y0178406D01*
X0026477Y0178521D01*
X0026276Y0178642D01*
X0026078Y0178768D01*
X0025883Y0178898D01*
X0025691Y0179033D01*
X0025503Y0179173D01*
X0025318Y0179317D01*
X0025484Y0179176D02*
X0025400Y0179225D01*
X0025319Y0179277D01*
X0025240Y0179332D01*
X0025163Y0179391D01*
X0025089Y0179452D01*
X0025017Y0179517D01*
X0024948Y0179585D01*
X0024882Y0179655D01*
X0024819Y0179728D01*
X0024759Y0179804D01*
X0024703Y0179882D01*
X0024649Y0179962D01*
X0024599Y0180044D01*
X0024552Y0180129D01*
X0024509Y0180215D01*
X0024469Y0180303D01*
X0024433Y0180393D01*
X0024401Y0180484D01*
X0024373Y0180576D01*
X0024348Y0180669D01*
X0024327Y0180763D01*
X0024311Y0180859D01*
X0024298Y0180954D01*
X0024289Y0181050D01*
X0024284Y0181147D01*
X0024283Y0181243D01*
X0024286Y0181340D01*
X0024293Y0181436D01*
X0024304Y0181532D01*
X0024319Y0181627D01*
X0024338Y0181722D01*
X0024361Y0181816D01*
X0024388Y0181908D01*
X0024418Y0182000D01*
X0024452Y0182090D01*
X0024490Y0182179D01*
X0024532Y0182266D01*
X0024577Y0182351D01*
X0024626Y0182435D01*
X0024678Y0182516D01*
X0024733Y0182595D01*
X0024792Y0182672D01*
X0024853Y0182746D01*
X0024918Y0182818D01*
X0017618Y0182417D02*
X0005618Y0179917D01*
X0005118Y0180417D02*
X0017118Y0182917D01*
X0017517Y0182817D02*
X0017584Y0182740D01*
X0017647Y0182661D01*
X0017707Y0182580D01*
X0017765Y0182497D01*
X0017819Y0182411D01*
X0017869Y0182323D01*
X0017917Y0182234D01*
X0017961Y0182143D01*
X0018002Y0182050D01*
X0018039Y0181956D01*
X0018072Y0181861D01*
X0018102Y0181764D01*
X0018129Y0181666D01*
X0018151Y0181567D01*
X0018170Y0181468D01*
X0018185Y0181368D01*
X0018196Y0181267D01*
X0018204Y0181166D01*
X0018208Y0181065D01*
X0018207Y0180964D01*
X0018204Y0180863D01*
X0018196Y0180762D01*
X0018184Y0180661D01*
X0018169Y0180561D01*
X0018150Y0180462D01*
X0018127Y0180363D01*
X0018101Y0180265D01*
X0018071Y0180169D01*
X0018037Y0180073D01*
X0018000Y0179979D01*
X0017959Y0179887D01*
X0017915Y0179795D01*
X0017867Y0179706D01*
X0017816Y0179619D01*
X0017762Y0179533D01*
X0017704Y0179450D01*
X0017644Y0179369D01*
X0017580Y0179290D01*
X0017514Y0179214D01*
X0017445Y0179140D01*
X0017373Y0179069D01*
X0017298Y0179000D01*
X0017537Y0182834D02*
X0017406Y0182980D01*
X0017272Y0183124D01*
X0017134Y0183264D01*
X0016993Y0183401D01*
X0016849Y0183535D01*
X0016701Y0183665D01*
X0016551Y0183791D01*
X0016397Y0183913D01*
X0016241Y0184032D01*
X0016081Y0184147D01*
X0015919Y0184258D01*
X0015754Y0184366D01*
X0015587Y0184469D01*
X0015417Y0184568D01*
X0015245Y0184663D01*
X0015071Y0184753D01*
X0014894Y0184840D01*
X0014716Y0184922D01*
X0014535Y0185000D01*
X0014353Y0185073D01*
X0014169Y0185142D01*
X0013983Y0185206D01*
X0013796Y0185266D01*
X0013608Y0185322D01*
X0013418Y0185372D01*
X0013227Y0185419D01*
X0013035Y0185460D01*
X0012842Y0185497D01*
X0012648Y0185529D01*
X0012453Y0185557D01*
X0012258Y0185579D01*
X0012062Y0185597D01*
X0011866Y0185611D01*
X0011670Y0185619D01*
X0011473Y0185623D01*
X0011277Y0185622D01*
X0011080Y0185616D01*
X0010884Y0185605D01*
X0010688Y0185590D01*
X0010493Y0185570D01*
X0010298Y0185545D01*
X0010103Y0185516D01*
X0009910Y0185481D01*
X0009717Y0185443D01*
X0009525Y0185399D01*
X0009335Y0185351D01*
X0009146Y0185298D01*
X0008958Y0185241D01*
X0008771Y0185179D01*
X0008586Y0185112D01*
X0008403Y0185041D01*
X0008221Y0184966D01*
X0008042Y0184886D01*
X0007864Y0184802D01*
X0007688Y0184714D01*
X0007515Y0184622D01*
X0007344Y0184525D01*
X0007175Y0184424D01*
X0007009Y0184319D01*
X0006845Y0184210D01*
X0006684Y0184097D01*
X0006526Y0183981D01*
X0006371Y0183860D01*
X0006219Y0183736D01*
X0006070Y0183608D01*
X0005923Y0183477D01*
X0005781Y0183342D01*
X0005641Y0183203D01*
X0005505Y0183062D01*
X0005372Y0182917D01*
X0005243Y0182768D01*
X0005118Y0182617D01*
X0005318Y0182818D02*
X0005253Y0182746D01*
X0005192Y0182672D01*
X0005133Y0182595D01*
X0005078Y0182516D01*
X0005026Y0182435D01*
X0004977Y0182351D01*
X0004932Y0182266D01*
X0004890Y0182179D01*
X0004852Y0182090D01*
X0004818Y0182000D01*
X0004788Y0181908D01*
X0004761Y0181816D01*
X0004738Y0181722D01*
X0004719Y0181627D01*
X0004704Y0181532D01*
X0004693Y0181436D01*
X0004686Y0181340D01*
X0004683Y0181243D01*
X0004684Y0181147D01*
X0004689Y0181050D01*
X0004698Y0180954D01*
X0004711Y0180859D01*
X0004727Y0180763D01*
X0004748Y0180669D01*
X0004773Y0180576D01*
X0004801Y0180484D01*
X0004833Y0180393D01*
X0004869Y0180303D01*
X0004909Y0180215D01*
X0004952Y0180129D01*
X0004999Y0180044D01*
X0005049Y0179962D01*
X0005103Y0179882D01*
X0005159Y0179804D01*
X0005219Y0179728D01*
X0005282Y0179655D01*
X0005348Y0179585D01*
X0005417Y0179517D01*
X0005489Y0179452D01*
X0005563Y0179391D01*
X0005640Y0179332D01*
X0005719Y0179277D01*
X0005800Y0179225D01*
X0005884Y0179176D01*
X0008000Y0176638D02*
X0008000Y0170138D01*
X0010500Y0170138D01*
X0030500Y0170138D01*
X0030500Y0174638D01*
X0010500Y0174638D01*
X0010500Y0172138D01*
X0009000Y0172138D01*
X0009000Y0176638D01*
X0010500Y0172138D02*
X0010500Y0170138D01*
X0005719Y0179317D02*
X0005903Y0179173D01*
X0006092Y0179033D01*
X0006283Y0178898D01*
X0006478Y0178768D01*
X0006676Y0178642D01*
X0006877Y0178522D01*
X0007081Y0178406D01*
X0007288Y0178295D01*
X0007497Y0178190D01*
X0007709Y0178089D01*
X0007923Y0177994D01*
X0008140Y0177904D01*
X0008359Y0177819D01*
X0008579Y0177740D01*
X0008802Y0177666D01*
X0009026Y0177597D01*
X0009252Y0177534D01*
X0009479Y0177477D01*
X0009708Y0177425D01*
X0009938Y0177379D01*
X0010169Y0177338D01*
X0010400Y0177303D01*
X0010633Y0177274D01*
X0010866Y0177250D01*
X0011100Y0177232D01*
X0011334Y0177220D01*
X0011569Y0177213D01*
X0011803Y0177212D01*
X0012037Y0177217D01*
X0012272Y0177228D01*
X0012506Y0177244D01*
X0012739Y0177266D01*
X0012972Y0177294D01*
X0013204Y0177327D01*
X0013435Y0177367D01*
X0013665Y0177411D01*
X0013894Y0177462D01*
X0014122Y0177517D01*
X0014348Y0177579D01*
X0014573Y0177646D01*
X0014796Y0177718D01*
X0015017Y0177796D01*
X0015236Y0177879D01*
X0015453Y0177968D01*
X0015668Y0178062D01*
X0015881Y0178161D01*
X0016091Y0178265D01*
X0016298Y0178374D01*
X0016503Y0178488D01*
X0016705Y0178608D01*
X0016904Y0178732D01*
X0017100Y0178861D01*
X0017292Y0178994D01*
X0017482Y0179133D01*
X0024718Y0182617D02*
X0024843Y0182768D01*
X0024972Y0182917D01*
X0025105Y0183062D01*
X0025241Y0183203D01*
X0025381Y0183342D01*
X0025523Y0183477D01*
X0025670Y0183608D01*
X0025819Y0183736D01*
X0025971Y0183860D01*
X0026126Y0183981D01*
X0026284Y0184097D01*
X0026445Y0184210D01*
X0026609Y0184319D01*
X0026775Y0184424D01*
X0026944Y0184525D01*
X0027115Y0184622D01*
X0027288Y0184714D01*
X0027464Y0184802D01*
X0027642Y0184886D01*
X0027821Y0184966D01*
X0028003Y0185041D01*
X0028186Y0185112D01*
X0028371Y0185179D01*
X0028558Y0185241D01*
X0028746Y0185298D01*
X0028935Y0185351D01*
X0029125Y0185399D01*
X0029317Y0185443D01*
X0029510Y0185481D01*
X0029703Y0185516D01*
X0029898Y0185545D01*
X0030093Y0185570D01*
X0030288Y0185590D01*
X0030484Y0185605D01*
X0030680Y0185616D01*
X0030877Y0185622D01*
X0031073Y0185623D01*
X0031270Y0185619D01*
X0031466Y0185611D01*
X0031662Y0185597D01*
X0031858Y0185579D01*
X0032053Y0185557D01*
X0032248Y0185529D01*
X0032442Y0185497D01*
X0032635Y0185460D01*
X0032827Y0185419D01*
X0033018Y0185372D01*
X0033208Y0185322D01*
X0033396Y0185266D01*
X0033583Y0185206D01*
X0033769Y0185142D01*
X0033953Y0185073D01*
X0034135Y0185000D01*
X0034316Y0184922D01*
X0034494Y0184840D01*
X0034671Y0184753D01*
X0034845Y0184663D01*
X0035017Y0184568D01*
X0035187Y0184469D01*
X0035354Y0184366D01*
X0035519Y0184258D01*
X0035681Y0184147D01*
X0035841Y0184032D01*
X0035997Y0183913D01*
X0036151Y0183791D01*
X0036301Y0183665D01*
X0036449Y0183535D01*
X0036593Y0183401D01*
X0036734Y0183264D01*
X0036872Y0183124D01*
X0037006Y0182980D01*
X0037137Y0182834D01*
X0030500Y0194638D02*
X0030500Y0199138D01*
X0010500Y0199138D01*
X0010500Y0194638D01*
X0030500Y0194638D01*
X0045018Y0179317D02*
X0045203Y0179173D01*
X0045391Y0179033D01*
X0045583Y0178898D01*
X0045778Y0178768D01*
X0045976Y0178642D01*
X0046177Y0178521D01*
X0046381Y0178406D01*
X0046587Y0178295D01*
X0046797Y0178189D01*
X0047008Y0178089D01*
X0047223Y0177994D01*
X0047439Y0177904D01*
X0047658Y0177819D01*
X0047878Y0177740D01*
X0048101Y0177666D01*
X0048325Y0177597D01*
X0048551Y0177534D01*
X0048778Y0177477D01*
X0049007Y0177425D01*
X0049237Y0177379D01*
X0049468Y0177338D01*
X0049700Y0177303D01*
X0049932Y0177274D01*
X0050166Y0177250D01*
X0050399Y0177232D01*
X0050634Y0177220D01*
X0050868Y0177213D01*
X0051102Y0177212D01*
X0051337Y0177217D01*
X0051571Y0177228D01*
X0051805Y0177244D01*
X0052038Y0177266D01*
X0052271Y0177294D01*
X0052503Y0177328D01*
X0052734Y0177367D01*
X0052965Y0177411D01*
X0053194Y0177462D01*
X0053421Y0177518D01*
X0053648Y0177579D01*
X0053872Y0177646D01*
X0054095Y0177718D01*
X0054317Y0177796D01*
X0054536Y0177879D01*
X0054753Y0177968D01*
X0054968Y0178062D01*
X0055180Y0178161D01*
X0055390Y0178265D01*
X0055598Y0178374D01*
X0055802Y0178488D01*
X0056004Y0178608D01*
X0056203Y0178732D01*
X0056399Y0178861D01*
X0056592Y0178995D01*
X0056781Y0179133D01*
X0075500Y0194638D02*
X0075500Y0199138D01*
X0095500Y0199138D01*
X0098000Y0199138D01*
X0098000Y0192638D01*
X0097000Y0192638D02*
X0097000Y0197138D01*
X0095500Y0197138D01*
X0095500Y0194638D01*
X0075500Y0194638D01*
X0095500Y0197138D02*
X0095500Y0199138D01*
X0102500Y0200138D02*
X0102500Y0191138D01*
X0102500Y0200138D02*
X0003500Y0200138D01*
X0003500Y0191138D01*
X0037091Y0154776D02*
X0059091Y0154776D01*
X0059189Y0154774D01*
X0059287Y0154768D01*
X0059385Y0154759D01*
X0059482Y0154745D01*
X0059579Y0154728D01*
X0059675Y0154707D01*
X0059770Y0154682D01*
X0059864Y0154654D01*
X0059956Y0154621D01*
X0060048Y0154586D01*
X0060138Y0154546D01*
X0060226Y0154504D01*
X0060313Y0154457D01*
X0060397Y0154408D01*
X0060480Y0154355D01*
X0060560Y0154299D01*
X0060639Y0154239D01*
X0060715Y0154177D01*
X0060788Y0154112D01*
X0060859Y0154044D01*
X0060927Y0153973D01*
X0060992Y0153900D01*
X0061054Y0153824D01*
X0061114Y0153745D01*
X0061170Y0153665D01*
X0061223Y0153582D01*
X0061272Y0153498D01*
X0061319Y0153411D01*
X0061361Y0153323D01*
X0061401Y0153233D01*
X0061436Y0153141D01*
X0061469Y0153049D01*
X0061497Y0152955D01*
X0061522Y0152860D01*
X0061543Y0152764D01*
X0061560Y0152667D01*
X0061574Y0152570D01*
X0061583Y0152472D01*
X0061589Y0152374D01*
X0061591Y0152276D01*
X0062818Y0147917D02*
X0062818Y0141417D01*
X0060818Y0142417D01*
X0060818Y0146917D01*
X0062818Y0147917D01*
X0060818Y0142417D02*
X0060818Y0138417D01*
X0058818Y0138417D01*
X0062091Y0141276D02*
X0021591Y0141276D01*
X0021493Y0141278D01*
X0021395Y0141284D01*
X0021297Y0141293D01*
X0021200Y0141307D01*
X0021103Y0141324D01*
X0021007Y0141345D01*
X0020912Y0141370D01*
X0020818Y0141398D01*
X0020726Y0141431D01*
X0020634Y0141466D01*
X0020544Y0141506D01*
X0020456Y0141548D01*
X0020369Y0141595D01*
X0020285Y0141644D01*
X0020202Y0141697D01*
X0020122Y0141753D01*
X0020043Y0141813D01*
X0019967Y0141875D01*
X0019894Y0141940D01*
X0019823Y0142008D01*
X0019755Y0142079D01*
X0019690Y0142152D01*
X0019628Y0142228D01*
X0019568Y0142307D01*
X0019512Y0142387D01*
X0019459Y0142470D01*
X0019410Y0142554D01*
X0019363Y0142641D01*
X0019321Y0142729D01*
X0019281Y0142819D01*
X0019246Y0142911D01*
X0019213Y0143003D01*
X0019185Y0143097D01*
X0019160Y0143192D01*
X0019139Y0143288D01*
X0019122Y0143385D01*
X0019108Y0143482D01*
X0019099Y0143580D01*
X0019093Y0143678D01*
X0019091Y0143776D01*
X0019091Y0149776D01*
X0019093Y0149874D01*
X0019099Y0149972D01*
X0019108Y0150070D01*
X0019122Y0150167D01*
X0019139Y0150264D01*
X0019160Y0150360D01*
X0019185Y0150455D01*
X0019213Y0150549D01*
X0019246Y0150641D01*
X0019281Y0150733D01*
X0019321Y0150823D01*
X0019363Y0150911D01*
X0019410Y0150998D01*
X0019459Y0151082D01*
X0019512Y0151165D01*
X0019568Y0151245D01*
X0019628Y0151324D01*
X0019690Y0151400D01*
X0019755Y0151473D01*
X0019823Y0151544D01*
X0019894Y0151612D01*
X0019967Y0151677D01*
X0020043Y0151739D01*
X0020122Y0151799D01*
X0020202Y0151855D01*
X0020285Y0151908D01*
X0020369Y0151957D01*
X0020456Y0152004D01*
X0020544Y0152046D01*
X0020634Y0152086D01*
X0020726Y0152121D01*
X0020818Y0152154D01*
X0020912Y0152182D01*
X0021007Y0152207D01*
X0021103Y0152228D01*
X0021200Y0152245D01*
X0021297Y0152259D01*
X0021395Y0152268D01*
X0021493Y0152274D01*
X0021591Y0152276D01*
X0032091Y0152276D01*
X0041091Y0152276D02*
X0081591Y0152276D01*
X0081689Y0152274D01*
X0081787Y0152268D01*
X0081885Y0152259D01*
X0081982Y0152245D01*
X0082079Y0152228D01*
X0082175Y0152207D01*
X0082270Y0152182D01*
X0082364Y0152154D01*
X0082456Y0152121D01*
X0082548Y0152086D01*
X0082638Y0152046D01*
X0082726Y0152004D01*
X0082813Y0151957D01*
X0082897Y0151908D01*
X0082980Y0151855D01*
X0083060Y0151799D01*
X0083139Y0151739D01*
X0083215Y0151677D01*
X0083288Y0151612D01*
X0083359Y0151544D01*
X0083427Y0151473D01*
X0083492Y0151400D01*
X0083554Y0151324D01*
X0083614Y0151245D01*
X0083670Y0151165D01*
X0083723Y0151082D01*
X0083772Y0150998D01*
X0083819Y0150911D01*
X0083861Y0150823D01*
X0083901Y0150733D01*
X0083936Y0150641D01*
X0083969Y0150549D01*
X0083997Y0150455D01*
X0084022Y0150360D01*
X0084043Y0150264D01*
X0084060Y0150167D01*
X0084074Y0150070D01*
X0084083Y0149972D01*
X0084089Y0149874D01*
X0084091Y0149776D01*
X0084091Y0143776D01*
X0084089Y0143678D01*
X0084083Y0143580D01*
X0084074Y0143482D01*
X0084060Y0143385D01*
X0084043Y0143288D01*
X0084022Y0143192D01*
X0083997Y0143097D01*
X0083969Y0143003D01*
X0083936Y0142911D01*
X0083901Y0142819D01*
X0083861Y0142729D01*
X0083819Y0142641D01*
X0083772Y0142554D01*
X0083723Y0142470D01*
X0083670Y0142387D01*
X0083614Y0142307D01*
X0083554Y0142228D01*
X0083492Y0142152D01*
X0083427Y0142079D01*
X0083359Y0142008D01*
X0083288Y0141940D01*
X0083215Y0141875D01*
X0083139Y0141813D01*
X0083060Y0141753D01*
X0082980Y0141697D01*
X0082897Y0141644D01*
X0082813Y0141595D01*
X0082726Y0141548D01*
X0082638Y0141506D01*
X0082548Y0141466D01*
X0082456Y0141431D01*
X0082364Y0141398D01*
X0082270Y0141370D01*
X0082175Y0141345D01*
X0082079Y0141324D01*
X0081982Y0141307D01*
X0081885Y0141293D01*
X0081787Y0141284D01*
X0081689Y0141278D01*
X0081591Y0141276D01*
X0071091Y0141276D01*
X0066091Y0138776D02*
X0044091Y0138776D01*
X0042818Y0138417D02*
X0039118Y0138417D01*
X0041591Y0141276D02*
X0041593Y0141178D01*
X0041599Y0141080D01*
X0041608Y0140982D01*
X0041622Y0140885D01*
X0041639Y0140788D01*
X0041660Y0140692D01*
X0041685Y0140597D01*
X0041713Y0140503D01*
X0041746Y0140411D01*
X0041781Y0140319D01*
X0041821Y0140229D01*
X0041863Y0140141D01*
X0041910Y0140054D01*
X0041959Y0139970D01*
X0042012Y0139887D01*
X0042068Y0139807D01*
X0042128Y0139728D01*
X0042190Y0139652D01*
X0042255Y0139579D01*
X0042323Y0139508D01*
X0042394Y0139440D01*
X0042467Y0139375D01*
X0042543Y0139313D01*
X0042622Y0139253D01*
X0042702Y0139197D01*
X0042785Y0139144D01*
X0042869Y0139095D01*
X0042956Y0139048D01*
X0043044Y0139006D01*
X0043134Y0138966D01*
X0043226Y0138931D01*
X0043318Y0138898D01*
X0043412Y0138870D01*
X0043507Y0138845D01*
X0043603Y0138824D01*
X0043700Y0138807D01*
X0043797Y0138793D01*
X0043895Y0138784D01*
X0043993Y0138778D01*
X0044091Y0138776D01*
X0023118Y0138417D02*
X0023118Y0145917D01*
X0019418Y0145917D02*
X0019418Y0138417D01*
D11*
X0004484Y0003425D02*
X0084012Y0003425D01*
X0084012Y0137283D01*
X0004484Y0137283D01*
X0004484Y0003425D01*
X0012413Y0003807D02*
X0012413Y0118768D01*
X0090366Y0118768D01*
X0090366Y0003807D01*
X0012413Y0003807D01*
X0113630Y0001815D02*
X0174654Y0001815D01*
X0174654Y0076618D01*
X0113630Y0076618D01*
X0113630Y0001815D01*
X0114551Y0103441D02*
X0177543Y0103441D01*
X0177543Y0169189D02*
X0177543Y0197929D01*
X0114551Y0197929D01*
X0114551Y0169189D01*
X0046871Y0168918D02*
X0046120Y0168167D01*
X0044619Y0168167D01*
X0043868Y0168918D01*
X0045369Y0170419D02*
X0046120Y0170419D01*
X0046871Y0169669D01*
X0046871Y0168918D01*
X0046120Y0170419D02*
X0046871Y0171170D01*
X0046871Y0171921D01*
X0046120Y0172671D01*
X0044619Y0172671D01*
X0043868Y0171921D01*
X0026871Y0171921D02*
X0026871Y0171170D01*
X0023868Y0168167D01*
X0026871Y0168167D01*
X0026871Y0171921D02*
X0026120Y0172671D01*
X0024619Y0172671D01*
X0023868Y0171921D01*
X0006871Y0168167D02*
X0003868Y0168167D01*
X0005369Y0168167D02*
X0005369Y0172671D01*
X0003868Y0171170D01*
D12*
X0089705Y0168472D02*
X0089705Y0166406D01*
X0094626Y0166406D01*
X0094626Y0168374D01*
X0089705Y0168472D02*
X0110866Y0168472D01*
X0110866Y0167882D01*
X0110866Y0153118D01*
X0110866Y0152528D01*
X0089705Y0152528D01*
X0089705Y0154594D01*
X0094626Y0154594D01*
X0094626Y0152626D01*
X0104469Y0157547D02*
X0106437Y0158039D01*
X0104469Y0158531D01*
X0104469Y0162469D02*
X0106437Y0162961D01*
X0104469Y0163453D01*
X0110823Y0141280D02*
X0089661Y0141280D01*
X0089661Y0139213D01*
X0094583Y0139213D01*
X0094583Y0141181D01*
X0104425Y0136260D02*
X0106394Y0135768D01*
X0104425Y0135276D01*
X0104425Y0131339D02*
X0106394Y0130846D01*
X0104425Y0130354D01*
X0104425Y0126417D02*
X0106394Y0125925D01*
X0104425Y0125433D01*
X0110823Y0121004D02*
X0110823Y0120413D01*
X0089661Y0120413D01*
X0089661Y0122480D01*
X0094583Y0122480D01*
X0094583Y0120512D01*
X0110823Y0121004D02*
X0110823Y0140689D01*
X0110823Y0141280D01*
X0189016Y0105177D02*
X0189016Y0103110D01*
X0193937Y0103110D01*
X0193937Y0105079D01*
X0189016Y0105177D02*
X0210177Y0105177D01*
X0210177Y0104587D01*
X0210177Y0070138D01*
X0210177Y0069547D01*
X0189016Y0069547D01*
X0189016Y0071614D01*
X0193937Y0071614D01*
X0193937Y0069646D01*
X0203780Y0074567D02*
X0205748Y0075059D01*
X0203780Y0075551D01*
X0203780Y0079488D02*
X0205748Y0079980D01*
X0203780Y0080472D01*
X0203780Y0084409D02*
X0205748Y0084902D01*
X0203780Y0085394D01*
X0203780Y0089331D02*
X0205748Y0089823D01*
X0203780Y0090315D01*
X0203780Y0094252D02*
X0205748Y0094744D01*
X0203780Y0095236D01*
X0203780Y0099173D02*
X0205748Y0099665D01*
X0203780Y0100157D01*
D13*
X0203780Y0102126D02*
X0200335Y0102126D01*
X0200335Y0072598D01*
X0203780Y0072598D01*
X0203780Y0071614D01*
X0208701Y0071614D01*
X0210177Y0070138D01*
X0208701Y0071614D02*
X0208701Y0103110D01*
X0210177Y0104587D01*
X0208701Y0103110D02*
X0203780Y0103110D01*
X0203780Y0102126D01*
X0203780Y0103110D02*
X0203780Y0105079D01*
X0203780Y0071614D02*
X0203780Y0069646D01*
X0187299Y0062130D02*
X0187299Y0034630D01*
X0188799Y0034630D02*
X0188799Y0044630D01*
X0192799Y0034630D02*
X0192799Y0024630D01*
X0194299Y0034630D02*
X0194299Y0007130D01*
X0104425Y0120512D02*
X0104425Y0122480D01*
X0109346Y0122480D01*
X0110823Y0121004D01*
X0109346Y0122480D02*
X0109346Y0139213D01*
X0110823Y0140689D01*
X0109346Y0139213D02*
X0104425Y0139213D01*
X0104425Y0138228D01*
X0100980Y0138228D01*
X0100980Y0123465D01*
X0104425Y0123465D01*
X0104425Y0122480D01*
X0104425Y0139213D02*
X0104425Y0141181D01*
X0104469Y0152626D02*
X0104469Y0154594D01*
X0109390Y0154594D01*
X0110866Y0153118D01*
X0109390Y0154594D02*
X0109390Y0166406D01*
X0110866Y0167882D01*
X0109390Y0166406D02*
X0104469Y0166406D01*
X0104469Y0165421D01*
X0101024Y0165421D01*
X0101024Y0155579D01*
X0104469Y0155579D01*
X0104469Y0154594D01*
X0104469Y0166406D02*
X0104469Y0168374D01*
X0079091Y0150276D02*
X0051591Y0150276D01*
X0051591Y0148776D02*
X0061591Y0148776D01*
X0051591Y0144776D02*
X0041591Y0144776D01*
X0051591Y0143276D02*
X0024091Y0143276D01*
X0009383Y0130744D02*
X0008282Y0129643D01*
X0008649Y0129276D02*
X0007181Y0130744D01*
X0007181Y0129276D02*
X0009383Y0129276D01*
X0009383Y0128534D02*
X0009383Y0127066D01*
X0007181Y0127066D01*
X0007181Y0126324D02*
X0009383Y0126324D01*
X0008282Y0126324D02*
X0008282Y0124856D01*
X0009383Y0124856D02*
X0007181Y0124856D01*
X0033000Y0173138D02*
X0073000Y0173138D01*
X0073500Y0184638D02*
X0032500Y0184638D01*
X0033000Y0196138D02*
X0073000Y0196138D01*
D14*
X0102746Y0162961D03*
X0102746Y0158039D03*
X0102703Y0135768D03*
X0102703Y0130846D03*
X0102703Y0125925D03*
X0202057Y0099665D03*
X0202057Y0094744D03*
X0202057Y0089823D03*
X0202057Y0084902D03*
X0202057Y0079980D03*
X0202057Y0075059D03*
D15*
X0074250Y0174388D03*
X0074250Y0194888D03*
X0031750Y0194888D03*
X0031750Y0174388D03*
D16*
X0031750Y0184638D03*
X0074250Y0184638D03*
D17*
X0053000Y0194138D03*
X0053000Y0175138D03*
D18*
X0083250Y0176888D03*
X0083250Y0192388D03*
X0022750Y0192388D03*
X0022750Y0176888D03*
D19*
X0021000Y0175638D03*
X0021000Y0193638D03*
X0085000Y0193638D03*
X0085000Y0175638D03*
D20*
X0126015Y0159239D02*
X0126015Y0154035D01*
X0129485Y0154035D01*
X0131172Y0154902D02*
X0132039Y0154035D01*
X0133774Y0154035D01*
X0134641Y0154902D01*
X0134641Y0155769D01*
X0133774Y0156637D01*
X0132039Y0156637D01*
X0131172Y0157504D01*
X0131172Y0158372D01*
X0132039Y0159239D01*
X0133774Y0159239D01*
X0134641Y0158372D01*
X0136328Y0159239D02*
X0138930Y0159239D01*
X0139798Y0158372D01*
X0139798Y0156637D01*
X0138930Y0155769D01*
X0136328Y0155769D01*
X0136328Y0154035D02*
X0136328Y0159239D01*
X0129485Y0159239D02*
X0126015Y0159239D01*
X0126015Y0156637D02*
X0127750Y0156637D01*
X0146641Y0156637D02*
X0150111Y0156637D01*
X0156954Y0157504D02*
X0158689Y0159239D01*
X0158689Y0154035D01*
X0160423Y0154035D02*
X0156954Y0154035D01*
X0162110Y0154035D02*
X0165580Y0157504D01*
X0165580Y0158372D01*
X0164712Y0159239D01*
X0162977Y0159239D01*
X0162110Y0158372D01*
X0162110Y0154035D02*
X0165580Y0154035D01*
X0064284Y0084364D02*
X0064284Y0081295D01*
X0064284Y0082830D02*
X0059680Y0082830D01*
X0061215Y0081295D01*
X0060448Y0079761D02*
X0063517Y0076691D01*
X0064284Y0077459D01*
X0064284Y0078993D01*
X0063517Y0079761D01*
X0060448Y0079761D01*
X0059680Y0078993D01*
X0059680Y0077459D01*
X0060448Y0076691D01*
X0063517Y0076691D01*
X0064284Y0075157D02*
X0059680Y0075157D01*
X0061215Y0073622D01*
X0059680Y0072087D01*
X0064284Y0072087D01*
X0062750Y0069785D02*
X0062750Y0067483D01*
X0064284Y0067483D02*
X0059680Y0067483D01*
X0059680Y0069785D01*
X0060448Y0070553D01*
X0061982Y0070553D01*
X0062750Y0069785D01*
X0061982Y0065949D02*
X0061982Y0062880D01*
X0059680Y0061345D02*
X0062750Y0058276D01*
X0061982Y0059043D02*
X0064284Y0061345D01*
X0064284Y0058276D02*
X0059680Y0058276D01*
X0059680Y0053672D02*
X0064284Y0053672D01*
X0064284Y0056741D01*
X0064284Y0052137D02*
X0059680Y0052137D01*
X0061982Y0052137D02*
X0061982Y0049068D01*
X0064284Y0049068D02*
X0059680Y0049068D01*
D21*
X0179717Y0050185D03*
D22*
X0179717Y0046435D03*
X0179717Y0066935D03*
D23*
X0108465Y0041236D03*
D24*
X0108465Y0034986D03*
X0108465Y0058486D03*
D25*
X0127150Y0173126D02*
X0152740Y0173126D01*
X0152740Y0181000D02*
X0148409Y0181000D01*
X0148409Y0194780D01*
X0144079Y0194780D01*
X0144079Y0180606D01*
X0139354Y0180606D01*
X0139354Y0194780D01*
X0134630Y0194780D01*
X0134630Y0180606D01*
X0130693Y0180606D01*
X0130693Y0195173D01*
X0127150Y0195173D01*
X0127150Y0175882D01*
X0127150Y0175488D02*
X0127150Y0173126D01*
X0152740Y0181000D02*
X0152740Y0194780D01*
X0168488Y0194780D01*
M02*
