G75*
%MOIN*%
%OFA0B0*%
%FSLAX25Y25*%
%IPPOS*%
%LPD*%
%AMOC8*
5,1,8,0,0,1.08239X$1,22.5*
%
%ADD10C,0.00000*%
%ADD11C,0.05200*%
%ADD12C,0.08268*%
%ADD13C,0.03969*%
%ADD14C,0.10000*%
%ADD15C,0.06000*%
%ADD16C,0.07600*%
%ADD17OC8,0.06300*%
%ADD18C,0.06300*%
%ADD19C,0.06496*%
%ADD20C,0.06600*%
%ADD21R,0.11811X0.04724*%
%ADD22R,0.05118X0.06299*%
%ADD23R,0.06299X0.05118*%
%ADD24C,0.07800*%
%ADD25C,0.01000*%
%ADD26C,0.04000*%
%ADD27C,0.20000*%
%ADD28C,0.07000*%
D10*
X0003165Y0001500D02*
X0200016Y0001500D01*
X0200016Y0198350D01*
X0177614Y0198350D01*
X0114189Y0198350D01*
X0003165Y0198350D01*
X0003165Y0001500D01*
D11*
X0119513Y0084208D02*
X0124713Y0084208D01*
X0124713Y0094208D02*
X0119513Y0094208D01*
X0154713Y0094208D02*
X0159913Y0094208D01*
X0159913Y0084208D02*
X0154713Y0084208D01*
X0179717Y0074285D02*
X0179717Y0069085D01*
X0179717Y0044285D02*
X0179717Y0039085D01*
D12*
X0167764Y0015201D03*
X0120520Y0015201D03*
X0120520Y0063232D03*
X0144142Y0071106D03*
X0167764Y0063232D03*
D13*
X0190969Y0075059D02*
X0194937Y0075059D01*
X0194937Y0079980D02*
X0190969Y0079980D01*
X0190969Y0084902D02*
X0194937Y0084902D01*
X0194937Y0089823D02*
X0190969Y0089823D01*
X0190969Y0094744D02*
X0194937Y0094744D01*
X0194937Y0099665D02*
X0190969Y0099665D01*
X0095583Y0125925D02*
X0091614Y0125925D01*
X0091614Y0130846D02*
X0095583Y0130846D01*
X0095583Y0135768D02*
X0091614Y0135768D01*
X0091657Y0158039D02*
X0095626Y0158039D01*
X0095626Y0162961D02*
X0091657Y0162961D01*
D14*
X0097300Y0179638D02*
X0097300Y0189638D01*
X0008700Y0189638D02*
X0008700Y0179638D01*
D15*
X0036591Y0152776D02*
X0036591Y0146776D01*
X0066591Y0146776D02*
X0066591Y0140776D01*
X0189335Y0141937D02*
X0195335Y0141937D01*
X0195335Y0131937D02*
X0189335Y0131937D01*
X0189335Y0121937D02*
X0195335Y0121937D01*
X0195335Y0111937D02*
X0189335Y0111937D01*
X0189335Y0151937D02*
X0195335Y0151937D01*
X0195335Y0161937D02*
X0189335Y0161937D01*
X0190799Y0049630D02*
X0196799Y0049630D01*
X0190799Y0019630D02*
X0184799Y0019630D01*
D16*
X0080524Y0114437D03*
X0060839Y0114437D03*
X0074563Y0012480D03*
X0059264Y0008138D03*
X0039972Y0008138D03*
X0020287Y0008138D03*
X0013933Y0012480D03*
D17*
X0101335Y0073543D03*
X0101228Y0094370D03*
D18*
X0101228Y0104370D03*
X0101335Y0083543D03*
D19*
X0054091Y0124980D02*
X0054091Y0131476D01*
X0034406Y0131476D02*
X0034406Y0124980D01*
D20*
X0108465Y0066736D03*
X0108465Y0026736D03*
D21*
X0113764Y0109740D03*
X0113764Y0117614D03*
X0113764Y0125488D03*
X0113764Y0133362D03*
X0113764Y0141236D03*
X0113764Y0149110D03*
X0113764Y0156984D03*
X0113764Y0164858D03*
X0178331Y0164858D03*
X0178331Y0156984D03*
X0178331Y0149110D03*
X0178331Y0141236D03*
X0178331Y0133362D03*
X0178331Y0125488D03*
X0178331Y0117614D03*
X0178331Y0109740D03*
D22*
X0184787Y0177961D03*
X0192268Y0177961D03*
X0099496Y0147055D03*
X0092016Y0147055D03*
D23*
X0108264Y0175232D03*
X0108264Y0182713D03*
D24*
X0050818Y0166817D02*
X0050818Y0159017D01*
X0031118Y0159017D02*
X0031118Y0166817D01*
X0011418Y0166817D02*
X0011418Y0159017D01*
D25*
X0007665Y0154851D02*
X0008246Y0154270D01*
X0010304Y0153417D01*
X0012532Y0153417D01*
X0014590Y0154270D01*
X0016166Y0155845D01*
X0017018Y0157903D01*
X0017018Y0167931D01*
X0016166Y0169989D01*
X0014590Y0171565D01*
X0012532Y0172417D01*
X0010304Y0172417D01*
X0008246Y0171565D01*
X0007665Y0170984D01*
X0007665Y0172938D01*
X0010033Y0172938D01*
X0012495Y0173958D01*
X0014380Y0175843D01*
X0015400Y0178305D01*
X0015400Y0190971D01*
X0014380Y0193433D01*
X0013963Y0193850D01*
X0027054Y0193850D01*
X0025963Y0191961D01*
X0025166Y0188985D01*
X0025166Y0185905D01*
X0025963Y0182929D01*
X0027504Y0180261D01*
X0029682Y0178083D01*
X0032350Y0176542D01*
X0035326Y0175745D01*
X0038406Y0175745D01*
X0041382Y0176542D01*
X0044050Y0178083D01*
X0046228Y0180261D01*
X0047769Y0182929D01*
X0048566Y0185905D01*
X0048566Y0188985D01*
X0047769Y0191961D01*
X0046678Y0193850D01*
X0092037Y0193850D01*
X0091620Y0193433D01*
X0090600Y0190971D01*
X0090600Y0178305D01*
X0091620Y0175843D01*
X0093505Y0173958D01*
X0095967Y0172938D01*
X0098633Y0172938D01*
X0101095Y0173958D01*
X0102980Y0175843D01*
X0103414Y0176891D01*
X0103414Y0175960D01*
X0099965Y0172511D01*
X0099965Y0169300D01*
X0089554Y0169300D01*
X0085054Y0164800D01*
X0083765Y0163511D01*
X0083765Y0124789D01*
X0099606Y0108948D01*
X0098481Y0108482D01*
X0097117Y0107117D01*
X0096378Y0105335D01*
X0096378Y0103405D01*
X0096431Y0103277D01*
X0069454Y0076300D01*
X0068129Y0076300D01*
X0066769Y0075737D01*
X0065729Y0074696D01*
X0065165Y0073336D01*
X0065165Y0071864D01*
X0065729Y0070504D01*
X0066769Y0069463D01*
X0068129Y0068900D01*
X0069601Y0068900D01*
X0070961Y0069463D01*
X0072002Y0070504D01*
X0072565Y0071864D01*
X0072565Y0073189D01*
X0099297Y0099920D01*
X0100264Y0099520D01*
X0102193Y0099520D01*
X0103976Y0100258D01*
X0105340Y0101623D01*
X0106078Y0103405D01*
X0106078Y0105335D01*
X0105678Y0106301D01*
X0106158Y0106782D01*
X0106158Y0106674D01*
X0107154Y0105678D01*
X0120373Y0105678D01*
X0121075Y0106379D01*
X0152554Y0074900D01*
X0161554Y0074900D01*
X0167388Y0069066D01*
X0166603Y0069066D01*
X0164459Y0068178D01*
X0162818Y0066537D01*
X0162513Y0065800D01*
X0160677Y0065800D01*
X0142165Y0084311D01*
X0140877Y0085600D01*
X0128790Y0085600D01*
X0128358Y0086643D01*
X0127148Y0087853D01*
X0125568Y0088508D01*
X0118657Y0088508D01*
X0117077Y0087853D01*
X0115867Y0086643D01*
X0115808Y0086500D01*
X0105237Y0086500D01*
X0104082Y0087655D01*
X0102299Y0088393D01*
X0100370Y0088393D01*
X0098587Y0087655D01*
X0097223Y0086291D01*
X0096485Y0084508D01*
X0096485Y0082579D01*
X0096733Y0081979D01*
X0025654Y0010900D01*
X0025096Y0010900D01*
X0024950Y0011253D01*
X0023403Y0012800D01*
X0021381Y0013638D01*
X0019407Y0013638D01*
X0018596Y0015596D01*
X0017049Y0017143D01*
X0015027Y0017980D01*
X0012839Y0017980D01*
X0010818Y0017143D01*
X0009270Y0015596D01*
X0008433Y0013574D01*
X0008433Y0011386D01*
X0009270Y0009365D01*
X0010818Y0007818D01*
X0012839Y0006980D01*
X0014814Y0006980D01*
X0015220Y0006000D01*
X0007665Y0006000D01*
X0007665Y0142257D01*
X0009383Y0142257D01*
X0011294Y0143048D01*
X0012757Y0144511D01*
X0013548Y0146422D01*
X0013548Y0148491D01*
X0012757Y0150402D01*
X0011294Y0151865D01*
X0009383Y0152657D01*
X0007665Y0152657D01*
X0007665Y0154851D01*
X0007665Y0154272D02*
X0008244Y0154272D01*
X0007665Y0153274D02*
X0031891Y0153274D01*
X0031891Y0153417D02*
X0031891Y0150806D01*
X0031101Y0151595D01*
X0029190Y0152387D01*
X0027121Y0152387D01*
X0025210Y0151595D01*
X0023747Y0150133D01*
X0022956Y0148221D01*
X0022956Y0146153D01*
X0023747Y0144241D01*
X0025210Y0142779D01*
X0027121Y0141987D01*
X0029190Y0141987D01*
X0031101Y0142779D01*
X0032556Y0144234D01*
X0032606Y0144113D01*
X0033928Y0142791D01*
X0035656Y0142076D01*
X0037525Y0142076D01*
X0039253Y0142791D01*
X0040575Y0144113D01*
X0041291Y0145841D01*
X0041291Y0153710D01*
X0040575Y0155438D01*
X0039253Y0156760D01*
X0037525Y0157476D01*
X0036541Y0157476D01*
X0036718Y0157903D01*
X0036718Y0167931D01*
X0035866Y0169989D01*
X0034290Y0171565D01*
X0032232Y0172417D01*
X0030004Y0172417D01*
X0027946Y0171565D01*
X0026371Y0169989D01*
X0025518Y0167931D01*
X0025518Y0157903D01*
X0026371Y0155845D01*
X0027946Y0154270D01*
X0030004Y0153417D01*
X0031891Y0153417D01*
X0031891Y0152275D02*
X0029460Y0152275D01*
X0031420Y0151277D02*
X0031891Y0151277D01*
X0027944Y0154272D02*
X0014593Y0154272D01*
X0015591Y0155271D02*
X0026945Y0155271D01*
X0026195Y0156269D02*
X0016341Y0156269D01*
X0016755Y0157268D02*
X0025781Y0157268D01*
X0025518Y0158266D02*
X0017018Y0158266D01*
X0017018Y0159265D02*
X0025518Y0159265D01*
X0025518Y0160263D02*
X0017018Y0160263D01*
X0017018Y0161262D02*
X0025518Y0161262D01*
X0025518Y0162260D02*
X0017018Y0162260D01*
X0017018Y0163259D02*
X0025518Y0163259D01*
X0025518Y0164257D02*
X0017018Y0164257D01*
X0017018Y0165256D02*
X0025518Y0165256D01*
X0025518Y0166254D02*
X0017018Y0166254D01*
X0017018Y0167253D02*
X0025518Y0167253D01*
X0025651Y0168251D02*
X0016885Y0168251D01*
X0016472Y0169250D02*
X0026064Y0169250D01*
X0026630Y0170248D02*
X0015907Y0170248D01*
X0014908Y0171247D02*
X0027628Y0171247D01*
X0029589Y0172245D02*
X0012947Y0172245D01*
X0012780Y0174242D02*
X0093220Y0174242D01*
X0092222Y0175241D02*
X0013778Y0175241D01*
X0014544Y0176239D02*
X0033480Y0176239D01*
X0031145Y0177238D02*
X0014958Y0177238D01*
X0015372Y0178237D02*
X0029528Y0178237D01*
X0028530Y0179235D02*
X0015400Y0179235D01*
X0015400Y0180234D02*
X0027531Y0180234D01*
X0026943Y0181232D02*
X0015400Y0181232D01*
X0015400Y0182231D02*
X0026367Y0182231D01*
X0025883Y0183229D02*
X0015400Y0183229D01*
X0015400Y0184228D02*
X0025615Y0184228D01*
X0025348Y0185226D02*
X0015400Y0185226D01*
X0015400Y0186225D02*
X0025166Y0186225D01*
X0025166Y0187223D02*
X0015400Y0187223D01*
X0015400Y0188222D02*
X0025166Y0188222D01*
X0025229Y0189220D02*
X0015400Y0189220D01*
X0015400Y0190219D02*
X0025497Y0190219D01*
X0025764Y0191217D02*
X0015298Y0191217D01*
X0014884Y0192216D02*
X0026111Y0192216D01*
X0026687Y0193214D02*
X0014471Y0193214D01*
X0010772Y0173244D02*
X0095228Y0173244D01*
X0099372Y0173244D02*
X0100698Y0173244D01*
X0101380Y0174242D02*
X0101697Y0174242D01*
X0102378Y0175241D02*
X0102695Y0175241D01*
X0103144Y0176239D02*
X0103414Y0176239D01*
X0105765Y0175200D02*
X0107565Y0175200D01*
X0108264Y0175232D01*
X0105765Y0175200D02*
X0102165Y0171600D01*
X0102165Y0167100D01*
X0090465Y0167100D01*
X0085965Y0162600D01*
X0085965Y0125700D01*
X0103965Y0107700D01*
X0105765Y0109500D01*
X0112965Y0109500D01*
X0113764Y0109740D01*
X0107029Y0113677D02*
X0106158Y0112807D01*
X0106158Y0111700D01*
X0104854Y0111700D01*
X0103965Y0110811D01*
X0092536Y0122241D01*
X0096316Y0122241D01*
X0097670Y0122802D01*
X0098706Y0123838D01*
X0099267Y0125192D01*
X0099267Y0126658D01*
X0098711Y0128000D01*
X0105754Y0128000D01*
X0106158Y0127596D01*
X0106158Y0122422D01*
X0107029Y0121551D01*
X0106158Y0120681D01*
X0106158Y0114548D01*
X0107029Y0113677D01*
X0106685Y0113333D02*
X0101443Y0113333D01*
X0100445Y0114332D02*
X0106374Y0114332D01*
X0106158Y0115330D02*
X0099446Y0115330D01*
X0098448Y0116329D02*
X0106158Y0116329D01*
X0106158Y0117327D02*
X0097449Y0117327D01*
X0096451Y0118326D02*
X0106158Y0118326D01*
X0106158Y0119324D02*
X0095452Y0119324D01*
X0094454Y0120323D02*
X0106158Y0120323D01*
X0106799Y0121321D02*
X0093455Y0121321D01*
X0096506Y0122320D02*
X0106260Y0122320D01*
X0106158Y0123318D02*
X0098186Y0123318D01*
X0098904Y0124317D02*
X0106158Y0124317D01*
X0106158Y0125315D02*
X0099267Y0125315D01*
X0099267Y0126314D02*
X0106158Y0126314D01*
X0106158Y0127312D02*
X0098996Y0127312D01*
X0098927Y0132400D02*
X0098706Y0132933D01*
X0098332Y0133307D01*
X0098706Y0133681D01*
X0099267Y0135035D01*
X0099267Y0136501D01*
X0098706Y0137855D01*
X0097670Y0138891D01*
X0096316Y0139452D01*
X0095125Y0139452D01*
X0092371Y0142206D01*
X0095279Y0142206D01*
X0095756Y0142682D01*
X0096233Y0142206D01*
X0102759Y0142206D01*
X0103755Y0143201D01*
X0103755Y0145100D01*
X0106956Y0145100D01*
X0106158Y0144303D01*
X0106158Y0138170D01*
X0107029Y0137299D01*
X0106158Y0136429D01*
X0106158Y0132400D01*
X0098927Y0132400D01*
X0098336Y0133303D02*
X0106158Y0133303D01*
X0106158Y0134302D02*
X0098963Y0134302D01*
X0099267Y0135301D02*
X0106158Y0135301D01*
X0106158Y0136299D02*
X0099267Y0136299D01*
X0098937Y0137298D02*
X0107027Y0137298D01*
X0106158Y0138296D02*
X0098265Y0138296D01*
X0096696Y0139295D02*
X0106158Y0139295D01*
X0106158Y0140293D02*
X0094284Y0140293D01*
X0093285Y0141292D02*
X0106158Y0141292D01*
X0106158Y0142290D02*
X0102844Y0142290D01*
X0103755Y0143289D02*
X0106158Y0143289D01*
X0106158Y0144287D02*
X0103755Y0144287D01*
X0100365Y0147300D02*
X0099496Y0147055D01*
X0100365Y0147300D02*
X0111165Y0147300D01*
X0112965Y0149100D01*
X0113764Y0149110D01*
X0106158Y0149500D02*
X0103755Y0149500D01*
X0103755Y0150909D01*
X0102759Y0151905D01*
X0097281Y0151905D01*
X0102477Y0157100D01*
X0103801Y0157100D01*
X0105161Y0157663D01*
X0106158Y0158660D01*
X0106158Y0153918D01*
X0107029Y0153047D01*
X0106158Y0152177D01*
X0106158Y0149500D01*
X0106158Y0150278D02*
X0103755Y0150278D01*
X0103387Y0151277D02*
X0106158Y0151277D01*
X0106257Y0152275D02*
X0097652Y0152275D01*
X0098650Y0153274D02*
X0106802Y0153274D01*
X0106158Y0154272D02*
X0099649Y0154272D01*
X0100647Y0155271D02*
X0106158Y0155271D01*
X0106158Y0156269D02*
X0101646Y0156269D01*
X0104206Y0157268D02*
X0106158Y0157268D01*
X0106158Y0158266D02*
X0105764Y0158266D01*
X0106765Y0160658D02*
X0106765Y0161185D01*
X0107029Y0160921D01*
X0106765Y0160658D01*
X0106158Y0162940D02*
X0105161Y0163937D01*
X0104365Y0164266D01*
X0104365Y0166189D01*
X0104365Y0166375D01*
X0105029Y0166100D01*
X0106158Y0166100D01*
X0106158Y0162940D01*
X0106158Y0163259D02*
X0105839Y0163259D01*
X0106158Y0164257D02*
X0104387Y0164257D01*
X0104365Y0165256D02*
X0106158Y0165256D01*
X0104657Y0166254D02*
X0104365Y0166254D01*
X0102165Y0167100D02*
X0102165Y0160800D01*
X0103065Y0160800D01*
X0102165Y0160800D02*
X0102165Y0159900D01*
X0092265Y0150000D01*
X0092265Y0147300D01*
X0092016Y0147055D01*
X0091059Y0151905D02*
X0090981Y0151905D01*
X0093432Y0154355D01*
X0093509Y0154355D01*
X0091059Y0151905D01*
X0091352Y0152275D02*
X0091429Y0152275D01*
X0092350Y0153274D02*
X0092428Y0153274D01*
X0093349Y0154272D02*
X0093426Y0154272D01*
X0093165Y0157200D02*
X0093642Y0158039D01*
X0093165Y0157200D02*
X0087765Y0151800D01*
X0087765Y0143700D01*
X0093165Y0138300D01*
X0093165Y0136500D01*
X0093598Y0135768D01*
X0089495Y0138859D02*
X0088165Y0140189D01*
X0088165Y0137069D01*
X0088491Y0137855D01*
X0089495Y0138859D01*
X0089060Y0139295D02*
X0088165Y0139295D01*
X0088165Y0138296D02*
X0088932Y0138296D01*
X0088260Y0137298D02*
X0088165Y0137298D01*
X0088165Y0134467D02*
X0088491Y0133681D01*
X0088864Y0133307D01*
X0088491Y0132933D01*
X0088165Y0132148D01*
X0088165Y0134467D01*
X0088165Y0134302D02*
X0088233Y0134302D01*
X0088165Y0133303D02*
X0088861Y0133303D01*
X0088231Y0132305D02*
X0088165Y0132305D01*
X0088165Y0129545D02*
X0088491Y0128759D01*
X0088864Y0128386D01*
X0088491Y0128012D01*
X0088165Y0127226D01*
X0088165Y0129545D01*
X0088165Y0129309D02*
X0088263Y0129309D01*
X0088165Y0128311D02*
X0088790Y0128311D01*
X0088201Y0127312D02*
X0088165Y0127312D01*
X0083765Y0127312D02*
X0059039Y0127312D01*
X0059039Y0126314D02*
X0083765Y0126314D01*
X0083765Y0125315D02*
X0059039Y0125315D01*
X0059039Y0124317D02*
X0084237Y0124317D01*
X0085236Y0123318D02*
X0058758Y0123318D01*
X0059039Y0123996D02*
X0058285Y0122177D01*
X0056893Y0120786D01*
X0055075Y0120032D01*
X0053106Y0120032D01*
X0051288Y0120786D01*
X0049896Y0122177D01*
X0049143Y0123996D01*
X0049143Y0132461D01*
X0049896Y0134279D01*
X0051288Y0135671D01*
X0053106Y0136424D01*
X0055075Y0136424D01*
X0056893Y0135671D01*
X0058285Y0134279D01*
X0059039Y0132461D01*
X0059039Y0123996D01*
X0058344Y0122320D02*
X0086234Y0122320D01*
X0087233Y0121321D02*
X0057429Y0121321D01*
X0055776Y0120323D02*
X0088231Y0120323D01*
X0089230Y0119324D02*
X0083097Y0119324D01*
X0083639Y0119100D02*
X0081618Y0119937D01*
X0079430Y0119937D01*
X0077408Y0119100D01*
X0075861Y0117552D01*
X0075024Y0115531D01*
X0075024Y0113343D01*
X0075861Y0111322D01*
X0077408Y0109774D01*
X0079430Y0108937D01*
X0081618Y0108937D01*
X0083639Y0109774D01*
X0085186Y0111322D01*
X0086024Y0113343D01*
X0086024Y0115531D01*
X0085186Y0117552D01*
X0083639Y0119100D01*
X0084413Y0118326D02*
X0090228Y0118326D01*
X0091227Y0117327D02*
X0085280Y0117327D01*
X0085693Y0116329D02*
X0092225Y0116329D01*
X0093224Y0115330D02*
X0086024Y0115330D01*
X0086024Y0114332D02*
X0094222Y0114332D01*
X0095221Y0113333D02*
X0086020Y0113333D01*
X0085606Y0112335D02*
X0096219Y0112335D01*
X0097218Y0111336D02*
X0085192Y0111336D01*
X0084203Y0110338D02*
X0098216Y0110338D01*
X0099215Y0109339D02*
X0082589Y0109339D01*
X0078459Y0109339D02*
X0062904Y0109339D01*
X0061933Y0108937D02*
X0063954Y0109774D01*
X0065501Y0111322D01*
X0066339Y0113343D01*
X0066339Y0115531D01*
X0065501Y0117552D01*
X0063954Y0119100D01*
X0061933Y0119937D01*
X0059745Y0119937D01*
X0057723Y0119100D01*
X0056176Y0117552D01*
X0055339Y0115531D01*
X0055339Y0113343D01*
X0056176Y0111322D01*
X0057723Y0109774D01*
X0059745Y0108937D01*
X0061933Y0108937D01*
X0064517Y0110338D02*
X0076845Y0110338D01*
X0075855Y0111336D02*
X0065507Y0111336D01*
X0065921Y0112335D02*
X0075441Y0112335D01*
X0075028Y0113333D02*
X0066335Y0113333D01*
X0066339Y0114332D02*
X0075024Y0114332D01*
X0075024Y0115330D02*
X0066339Y0115330D01*
X0066008Y0116329D02*
X0075354Y0116329D01*
X0075768Y0117327D02*
X0065595Y0117327D01*
X0064728Y0118326D02*
X0076634Y0118326D01*
X0077951Y0119324D02*
X0063412Y0119324D01*
X0058265Y0119324D02*
X0007665Y0119324D01*
X0007665Y0118326D02*
X0056949Y0118326D01*
X0056083Y0117327D02*
X0007665Y0117327D01*
X0007665Y0116329D02*
X0055669Y0116329D01*
X0055339Y0115330D02*
X0007665Y0115330D01*
X0007665Y0114332D02*
X0055339Y0114332D01*
X0055343Y0113333D02*
X0007665Y0113333D01*
X0007665Y0112335D02*
X0055756Y0112335D01*
X0056170Y0111336D02*
X0007665Y0111336D01*
X0007665Y0110338D02*
X0057160Y0110338D01*
X0058774Y0109339D02*
X0007665Y0109339D01*
X0007665Y0108341D02*
X0098340Y0108341D01*
X0097342Y0107342D02*
X0007665Y0107342D01*
X0007665Y0106344D02*
X0096796Y0106344D01*
X0096383Y0105345D02*
X0007665Y0105345D01*
X0007665Y0104347D02*
X0096378Y0104347D01*
X0096402Y0103348D02*
X0007665Y0103348D01*
X0007665Y0102350D02*
X0095504Y0102350D01*
X0094505Y0101351D02*
X0007665Y0101351D01*
X0007665Y0100353D02*
X0093507Y0100353D01*
X0092508Y0099354D02*
X0007665Y0099354D01*
X0007665Y0098356D02*
X0091510Y0098356D01*
X0090511Y0097357D02*
X0007665Y0097357D01*
X0007665Y0096359D02*
X0089513Y0096359D01*
X0088514Y0095360D02*
X0007665Y0095360D01*
X0007665Y0094362D02*
X0087516Y0094362D01*
X0086517Y0093363D02*
X0007665Y0093363D01*
X0007665Y0092365D02*
X0085519Y0092365D01*
X0084520Y0091366D02*
X0007665Y0091366D01*
X0007665Y0090368D02*
X0083522Y0090368D01*
X0082523Y0089369D02*
X0007665Y0089369D01*
X0007665Y0088370D02*
X0081525Y0088370D01*
X0080526Y0087372D02*
X0007665Y0087372D01*
X0007665Y0086373D02*
X0079528Y0086373D01*
X0078529Y0085375D02*
X0007665Y0085375D01*
X0007665Y0084376D02*
X0077531Y0084376D01*
X0076532Y0083378D02*
X0007665Y0083378D01*
X0007665Y0082379D02*
X0075534Y0082379D01*
X0074535Y0081381D02*
X0007665Y0081381D01*
X0007665Y0080382D02*
X0073536Y0080382D01*
X0072538Y0079384D02*
X0007665Y0079384D01*
X0007665Y0078385D02*
X0071539Y0078385D01*
X0070541Y0077387D02*
X0007665Y0077387D01*
X0007665Y0076388D02*
X0069542Y0076388D01*
X0066423Y0075390D02*
X0007665Y0075390D01*
X0007665Y0074391D02*
X0065602Y0074391D01*
X0065189Y0073393D02*
X0007665Y0073393D01*
X0007665Y0072394D02*
X0065165Y0072394D01*
X0065359Y0071396D02*
X0007665Y0071396D01*
X0007665Y0070397D02*
X0065835Y0070397D01*
X0066925Y0069399D02*
X0007665Y0069399D01*
X0007665Y0068400D02*
X0083154Y0068400D01*
X0082156Y0067402D02*
X0007665Y0067402D01*
X0007665Y0066403D02*
X0081157Y0066403D01*
X0080159Y0065405D02*
X0007665Y0065405D01*
X0007665Y0064406D02*
X0079160Y0064406D01*
X0078162Y0063408D02*
X0007665Y0063408D01*
X0007665Y0062409D02*
X0077163Y0062409D01*
X0076165Y0061411D02*
X0007665Y0061411D01*
X0007665Y0060412D02*
X0075166Y0060412D01*
X0074168Y0059414D02*
X0007665Y0059414D01*
X0007665Y0058415D02*
X0073169Y0058415D01*
X0072171Y0057417D02*
X0007665Y0057417D01*
X0007665Y0056418D02*
X0071172Y0056418D01*
X0070174Y0055420D02*
X0007665Y0055420D01*
X0007665Y0054421D02*
X0069175Y0054421D01*
X0068177Y0053423D02*
X0007665Y0053423D01*
X0007665Y0052424D02*
X0067178Y0052424D01*
X0066180Y0051426D02*
X0007665Y0051426D01*
X0007665Y0050427D02*
X0065181Y0050427D01*
X0064183Y0049429D02*
X0007665Y0049429D01*
X0007665Y0048430D02*
X0063184Y0048430D01*
X0062186Y0047432D02*
X0007665Y0047432D01*
X0007665Y0046433D02*
X0061187Y0046433D01*
X0060189Y0045434D02*
X0007665Y0045434D01*
X0007665Y0044436D02*
X0059190Y0044436D01*
X0058192Y0043437D02*
X0007665Y0043437D01*
X0007665Y0042439D02*
X0057193Y0042439D01*
X0056195Y0041440D02*
X0007665Y0041440D01*
X0007665Y0040442D02*
X0055196Y0040442D01*
X0054198Y0039443D02*
X0007665Y0039443D01*
X0007665Y0038445D02*
X0053199Y0038445D01*
X0052201Y0037446D02*
X0007665Y0037446D01*
X0007665Y0036448D02*
X0051202Y0036448D01*
X0050203Y0035449D02*
X0007665Y0035449D01*
X0007665Y0034451D02*
X0049205Y0034451D01*
X0048206Y0033452D02*
X0007665Y0033452D01*
X0007665Y0032454D02*
X0047208Y0032454D01*
X0046209Y0031455D02*
X0007665Y0031455D01*
X0007665Y0030457D02*
X0045211Y0030457D01*
X0044212Y0029458D02*
X0007665Y0029458D01*
X0007665Y0028460D02*
X0043214Y0028460D01*
X0042215Y0027461D02*
X0007665Y0027461D01*
X0007665Y0026463D02*
X0041217Y0026463D01*
X0040218Y0025464D02*
X0007665Y0025464D01*
X0007665Y0024466D02*
X0039220Y0024466D01*
X0038221Y0023467D02*
X0007665Y0023467D01*
X0007665Y0022469D02*
X0037223Y0022469D01*
X0036224Y0021470D02*
X0007665Y0021470D01*
X0007665Y0020472D02*
X0035226Y0020472D01*
X0034227Y0019473D02*
X0007665Y0019473D01*
X0007665Y0018475D02*
X0033229Y0018475D01*
X0032230Y0017476D02*
X0016244Y0017476D01*
X0017714Y0016478D02*
X0031232Y0016478D01*
X0030233Y0015479D02*
X0018644Y0015479D01*
X0019058Y0014481D02*
X0029235Y0014481D01*
X0028236Y0013482D02*
X0021757Y0013482D01*
X0023720Y0012484D02*
X0027238Y0012484D01*
X0026239Y0011485D02*
X0024718Y0011485D01*
X0026565Y0008700D02*
X0021165Y0008700D01*
X0020287Y0008138D01*
X0020265Y0008700D01*
X0017565Y0008700D01*
X0013965Y0012300D01*
X0013933Y0012480D01*
X0008806Y0010487D02*
X0007665Y0010487D01*
X0007665Y0011485D02*
X0008433Y0011485D01*
X0008433Y0012484D02*
X0007665Y0012484D01*
X0007665Y0013482D02*
X0008433Y0013482D01*
X0008808Y0014481D02*
X0007665Y0014481D01*
X0007665Y0015479D02*
X0009222Y0015479D01*
X0010152Y0016478D02*
X0007665Y0016478D01*
X0007665Y0017476D02*
X0011622Y0017476D01*
X0009219Y0009488D02*
X0007665Y0009488D01*
X0007665Y0008490D02*
X0010146Y0008490D01*
X0011606Y0007491D02*
X0007665Y0007491D01*
X0007665Y0006493D02*
X0015016Y0006493D01*
X0025355Y0006000D02*
X0025562Y0006500D01*
X0027477Y0006500D01*
X0096485Y0075508D01*
X0096485Y0071831D01*
X0072965Y0048311D01*
X0072965Y0017772D01*
X0071447Y0017143D01*
X0069900Y0015596D01*
X0069063Y0013574D01*
X0069063Y0011386D01*
X0069264Y0010900D01*
X0064073Y0010900D01*
X0063926Y0011253D01*
X0062379Y0012800D01*
X0060358Y0013638D01*
X0058170Y0013638D01*
X0056148Y0012800D01*
X0054601Y0011253D01*
X0053764Y0009232D01*
X0053764Y0007044D01*
X0054196Y0006000D01*
X0045040Y0006000D01*
X0045472Y0007044D01*
X0045472Y0009232D01*
X0044635Y0011253D01*
X0043088Y0012800D01*
X0041066Y0013638D01*
X0038878Y0013638D01*
X0036857Y0012800D01*
X0035310Y0011253D01*
X0034472Y0009232D01*
X0034472Y0007044D01*
X0034905Y0006000D01*
X0025355Y0006000D01*
X0025559Y0006493D02*
X0034701Y0006493D01*
X0034472Y0007491D02*
X0028468Y0007491D01*
X0029466Y0008490D02*
X0034472Y0008490D01*
X0034579Y0009488D02*
X0030465Y0009488D01*
X0031463Y0010487D02*
X0034992Y0010487D01*
X0035542Y0011485D02*
X0032462Y0011485D01*
X0033460Y0012484D02*
X0036540Y0012484D01*
X0038503Y0013482D02*
X0034459Y0013482D01*
X0035457Y0014481D02*
X0069438Y0014481D01*
X0069063Y0013482D02*
X0060734Y0013482D01*
X0062696Y0012484D02*
X0069063Y0012484D01*
X0069063Y0011485D02*
X0063695Y0011485D01*
X0059865Y0008700D02*
X0059264Y0008138D01*
X0059865Y0008700D02*
X0070665Y0008700D01*
X0074265Y0012300D01*
X0074563Y0012480D01*
X0075165Y0013200D01*
X0075165Y0047400D01*
X0101265Y0073500D01*
X0101335Y0073543D01*
X0102165Y0073500D01*
X0118365Y0073500D01*
X0128265Y0063600D01*
X0140865Y0063600D01*
X0150765Y0053700D01*
X0154365Y0051900D02*
X0152565Y0050100D01*
X0148965Y0050100D01*
X0145365Y0053700D01*
X0141889Y0052424D02*
X0134453Y0052424D01*
X0134065Y0052811D02*
X0132777Y0054100D01*
X0125900Y0060977D01*
X0126354Y0062072D01*
X0126354Y0062401D01*
X0127354Y0061400D01*
X0139954Y0061400D01*
X0144152Y0057202D01*
X0143269Y0056837D01*
X0142229Y0055796D01*
X0141665Y0054436D01*
X0141665Y0052964D01*
X0142229Y0051604D01*
X0143269Y0050563D01*
X0144629Y0050000D01*
X0145954Y0050000D01*
X0146765Y0049189D01*
X0148054Y0047900D01*
X0153477Y0047900D01*
X0155277Y0049700D01*
X0156565Y0050989D01*
X0156565Y0056411D01*
X0147001Y0065976D01*
X0147446Y0066161D01*
X0149087Y0067802D01*
X0149976Y0069946D01*
X0149976Y0070279D01*
X0158854Y0061400D01*
X0162208Y0061400D01*
X0162818Y0059928D01*
X0164459Y0058287D01*
X0166603Y0057398D01*
X0168924Y0057398D01*
X0169724Y0057730D01*
X0177365Y0050089D01*
X0177365Y0047965D01*
X0177281Y0047930D01*
X0176071Y0046721D01*
X0175417Y0045140D01*
X0175417Y0038230D01*
X0176071Y0036649D01*
X0177281Y0035440D01*
X0178861Y0034785D01*
X0180572Y0034785D01*
X0182152Y0035440D01*
X0183362Y0036649D01*
X0184017Y0038230D01*
X0184017Y0045140D01*
X0183362Y0046721D01*
X0182152Y0047930D01*
X0181765Y0048091D01*
X0181765Y0051911D01*
X0173014Y0060663D01*
X0173598Y0062072D01*
X0173598Y0062856D01*
X0174154Y0062300D01*
X0183177Y0062300D01*
X0184465Y0063589D01*
X0192251Y0071375D01*
X0195516Y0071375D01*
X0195516Y0054330D01*
X0189864Y0054330D01*
X0188137Y0053614D01*
X0186815Y0052292D01*
X0186099Y0050565D01*
X0186099Y0048695D01*
X0186815Y0046968D01*
X0188137Y0045645D01*
X0189864Y0044930D01*
X0195516Y0044930D01*
X0195516Y0006000D01*
X0111669Y0006000D01*
X0112844Y0008035D01*
X0113641Y0011011D01*
X0113641Y0014092D01*
X0112844Y0017067D01*
X0111303Y0019735D01*
X0109302Y0021736D01*
X0109459Y0021736D01*
X0111297Y0022497D01*
X0112703Y0023904D01*
X0113465Y0025742D01*
X0113465Y0027731D01*
X0112950Y0028973D01*
X0131765Y0047789D01*
X0131765Y0047564D01*
X0132329Y0046204D01*
X0133369Y0045163D01*
X0134729Y0044600D01*
X0136201Y0044600D01*
X0137561Y0045163D01*
X0138602Y0046204D01*
X0139165Y0047564D01*
X0139165Y0049036D01*
X0138602Y0050396D01*
X0137561Y0051437D01*
X0136201Y0052000D01*
X0134877Y0052000D01*
X0134065Y0052811D01*
X0133454Y0053423D02*
X0141665Y0053423D01*
X0141665Y0054421D02*
X0132456Y0054421D01*
X0131457Y0055420D02*
X0142073Y0055420D01*
X0142851Y0056418D02*
X0130458Y0056418D01*
X0129460Y0057417D02*
X0143937Y0057417D01*
X0142939Y0058415D02*
X0128461Y0058415D01*
X0127463Y0059414D02*
X0141940Y0059414D01*
X0140942Y0060412D02*
X0126464Y0060412D01*
X0126080Y0061411D02*
X0127343Y0061411D01*
X0123237Y0057417D02*
X0121724Y0057417D01*
X0121680Y0057398D02*
X0122794Y0057860D01*
X0129204Y0051450D01*
X0109481Y0031727D01*
X0109459Y0031736D01*
X0107470Y0031736D01*
X0105632Y0030975D01*
X0104226Y0029568D01*
X0103465Y0027731D01*
X0103465Y0025742D01*
X0104157Y0024070D01*
X0103481Y0024251D01*
X0100401Y0024251D01*
X0097425Y0023454D01*
X0094757Y0021913D01*
X0092579Y0019735D01*
X0091038Y0017067D01*
X0090241Y0014092D01*
X0090241Y0011011D01*
X0091038Y0008035D01*
X0092213Y0006000D01*
X0064331Y0006000D01*
X0064539Y0006500D01*
X0071577Y0006500D01*
X0072471Y0007394D01*
X0073469Y0006980D01*
X0075657Y0006980D01*
X0077678Y0007818D01*
X0079226Y0009365D01*
X0080063Y0011386D01*
X0080063Y0013574D01*
X0079226Y0015596D01*
X0077678Y0017143D01*
X0077365Y0017273D01*
X0077365Y0046489D01*
X0099570Y0068693D01*
X0103344Y0068693D01*
X0105950Y0071300D01*
X0106417Y0071300D01*
X0105632Y0070975D01*
X0104226Y0069568D01*
X0103465Y0067731D01*
X0103465Y0065742D01*
X0104226Y0063904D01*
X0105632Y0062497D01*
X0107470Y0061736D01*
X0109459Y0061736D01*
X0111297Y0062497D01*
X0112703Y0063904D01*
X0113465Y0065742D01*
X0113465Y0067731D01*
X0112703Y0069568D01*
X0111297Y0070975D01*
X0110512Y0071300D01*
X0117454Y0071300D01*
X0119688Y0069066D01*
X0119359Y0069066D01*
X0117215Y0068178D01*
X0115574Y0066537D01*
X0114686Y0064393D01*
X0114686Y0062072D01*
X0115574Y0059928D01*
X0117215Y0058287D01*
X0119359Y0057398D01*
X0121680Y0057398D01*
X0119315Y0057417D02*
X0088293Y0057417D01*
X0089292Y0058415D02*
X0117086Y0058415D01*
X0116088Y0059414D02*
X0090290Y0059414D01*
X0091289Y0060412D02*
X0115373Y0060412D01*
X0114960Y0061411D02*
X0092287Y0061411D01*
X0093286Y0062409D02*
X0105845Y0062409D01*
X0104722Y0063408D02*
X0094284Y0063408D01*
X0095283Y0064406D02*
X0104018Y0064406D01*
X0103604Y0065405D02*
X0096281Y0065405D01*
X0097280Y0066403D02*
X0103465Y0066403D01*
X0103465Y0067402D02*
X0098278Y0067402D01*
X0099277Y0068400D02*
X0103742Y0068400D01*
X0104049Y0069399D02*
X0104155Y0069399D01*
X0105048Y0070397D02*
X0105055Y0070397D01*
X0106037Y0075700D02*
X0103344Y0078393D01*
X0099370Y0078393D01*
X0099875Y0078898D01*
X0100370Y0078693D01*
X0102299Y0078693D01*
X0104082Y0079432D01*
X0105446Y0080796D01*
X0105986Y0082100D01*
X0115731Y0082100D01*
X0115867Y0081772D01*
X0116836Y0080803D01*
X0116129Y0080096D01*
X0115565Y0078736D01*
X0115565Y0077264D01*
X0116129Y0075904D01*
X0116333Y0075700D01*
X0106037Y0075700D01*
X0105349Y0076388D02*
X0115928Y0076388D01*
X0115565Y0077387D02*
X0104350Y0077387D01*
X0103351Y0078385D02*
X0115565Y0078385D01*
X0115834Y0079384D02*
X0103967Y0079384D01*
X0105033Y0080382D02*
X0116415Y0080382D01*
X0116258Y0081381D02*
X0105689Y0081381D01*
X0102165Y0084300D02*
X0101335Y0083543D01*
X0101265Y0083400D01*
X0026565Y0008700D01*
X0036456Y0015479D02*
X0069852Y0015479D01*
X0070782Y0016478D02*
X0037454Y0016478D01*
X0038453Y0017476D02*
X0072252Y0017476D01*
X0072965Y0018475D02*
X0039451Y0018475D01*
X0040450Y0019473D02*
X0072965Y0019473D01*
X0072965Y0020472D02*
X0041448Y0020472D01*
X0042447Y0021470D02*
X0072965Y0021470D01*
X0072965Y0022469D02*
X0043445Y0022469D01*
X0044444Y0023467D02*
X0072965Y0023467D01*
X0072965Y0024466D02*
X0045442Y0024466D01*
X0046441Y0025464D02*
X0072965Y0025464D01*
X0072965Y0026463D02*
X0047439Y0026463D01*
X0048438Y0027461D02*
X0072965Y0027461D01*
X0072965Y0028460D02*
X0049436Y0028460D01*
X0050435Y0029458D02*
X0072965Y0029458D01*
X0072965Y0030457D02*
X0051433Y0030457D01*
X0052432Y0031455D02*
X0072965Y0031455D01*
X0072965Y0032454D02*
X0053430Y0032454D01*
X0054429Y0033452D02*
X0072965Y0033452D01*
X0072965Y0034451D02*
X0055427Y0034451D01*
X0056426Y0035449D02*
X0072965Y0035449D01*
X0072965Y0036448D02*
X0057425Y0036448D01*
X0058423Y0037446D02*
X0072965Y0037446D01*
X0072965Y0038445D02*
X0059422Y0038445D01*
X0060420Y0039443D02*
X0072965Y0039443D01*
X0072965Y0040442D02*
X0061419Y0040442D01*
X0062417Y0041440D02*
X0072965Y0041440D01*
X0072965Y0042439D02*
X0063416Y0042439D01*
X0064414Y0043437D02*
X0072965Y0043437D01*
X0072965Y0044436D02*
X0065413Y0044436D01*
X0066411Y0045434D02*
X0072965Y0045434D01*
X0072965Y0046433D02*
X0067410Y0046433D01*
X0068408Y0047432D02*
X0072965Y0047432D01*
X0073084Y0048430D02*
X0069407Y0048430D01*
X0070405Y0049429D02*
X0074083Y0049429D01*
X0075081Y0050427D02*
X0071404Y0050427D01*
X0072402Y0051426D02*
X0076080Y0051426D01*
X0077078Y0052424D02*
X0073401Y0052424D01*
X0074399Y0053423D02*
X0078077Y0053423D01*
X0079075Y0054421D02*
X0075398Y0054421D01*
X0076396Y0055420D02*
X0080074Y0055420D01*
X0081072Y0056418D02*
X0077395Y0056418D01*
X0078393Y0057417D02*
X0082071Y0057417D01*
X0083069Y0058415D02*
X0079392Y0058415D01*
X0080390Y0059414D02*
X0084068Y0059414D01*
X0085066Y0060412D02*
X0081389Y0060412D01*
X0082387Y0061411D02*
X0086065Y0061411D01*
X0087063Y0062409D02*
X0083386Y0062409D01*
X0084384Y0063408D02*
X0088062Y0063408D01*
X0089060Y0064406D02*
X0085383Y0064406D01*
X0086381Y0065405D02*
X0090059Y0065405D01*
X0091057Y0066403D02*
X0087380Y0066403D01*
X0088378Y0067402D02*
X0092056Y0067402D01*
X0093054Y0068400D02*
X0089377Y0068400D01*
X0090375Y0069399D02*
X0094053Y0069399D01*
X0095051Y0070397D02*
X0091374Y0070397D01*
X0092372Y0071396D02*
X0096050Y0071396D01*
X0096485Y0072394D02*
X0093371Y0072394D01*
X0094369Y0073393D02*
X0096485Y0073393D01*
X0096485Y0074391D02*
X0095368Y0074391D01*
X0096366Y0075390D02*
X0096485Y0075390D01*
X0093139Y0078385D02*
X0077762Y0078385D01*
X0076763Y0077387D02*
X0092141Y0077387D01*
X0091142Y0076388D02*
X0075765Y0076388D01*
X0074766Y0075390D02*
X0090144Y0075390D01*
X0089145Y0074391D02*
X0073768Y0074391D01*
X0072769Y0073393D02*
X0088147Y0073393D01*
X0087148Y0072394D02*
X0072565Y0072394D01*
X0072371Y0071396D02*
X0086150Y0071396D01*
X0085151Y0070397D02*
X0071895Y0070397D01*
X0070805Y0069399D02*
X0084153Y0069399D01*
X0078760Y0079384D02*
X0094138Y0079384D01*
X0095136Y0080382D02*
X0079759Y0080382D01*
X0080758Y0081381D02*
X0096135Y0081381D01*
X0096567Y0082379D02*
X0081756Y0082379D01*
X0082755Y0083378D02*
X0096485Y0083378D01*
X0096485Y0084376D02*
X0083753Y0084376D01*
X0084752Y0085375D02*
X0096844Y0085375D01*
X0097306Y0086373D02*
X0085750Y0086373D01*
X0086749Y0087372D02*
X0098304Y0087372D01*
X0100315Y0088370D02*
X0087747Y0088370D01*
X0088746Y0089369D02*
X0138085Y0089369D01*
X0137087Y0090368D02*
X0126678Y0090368D01*
X0127148Y0090562D02*
X0125568Y0089908D01*
X0118657Y0089908D01*
X0117077Y0090562D01*
X0115867Y0091772D01*
X0115213Y0093352D01*
X0115213Y0095063D01*
X0115867Y0096643D01*
X0117077Y0097853D01*
X0118657Y0098508D01*
X0125568Y0098508D01*
X0127148Y0097853D01*
X0128358Y0096643D01*
X0129013Y0095063D01*
X0129013Y0093352D01*
X0128358Y0091772D01*
X0127148Y0090562D01*
X0127952Y0091366D02*
X0136088Y0091366D01*
X0135090Y0092365D02*
X0128603Y0092365D01*
X0129013Y0093363D02*
X0134091Y0093363D01*
X0133093Y0094362D02*
X0129013Y0094362D01*
X0128890Y0095360D02*
X0132094Y0095360D01*
X0131095Y0096359D02*
X0128476Y0096359D01*
X0127644Y0097357D02*
X0130097Y0097357D01*
X0129098Y0098356D02*
X0125935Y0098356D01*
X0127101Y0100353D02*
X0104070Y0100353D01*
X0103237Y0099220D02*
X0099219Y0099220D01*
X0096378Y0096379D01*
X0096378Y0092361D01*
X0099219Y0089520D01*
X0103237Y0089520D01*
X0106078Y0092361D01*
X0106078Y0096379D01*
X0103237Y0099220D01*
X0104102Y0098356D02*
X0118290Y0098356D01*
X0116581Y0097357D02*
X0105100Y0097357D01*
X0106078Y0096359D02*
X0115749Y0096359D01*
X0115336Y0095360D02*
X0106078Y0095360D01*
X0106078Y0094362D02*
X0115213Y0094362D01*
X0115213Y0093363D02*
X0106078Y0093363D01*
X0106078Y0092365D02*
X0115622Y0092365D01*
X0116273Y0091366D02*
X0105083Y0091366D01*
X0104085Y0090368D02*
X0117547Y0090368D01*
X0118326Y0088370D02*
X0102354Y0088370D01*
X0104365Y0087372D02*
X0116596Y0087372D01*
X0124665Y0084300D02*
X0124713Y0084208D01*
X0125565Y0083400D01*
X0139965Y0083400D01*
X0159765Y0063600D01*
X0166965Y0063600D01*
X0167764Y0063232D01*
X0167865Y0062700D01*
X0179565Y0051000D01*
X0179565Y0042000D01*
X0179717Y0041685D01*
X0184017Y0041440D02*
X0195516Y0041440D01*
X0195516Y0040442D02*
X0184017Y0040442D01*
X0184017Y0039443D02*
X0195516Y0039443D01*
X0195516Y0038445D02*
X0184017Y0038445D01*
X0183692Y0037446D02*
X0195516Y0037446D01*
X0195516Y0036448D02*
X0183161Y0036448D01*
X0182162Y0035449D02*
X0195516Y0035449D01*
X0195516Y0034451D02*
X0118427Y0034451D01*
X0117429Y0033452D02*
X0195516Y0033452D01*
X0195516Y0032454D02*
X0116430Y0032454D01*
X0115432Y0031455D02*
X0195516Y0031455D01*
X0195516Y0030457D02*
X0114433Y0030457D01*
X0113435Y0029458D02*
X0195516Y0029458D01*
X0195516Y0028460D02*
X0113163Y0028460D01*
X0113465Y0027461D02*
X0195516Y0027461D01*
X0195516Y0026463D02*
X0113465Y0026463D01*
X0113350Y0025464D02*
X0195516Y0025464D01*
X0195516Y0024466D02*
X0112936Y0024466D01*
X0112267Y0023467D02*
X0181990Y0023467D01*
X0182137Y0023614D02*
X0180815Y0022292D01*
X0180099Y0020565D01*
X0180099Y0018695D01*
X0180815Y0016968D01*
X0182137Y0015645D01*
X0183864Y0014930D01*
X0191734Y0014930D01*
X0193462Y0015645D01*
X0194784Y0016968D01*
X0195499Y0018695D01*
X0195499Y0020565D01*
X0194784Y0022292D01*
X0193462Y0023614D01*
X0191734Y0024330D01*
X0183864Y0024330D01*
X0182137Y0023614D01*
X0180991Y0022469D02*
X0111228Y0022469D01*
X0109568Y0021470D02*
X0180474Y0021470D01*
X0180099Y0020472D02*
X0170283Y0020472D01*
X0171068Y0020146D02*
X0168924Y0021035D01*
X0166603Y0021035D01*
X0164459Y0020146D01*
X0162818Y0018505D01*
X0161930Y0016361D01*
X0161930Y0014040D01*
X0162818Y0011896D01*
X0164459Y0010255D01*
X0166603Y0009367D01*
X0168924Y0009367D01*
X0171068Y0010255D01*
X0172709Y0011896D01*
X0173598Y0014040D01*
X0173598Y0016361D01*
X0172709Y0018505D01*
X0171068Y0020146D01*
X0171742Y0019473D02*
X0180099Y0019473D01*
X0180190Y0018475D02*
X0172722Y0018475D01*
X0173136Y0017476D02*
X0180604Y0017476D01*
X0181305Y0016478D02*
X0173549Y0016478D01*
X0173598Y0015479D02*
X0182538Y0015479D01*
X0173598Y0014481D02*
X0195516Y0014481D01*
X0195516Y0015479D02*
X0193060Y0015479D01*
X0194294Y0016478D02*
X0195516Y0016478D01*
X0195516Y0017476D02*
X0194994Y0017476D01*
X0195408Y0018475D02*
X0195516Y0018475D01*
X0195499Y0019473D02*
X0195516Y0019473D01*
X0195499Y0020472D02*
X0195516Y0020472D01*
X0195516Y0021470D02*
X0195124Y0021470D01*
X0195516Y0022469D02*
X0194607Y0022469D01*
X0195516Y0023467D02*
X0193609Y0023467D01*
X0195516Y0013482D02*
X0173366Y0013482D01*
X0172953Y0012484D02*
X0195516Y0012484D01*
X0195516Y0011485D02*
X0172298Y0011485D01*
X0171300Y0010487D02*
X0195516Y0010487D01*
X0195516Y0009488D02*
X0169217Y0009488D01*
X0166311Y0009488D02*
X0121973Y0009488D01*
X0121680Y0009367D02*
X0123824Y0010255D01*
X0125465Y0011896D01*
X0126354Y0014040D01*
X0126354Y0016361D01*
X0125465Y0018505D01*
X0123824Y0020146D01*
X0121680Y0021035D01*
X0119359Y0021035D01*
X0117215Y0020146D01*
X0115574Y0018505D01*
X0114686Y0016361D01*
X0114686Y0014040D01*
X0115574Y0011896D01*
X0117215Y0010255D01*
X0119359Y0009367D01*
X0121680Y0009367D01*
X0119067Y0009488D02*
X0113233Y0009488D01*
X0112965Y0008490D02*
X0195516Y0008490D01*
X0195516Y0007491D02*
X0112529Y0007491D01*
X0111953Y0006493D02*
X0195516Y0006493D01*
X0165244Y0020472D02*
X0123039Y0020472D01*
X0124498Y0019473D02*
X0163786Y0019473D01*
X0162805Y0018475D02*
X0125478Y0018475D01*
X0125892Y0017476D02*
X0162392Y0017476D01*
X0161978Y0016478D02*
X0126305Y0016478D01*
X0126354Y0015479D02*
X0161930Y0015479D01*
X0161930Y0014481D02*
X0126354Y0014481D01*
X0126122Y0013482D02*
X0162161Y0013482D01*
X0162575Y0012484D02*
X0125709Y0012484D01*
X0125054Y0011485D02*
X0163229Y0011485D01*
X0164228Y0010487D02*
X0124056Y0010487D01*
X0116984Y0010487D02*
X0113500Y0010487D01*
X0113641Y0011485D02*
X0115985Y0011485D01*
X0115331Y0012484D02*
X0113641Y0012484D01*
X0113641Y0013482D02*
X0114917Y0013482D01*
X0114686Y0014481D02*
X0113537Y0014481D01*
X0113269Y0015479D02*
X0114686Y0015479D01*
X0114734Y0016478D02*
X0113002Y0016478D01*
X0112607Y0017476D02*
X0115148Y0017476D01*
X0115561Y0018475D02*
X0112031Y0018475D01*
X0111454Y0019473D02*
X0116542Y0019473D01*
X0118000Y0020472D02*
X0110567Y0020472D01*
X0108465Y0026736D02*
X0108465Y0027600D01*
X0131865Y0051000D01*
X0131865Y0051900D01*
X0135465Y0048300D01*
X0139165Y0048430D02*
X0147524Y0048430D01*
X0146526Y0049429D02*
X0139003Y0049429D01*
X0138571Y0050427D02*
X0143598Y0050427D01*
X0142407Y0051426D02*
X0137572Y0051426D01*
X0139110Y0047432D02*
X0176782Y0047432D01*
X0177365Y0048430D02*
X0154007Y0048430D01*
X0155005Y0049429D02*
X0177365Y0049429D01*
X0177027Y0050427D02*
X0156004Y0050427D01*
X0156565Y0051426D02*
X0176029Y0051426D01*
X0175030Y0052424D02*
X0156565Y0052424D01*
X0156565Y0053423D02*
X0174031Y0053423D01*
X0173033Y0054421D02*
X0156565Y0054421D01*
X0156565Y0055420D02*
X0172034Y0055420D01*
X0171036Y0056418D02*
X0156558Y0056418D01*
X0155560Y0057417D02*
X0166559Y0057417D01*
X0168968Y0057417D02*
X0170037Y0057417D01*
X0173264Y0060412D02*
X0195516Y0060412D01*
X0195516Y0059414D02*
X0174263Y0059414D01*
X0175261Y0058415D02*
X0195516Y0058415D01*
X0195516Y0057417D02*
X0176260Y0057417D01*
X0177258Y0056418D02*
X0195516Y0056418D01*
X0195516Y0055420D02*
X0178257Y0055420D01*
X0179256Y0054421D02*
X0195516Y0054421D01*
X0195516Y0061411D02*
X0173324Y0061411D01*
X0173598Y0062409D02*
X0174045Y0062409D01*
X0175065Y0064500D02*
X0162465Y0077100D01*
X0153465Y0077100D01*
X0121065Y0109500D01*
X0121065Y0113100D01*
X0116565Y0117600D01*
X0113865Y0117600D01*
X0113764Y0117614D01*
X0120499Y0121551D02*
X0121369Y0122422D01*
X0121369Y0128555D01*
X0120499Y0129425D01*
X0121369Y0130296D01*
X0121369Y0134593D01*
X0122277Y0135500D01*
X0123601Y0135500D01*
X0124961Y0136063D01*
X0126002Y0137104D01*
X0126565Y0138464D01*
X0126565Y0139936D01*
X0126002Y0141296D01*
X0124961Y0142337D01*
X0123601Y0142900D01*
X0122129Y0142900D01*
X0121369Y0142585D01*
X0121369Y0142693D01*
X0131877Y0153200D01*
X0136454Y0153200D01*
X0135965Y0152711D01*
X0135965Y0136489D01*
X0154865Y0117589D01*
X0156154Y0116300D01*
X0170725Y0116300D01*
X0170725Y0114548D01*
X0171596Y0113677D01*
X0170725Y0112807D01*
X0170725Y0106674D01*
X0171721Y0105678D01*
X0184940Y0105678D01*
X0185465Y0106203D01*
X0185465Y0096441D01*
X0184693Y0097778D01*
X0182515Y0099957D01*
X0179847Y0101497D01*
X0176871Y0102294D01*
X0173790Y0102294D01*
X0170815Y0101497D01*
X0168147Y0099957D01*
X0165968Y0097778D01*
X0164428Y0095111D01*
X0164213Y0094306D01*
X0164213Y0095063D01*
X0163558Y0096643D01*
X0162348Y0097853D01*
X0160768Y0098508D01*
X0153857Y0098508D01*
X0152277Y0097853D01*
X0151067Y0096643D01*
X0150413Y0095063D01*
X0150413Y0093359D01*
X0148565Y0091511D01*
X0148565Y0085111D01*
X0123265Y0110411D01*
X0123265Y0114011D01*
X0121369Y0115907D01*
X0121369Y0120681D01*
X0120499Y0121551D01*
X0120728Y0121321D02*
X0151133Y0121321D01*
X0152131Y0120323D02*
X0121369Y0120323D01*
X0121369Y0119324D02*
X0153130Y0119324D01*
X0154128Y0118326D02*
X0121369Y0118326D01*
X0121369Y0117327D02*
X0155127Y0117327D01*
X0156125Y0116329D02*
X0121369Y0116329D01*
X0121946Y0115330D02*
X0170725Y0115330D01*
X0170941Y0114332D02*
X0122945Y0114332D01*
X0123265Y0113333D02*
X0171252Y0113333D01*
X0170725Y0112335D02*
X0123265Y0112335D01*
X0123265Y0111336D02*
X0170725Y0111336D01*
X0170725Y0110338D02*
X0123339Y0110338D01*
X0124337Y0109339D02*
X0170725Y0109339D01*
X0170725Y0108341D02*
X0125336Y0108341D01*
X0126334Y0107342D02*
X0170725Y0107342D01*
X0171055Y0106344D02*
X0127333Y0106344D01*
X0128331Y0105345D02*
X0185465Y0105345D01*
X0185465Y0104347D02*
X0129330Y0104347D01*
X0130328Y0103348D02*
X0185465Y0103348D01*
X0185465Y0102350D02*
X0131327Y0102350D01*
X0132325Y0101351D02*
X0170562Y0101351D01*
X0168832Y0100353D02*
X0133324Y0100353D01*
X0134323Y0099354D02*
X0167544Y0099354D01*
X0166546Y0098356D02*
X0161135Y0098356D01*
X0162844Y0097357D02*
X0165725Y0097357D01*
X0165149Y0096359D02*
X0163676Y0096359D01*
X0164090Y0095360D02*
X0164572Y0095360D01*
X0164227Y0094362D02*
X0164213Y0094362D01*
X0163631Y0091948D02*
X0163631Y0089054D01*
X0164428Y0086078D01*
X0165968Y0083411D01*
X0168147Y0081232D01*
X0168376Y0081100D01*
X0162886Y0081100D01*
X0163558Y0081772D01*
X0164213Y0083352D01*
X0164213Y0085063D01*
X0163558Y0086643D01*
X0162348Y0087853D01*
X0160768Y0088508D01*
X0153857Y0088508D01*
X0152965Y0088138D01*
X0152965Y0089689D01*
X0153381Y0090105D01*
X0153857Y0089908D01*
X0160768Y0089908D01*
X0162348Y0090562D01*
X0163558Y0091772D01*
X0163631Y0091948D01*
X0163631Y0091366D02*
X0163152Y0091366D01*
X0163631Y0090368D02*
X0161878Y0090368D01*
X0163631Y0089369D02*
X0152965Y0089369D01*
X0152965Y0088370D02*
X0153526Y0088370D01*
X0150765Y0090600D02*
X0154365Y0094200D01*
X0154713Y0094208D01*
X0151781Y0097357D02*
X0136320Y0097357D01*
X0137318Y0096359D02*
X0150949Y0096359D01*
X0150536Y0095360D02*
X0138317Y0095360D01*
X0139315Y0094362D02*
X0150413Y0094362D01*
X0150413Y0093363D02*
X0140314Y0093363D01*
X0141312Y0092365D02*
X0149419Y0092365D01*
X0148565Y0091366D02*
X0142311Y0091366D01*
X0143309Y0090368D02*
X0148565Y0090368D01*
X0148565Y0089369D02*
X0144308Y0089369D01*
X0145306Y0088370D02*
X0148565Y0088370D01*
X0148565Y0087372D02*
X0146305Y0087372D01*
X0147303Y0086373D02*
X0148565Y0086373D01*
X0148565Y0085375D02*
X0148302Y0085375D01*
X0150765Y0082500D02*
X0150765Y0090600D01*
X0144076Y0083378D02*
X0143099Y0083378D01*
X0143078Y0084376D02*
X0142100Y0084376D01*
X0142079Y0085375D02*
X0141102Y0085375D01*
X0141081Y0086373D02*
X0128470Y0086373D01*
X0127629Y0087372D02*
X0140082Y0087372D01*
X0139084Y0088370D02*
X0125899Y0088370D01*
X0124665Y0084300D02*
X0102165Y0084300D01*
X0098372Y0090368D02*
X0089744Y0090368D01*
X0090743Y0091366D02*
X0097373Y0091366D01*
X0096378Y0092365D02*
X0091741Y0092365D01*
X0092740Y0093363D02*
X0096378Y0093363D01*
X0096378Y0094362D02*
X0093738Y0094362D01*
X0094737Y0095360D02*
X0096378Y0095360D01*
X0096378Y0096359D02*
X0095735Y0096359D01*
X0096734Y0097357D02*
X0097356Y0097357D01*
X0097732Y0098356D02*
X0098355Y0098356D01*
X0098731Y0099354D02*
X0128100Y0099354D01*
X0126103Y0101351D02*
X0105068Y0101351D01*
X0105641Y0102350D02*
X0125104Y0102350D01*
X0124106Y0103348D02*
X0106055Y0103348D01*
X0106078Y0104347D02*
X0123107Y0104347D01*
X0122109Y0105345D02*
X0106074Y0105345D01*
X0105720Y0106344D02*
X0106488Y0106344D01*
X0103965Y0107700D02*
X0101265Y0105000D01*
X0101228Y0104370D01*
X0100365Y0104100D01*
X0068865Y0072600D01*
X0086296Y0055420D02*
X0125234Y0055420D01*
X0124236Y0056418D02*
X0087295Y0056418D01*
X0085298Y0054421D02*
X0126233Y0054421D01*
X0127231Y0053423D02*
X0084299Y0053423D01*
X0083301Y0052424D02*
X0128230Y0052424D01*
X0129180Y0051426D02*
X0082302Y0051426D01*
X0081304Y0050427D02*
X0128181Y0050427D01*
X0127183Y0049429D02*
X0080305Y0049429D01*
X0079307Y0048430D02*
X0126184Y0048430D01*
X0125186Y0047432D02*
X0078308Y0047432D01*
X0077365Y0046433D02*
X0124187Y0046433D01*
X0123189Y0045434D02*
X0077365Y0045434D01*
X0077365Y0044436D02*
X0122190Y0044436D01*
X0121192Y0043437D02*
X0077365Y0043437D01*
X0077365Y0042439D02*
X0120193Y0042439D01*
X0119195Y0041440D02*
X0077365Y0041440D01*
X0077365Y0040442D02*
X0118196Y0040442D01*
X0117198Y0039443D02*
X0077365Y0039443D01*
X0077365Y0038445D02*
X0116199Y0038445D01*
X0115200Y0037446D02*
X0077365Y0037446D01*
X0077365Y0036448D02*
X0114202Y0036448D01*
X0113203Y0035449D02*
X0077365Y0035449D01*
X0077365Y0034451D02*
X0112205Y0034451D01*
X0111206Y0033452D02*
X0077365Y0033452D01*
X0077365Y0032454D02*
X0110208Y0032454D01*
X0106792Y0031455D02*
X0077365Y0031455D01*
X0077365Y0030457D02*
X0105114Y0030457D01*
X0104180Y0029458D02*
X0077365Y0029458D01*
X0077365Y0028460D02*
X0103767Y0028460D01*
X0103465Y0027461D02*
X0077365Y0027461D01*
X0077365Y0026463D02*
X0103465Y0026463D01*
X0103579Y0025464D02*
X0077365Y0025464D01*
X0077365Y0024466D02*
X0103993Y0024466D01*
X0097475Y0023467D02*
X0077365Y0023467D01*
X0077365Y0022469D02*
X0095719Y0022469D01*
X0094314Y0021470D02*
X0077365Y0021470D01*
X0077365Y0020472D02*
X0093315Y0020472D01*
X0092427Y0019473D02*
X0077365Y0019473D01*
X0077365Y0018475D02*
X0091851Y0018475D01*
X0091274Y0017476D02*
X0077365Y0017476D01*
X0078344Y0016478D02*
X0090880Y0016478D01*
X0090613Y0015479D02*
X0079274Y0015479D01*
X0079688Y0014481D02*
X0090345Y0014481D01*
X0090241Y0013482D02*
X0080063Y0013482D01*
X0080063Y0012484D02*
X0090241Y0012484D01*
X0090241Y0011485D02*
X0080063Y0011485D01*
X0079690Y0010487D02*
X0090381Y0010487D01*
X0090649Y0009488D02*
X0079277Y0009488D01*
X0078350Y0008490D02*
X0090916Y0008490D01*
X0091352Y0007491D02*
X0076890Y0007491D01*
X0064535Y0006493D02*
X0091929Y0006493D01*
X0119426Y0035449D02*
X0177271Y0035449D01*
X0176273Y0036448D02*
X0120425Y0036448D01*
X0121423Y0037446D02*
X0175741Y0037446D01*
X0175417Y0038445D02*
X0122422Y0038445D01*
X0123420Y0039443D02*
X0175417Y0039443D01*
X0175417Y0040442D02*
X0124419Y0040442D01*
X0125417Y0041440D02*
X0175417Y0041440D01*
X0175417Y0042439D02*
X0126416Y0042439D01*
X0127414Y0043437D02*
X0175417Y0043437D01*
X0175417Y0044436D02*
X0128413Y0044436D01*
X0129411Y0045434D02*
X0133098Y0045434D01*
X0132234Y0046433D02*
X0130410Y0046433D01*
X0131408Y0047432D02*
X0131820Y0047432D01*
X0131865Y0051900D02*
X0121065Y0062700D01*
X0120520Y0063232D01*
X0116439Y0067402D02*
X0113465Y0067402D01*
X0113465Y0066403D02*
X0115519Y0066403D01*
X0115105Y0065405D02*
X0113325Y0065405D01*
X0112911Y0064406D02*
X0114691Y0064406D01*
X0114686Y0063408D02*
X0112207Y0063408D01*
X0111084Y0062409D02*
X0114686Y0062409D01*
X0113187Y0068400D02*
X0117752Y0068400D01*
X0119355Y0069399D02*
X0112774Y0069399D01*
X0111875Y0070397D02*
X0118357Y0070397D01*
X0123988Y0076388D02*
X0141649Y0076388D01*
X0140837Y0076052D02*
X0139196Y0074411D01*
X0138308Y0072267D01*
X0138308Y0069946D01*
X0139196Y0067802D01*
X0139398Y0067600D01*
X0132777Y0067600D01*
X0122965Y0077411D01*
X0122965Y0078736D01*
X0122480Y0079908D01*
X0125568Y0079908D01*
X0127148Y0080562D01*
X0127786Y0081200D01*
X0139054Y0081200D01*
X0143314Y0076940D01*
X0142981Y0076940D01*
X0140837Y0076052D01*
X0140175Y0075390D02*
X0124987Y0075390D01*
X0125985Y0074391D02*
X0139188Y0074391D01*
X0138774Y0073393D02*
X0126984Y0073393D01*
X0127982Y0072394D02*
X0138361Y0072394D01*
X0138308Y0071396D02*
X0128981Y0071396D01*
X0129979Y0070397D02*
X0138308Y0070397D01*
X0138534Y0069399D02*
X0130978Y0069399D01*
X0131976Y0068400D02*
X0138948Y0068400D01*
X0144465Y0065400D02*
X0131865Y0065400D01*
X0119265Y0078000D01*
X0122697Y0079384D02*
X0140870Y0079384D01*
X0139872Y0080382D02*
X0126714Y0080382D01*
X0122965Y0078385D02*
X0141869Y0078385D01*
X0142867Y0077387D02*
X0122990Y0077387D01*
X0144097Y0082379D02*
X0145075Y0082379D01*
X0145096Y0081381D02*
X0146073Y0081381D01*
X0146094Y0080382D02*
X0147072Y0080382D01*
X0147093Y0079384D02*
X0148070Y0079384D01*
X0148091Y0078385D02*
X0149069Y0078385D01*
X0149090Y0077387D02*
X0150067Y0077387D01*
X0150088Y0076388D02*
X0151066Y0076388D01*
X0151087Y0075390D02*
X0152064Y0075390D01*
X0152085Y0074391D02*
X0162063Y0074391D01*
X0163061Y0073393D02*
X0153084Y0073393D01*
X0154082Y0072394D02*
X0164060Y0072394D01*
X0165058Y0071396D02*
X0155081Y0071396D01*
X0156079Y0070397D02*
X0166057Y0070397D01*
X0167055Y0069399D02*
X0157078Y0069399D01*
X0158076Y0068400D02*
X0164996Y0068400D01*
X0163683Y0067402D02*
X0159075Y0067402D01*
X0160073Y0066403D02*
X0162763Y0066403D01*
X0157845Y0062409D02*
X0150567Y0062409D01*
X0149569Y0063408D02*
X0156846Y0063408D01*
X0155848Y0064406D02*
X0148570Y0064406D01*
X0147572Y0065405D02*
X0154849Y0065405D01*
X0153851Y0066403D02*
X0147689Y0066403D01*
X0148688Y0067402D02*
X0152852Y0067402D01*
X0151854Y0068400D02*
X0149335Y0068400D01*
X0149749Y0069399D02*
X0150855Y0069399D01*
X0144465Y0065400D02*
X0154365Y0055500D01*
X0154365Y0051900D01*
X0154561Y0058415D02*
X0164331Y0058415D01*
X0163332Y0059414D02*
X0153563Y0059414D01*
X0152564Y0060412D02*
X0162617Y0060412D01*
X0158843Y0061411D02*
X0151566Y0061411D01*
X0138697Y0046433D02*
X0175952Y0046433D01*
X0175538Y0045434D02*
X0137832Y0045434D01*
X0168285Y0074391D02*
X0175417Y0074391D01*
X0175417Y0075140D02*
X0176063Y0076700D01*
X0165977Y0076700D01*
X0175977Y0066700D01*
X0176050Y0066700D01*
X0175417Y0068230D01*
X0175417Y0075140D01*
X0175520Y0075390D02*
X0167287Y0075390D01*
X0166288Y0076388D02*
X0175933Y0076388D01*
X0175417Y0073393D02*
X0169284Y0073393D01*
X0170282Y0072394D02*
X0175417Y0072394D01*
X0175417Y0071396D02*
X0171281Y0071396D01*
X0172279Y0070397D02*
X0175417Y0070397D01*
X0175417Y0069399D02*
X0173278Y0069399D01*
X0174276Y0068400D02*
X0175417Y0068400D01*
X0175275Y0067402D02*
X0175759Y0067402D01*
X0175065Y0064500D02*
X0182265Y0064500D01*
X0192165Y0074400D01*
X0192953Y0075059D01*
X0192165Y0079800D02*
X0192953Y0079980D01*
X0192165Y0079800D02*
X0181365Y0079800D01*
X0180465Y0078900D01*
X0154365Y0078900D01*
X0150765Y0082500D01*
X0161099Y0088370D02*
X0163814Y0088370D01*
X0164081Y0087372D02*
X0162829Y0087372D01*
X0163670Y0086373D02*
X0164349Y0086373D01*
X0164083Y0085375D02*
X0164834Y0085375D01*
X0165411Y0084376D02*
X0164213Y0084376D01*
X0164213Y0083378D02*
X0166001Y0083378D01*
X0166999Y0082379D02*
X0163810Y0082379D01*
X0163167Y0081381D02*
X0167998Y0081381D01*
X0182483Y0077600D02*
X0188138Y0077600D01*
X0188219Y0077520D01*
X0187845Y0077146D01*
X0187284Y0075792D01*
X0187284Y0074326D01*
X0187781Y0073127D01*
X0184017Y0069362D01*
X0184017Y0075140D01*
X0183362Y0076721D01*
X0182483Y0077600D01*
X0182696Y0077387D02*
X0188086Y0077387D01*
X0187531Y0076388D02*
X0183500Y0076388D01*
X0183913Y0075390D02*
X0187284Y0075390D01*
X0187284Y0074391D02*
X0184017Y0074391D01*
X0184017Y0073393D02*
X0187671Y0073393D01*
X0187048Y0072394D02*
X0184017Y0072394D01*
X0184017Y0071396D02*
X0186050Y0071396D01*
X0185051Y0070397D02*
X0184017Y0070397D01*
X0184017Y0069399D02*
X0184053Y0069399D01*
X0187280Y0066403D02*
X0195516Y0066403D01*
X0195516Y0065405D02*
X0186281Y0065405D01*
X0185283Y0064406D02*
X0195516Y0064406D01*
X0195516Y0063408D02*
X0184284Y0063408D01*
X0183286Y0062409D02*
X0195516Y0062409D01*
X0195516Y0067402D02*
X0188278Y0067402D01*
X0189277Y0068400D02*
X0195516Y0068400D01*
X0195516Y0069399D02*
X0190275Y0069399D01*
X0191274Y0070397D02*
X0195516Y0070397D01*
X0187817Y0082000D02*
X0183282Y0082000D01*
X0184693Y0083411D01*
X0186233Y0086078D01*
X0186263Y0086191D01*
X0186754Y0085700D01*
X0187284Y0085170D01*
X0187284Y0084169D01*
X0187845Y0082815D01*
X0188219Y0082441D01*
X0187845Y0082067D01*
X0187817Y0082000D01*
X0188157Y0082379D02*
X0183662Y0082379D01*
X0184660Y0083378D02*
X0187612Y0083378D01*
X0187284Y0084376D02*
X0185251Y0084376D01*
X0185827Y0085375D02*
X0187079Y0085375D01*
X0187665Y0087900D02*
X0187665Y0091500D01*
X0190365Y0094200D01*
X0192953Y0094744D01*
X0192165Y0094200D01*
X0190365Y0094200D01*
X0187665Y0096900D01*
X0187665Y0110400D01*
X0192335Y0111937D01*
X0192165Y0111300D01*
X0191265Y0110400D01*
X0187665Y0110400D01*
X0178665Y0110400D01*
X0178331Y0109740D01*
X0185936Y0115185D02*
X0185936Y0118689D01*
X0186672Y0117953D01*
X0188400Y0117237D01*
X0195516Y0117237D01*
X0195516Y0116637D01*
X0188400Y0116637D01*
X0186672Y0115921D01*
X0185936Y0115185D01*
X0185936Y0115330D02*
X0186081Y0115330D01*
X0185936Y0116329D02*
X0187656Y0116329D01*
X0188182Y0117327D02*
X0185936Y0117327D01*
X0185936Y0118326D02*
X0186299Y0118326D01*
X0192165Y0122100D02*
X0192335Y0121937D01*
X0192165Y0122100D02*
X0184965Y0129300D01*
X0151665Y0129300D01*
X0144465Y0136500D01*
X0144465Y0140100D01*
X0146265Y0141900D01*
X0166006Y0141900D01*
X0170213Y0146106D01*
X0170213Y0153469D01*
X0172535Y0155791D01*
X0174557Y0155791D01*
X0175065Y0156300D01*
X0177765Y0156300D01*
X0178331Y0156984D01*
X0185936Y0157268D02*
X0188325Y0157268D01*
X0188400Y0157237D02*
X0195516Y0157237D01*
X0195516Y0156637D01*
X0188400Y0156637D01*
X0186672Y0155921D01*
X0185936Y0155185D01*
X0185936Y0158689D01*
X0186672Y0157953D01*
X0188400Y0157237D01*
X0187512Y0156269D02*
X0185936Y0156269D01*
X0185936Y0155271D02*
X0186022Y0155271D01*
X0185936Y0158266D02*
X0186359Y0158266D01*
X0192335Y0161937D02*
X0192165Y0162600D01*
X0192165Y0177900D01*
X0192268Y0177961D01*
X0188528Y0182333D02*
X0188051Y0182810D01*
X0181524Y0182810D01*
X0180528Y0181814D01*
X0180528Y0174107D01*
X0181524Y0173111D01*
X0182765Y0173111D01*
X0182765Y0172833D01*
X0182729Y0172796D01*
X0182165Y0171436D01*
X0182165Y0169964D01*
X0182598Y0168920D01*
X0177969Y0168920D01*
X0177969Y0193850D01*
X0195516Y0193850D01*
X0195516Y0182810D01*
X0189004Y0182810D01*
X0188528Y0182333D01*
X0184965Y0177900D02*
X0184787Y0177961D01*
X0184965Y0177900D02*
X0184965Y0171600D01*
X0185865Y0170700D01*
X0182461Y0169250D02*
X0177969Y0169250D01*
X0177969Y0170248D02*
X0182165Y0170248D01*
X0182165Y0171247D02*
X0177969Y0171247D01*
X0177969Y0172245D02*
X0182501Y0172245D01*
X0181391Y0173244D02*
X0177969Y0173244D01*
X0177969Y0174242D02*
X0180528Y0174242D01*
X0180528Y0175241D02*
X0177969Y0175241D01*
X0177969Y0176239D02*
X0180528Y0176239D01*
X0180528Y0177238D02*
X0177969Y0177238D01*
X0177969Y0178237D02*
X0180528Y0178237D01*
X0180528Y0179235D02*
X0177969Y0179235D01*
X0177969Y0180234D02*
X0180528Y0180234D01*
X0180528Y0181232D02*
X0177969Y0181232D01*
X0177969Y0182231D02*
X0180945Y0182231D01*
X0177969Y0183229D02*
X0195516Y0183229D01*
X0195516Y0184228D02*
X0177969Y0184228D01*
X0177969Y0185226D02*
X0195516Y0185226D01*
X0195516Y0186225D02*
X0177969Y0186225D01*
X0177969Y0187223D02*
X0195516Y0187223D01*
X0195516Y0188222D02*
X0177969Y0188222D01*
X0177969Y0189220D02*
X0195516Y0189220D01*
X0195516Y0190219D02*
X0177969Y0190219D01*
X0177969Y0191217D02*
X0195516Y0191217D01*
X0195516Y0192216D02*
X0177969Y0192216D01*
X0177969Y0193214D02*
X0195516Y0193214D01*
X0188528Y0173588D02*
X0188369Y0173429D01*
X0189002Y0172796D01*
X0189565Y0171436D01*
X0189565Y0169964D01*
X0189002Y0168604D01*
X0187961Y0167563D01*
X0186601Y0167000D01*
X0185936Y0167000D01*
X0185936Y0165185D01*
X0186672Y0165921D01*
X0188400Y0166637D01*
X0189965Y0166637D01*
X0189965Y0173111D01*
X0189004Y0173111D01*
X0188528Y0173588D01*
X0188554Y0173244D02*
X0188872Y0173244D01*
X0189230Y0172245D02*
X0189965Y0172245D01*
X0189965Y0171247D02*
X0189565Y0171247D01*
X0189565Y0170248D02*
X0189965Y0170248D01*
X0189965Y0169250D02*
X0189270Y0169250D01*
X0188649Y0168251D02*
X0189965Y0168251D01*
X0189965Y0167253D02*
X0187212Y0167253D01*
X0187476Y0166254D02*
X0185936Y0166254D01*
X0185936Y0165256D02*
X0186007Y0165256D01*
X0178331Y0164858D02*
X0177765Y0164400D01*
X0175065Y0164400D01*
X0170291Y0159626D01*
X0170291Y0156579D01*
X0167339Y0153626D01*
X0167339Y0149957D01*
X0166020Y0148639D01*
X0164449Y0145286D02*
X0154467Y0145286D01*
X0154352Y0145170D02*
X0155393Y0146211D01*
X0155956Y0147571D01*
X0155956Y0149043D01*
X0155393Y0150403D01*
X0154352Y0151444D01*
X0152992Y0152007D01*
X0151520Y0152007D01*
X0150160Y0151444D01*
X0149496Y0150780D01*
X0148379Y0151898D01*
X0149261Y0152263D01*
X0150302Y0153304D01*
X0150865Y0154664D01*
X0150865Y0156136D01*
X0150590Y0156800D01*
X0163933Y0156800D01*
X0164869Y0155863D01*
X0165997Y0155396D01*
X0165139Y0154537D01*
X0165139Y0152279D01*
X0163925Y0151776D01*
X0162884Y0150735D01*
X0162320Y0149375D01*
X0162320Y0147903D01*
X0162884Y0146543D01*
X0163925Y0145503D01*
X0165284Y0144939D01*
X0165934Y0144939D01*
X0165095Y0144100D01*
X0147177Y0144100D01*
X0145354Y0144100D01*
X0143965Y0142711D01*
X0143965Y0146967D01*
X0144902Y0147904D01*
X0145268Y0148787D01*
X0146658Y0147396D01*
X0147947Y0146107D01*
X0149223Y0146107D01*
X0150160Y0145170D01*
X0151520Y0144607D01*
X0152992Y0144607D01*
X0154352Y0145170D01*
X0155423Y0146284D02*
X0163143Y0146284D01*
X0162578Y0147283D02*
X0155836Y0147283D01*
X0155956Y0148281D02*
X0162320Y0148281D01*
X0162320Y0149280D02*
X0155858Y0149280D01*
X0155444Y0150278D02*
X0162694Y0150278D01*
X0163425Y0151277D02*
X0154519Y0151277D01*
X0152256Y0148307D02*
X0148858Y0148307D01*
X0143565Y0153600D01*
X0139965Y0153600D01*
X0138165Y0151800D01*
X0138165Y0137400D01*
X0157065Y0118500D01*
X0177765Y0118500D01*
X0178331Y0117614D01*
X0171596Y0121551D02*
X0170745Y0120700D01*
X0157977Y0120700D01*
X0155177Y0123500D01*
X0170725Y0123500D01*
X0170725Y0122422D01*
X0171596Y0121551D01*
X0171366Y0121321D02*
X0157355Y0121321D01*
X0156357Y0122320D02*
X0170827Y0122320D01*
X0170725Y0123318D02*
X0155358Y0123318D01*
X0152565Y0125700D02*
X0177765Y0125700D01*
X0178331Y0125488D01*
X0185936Y0125218D02*
X0185952Y0125202D01*
X0185936Y0125185D01*
X0185936Y0125218D01*
X0190140Y0127237D02*
X0195516Y0127237D01*
X0195516Y0126637D01*
X0190740Y0126637D01*
X0190140Y0127237D01*
X0185936Y0135185D02*
X0185936Y0135260D01*
X0188056Y0137379D01*
X0188400Y0137237D01*
X0195516Y0137237D01*
X0195516Y0136637D01*
X0188400Y0136637D01*
X0186672Y0135921D01*
X0185936Y0135185D01*
X0185977Y0135301D02*
X0186051Y0135301D01*
X0186976Y0136299D02*
X0187584Y0136299D01*
X0187974Y0137298D02*
X0188254Y0137298D01*
X0189465Y0141900D02*
X0181365Y0133800D01*
X0178665Y0133800D01*
X0178331Y0133362D01*
X0177765Y0133800D01*
X0175065Y0133800D01*
X0170565Y0138300D01*
X0148065Y0138300D01*
X0149279Y0134798D02*
X0150161Y0135163D01*
X0151098Y0136100D01*
X0169654Y0136100D01*
X0170725Y0135029D01*
X0170725Y0131500D01*
X0152577Y0131500D01*
X0149279Y0134798D01*
X0149775Y0134302D02*
X0170725Y0134302D01*
X0170725Y0133303D02*
X0150773Y0133303D01*
X0151772Y0132305D02*
X0170725Y0132305D01*
X0170454Y0135301D02*
X0150298Y0135301D01*
X0141765Y0136500D02*
X0152565Y0125700D01*
X0150134Y0122320D02*
X0121267Y0122320D01*
X0121369Y0123318D02*
X0149136Y0123318D01*
X0148137Y0124317D02*
X0121369Y0124317D01*
X0121369Y0125315D02*
X0147139Y0125315D01*
X0146140Y0126314D02*
X0121369Y0126314D01*
X0121369Y0127312D02*
X0145142Y0127312D01*
X0144143Y0128311D02*
X0121369Y0128311D01*
X0120614Y0129309D02*
X0143145Y0129309D01*
X0142146Y0130308D02*
X0121369Y0130308D01*
X0121369Y0131306D02*
X0141148Y0131306D01*
X0140149Y0132305D02*
X0121369Y0132305D01*
X0121369Y0133303D02*
X0139151Y0133303D01*
X0138152Y0134302D02*
X0121369Y0134302D01*
X0122077Y0135301D02*
X0137154Y0135301D01*
X0136155Y0136299D02*
X0125197Y0136299D01*
X0126082Y0137298D02*
X0135965Y0137298D01*
X0135965Y0138296D02*
X0126496Y0138296D01*
X0126565Y0139295D02*
X0135965Y0139295D01*
X0135965Y0140293D02*
X0126417Y0140293D01*
X0126004Y0141292D02*
X0135965Y0141292D01*
X0135965Y0142290D02*
X0125008Y0142290D01*
X0122964Y0144287D02*
X0135965Y0144287D01*
X0135965Y0143289D02*
X0121965Y0143289D01*
X0123962Y0145286D02*
X0135965Y0145286D01*
X0135965Y0146284D02*
X0124961Y0146284D01*
X0125959Y0147283D02*
X0135965Y0147283D01*
X0135965Y0148281D02*
X0126958Y0148281D01*
X0127956Y0149280D02*
X0135965Y0149280D01*
X0135965Y0150278D02*
X0128955Y0150278D01*
X0129953Y0151277D02*
X0135965Y0151277D01*
X0135965Y0152275D02*
X0130952Y0152275D01*
X0130965Y0155400D02*
X0117465Y0141900D01*
X0113865Y0141900D01*
X0113764Y0141236D01*
X0113865Y0133800D02*
X0113764Y0133362D01*
X0113865Y0133800D02*
X0117465Y0133800D01*
X0122865Y0139200D01*
X0121369Y0148915D02*
X0121369Y0152177D01*
X0120499Y0153047D01*
X0121369Y0153918D01*
X0121369Y0156800D01*
X0129254Y0156800D01*
X0121369Y0148915D01*
X0121369Y0149280D02*
X0121734Y0149280D01*
X0121369Y0150278D02*
X0122732Y0150278D01*
X0123731Y0151277D02*
X0121369Y0151277D01*
X0121271Y0152275D02*
X0124729Y0152275D01*
X0125728Y0153274D02*
X0120725Y0153274D01*
X0121369Y0154272D02*
X0126726Y0154272D01*
X0127725Y0155271D02*
X0121369Y0155271D01*
X0121369Y0156269D02*
X0128723Y0156269D01*
X0130965Y0155400D02*
X0147165Y0155400D01*
X0150865Y0155271D02*
X0165872Y0155271D01*
X0165139Y0154272D02*
X0150703Y0154272D01*
X0150272Y0153274D02*
X0165139Y0153274D01*
X0165130Y0152275D02*
X0149273Y0152275D01*
X0149000Y0151277D02*
X0149993Y0151277D01*
X0150810Y0156269D02*
X0164463Y0156269D01*
X0166965Y0159000D02*
X0121965Y0159000D01*
X0116565Y0164400D01*
X0113865Y0164400D01*
X0113764Y0164858D01*
X0112965Y0164400D01*
X0111165Y0164400D01*
X0105765Y0169800D01*
X0109284Y0170973D02*
X0112118Y0170973D01*
X0113113Y0171969D01*
X0113113Y0178495D01*
X0112636Y0178972D01*
X0113113Y0179449D01*
X0113113Y0185976D01*
X0112118Y0186972D01*
X0109765Y0186972D01*
X0109765Y0187811D01*
X0109465Y0188111D01*
X0109465Y0189436D01*
X0108902Y0190796D01*
X0107861Y0191837D01*
X0106501Y0192400D01*
X0105029Y0192400D01*
X0103669Y0191837D01*
X0103649Y0191817D01*
X0102980Y0193433D01*
X0102563Y0193850D01*
X0114150Y0193850D01*
X0114150Y0168920D01*
X0109756Y0168920D01*
X0109465Y0169211D01*
X0109465Y0170536D01*
X0109284Y0170973D01*
X0109465Y0170248D02*
X0114150Y0170248D01*
X0114150Y0169250D02*
X0109465Y0169250D01*
X0112391Y0171247D02*
X0114150Y0171247D01*
X0114150Y0172245D02*
X0113113Y0172245D01*
X0113113Y0173244D02*
X0114150Y0173244D01*
X0114150Y0174242D02*
X0113113Y0174242D01*
X0113113Y0175241D02*
X0114150Y0175241D01*
X0114150Y0176239D02*
X0113113Y0176239D01*
X0113113Y0177238D02*
X0114150Y0177238D01*
X0114150Y0178237D02*
X0113113Y0178237D01*
X0112899Y0179235D02*
X0114150Y0179235D01*
X0114150Y0180234D02*
X0113113Y0180234D01*
X0113113Y0181232D02*
X0114150Y0181232D01*
X0114150Y0182231D02*
X0113113Y0182231D01*
X0113113Y0183229D02*
X0114150Y0183229D01*
X0114150Y0184228D02*
X0113113Y0184228D01*
X0113113Y0185226D02*
X0114150Y0185226D01*
X0114150Y0186225D02*
X0112865Y0186225D01*
X0114150Y0187223D02*
X0109765Y0187223D01*
X0109465Y0188222D02*
X0114150Y0188222D01*
X0114150Y0189220D02*
X0109465Y0189220D01*
X0109141Y0190219D02*
X0114150Y0190219D01*
X0114150Y0191217D02*
X0108481Y0191217D01*
X0106946Y0192216D02*
X0114150Y0192216D01*
X0114150Y0193214D02*
X0103071Y0193214D01*
X0103484Y0192216D02*
X0104584Y0192216D01*
X0105765Y0188700D02*
X0107565Y0186900D01*
X0107565Y0183300D01*
X0108264Y0182713D01*
X0099965Y0172245D02*
X0052347Y0172245D01*
X0051932Y0172417D02*
X0049704Y0172417D01*
X0047646Y0171565D01*
X0046071Y0169989D01*
X0045218Y0167931D01*
X0045218Y0157903D01*
X0046071Y0155845D01*
X0047646Y0154270D01*
X0049704Y0153417D01*
X0051932Y0153417D01*
X0053990Y0154270D01*
X0055566Y0155845D01*
X0056418Y0157903D01*
X0056418Y0167931D01*
X0055566Y0169989D01*
X0053990Y0171565D01*
X0051932Y0172417D01*
X0049289Y0172245D02*
X0032647Y0172245D01*
X0034608Y0171247D02*
X0047328Y0171247D01*
X0046330Y0170248D02*
X0035607Y0170248D01*
X0036172Y0169250D02*
X0045764Y0169250D01*
X0045351Y0168251D02*
X0036585Y0168251D01*
X0036718Y0167253D02*
X0045218Y0167253D01*
X0045218Y0166254D02*
X0036718Y0166254D01*
X0036718Y0165256D02*
X0045218Y0165256D01*
X0045218Y0164257D02*
X0036718Y0164257D01*
X0036718Y0163259D02*
X0045218Y0163259D01*
X0045218Y0162260D02*
X0036718Y0162260D01*
X0036718Y0161262D02*
X0045218Y0161262D01*
X0045218Y0160263D02*
X0036718Y0160263D01*
X0036718Y0159265D02*
X0045218Y0159265D01*
X0045218Y0158266D02*
X0036718Y0158266D01*
X0038027Y0157268D02*
X0045481Y0157268D01*
X0045895Y0156269D02*
X0039744Y0156269D01*
X0040644Y0155271D02*
X0046645Y0155271D01*
X0047644Y0154272D02*
X0041058Y0154272D01*
X0041291Y0153274D02*
X0083765Y0153274D01*
X0083765Y0154272D02*
X0053993Y0154272D01*
X0054991Y0155271D02*
X0083765Y0155271D01*
X0083765Y0156269D02*
X0055741Y0156269D01*
X0056155Y0157268D02*
X0064866Y0157268D01*
X0064997Y0157213D02*
X0067066Y0157213D01*
X0068977Y0158005D01*
X0070440Y0159468D01*
X0071231Y0161379D01*
X0071231Y0163448D01*
X0070440Y0165359D01*
X0068977Y0166822D01*
X0067066Y0167613D01*
X0064997Y0167613D01*
X0063086Y0166822D01*
X0061623Y0165359D01*
X0060831Y0163448D01*
X0060831Y0161379D01*
X0061623Y0159468D01*
X0063086Y0158005D01*
X0064997Y0157213D01*
X0067197Y0157268D02*
X0083765Y0157268D01*
X0083765Y0158266D02*
X0069238Y0158266D01*
X0070237Y0159265D02*
X0083765Y0159265D01*
X0083765Y0160263D02*
X0070769Y0160263D01*
X0071183Y0161262D02*
X0083765Y0161262D01*
X0083765Y0162260D02*
X0071231Y0162260D01*
X0071231Y0163259D02*
X0083765Y0163259D01*
X0084511Y0164257D02*
X0070896Y0164257D01*
X0070483Y0165256D02*
X0085510Y0165256D01*
X0086508Y0166254D02*
X0069544Y0166254D01*
X0067936Y0167253D02*
X0087507Y0167253D01*
X0088505Y0168251D02*
X0056285Y0168251D01*
X0056418Y0167253D02*
X0064127Y0167253D01*
X0062519Y0166254D02*
X0056418Y0166254D01*
X0056418Y0165256D02*
X0061580Y0165256D01*
X0061167Y0164257D02*
X0056418Y0164257D01*
X0056418Y0163259D02*
X0060831Y0163259D01*
X0060831Y0162260D02*
X0056418Y0162260D01*
X0056418Y0161262D02*
X0060880Y0161262D01*
X0061294Y0160263D02*
X0056418Y0160263D01*
X0056418Y0159265D02*
X0061826Y0159265D01*
X0062825Y0158266D02*
X0056418Y0158266D01*
X0063928Y0150760D02*
X0062606Y0149438D01*
X0061891Y0147710D01*
X0061891Y0139841D01*
X0062606Y0138113D01*
X0063928Y0136791D01*
X0065656Y0136076D01*
X0067525Y0136076D01*
X0069253Y0136791D01*
X0070575Y0138113D01*
X0071291Y0139841D01*
X0071291Y0147710D01*
X0070575Y0149438D01*
X0069253Y0150760D01*
X0067525Y0151476D01*
X0065656Y0151476D01*
X0063928Y0150760D01*
X0063446Y0150278D02*
X0041291Y0150278D01*
X0041291Y0149280D02*
X0062541Y0149280D01*
X0062127Y0148281D02*
X0041291Y0148281D01*
X0041291Y0147283D02*
X0061891Y0147283D01*
X0061891Y0146284D02*
X0041291Y0146284D01*
X0041061Y0145286D02*
X0061891Y0145286D01*
X0061891Y0144287D02*
X0040647Y0144287D01*
X0039750Y0143289D02*
X0061891Y0143289D01*
X0061891Y0142290D02*
X0038043Y0142290D01*
X0035138Y0142290D02*
X0029922Y0142290D01*
X0031611Y0143289D02*
X0033431Y0143289D01*
X0026389Y0142290D02*
X0009463Y0142290D01*
X0007665Y0141292D02*
X0061891Y0141292D01*
X0061891Y0140293D02*
X0007665Y0140293D01*
X0007665Y0139295D02*
X0062117Y0139295D01*
X0062530Y0138296D02*
X0007665Y0138296D01*
X0007665Y0137298D02*
X0063422Y0137298D01*
X0065116Y0136299D02*
X0055377Y0136299D01*
X0057264Y0135301D02*
X0083765Y0135301D01*
X0083765Y0136299D02*
X0068065Y0136299D01*
X0069759Y0137298D02*
X0083765Y0137298D01*
X0083765Y0138296D02*
X0070651Y0138296D01*
X0071064Y0139295D02*
X0083765Y0139295D01*
X0083765Y0140293D02*
X0071291Y0140293D01*
X0071291Y0141292D02*
X0083765Y0141292D01*
X0083765Y0142290D02*
X0071291Y0142290D01*
X0071291Y0143289D02*
X0083765Y0143289D01*
X0083765Y0144287D02*
X0071291Y0144287D01*
X0071291Y0145286D02*
X0083765Y0145286D01*
X0083765Y0146284D02*
X0071291Y0146284D01*
X0071291Y0147283D02*
X0083765Y0147283D01*
X0083765Y0148281D02*
X0071054Y0148281D01*
X0070641Y0149280D02*
X0083765Y0149280D01*
X0083765Y0150278D02*
X0069735Y0150278D01*
X0068006Y0151277D02*
X0083765Y0151277D01*
X0083765Y0152275D02*
X0041291Y0152275D01*
X0041291Y0151277D02*
X0065176Y0151277D01*
X0052804Y0136299D02*
X0035692Y0136299D01*
X0035390Y0136424D02*
X0033421Y0136424D01*
X0031603Y0135671D01*
X0030211Y0134279D01*
X0029457Y0132461D01*
X0029457Y0123996D01*
X0030211Y0122177D01*
X0031603Y0120786D01*
X0033421Y0120032D01*
X0035390Y0120032D01*
X0037208Y0120786D01*
X0038600Y0122177D01*
X0039354Y0123996D01*
X0039354Y0132461D01*
X0038600Y0134279D01*
X0037208Y0135671D01*
X0035390Y0136424D01*
X0033119Y0136299D02*
X0007665Y0136299D01*
X0007665Y0135301D02*
X0031232Y0135301D01*
X0030234Y0134302D02*
X0007665Y0134302D01*
X0007665Y0133303D02*
X0029807Y0133303D01*
X0029457Y0132305D02*
X0007665Y0132305D01*
X0007665Y0131306D02*
X0029457Y0131306D01*
X0029457Y0130308D02*
X0007665Y0130308D01*
X0007665Y0129309D02*
X0029457Y0129309D01*
X0029457Y0128311D02*
X0007665Y0128311D01*
X0007665Y0127312D02*
X0029457Y0127312D01*
X0029457Y0126314D02*
X0007665Y0126314D01*
X0007665Y0125315D02*
X0029457Y0125315D01*
X0029457Y0124317D02*
X0007665Y0124317D01*
X0007665Y0123318D02*
X0029738Y0123318D01*
X0030152Y0122320D02*
X0007665Y0122320D01*
X0007665Y0121321D02*
X0031067Y0121321D01*
X0032720Y0120323D02*
X0007665Y0120323D01*
X0011534Y0143289D02*
X0024700Y0143289D01*
X0023728Y0144287D02*
X0012533Y0144287D01*
X0013078Y0145286D02*
X0023315Y0145286D01*
X0022956Y0146284D02*
X0013491Y0146284D01*
X0013548Y0147283D02*
X0022956Y0147283D01*
X0022980Y0148281D02*
X0013548Y0148281D01*
X0013222Y0149280D02*
X0023394Y0149280D01*
X0023893Y0150278D02*
X0012808Y0150278D01*
X0011882Y0151277D02*
X0024891Y0151277D01*
X0026851Y0152275D02*
X0010304Y0152275D01*
X0007928Y0171247D02*
X0007665Y0171247D01*
X0007665Y0172245D02*
X0009889Y0172245D01*
X0040252Y0176239D02*
X0091456Y0176239D01*
X0091042Y0177238D02*
X0042587Y0177238D01*
X0044204Y0178237D02*
X0090628Y0178237D01*
X0090600Y0179235D02*
X0045203Y0179235D01*
X0046201Y0180234D02*
X0090600Y0180234D01*
X0090600Y0181232D02*
X0046789Y0181232D01*
X0047366Y0182231D02*
X0090600Y0182231D01*
X0090600Y0183229D02*
X0047849Y0183229D01*
X0048117Y0184228D02*
X0090600Y0184228D01*
X0090600Y0185226D02*
X0048384Y0185226D01*
X0048566Y0186225D02*
X0090600Y0186225D01*
X0090600Y0187223D02*
X0048566Y0187223D01*
X0048566Y0188222D02*
X0090600Y0188222D01*
X0090600Y0189220D02*
X0048503Y0189220D01*
X0048236Y0190219D02*
X0090600Y0190219D01*
X0090702Y0191217D02*
X0047968Y0191217D01*
X0047622Y0192216D02*
X0091116Y0192216D01*
X0091529Y0193214D02*
X0047045Y0193214D01*
X0054308Y0171247D02*
X0099965Y0171247D01*
X0099965Y0170248D02*
X0055307Y0170248D01*
X0055872Y0169250D02*
X0089504Y0169250D01*
X0088187Y0161711D02*
X0088534Y0160874D01*
X0088908Y0160500D01*
X0088534Y0160126D01*
X0088165Y0159236D01*
X0088165Y0161689D01*
X0088187Y0161711D01*
X0088165Y0161262D02*
X0088373Y0161262D01*
X0088165Y0160263D02*
X0088671Y0160263D01*
X0088177Y0159265D02*
X0088165Y0159265D01*
X0088165Y0156843D02*
X0088534Y0155952D01*
X0088670Y0155816D01*
X0088165Y0155311D01*
X0088165Y0156843D01*
X0088165Y0156269D02*
X0088403Y0156269D01*
X0098376Y0160500D02*
X0098749Y0160874D01*
X0099310Y0162228D01*
X0099310Y0163693D01*
X0098810Y0164900D01*
X0099965Y0164900D01*
X0099965Y0162933D01*
X0099929Y0162896D01*
X0099365Y0161536D01*
X0099365Y0160211D01*
X0098905Y0159751D01*
X0098749Y0160126D01*
X0098376Y0160500D01*
X0098612Y0160263D02*
X0099365Y0160263D01*
X0099365Y0161262D02*
X0098910Y0161262D01*
X0099310Y0162260D02*
X0099665Y0162260D01*
X0099965Y0163259D02*
X0099310Y0163259D01*
X0099077Y0164257D02*
X0099965Y0164257D01*
X0120471Y0168823D02*
X0171623Y0168823D01*
X0170725Y0167925D01*
X0170725Y0163171D01*
X0169380Y0161826D01*
X0169376Y0161822D01*
X0169061Y0162137D01*
X0167701Y0162700D01*
X0166229Y0162700D01*
X0164869Y0162137D01*
X0163933Y0161200D01*
X0122877Y0161200D01*
X0121369Y0162707D01*
X0121369Y0167925D01*
X0120471Y0168823D01*
X0121043Y0168251D02*
X0171052Y0168251D01*
X0170725Y0167253D02*
X0121369Y0167253D01*
X0121369Y0166254D02*
X0170725Y0166254D01*
X0170725Y0165256D02*
X0121369Y0165256D01*
X0121369Y0164257D02*
X0170725Y0164257D01*
X0170725Y0163259D02*
X0121369Y0163259D01*
X0121816Y0162260D02*
X0165168Y0162260D01*
X0163995Y0161262D02*
X0122815Y0161262D01*
X0141765Y0150000D02*
X0141765Y0136500D01*
X0143965Y0143289D02*
X0144543Y0143289D01*
X0143965Y0144287D02*
X0165282Y0144287D01*
X0168509Y0141292D02*
X0170725Y0141292D01*
X0170725Y0140500D02*
X0167718Y0140500D01*
X0170725Y0143508D01*
X0170725Y0140500D01*
X0170725Y0142290D02*
X0169508Y0142290D01*
X0170506Y0143289D02*
X0170725Y0143289D01*
X0185066Y0145173D02*
X0185495Y0144744D01*
X0186672Y0145921D01*
X0188400Y0146637D01*
X0195516Y0146637D01*
X0195516Y0147237D01*
X0188400Y0147237D01*
X0186672Y0147953D01*
X0185936Y0148689D01*
X0185936Y0146044D01*
X0185066Y0145173D01*
X0185178Y0145286D02*
X0186036Y0145286D01*
X0185936Y0146284D02*
X0187548Y0146284D01*
X0188290Y0147283D02*
X0185936Y0147283D01*
X0185936Y0148281D02*
X0186344Y0148281D01*
X0189465Y0141900D02*
X0192165Y0141900D01*
X0192335Y0141937D01*
X0169814Y0162260D02*
X0168763Y0162260D01*
X0169380Y0161826D02*
X0169380Y0161826D01*
X0150045Y0145286D02*
X0143965Y0145286D01*
X0143965Y0146284D02*
X0147770Y0146284D01*
X0146771Y0147283D02*
X0144281Y0147283D01*
X0145058Y0148281D02*
X0145773Y0148281D01*
X0113764Y0125488D02*
X0112965Y0125700D01*
X0111165Y0125700D01*
X0106665Y0130200D01*
X0094065Y0130200D01*
X0093598Y0130846D01*
X0083765Y0131306D02*
X0059039Y0131306D01*
X0059039Y0130308D02*
X0083765Y0130308D01*
X0083765Y0129309D02*
X0059039Y0129309D01*
X0059039Y0128311D02*
X0083765Y0128311D01*
X0083765Y0132305D02*
X0059039Y0132305D01*
X0058689Y0133303D02*
X0083765Y0133303D01*
X0083765Y0134302D02*
X0058262Y0134302D01*
X0050917Y0135301D02*
X0037579Y0135301D01*
X0038577Y0134302D02*
X0049919Y0134302D01*
X0049492Y0133303D02*
X0039004Y0133303D01*
X0039354Y0132305D02*
X0049143Y0132305D01*
X0049143Y0131306D02*
X0039354Y0131306D01*
X0039354Y0130308D02*
X0049143Y0130308D01*
X0049143Y0129309D02*
X0039354Y0129309D01*
X0039354Y0128311D02*
X0049143Y0128311D01*
X0049143Y0127312D02*
X0039354Y0127312D01*
X0039354Y0126314D02*
X0049143Y0126314D01*
X0049143Y0125315D02*
X0039354Y0125315D01*
X0039354Y0124317D02*
X0049143Y0124317D01*
X0049423Y0123318D02*
X0039073Y0123318D01*
X0038659Y0122320D02*
X0049837Y0122320D01*
X0050752Y0121321D02*
X0037744Y0121321D01*
X0036091Y0120323D02*
X0052405Y0120323D01*
X0095364Y0142290D02*
X0096148Y0142290D01*
X0102442Y0112335D02*
X0106158Y0112335D01*
X0104490Y0111336D02*
X0103440Y0111336D01*
X0121039Y0106344D02*
X0121110Y0106344D01*
X0135321Y0098356D02*
X0153490Y0098356D01*
X0180100Y0101351D02*
X0185465Y0101351D01*
X0185465Y0100353D02*
X0181829Y0100353D01*
X0183117Y0099354D02*
X0185465Y0099354D01*
X0185465Y0098356D02*
X0184116Y0098356D01*
X0184936Y0097357D02*
X0185465Y0097357D01*
X0186083Y0095371D02*
X0187254Y0094200D01*
X0186641Y0093587D01*
X0186233Y0095111D01*
X0186083Y0095371D01*
X0186089Y0095360D02*
X0186094Y0095360D01*
X0186434Y0094362D02*
X0187093Y0094362D01*
X0187665Y0087900D02*
X0190365Y0085200D01*
X0192165Y0085200D01*
X0192953Y0084902D01*
X0189865Y0103196D02*
X0189865Y0107237D01*
X0195516Y0107237D01*
X0195516Y0103350D01*
X0190236Y0103350D01*
X0189865Y0103196D01*
X0189865Y0103348D02*
X0190232Y0103348D01*
X0189865Y0104347D02*
X0195516Y0104347D01*
X0195516Y0105345D02*
X0189865Y0105345D01*
X0189865Y0106344D02*
X0195516Y0106344D01*
X0187945Y0053423D02*
X0180254Y0053423D01*
X0181253Y0052424D02*
X0186947Y0052424D01*
X0186456Y0051426D02*
X0181765Y0051426D01*
X0181765Y0050427D02*
X0186099Y0050427D01*
X0186099Y0049429D02*
X0181765Y0049429D01*
X0181765Y0048430D02*
X0186209Y0048430D01*
X0186623Y0047432D02*
X0182651Y0047432D01*
X0183481Y0046433D02*
X0187349Y0046433D01*
X0188646Y0045434D02*
X0183895Y0045434D01*
X0184017Y0044436D02*
X0195516Y0044436D01*
X0195516Y0043437D02*
X0184017Y0043437D01*
X0184017Y0042439D02*
X0195516Y0042439D01*
X0195516Y0166637D02*
X0194365Y0166637D01*
X0194365Y0173111D01*
X0195516Y0173111D01*
X0195516Y0166637D01*
X0195516Y0167253D02*
X0194365Y0167253D01*
X0194365Y0168251D02*
X0195516Y0168251D01*
X0195516Y0169250D02*
X0194365Y0169250D01*
X0194365Y0170248D02*
X0195516Y0170248D01*
X0195516Y0171247D02*
X0194365Y0171247D01*
X0194365Y0172245D02*
X0195516Y0172245D01*
X0057794Y0013482D02*
X0041442Y0013482D01*
X0043405Y0012484D02*
X0055831Y0012484D01*
X0054833Y0011485D02*
X0044403Y0011485D01*
X0044953Y0010487D02*
X0054284Y0010487D01*
X0053870Y0009488D02*
X0045366Y0009488D01*
X0045472Y0008490D02*
X0053764Y0008490D01*
X0053764Y0007491D02*
X0045472Y0007491D01*
X0045244Y0006493D02*
X0053992Y0006493D01*
D26*
X0068865Y0072600D03*
X0119265Y0078000D03*
X0145365Y0053700D03*
X0150765Y0053700D03*
X0135465Y0048300D03*
X0148065Y0138300D03*
X0152256Y0148307D03*
X0147165Y0155400D03*
X0141765Y0150000D03*
X0122865Y0139200D03*
X0103065Y0160800D03*
X0105765Y0169800D03*
X0105765Y0188700D03*
X0166965Y0159000D03*
X0166020Y0148639D03*
X0185865Y0170700D03*
D27*
X0175331Y0090594D03*
X0101941Y0012551D03*
X0036866Y0187445D03*
D28*
X0066031Y0162413D03*
X0028156Y0147187D03*
X0008348Y0147457D03*
M02*
