%
M48
M72
T01C0.02400
T02C0.03150
T03C0.03200
T04C0.04000
T05C0.05118
T06C0.05200
T07C0.12598
%
T01
X116533Y100200
X104833Y124500
X92233Y124500
X104833Y137100
X123733Y135300
X123733Y142500
X125533Y157800
X132733Y163200
X140833Y176700
X161533Y177600
X175933Y189300
X197533Y188400
X140833Y143400
X150733Y132600
X175033Y108300
X102133Y162300
X61633Y120900
X58033Y136200
X36433Y136200
X34633Y184800
T02
X70333Y90843
X70333Y71157
X90388Y62606
X90388Y42921
X206136Y22449
X206136Y83079
T03
X191333Y162000
X191333Y172000
X161333Y172000
X161333Y162000
X71333Y38000
X71333Y18000
T04
X29333Y108000
X29333Y118000
X29333Y128000
X121333Y194000
X131333Y194000
X141333Y194000
X151333Y194000
X161333Y194000
X171333Y194000
X181333Y194000
X191333Y194000
X206333Y196000
X206333Y186000
X206333Y176000
T05
X201349Y147622
X201349Y100378
X153318Y100378
X145444Y124000
X153318Y147622
T06
X37333Y25200
X37333Y44900
X37333Y67700
X37333Y87400
T07
X71333Y55000
X122333Y180000
M30
