G75*
%MOIN*%
%OFA0B0*%
%FSLAX25Y25*%
%IPPOS*%
%LPD*%
%AMOC8*
5,1,8,0,0,1.08239X$1,22.5*
%
%ADD10C,0.05200*%
%ADD11C,0.05150*%
%ADD12R,0.05150X0.05150*%
%ADD13C,0.08268*%
%ADD14C,0.07800*%
%ADD15C,0.07000*%
%ADD16C,0.07400*%
%ADD17C,0.06600*%
%ADD18C,0.01000*%
%ADD19C,0.04000*%
D10*
X0156133Y0162000D02*
X0161333Y0162000D01*
X0161333Y0172000D02*
X0156133Y0172000D01*
X0191333Y0172000D02*
X0196533Y0172000D01*
X0196533Y0162000D02*
X0191333Y0162000D01*
D11*
X0070333Y0090843D03*
X0070333Y0071157D03*
D12*
X0090388Y0062606D03*
X0090388Y0042921D03*
X0206136Y0022449D03*
X0206136Y0083079D03*
D13*
X0201349Y0100378D03*
X0201349Y0147622D03*
X0153318Y0147622D03*
X0145444Y0124000D03*
X0153318Y0100378D03*
D14*
X0041233Y0087400D02*
X0033433Y0087400D01*
X0033433Y0067700D02*
X0041233Y0067700D01*
X0041233Y0044900D02*
X0033433Y0044900D01*
X0033433Y0025200D02*
X0041233Y0025200D01*
D15*
X0067833Y0018000D02*
X0074833Y0018000D01*
X0074833Y0038000D02*
X0067833Y0038000D01*
D16*
X0029333Y0108000D03*
X0029333Y0118000D03*
X0029333Y0128000D03*
X0121333Y0194000D03*
X0131333Y0194000D03*
X0141333Y0194000D03*
X0151333Y0194000D03*
X0161333Y0194000D03*
X0171333Y0194000D03*
X0181333Y0194000D03*
X0191333Y0194000D03*
X0206333Y0196000D03*
X0206333Y0186000D03*
X0206333Y0176000D03*
D17*
X0037133Y0025000D02*
X0027333Y0025000D01*
X0024333Y0028000D01*
X0024333Y0064000D01*
X0028033Y0067700D01*
X0037333Y0067700D01*
X0043733Y0081000D02*
X0154333Y0081000D01*
X0168333Y0095000D01*
X0168333Y0113000D01*
X0157333Y0124000D01*
X0145444Y0124000D01*
X0201349Y0100378D02*
X0163577Y0062606D01*
X0090388Y0062606D01*
X0090782Y0063000D01*
X0096333Y0063000D01*
X0100333Y0059000D01*
X0100333Y0032000D01*
X0086333Y0018000D01*
X0071333Y0018000D01*
X0082333Y0028000D02*
X0090388Y0036055D01*
X0090388Y0042921D01*
X0082333Y0028000D02*
X0040133Y0028000D01*
X0037333Y0025200D01*
X0037133Y0025000D01*
X0037333Y0044900D02*
X0064433Y0044900D01*
X0071333Y0038000D01*
X0043733Y0081000D02*
X0037333Y0087400D01*
D18*
X0046333Y0091200D02*
X0037333Y0100200D01*
X0027433Y0090300D01*
X0027433Y0085800D01*
X0037333Y0075900D01*
X0168733Y0075900D01*
X0199333Y0106500D01*
X0207433Y0106500D01*
X0207433Y0098400D01*
X0206533Y0097500D01*
X0206533Y0083100D01*
X0206136Y0083079D01*
X0207433Y0106500D02*
X0207433Y0167700D01*
X0201133Y0174000D01*
X0201133Y0191100D01*
X0205633Y0195600D01*
X0206333Y0196000D01*
X0197533Y0188400D02*
X0175033Y0165900D01*
X0175033Y0108300D01*
X0158833Y0102900D02*
X0158833Y0097500D01*
X0156133Y0094800D01*
X0150733Y0094800D01*
X0121033Y0124500D01*
X0104833Y0124500D01*
X0092233Y0124500D02*
X0116533Y0100200D01*
X0138133Y0115500D02*
X0152533Y0101100D01*
X0153318Y0100378D01*
X0158833Y0102900D02*
X0139933Y0121800D01*
X0139933Y0128100D01*
X0149833Y0138000D01*
X0154333Y0138000D01*
X0171433Y0155100D01*
X0171433Y0184800D01*
X0175933Y0189300D01*
X0171333Y0194000D02*
X0170533Y0193800D01*
X0170533Y0192000D01*
X0144433Y0165900D01*
X0144433Y0141600D01*
X0134533Y0131700D01*
X0032833Y0131700D01*
X0031033Y0133500D01*
X0027433Y0133500D01*
X0023833Y0129900D01*
X0023833Y0123600D01*
X0029233Y0118200D01*
X0029333Y0118000D01*
X0030133Y0118200D01*
X0032833Y0120900D01*
X0061633Y0120900D01*
X0058033Y0136200D02*
X0036433Y0136200D01*
X0034633Y0138000D01*
X0034633Y0184800D01*
X0058033Y0136200D02*
X0067933Y0136200D01*
X0099433Y0167700D01*
X0104833Y0167700D01*
X0111133Y0174000D01*
X0111133Y0184800D01*
X0121033Y0194700D01*
X0121333Y0194000D01*
X0135433Y0188400D02*
X0140833Y0193800D01*
X0141333Y0194000D01*
X0135433Y0188400D02*
X0135433Y0177600D01*
X0126433Y0168600D01*
X0108433Y0168600D01*
X0105733Y0165900D01*
X0100333Y0165900D01*
X0098533Y0164100D01*
X0098533Y0160500D01*
X0100333Y0158700D01*
X0103933Y0158700D01*
X0106633Y0161400D01*
X0125533Y0161400D01*
X0126433Y0162300D01*
X0140833Y0147900D01*
X0140833Y0143400D01*
X0148933Y0139800D02*
X0138133Y0129000D01*
X0138133Y0115500D01*
X0133633Y0128100D02*
X0152533Y0147000D01*
X0153318Y0147622D01*
X0153433Y0147900D01*
X0160633Y0155100D01*
X0160633Y0161400D01*
X0161333Y0162000D01*
X0166033Y0152400D02*
X0153433Y0139800D01*
X0148933Y0139800D01*
X0154333Y0136200D02*
X0150733Y0132600D01*
X0154333Y0136200D02*
X0155233Y0136200D01*
X0173233Y0154200D01*
X0173233Y0175800D01*
X0191233Y0193800D01*
X0191333Y0194000D01*
X0166033Y0173100D02*
X0166033Y0152400D01*
X0166033Y0173100D02*
X0161533Y0177600D01*
X0160633Y0191100D02*
X0160633Y0193800D01*
X0161333Y0194000D01*
X0160633Y0191100D02*
X0132733Y0163200D01*
X0126433Y0162300D02*
X0140833Y0176700D01*
X0137233Y0176700D02*
X0137233Y0180300D01*
X0150733Y0193800D01*
X0151333Y0194000D01*
X0137233Y0176700D02*
X0127333Y0166800D01*
X0109333Y0166800D01*
X0104833Y0162300D01*
X0102133Y0162300D01*
X0125533Y0157800D02*
X0104833Y0137100D01*
X0123733Y0135300D02*
X0123733Y0142500D01*
X0133633Y0128100D02*
X0030133Y0128100D01*
X0029333Y0128000D01*
X0029333Y0108000D02*
X0030133Y0107400D01*
X0037333Y0100200D01*
X0046333Y0091200D02*
X0069733Y0091200D01*
X0070333Y0090843D01*
D19*
X0061633Y0120900D03*
X0058033Y0136200D03*
X0036433Y0136200D03*
X0034633Y0184800D03*
X0092233Y0124500D03*
X0104833Y0124500D03*
X0104833Y0137100D03*
X0123733Y0135300D03*
X0123733Y0142500D03*
X0125533Y0157800D03*
X0132733Y0163200D03*
X0140833Y0176700D03*
X0161533Y0177600D03*
X0175933Y0189300D03*
X0197533Y0188400D03*
X0140833Y0143400D03*
X0150733Y0132600D03*
X0175033Y0108300D03*
X0116533Y0100200D03*
X0102133Y0162300D03*
M02*
