G75*
%MOIN*%
%OFA0B0*%
%FSLAX25Y25*%
%IPPOS*%
%LPD*%
%AMOC8*
5,1,8,0,0,1.08239X$1,22.5*
%
%ADD10C,0.13398*%
%ADD11C,0.06000*%
%ADD12C,0.05950*%
%ADD13R,0.05950X0.05950*%
%ADD14C,0.09068*%
%ADD15C,0.08600*%
%ADD16C,0.07800*%
%ADD17C,0.08200*%
%ADD18C,0.04800*%
D10*
X0071333Y0055000D03*
X0122333Y0180000D03*
D11*
X0156133Y0172000D02*
X0161333Y0172000D01*
X0161333Y0162000D02*
X0156133Y0162000D01*
X0191333Y0162000D02*
X0196533Y0162000D01*
X0196533Y0172000D02*
X0191333Y0172000D01*
D12*
X0070333Y0090843D03*
X0070333Y0071157D03*
D13*
X0090388Y0062606D03*
X0090388Y0042921D03*
X0206136Y0022449D03*
X0206136Y0083079D03*
D14*
X0201349Y0100378D03*
X0201349Y0147622D03*
X0153318Y0147622D03*
X0145444Y0124000D03*
X0153318Y0100378D03*
D15*
X0041233Y0025200D02*
X0033433Y0025200D01*
X0033433Y0044900D02*
X0041233Y0044900D01*
X0041233Y0067700D02*
X0033433Y0067700D01*
X0033433Y0087400D02*
X0041233Y0087400D01*
D16*
X0067833Y0038000D02*
X0074833Y0038000D01*
X0074833Y0018000D02*
X0067833Y0018000D01*
D17*
X0029333Y0108000D03*
X0029333Y0118000D03*
X0029333Y0128000D03*
X0121333Y0194000D03*
X0131333Y0194000D03*
X0141333Y0194000D03*
X0151333Y0194000D03*
X0161333Y0194000D03*
X0171333Y0194000D03*
X0181333Y0194000D03*
X0191333Y0194000D03*
X0206333Y0196000D03*
X0206333Y0186000D03*
X0206333Y0176000D03*
D18*
X0197533Y0188400D03*
X0175933Y0189300D03*
X0161533Y0177600D03*
X0140833Y0176700D03*
X0132733Y0163200D03*
X0125533Y0157800D03*
X0123733Y0142500D03*
X0123733Y0135300D03*
X0140833Y0143400D03*
X0150733Y0132600D03*
X0175033Y0108300D03*
X0116533Y0100200D03*
X0104833Y0124500D03*
X0092233Y0124500D03*
X0104833Y0137100D03*
X0102133Y0162300D03*
X0061633Y0120900D03*
X0058033Y0136200D03*
X0036433Y0136200D03*
X0034633Y0184800D03*
M02*
