G75*
%MOIN*%
%OFA0B0*%
%FSLAX25Y25*%
%IPPOS*%
%LPD*%
%AMOC8*
5,1,8,0,0,1.08239X$1,22.5*
%
%ADD10R,0.11811X0.04724*%
%ADD11R,0.04724X0.11811*%
%ADD12R,0.03150X0.05512*%
%ADD13C,0.06000*%
%ADD14R,0.05512X0.03937*%
%ADD15R,0.08268X0.05906*%
%ADD16R,0.05118X0.05906*%
%ADD17R,0.05118X0.06299*%
%ADD18R,0.04724X0.04724*%
%ADD19R,0.06299X0.05118*%
D10*
X0049156Y0113217D03*
X0049156Y0121091D03*
X0049156Y0128965D03*
X0049156Y0136839D03*
X0049156Y0144713D03*
X0049156Y0152587D03*
X0049156Y0160461D03*
X0049156Y0168335D03*
X0113723Y0168335D03*
X0113723Y0160461D03*
X0113723Y0152587D03*
X0113723Y0144713D03*
X0113723Y0136839D03*
X0113723Y0128965D03*
X0113723Y0121091D03*
X0113723Y0113217D03*
D11*
X0062936Y0104949D03*
X0070810Y0104949D03*
X0078684Y0104949D03*
X0086558Y0104949D03*
X0094432Y0104949D03*
X0102306Y0104949D03*
D12*
X0036333Y0142000D03*
X0030333Y0141705D03*
X0024333Y0142000D03*
D13*
X0029333Y0149016D02*
X0031333Y0149016D01*
X0029333Y0149016D02*
X0029333Y0157386D01*
X0031333Y0157386D01*
X0031333Y0149016D01*
X0031333Y0155015D02*
X0029333Y0155015D01*
D14*
X0135003Y0177760D03*
X0135003Y0185240D03*
X0143664Y0181500D03*
D15*
X0130833Y0146587D03*
X0130833Y0132413D03*
D16*
X0034573Y0168000D03*
X0027093Y0168000D03*
X0027093Y0178500D03*
X0034573Y0178500D03*
D17*
X0123593Y0100000D03*
X0131073Y0100000D03*
X0138593Y0163000D03*
X0146073Y0163000D03*
X0169593Y0183000D03*
X0177073Y0183000D03*
X0185593Y0183000D03*
X0193073Y0183000D03*
D18*
X0210333Y0167134D03*
X0210333Y0158866D03*
X0035467Y0192000D03*
X0027199Y0192000D03*
D19*
X0127333Y0120740D03*
X0127333Y0113260D03*
M02*
