G75*
%MOIN*%
%OFA0B0*%
%FSLAX25Y25*%
%IPPOS*%
%LPD*%
%AMOC8*
5,1,8,0,0,1.08239X$1,22.5*
%
%ADD10C,0.00500*%
%ADD11C,0.02400*%
%ADD12C,0.00400*%
%ADD13C,0.00600*%
%ADD14R,0.00787X0.00787*%
%ADD15C,0.00800*%
D10*
X0042579Y0029097D02*
X0043330Y0028346D01*
X0042579Y0029097D02*
X0042579Y0030598D01*
X0043330Y0031349D01*
X0044081Y0031349D01*
X0047083Y0028346D01*
X0047083Y0031349D01*
X0047083Y0048346D02*
X0047083Y0051349D01*
X0047083Y0049847D02*
X0042579Y0049847D01*
X0044081Y0048346D01*
X0061581Y0069189D02*
X0061581Y0075094D01*
X0057054Y0075094D01*
X0057054Y0086906D01*
X0061581Y0086906D01*
X0061581Y0092811D01*
X0061778Y0092811D02*
X0068471Y0092811D01*
X0073196Y0092811D02*
X0075361Y0092811D01*
X0075361Y0069189D01*
X0073196Y0069189D01*
X0068471Y0069189D02*
X0061778Y0069189D01*
X0061581Y0075094D02*
X0061581Y0086906D01*
X0047583Y0090846D02*
X0047583Y0093849D01*
X0047583Y0092347D02*
X0043079Y0092347D01*
X0044581Y0090846D01*
X0044581Y0073849D02*
X0043830Y0073849D01*
X0043079Y0073098D01*
X0043079Y0071597D01*
X0043830Y0070846D01*
X0044581Y0073849D02*
X0047583Y0070846D01*
X0047583Y0073849D01*
X0081833Y0092528D02*
X0081833Y0013000D01*
X0215692Y0013000D01*
X0215692Y0092528D01*
X0081833Y0092528D01*
X0059499Y0106917D02*
X0050444Y0106917D01*
X0040833Y0144500D02*
X0020833Y0144500D01*
X0020833Y0157000D01*
X0040833Y0157000D01*
X0040833Y0144500D01*
X0050444Y0172665D02*
X0050444Y0201406D01*
X0113436Y0201406D01*
X0113436Y0172665D01*
X0143123Y0180500D02*
X0144083Y0180500D01*
X0144083Y0182375D01*
X0144083Y0180500D02*
X0144083Y0178625D01*
X0144083Y0180500D02*
X0146583Y0182375D01*
X0146583Y0180500D01*
X0147543Y0180500D01*
X0146583Y0180500D02*
X0146583Y0178625D01*
X0144083Y0180500D01*
X0154322Y0168402D02*
X0215345Y0168402D01*
X0215345Y0093598D01*
X0154322Y0093598D01*
X0154322Y0168402D01*
X0113436Y0106917D02*
X0106743Y0106917D01*
D11*
X0088633Y0176602D02*
X0063042Y0176602D01*
X0063042Y0178965D01*
X0063042Y0179358D02*
X0063042Y0198650D01*
X0066585Y0198650D01*
X0066585Y0184083D01*
X0070522Y0184083D01*
X0070522Y0198256D01*
X0075247Y0198256D01*
X0075247Y0184083D01*
X0079971Y0184083D01*
X0079971Y0198256D01*
X0084302Y0198256D01*
X0084302Y0184476D01*
X0088633Y0184476D01*
X0088633Y0198256D01*
X0104381Y0198256D01*
D12*
X0104050Y0162715D02*
X0100581Y0162715D01*
X0100581Y0157511D01*
X0104050Y0157511D01*
X0102315Y0160113D02*
X0100581Y0160113D01*
X0098894Y0160981D02*
X0098894Y0161848D01*
X0098027Y0162715D01*
X0096292Y0162715D01*
X0095424Y0161848D01*
X0092003Y0162715D02*
X0092003Y0157511D01*
X0090268Y0157511D02*
X0093738Y0157511D01*
X0095424Y0157511D02*
X0098894Y0160981D01*
X0098894Y0157511D02*
X0095424Y0157511D01*
X0090268Y0160981D02*
X0092003Y0162715D01*
X0083425Y0160113D02*
X0079955Y0160113D01*
X0073112Y0160113D02*
X0072245Y0159246D01*
X0069642Y0159246D01*
X0067956Y0159246D02*
X0067088Y0160113D01*
X0065353Y0160113D01*
X0064486Y0160981D01*
X0064486Y0161848D01*
X0065353Y0162715D01*
X0067088Y0162715D01*
X0067956Y0161848D01*
X0069642Y0162715D02*
X0072245Y0162715D01*
X0073112Y0161848D01*
X0073112Y0160113D01*
X0069642Y0157511D02*
X0069642Y0162715D01*
X0067956Y0159246D02*
X0067956Y0158378D01*
X0067088Y0157511D01*
X0065353Y0157511D01*
X0064486Y0158378D01*
X0062799Y0157511D02*
X0059330Y0157511D01*
X0059330Y0162715D01*
X0062799Y0162715D01*
X0061064Y0160113D02*
X0059330Y0160113D01*
X0133618Y0072804D02*
X0133618Y0068200D01*
X0133618Y0070502D02*
X0136687Y0070502D01*
X0136687Y0072804D02*
X0136687Y0068200D01*
X0138222Y0068200D02*
X0141291Y0068200D01*
X0142825Y0068200D02*
X0142825Y0072804D01*
X0143593Y0070502D02*
X0145895Y0068200D01*
X0142825Y0069735D02*
X0145895Y0072804D01*
X0147429Y0070502D02*
X0150499Y0070502D01*
X0152033Y0069735D02*
X0154335Y0069735D01*
X0155103Y0070502D01*
X0155103Y0072037D01*
X0154335Y0072804D01*
X0152033Y0072804D01*
X0152033Y0068200D01*
X0156637Y0068200D02*
X0156637Y0072804D01*
X0158172Y0071269D01*
X0159706Y0072804D01*
X0159706Y0068200D01*
X0161241Y0068967D02*
X0164310Y0072037D01*
X0164310Y0068967D01*
X0163543Y0068200D01*
X0162008Y0068200D01*
X0161241Y0068967D01*
X0161241Y0072037D01*
X0162008Y0072804D01*
X0163543Y0072804D01*
X0164310Y0072037D01*
X0165845Y0071269D02*
X0167380Y0072804D01*
X0167380Y0068200D01*
X0168914Y0068200D02*
X0165845Y0068200D01*
X0138222Y0068200D02*
X0138222Y0072804D01*
X0191266Y0008571D02*
X0191266Y0002433D01*
X0190499Y0003200D02*
X0192033Y0003200D01*
X0192801Y0003967D01*
X0192801Y0004735D01*
X0192033Y0005502D01*
X0190499Y0005502D01*
X0189731Y0006269D01*
X0189731Y0007037D01*
X0190499Y0007804D01*
X0192033Y0007804D01*
X0192801Y0007037D01*
X0194335Y0006269D02*
X0195870Y0007804D01*
X0195870Y0003200D01*
X0194335Y0003200D02*
X0197405Y0003200D01*
X0190499Y0003200D02*
X0189731Y0003967D01*
X0188197Y0003967D02*
X0188197Y0007804D01*
X0185127Y0007804D02*
X0185127Y0003967D01*
X0185895Y0003200D01*
X0187429Y0003200D01*
X0188197Y0003967D01*
D13*
X0012833Y0015000D02*
X0012833Y0017200D01*
X0020333Y0017200D01*
X0020333Y0033200D01*
X0038333Y0033200D01*
X0038333Y0031700D01*
X0039833Y0031700D02*
X0039833Y0038400D01*
X0038333Y0038400D02*
X0038333Y0036900D01*
X0020333Y0036900D01*
X0020333Y0052900D01*
X0012833Y0052900D01*
X0012833Y0036900D01*
X0012833Y0033200D01*
X0012833Y0017200D01*
X0012833Y0015000D02*
X0016833Y0015000D01*
X0021333Y0015000D01*
X0039833Y0015000D01*
X0039833Y0018700D01*
X0038333Y0018700D02*
X0038333Y0017200D01*
X0020333Y0017200D01*
X0021333Y0015000D02*
X0022333Y0013000D01*
X0015833Y0013000D01*
X0016833Y0015000D01*
X0022833Y0018700D02*
X0022833Y0031700D01*
X0035333Y0031700D01*
X0035333Y0038400D02*
X0022833Y0038400D01*
X0022833Y0051400D01*
X0035333Y0051400D01*
X0038333Y0051400D02*
X0038333Y0052900D01*
X0020333Y0052900D01*
X0022833Y0055500D02*
X0016333Y0055500D01*
X0017333Y0057500D01*
X0021833Y0057500D01*
X0040333Y0057500D01*
X0040333Y0061200D01*
X0038833Y0061200D02*
X0038833Y0059700D01*
X0020833Y0059700D01*
X0013333Y0059700D01*
X0013333Y0057500D01*
X0017333Y0057500D01*
X0020833Y0059700D02*
X0020833Y0075700D01*
X0038833Y0075700D01*
X0038833Y0074200D01*
X0040333Y0074200D02*
X0040333Y0080900D01*
X0038833Y0080900D02*
X0038833Y0079400D01*
X0020833Y0079400D01*
X0020833Y0095400D01*
X0013333Y0095400D01*
X0013333Y0079400D01*
X0013333Y0075700D01*
X0013333Y0059700D01*
X0012833Y0055000D02*
X0039833Y0055000D01*
X0039833Y0051400D01*
X0039833Y0055000D02*
X0049833Y0055000D01*
X0061833Y0055000D01*
X0061833Y0015000D01*
X0061833Y0013000D01*
X0042833Y0013000D01*
X0043833Y0015000D01*
X0049833Y0015000D01*
X0049833Y0055000D01*
X0050833Y0052900D02*
X0060833Y0052900D01*
X0060833Y0036900D01*
X0050833Y0036900D01*
X0050833Y0052900D01*
X0054333Y0050800D02*
X0056833Y0038800D01*
X0057333Y0039300D02*
X0054833Y0051300D01*
X0053592Y0050534D02*
X0053641Y0050618D01*
X0053693Y0050699D01*
X0053748Y0050778D01*
X0053807Y0050855D01*
X0053868Y0050929D01*
X0053933Y0051001D01*
X0054001Y0051070D01*
X0054071Y0051136D01*
X0054144Y0051199D01*
X0054220Y0051259D01*
X0054298Y0051315D01*
X0054378Y0051369D01*
X0054460Y0051419D01*
X0054545Y0051466D01*
X0054631Y0051509D01*
X0054719Y0051549D01*
X0054809Y0051585D01*
X0054900Y0051617D01*
X0054992Y0051645D01*
X0055085Y0051670D01*
X0055179Y0051691D01*
X0055275Y0051707D01*
X0055370Y0051720D01*
X0055466Y0051729D01*
X0055563Y0051734D01*
X0055659Y0051735D01*
X0055756Y0051732D01*
X0055852Y0051725D01*
X0055948Y0051714D01*
X0056043Y0051699D01*
X0056138Y0051680D01*
X0056232Y0051657D01*
X0056324Y0051630D01*
X0056416Y0051600D01*
X0056506Y0051566D01*
X0056595Y0051528D01*
X0056682Y0051486D01*
X0056767Y0051441D01*
X0056851Y0051392D01*
X0056932Y0051340D01*
X0057011Y0051285D01*
X0057088Y0051226D01*
X0057162Y0051165D01*
X0057234Y0051100D01*
X0057033Y0051300D02*
X0057184Y0051175D01*
X0057333Y0051046D01*
X0057478Y0050913D01*
X0057619Y0050777D01*
X0057758Y0050637D01*
X0057893Y0050495D01*
X0058024Y0050348D01*
X0058152Y0050199D01*
X0058276Y0050047D01*
X0058397Y0049892D01*
X0058513Y0049734D01*
X0058626Y0049573D01*
X0058735Y0049409D01*
X0058840Y0049243D01*
X0058941Y0049074D01*
X0059038Y0048903D01*
X0059130Y0048730D01*
X0059218Y0048554D01*
X0059302Y0048376D01*
X0059382Y0048197D01*
X0059457Y0048015D01*
X0059528Y0047832D01*
X0059595Y0047647D01*
X0059657Y0047460D01*
X0059714Y0047272D01*
X0059767Y0047083D01*
X0059815Y0046893D01*
X0059859Y0046701D01*
X0059897Y0046508D01*
X0059932Y0046315D01*
X0059961Y0046120D01*
X0059986Y0045925D01*
X0060006Y0045730D01*
X0060021Y0045534D01*
X0060032Y0045338D01*
X0060038Y0045141D01*
X0060039Y0044945D01*
X0060035Y0044748D01*
X0060027Y0044552D01*
X0060013Y0044356D01*
X0059995Y0044160D01*
X0059973Y0043965D01*
X0059945Y0043770D01*
X0059913Y0043576D01*
X0059876Y0043383D01*
X0059835Y0043191D01*
X0059788Y0043000D01*
X0059738Y0042810D01*
X0059682Y0042622D01*
X0059622Y0042435D01*
X0059558Y0042249D01*
X0059489Y0042065D01*
X0059416Y0041883D01*
X0059338Y0041702D01*
X0059256Y0041524D01*
X0059169Y0041347D01*
X0059079Y0041173D01*
X0058984Y0041001D01*
X0058885Y0040831D01*
X0058782Y0040664D01*
X0058674Y0040499D01*
X0058563Y0040337D01*
X0058448Y0040177D01*
X0058329Y0040021D01*
X0058207Y0039867D01*
X0058081Y0039717D01*
X0057951Y0039569D01*
X0057817Y0039425D01*
X0057680Y0039284D01*
X0057540Y0039146D01*
X0057396Y0039012D01*
X0057250Y0038881D01*
X0057233Y0038901D02*
X0057156Y0038834D01*
X0057077Y0038771D01*
X0056996Y0038711D01*
X0056913Y0038653D01*
X0056827Y0038599D01*
X0056739Y0038549D01*
X0056650Y0038501D01*
X0056559Y0038457D01*
X0056466Y0038416D01*
X0056372Y0038379D01*
X0056277Y0038346D01*
X0056180Y0038316D01*
X0056082Y0038289D01*
X0055983Y0038267D01*
X0055884Y0038248D01*
X0055784Y0038233D01*
X0055683Y0038222D01*
X0055582Y0038214D01*
X0055481Y0038210D01*
X0055380Y0038211D01*
X0055279Y0038214D01*
X0055178Y0038222D01*
X0055077Y0038234D01*
X0054977Y0038249D01*
X0054878Y0038268D01*
X0054779Y0038291D01*
X0054681Y0038317D01*
X0054585Y0038347D01*
X0054489Y0038381D01*
X0054395Y0038418D01*
X0054303Y0038459D01*
X0054211Y0038503D01*
X0054122Y0038551D01*
X0054035Y0038602D01*
X0053949Y0038656D01*
X0053866Y0038714D01*
X0053785Y0038774D01*
X0053706Y0038838D01*
X0053630Y0038904D01*
X0053556Y0038973D01*
X0053485Y0039045D01*
X0053416Y0039120D01*
X0050833Y0033200D02*
X0050833Y0017200D01*
X0060833Y0017200D01*
X0060833Y0033200D01*
X0050833Y0033200D01*
X0054333Y0031100D02*
X0056833Y0019100D01*
X0057333Y0019600D02*
X0054833Y0031600D01*
X0053592Y0030834D02*
X0053641Y0030918D01*
X0053693Y0030999D01*
X0053748Y0031078D01*
X0053807Y0031155D01*
X0053868Y0031229D01*
X0053933Y0031301D01*
X0054001Y0031370D01*
X0054071Y0031436D01*
X0054144Y0031499D01*
X0054220Y0031559D01*
X0054298Y0031615D01*
X0054378Y0031669D01*
X0054460Y0031719D01*
X0054545Y0031766D01*
X0054631Y0031809D01*
X0054719Y0031849D01*
X0054809Y0031885D01*
X0054900Y0031917D01*
X0054992Y0031945D01*
X0055085Y0031970D01*
X0055179Y0031991D01*
X0055275Y0032007D01*
X0055370Y0032020D01*
X0055466Y0032029D01*
X0055563Y0032034D01*
X0055659Y0032035D01*
X0055756Y0032032D01*
X0055852Y0032025D01*
X0055948Y0032014D01*
X0056043Y0031999D01*
X0056138Y0031980D01*
X0056232Y0031957D01*
X0056324Y0031930D01*
X0056416Y0031900D01*
X0056506Y0031866D01*
X0056595Y0031828D01*
X0056682Y0031786D01*
X0056767Y0031741D01*
X0056851Y0031692D01*
X0056932Y0031640D01*
X0057011Y0031585D01*
X0057088Y0031526D01*
X0057162Y0031465D01*
X0057234Y0031400D01*
X0053733Y0031000D02*
X0053589Y0030815D01*
X0053449Y0030627D01*
X0053314Y0030435D01*
X0053184Y0030240D01*
X0053058Y0030042D01*
X0052937Y0029841D01*
X0052822Y0029637D01*
X0052711Y0029431D01*
X0052605Y0029221D01*
X0052505Y0029010D01*
X0052410Y0028795D01*
X0052320Y0028579D01*
X0052235Y0028360D01*
X0052156Y0028140D01*
X0052082Y0027917D01*
X0052013Y0027693D01*
X0051950Y0027467D01*
X0051893Y0027240D01*
X0051841Y0027011D01*
X0051795Y0026781D01*
X0051754Y0026550D01*
X0051719Y0026318D01*
X0051690Y0026086D01*
X0051666Y0025852D01*
X0051648Y0025619D01*
X0051636Y0025384D01*
X0051629Y0025150D01*
X0051628Y0024916D01*
X0051633Y0024681D01*
X0051644Y0024447D01*
X0051660Y0024213D01*
X0051682Y0023980D01*
X0051710Y0023747D01*
X0051744Y0023515D01*
X0051783Y0023284D01*
X0051827Y0023053D01*
X0051878Y0022824D01*
X0051934Y0022597D01*
X0051995Y0022370D01*
X0052062Y0022146D01*
X0052134Y0021923D01*
X0052212Y0021701D01*
X0052295Y0021482D01*
X0052384Y0021265D01*
X0052478Y0021050D01*
X0052577Y0020838D01*
X0052681Y0020628D01*
X0052790Y0020420D01*
X0052904Y0020216D01*
X0053024Y0020014D01*
X0053148Y0019815D01*
X0053277Y0019619D01*
X0053411Y0019426D01*
X0053549Y0019237D01*
X0053416Y0019420D02*
X0053485Y0019345D01*
X0053556Y0019273D01*
X0053630Y0019204D01*
X0053706Y0019138D01*
X0053785Y0019074D01*
X0053866Y0019014D01*
X0053949Y0018956D01*
X0054035Y0018902D01*
X0054122Y0018851D01*
X0054211Y0018803D01*
X0054303Y0018759D01*
X0054395Y0018718D01*
X0054489Y0018681D01*
X0054585Y0018647D01*
X0054681Y0018617D01*
X0054779Y0018591D01*
X0054878Y0018568D01*
X0054977Y0018549D01*
X0055077Y0018534D01*
X0055178Y0018522D01*
X0055279Y0018514D01*
X0055380Y0018511D01*
X0055481Y0018510D01*
X0055582Y0018514D01*
X0055683Y0018522D01*
X0055784Y0018533D01*
X0055884Y0018548D01*
X0055983Y0018567D01*
X0056082Y0018589D01*
X0056180Y0018616D01*
X0056277Y0018646D01*
X0056372Y0018679D01*
X0056466Y0018716D01*
X0056559Y0018757D01*
X0056650Y0018801D01*
X0056739Y0018849D01*
X0056827Y0018899D01*
X0056913Y0018953D01*
X0056996Y0019011D01*
X0057077Y0019071D01*
X0057156Y0019134D01*
X0057233Y0019201D01*
X0061833Y0015000D02*
X0049833Y0015000D01*
X0043833Y0015000D02*
X0039833Y0015000D01*
X0035333Y0018700D02*
X0022833Y0018700D01*
X0020333Y0033200D02*
X0012833Y0033200D01*
X0012833Y0036900D02*
X0020333Y0036900D01*
X0012833Y0052900D02*
X0012833Y0055000D01*
X0021833Y0057500D02*
X0022833Y0055500D01*
X0023333Y0061200D02*
X0023333Y0074200D01*
X0035833Y0074200D01*
X0035833Y0080900D02*
X0023333Y0080900D01*
X0023333Y0093900D01*
X0035833Y0093900D01*
X0038833Y0093900D02*
X0038833Y0095400D01*
X0020833Y0095400D01*
X0013333Y0095400D02*
X0013333Y0097500D01*
X0040333Y0097500D01*
X0040333Y0093900D01*
X0040333Y0097500D02*
X0050333Y0097500D01*
X0062333Y0097500D01*
X0062333Y0057500D01*
X0062333Y0055500D01*
X0043333Y0055500D01*
X0044333Y0057500D01*
X0050333Y0057500D01*
X0050333Y0097500D01*
X0051333Y0095400D02*
X0061333Y0095400D01*
X0061333Y0079400D01*
X0051333Y0079400D01*
X0051333Y0095400D01*
X0054833Y0093300D02*
X0057333Y0081300D01*
X0057833Y0081800D02*
X0055333Y0093800D01*
X0054092Y0093034D02*
X0054141Y0093118D01*
X0054193Y0093199D01*
X0054248Y0093278D01*
X0054307Y0093355D01*
X0054368Y0093429D01*
X0054433Y0093501D01*
X0054501Y0093570D01*
X0054571Y0093636D01*
X0054644Y0093699D01*
X0054720Y0093759D01*
X0054798Y0093815D01*
X0054878Y0093869D01*
X0054960Y0093919D01*
X0055045Y0093966D01*
X0055131Y0094009D01*
X0055219Y0094049D01*
X0055309Y0094085D01*
X0055400Y0094117D01*
X0055492Y0094145D01*
X0055585Y0094170D01*
X0055679Y0094191D01*
X0055775Y0094207D01*
X0055870Y0094220D01*
X0055966Y0094229D01*
X0056063Y0094234D01*
X0056159Y0094235D01*
X0056256Y0094232D01*
X0056352Y0094225D01*
X0056448Y0094214D01*
X0056543Y0094199D01*
X0056638Y0094180D01*
X0056732Y0094157D01*
X0056824Y0094130D01*
X0056916Y0094100D01*
X0057006Y0094066D01*
X0057095Y0094028D01*
X0057182Y0093986D01*
X0057267Y0093941D01*
X0057351Y0093892D01*
X0057432Y0093840D01*
X0057511Y0093785D01*
X0057588Y0093726D01*
X0057662Y0093665D01*
X0057734Y0093600D01*
X0054233Y0093200D02*
X0054089Y0093016D01*
X0053949Y0092827D01*
X0053814Y0092636D01*
X0053684Y0092441D01*
X0053558Y0092243D01*
X0053438Y0092042D01*
X0053322Y0091838D01*
X0053211Y0091631D01*
X0053106Y0091422D01*
X0053005Y0091210D01*
X0052910Y0090996D01*
X0052820Y0090779D01*
X0052735Y0090560D01*
X0052656Y0090340D01*
X0052582Y0090117D01*
X0052513Y0089893D01*
X0052450Y0089667D01*
X0052393Y0089440D01*
X0052341Y0089211D01*
X0052295Y0088981D01*
X0052254Y0088750D01*
X0052219Y0088519D01*
X0052190Y0088286D01*
X0052166Y0088053D01*
X0052148Y0087819D01*
X0052136Y0087585D01*
X0052129Y0087350D01*
X0052128Y0087116D01*
X0052133Y0086882D01*
X0052144Y0086647D01*
X0052160Y0086413D01*
X0052182Y0086180D01*
X0052210Y0085947D01*
X0052243Y0085715D01*
X0052283Y0085484D01*
X0052327Y0085254D01*
X0052378Y0085025D01*
X0052433Y0084797D01*
X0052495Y0084571D01*
X0052562Y0084346D01*
X0052634Y0084123D01*
X0052712Y0083902D01*
X0052795Y0083683D01*
X0052884Y0083466D01*
X0052978Y0083251D01*
X0053077Y0083038D01*
X0053181Y0082828D01*
X0053290Y0082621D01*
X0053404Y0082416D01*
X0053524Y0082214D01*
X0053648Y0082015D01*
X0053777Y0081819D01*
X0053910Y0081627D01*
X0054049Y0081437D01*
X0053916Y0081620D02*
X0053985Y0081545D01*
X0054056Y0081473D01*
X0054130Y0081404D01*
X0054206Y0081338D01*
X0054285Y0081274D01*
X0054366Y0081214D01*
X0054449Y0081156D01*
X0054535Y0081102D01*
X0054622Y0081051D01*
X0054711Y0081003D01*
X0054803Y0080959D01*
X0054895Y0080918D01*
X0054989Y0080881D01*
X0055085Y0080847D01*
X0055181Y0080817D01*
X0055279Y0080791D01*
X0055378Y0080768D01*
X0055477Y0080749D01*
X0055577Y0080734D01*
X0055678Y0080722D01*
X0055779Y0080714D01*
X0055880Y0080711D01*
X0055981Y0080710D01*
X0056082Y0080714D01*
X0056183Y0080722D01*
X0056284Y0080733D01*
X0056384Y0080748D01*
X0056483Y0080767D01*
X0056582Y0080789D01*
X0056680Y0080816D01*
X0056777Y0080846D01*
X0056872Y0080879D01*
X0056966Y0080916D01*
X0057059Y0080957D01*
X0057150Y0081001D01*
X0057239Y0081049D01*
X0057327Y0081099D01*
X0057413Y0081153D01*
X0057496Y0081211D01*
X0057577Y0081271D01*
X0057656Y0081334D01*
X0057733Y0081401D01*
X0057750Y0081381D02*
X0057896Y0081512D01*
X0058040Y0081646D01*
X0058180Y0081784D01*
X0058317Y0081925D01*
X0058451Y0082069D01*
X0058581Y0082217D01*
X0058707Y0082367D01*
X0058829Y0082521D01*
X0058948Y0082677D01*
X0059063Y0082837D01*
X0059174Y0082999D01*
X0059282Y0083164D01*
X0059385Y0083331D01*
X0059484Y0083501D01*
X0059579Y0083673D01*
X0059669Y0083847D01*
X0059756Y0084024D01*
X0059838Y0084202D01*
X0059916Y0084383D01*
X0059989Y0084565D01*
X0060058Y0084749D01*
X0060122Y0084935D01*
X0060182Y0085122D01*
X0060238Y0085310D01*
X0060288Y0085500D01*
X0060335Y0085691D01*
X0060376Y0085883D01*
X0060413Y0086076D01*
X0060445Y0086270D01*
X0060473Y0086465D01*
X0060495Y0086660D01*
X0060513Y0086856D01*
X0060527Y0087052D01*
X0060535Y0087248D01*
X0060539Y0087445D01*
X0060538Y0087641D01*
X0060532Y0087838D01*
X0060521Y0088034D01*
X0060506Y0088230D01*
X0060486Y0088425D01*
X0060461Y0088620D01*
X0060432Y0088815D01*
X0060397Y0089008D01*
X0060359Y0089201D01*
X0060315Y0089393D01*
X0060267Y0089583D01*
X0060214Y0089772D01*
X0060157Y0089960D01*
X0060095Y0090147D01*
X0060028Y0090332D01*
X0059957Y0090515D01*
X0059882Y0090697D01*
X0059802Y0090876D01*
X0059718Y0091054D01*
X0059630Y0091230D01*
X0059538Y0091403D01*
X0059441Y0091574D01*
X0059340Y0091743D01*
X0059235Y0091909D01*
X0059126Y0092073D01*
X0059013Y0092234D01*
X0058897Y0092392D01*
X0058776Y0092547D01*
X0058652Y0092699D01*
X0058524Y0092848D01*
X0058393Y0092995D01*
X0058258Y0093137D01*
X0058119Y0093277D01*
X0057978Y0093413D01*
X0057833Y0093546D01*
X0057684Y0093675D01*
X0057533Y0093800D01*
X0061333Y0075700D02*
X0051333Y0075700D01*
X0051333Y0059700D01*
X0061333Y0059700D01*
X0061333Y0075700D01*
X0057734Y0073900D02*
X0057662Y0073965D01*
X0057588Y0074026D01*
X0057511Y0074085D01*
X0057432Y0074140D01*
X0057351Y0074192D01*
X0057267Y0074241D01*
X0057182Y0074286D01*
X0057095Y0074328D01*
X0057006Y0074366D01*
X0056916Y0074400D01*
X0056824Y0074430D01*
X0056732Y0074457D01*
X0056638Y0074480D01*
X0056543Y0074499D01*
X0056448Y0074514D01*
X0056352Y0074525D01*
X0056256Y0074532D01*
X0056159Y0074535D01*
X0056063Y0074534D01*
X0055966Y0074529D01*
X0055870Y0074520D01*
X0055775Y0074507D01*
X0055679Y0074491D01*
X0055585Y0074470D01*
X0055492Y0074445D01*
X0055400Y0074417D01*
X0055309Y0074385D01*
X0055219Y0074349D01*
X0055131Y0074309D01*
X0055045Y0074266D01*
X0054960Y0074219D01*
X0054878Y0074169D01*
X0054798Y0074115D01*
X0054720Y0074059D01*
X0054644Y0073999D01*
X0054571Y0073936D01*
X0054501Y0073870D01*
X0054433Y0073801D01*
X0054368Y0073729D01*
X0054307Y0073655D01*
X0054248Y0073578D01*
X0054193Y0073499D01*
X0054141Y0073418D01*
X0054092Y0073334D01*
X0054833Y0073600D02*
X0057333Y0061600D01*
X0057833Y0062100D02*
X0055333Y0074100D01*
X0057533Y0074099D02*
X0057684Y0073974D01*
X0057832Y0073845D01*
X0057977Y0073712D01*
X0058119Y0073576D01*
X0058257Y0073436D01*
X0058392Y0073294D01*
X0058524Y0073147D01*
X0058651Y0072998D01*
X0058776Y0072846D01*
X0058896Y0072691D01*
X0059013Y0072533D01*
X0059126Y0072372D01*
X0059234Y0072208D01*
X0059339Y0072042D01*
X0059440Y0071873D01*
X0059537Y0071702D01*
X0059629Y0071529D01*
X0059718Y0071353D01*
X0059802Y0071175D01*
X0059881Y0070996D01*
X0059957Y0070814D01*
X0060027Y0070631D01*
X0060094Y0070446D01*
X0060156Y0070260D01*
X0060213Y0070072D01*
X0060266Y0069882D01*
X0060314Y0069692D01*
X0060358Y0069500D01*
X0060397Y0069308D01*
X0060431Y0069114D01*
X0060460Y0068920D01*
X0060485Y0068725D01*
X0060505Y0068529D01*
X0060520Y0068333D01*
X0060531Y0068137D01*
X0060537Y0067941D01*
X0060538Y0067744D01*
X0060534Y0067548D01*
X0060526Y0067351D01*
X0060512Y0067155D01*
X0060494Y0066960D01*
X0060472Y0066765D01*
X0060444Y0066570D01*
X0060412Y0066376D01*
X0060375Y0066183D01*
X0060334Y0065991D01*
X0060287Y0065800D01*
X0060237Y0065610D01*
X0060181Y0065422D01*
X0060121Y0065234D01*
X0060057Y0065049D01*
X0059988Y0064865D01*
X0059914Y0064683D01*
X0059837Y0064502D01*
X0059755Y0064324D01*
X0059668Y0064147D01*
X0059577Y0063973D01*
X0059483Y0063801D01*
X0059384Y0063631D01*
X0059280Y0063464D01*
X0059173Y0063299D01*
X0059062Y0063137D01*
X0058947Y0062977D01*
X0058828Y0062821D01*
X0058706Y0062667D01*
X0058579Y0062517D01*
X0058450Y0062369D01*
X0058316Y0062225D01*
X0058179Y0062084D01*
X0058039Y0061946D01*
X0057895Y0061812D01*
X0057749Y0061682D01*
X0057733Y0061701D02*
X0057656Y0061634D01*
X0057577Y0061571D01*
X0057496Y0061511D01*
X0057413Y0061453D01*
X0057327Y0061399D01*
X0057239Y0061349D01*
X0057150Y0061301D01*
X0057059Y0061257D01*
X0056966Y0061216D01*
X0056872Y0061179D01*
X0056777Y0061146D01*
X0056680Y0061116D01*
X0056582Y0061089D01*
X0056483Y0061067D01*
X0056384Y0061048D01*
X0056284Y0061033D01*
X0056183Y0061022D01*
X0056082Y0061014D01*
X0055981Y0061010D01*
X0055880Y0061011D01*
X0055779Y0061014D01*
X0055678Y0061022D01*
X0055577Y0061034D01*
X0055477Y0061049D01*
X0055378Y0061068D01*
X0055279Y0061091D01*
X0055181Y0061117D01*
X0055085Y0061147D01*
X0054989Y0061181D01*
X0054895Y0061218D01*
X0054803Y0061259D01*
X0054711Y0061303D01*
X0054622Y0061351D01*
X0054535Y0061402D01*
X0054449Y0061456D01*
X0054366Y0061514D01*
X0054285Y0061574D01*
X0054206Y0061638D01*
X0054130Y0061704D01*
X0054056Y0061773D01*
X0053985Y0061845D01*
X0053916Y0061920D01*
X0050333Y0057500D02*
X0062333Y0057500D01*
X0054049Y0061737D02*
X0053911Y0061926D01*
X0053777Y0062119D01*
X0053648Y0062315D01*
X0053524Y0062514D01*
X0053404Y0062716D01*
X0053290Y0062920D01*
X0053181Y0063128D01*
X0053077Y0063338D01*
X0052978Y0063550D01*
X0052884Y0063765D01*
X0052795Y0063982D01*
X0052712Y0064201D01*
X0052634Y0064423D01*
X0052562Y0064646D01*
X0052495Y0064870D01*
X0052434Y0065097D01*
X0052378Y0065324D01*
X0052327Y0065553D01*
X0052283Y0065784D01*
X0052244Y0066015D01*
X0052210Y0066247D01*
X0052182Y0066480D01*
X0052160Y0066713D01*
X0052144Y0066947D01*
X0052133Y0067181D01*
X0052128Y0067416D01*
X0052129Y0067650D01*
X0052136Y0067884D01*
X0052148Y0068119D01*
X0052166Y0068352D01*
X0052190Y0068586D01*
X0052219Y0068818D01*
X0052254Y0069050D01*
X0052295Y0069281D01*
X0052341Y0069511D01*
X0052393Y0069740D01*
X0052450Y0069967D01*
X0052513Y0070193D01*
X0052582Y0070417D01*
X0052656Y0070640D01*
X0052735Y0070860D01*
X0052820Y0071079D01*
X0052910Y0071295D01*
X0053005Y0071510D01*
X0053105Y0071721D01*
X0053211Y0071931D01*
X0053322Y0072137D01*
X0053437Y0072341D01*
X0053558Y0072542D01*
X0053684Y0072740D01*
X0053814Y0072935D01*
X0053949Y0073127D01*
X0054089Y0073315D01*
X0054233Y0073500D01*
X0044333Y0057500D02*
X0040333Y0057500D01*
X0035833Y0061200D02*
X0023333Y0061200D01*
X0020833Y0075700D02*
X0013333Y0075700D01*
X0013333Y0079400D02*
X0020833Y0079400D01*
X0053733Y0050700D02*
X0053589Y0050516D01*
X0053449Y0050327D01*
X0053314Y0050136D01*
X0053184Y0049941D01*
X0053058Y0049743D01*
X0052938Y0049542D01*
X0052822Y0049338D01*
X0052711Y0049131D01*
X0052606Y0048922D01*
X0052505Y0048710D01*
X0052410Y0048496D01*
X0052320Y0048279D01*
X0052235Y0048060D01*
X0052156Y0047840D01*
X0052082Y0047617D01*
X0052013Y0047393D01*
X0051950Y0047167D01*
X0051893Y0046940D01*
X0051841Y0046711D01*
X0051795Y0046481D01*
X0051754Y0046250D01*
X0051719Y0046019D01*
X0051690Y0045786D01*
X0051666Y0045553D01*
X0051648Y0045319D01*
X0051636Y0045085D01*
X0051629Y0044850D01*
X0051628Y0044616D01*
X0051633Y0044382D01*
X0051644Y0044147D01*
X0051660Y0043913D01*
X0051682Y0043680D01*
X0051710Y0043447D01*
X0051743Y0043215D01*
X0051783Y0042984D01*
X0051827Y0042754D01*
X0051878Y0042525D01*
X0051933Y0042297D01*
X0051995Y0042071D01*
X0052062Y0041846D01*
X0052134Y0041623D01*
X0052212Y0041402D01*
X0052295Y0041183D01*
X0052384Y0040966D01*
X0052478Y0040751D01*
X0052577Y0040538D01*
X0052681Y0040328D01*
X0052790Y0040121D01*
X0052904Y0039916D01*
X0053024Y0039714D01*
X0053148Y0039515D01*
X0053277Y0039319D01*
X0053410Y0039127D01*
X0053549Y0038937D01*
X0057033Y0031599D02*
X0057184Y0031474D01*
X0057332Y0031345D01*
X0057477Y0031212D01*
X0057619Y0031076D01*
X0057757Y0030936D01*
X0057892Y0030794D01*
X0058024Y0030647D01*
X0058151Y0030498D01*
X0058276Y0030346D01*
X0058396Y0030191D01*
X0058513Y0030033D01*
X0058626Y0029872D01*
X0058734Y0029708D01*
X0058839Y0029542D01*
X0058940Y0029373D01*
X0059037Y0029202D01*
X0059129Y0029029D01*
X0059218Y0028853D01*
X0059302Y0028675D01*
X0059381Y0028496D01*
X0059457Y0028314D01*
X0059527Y0028131D01*
X0059594Y0027946D01*
X0059656Y0027760D01*
X0059713Y0027572D01*
X0059766Y0027382D01*
X0059814Y0027192D01*
X0059858Y0027000D01*
X0059897Y0026808D01*
X0059931Y0026614D01*
X0059960Y0026420D01*
X0059985Y0026225D01*
X0060005Y0026029D01*
X0060020Y0025833D01*
X0060031Y0025637D01*
X0060037Y0025441D01*
X0060038Y0025244D01*
X0060034Y0025048D01*
X0060026Y0024851D01*
X0060012Y0024655D01*
X0059994Y0024460D01*
X0059972Y0024265D01*
X0059944Y0024070D01*
X0059912Y0023876D01*
X0059875Y0023683D01*
X0059834Y0023491D01*
X0059787Y0023300D01*
X0059737Y0023110D01*
X0059681Y0022922D01*
X0059621Y0022734D01*
X0059557Y0022549D01*
X0059488Y0022365D01*
X0059414Y0022183D01*
X0059337Y0022002D01*
X0059255Y0021824D01*
X0059168Y0021647D01*
X0059077Y0021473D01*
X0058983Y0021301D01*
X0058884Y0021131D01*
X0058780Y0020964D01*
X0058673Y0020799D01*
X0058562Y0020637D01*
X0058447Y0020477D01*
X0058328Y0020321D01*
X0058206Y0020167D01*
X0058079Y0020017D01*
X0057950Y0019869D01*
X0057816Y0019725D01*
X0057679Y0019584D01*
X0057539Y0019446D01*
X0057395Y0019312D01*
X0057249Y0019182D01*
X0054833Y0027000D02*
X0054838Y0027417D01*
X0054853Y0027834D01*
X0054879Y0028251D01*
X0054915Y0028666D01*
X0054961Y0029081D01*
X0055017Y0029494D01*
X0055083Y0029906D01*
X0055160Y0030317D01*
X0055246Y0030725D01*
X0055342Y0031131D01*
X0055449Y0031534D01*
X0055565Y0031935D01*
X0055691Y0032333D01*
X0055827Y0032727D01*
X0055972Y0033118D01*
X0056127Y0033506D01*
X0056291Y0033889D01*
X0056465Y0034268D01*
X0056648Y0034643D01*
X0056840Y0035014D01*
X0057042Y0035379D01*
X0057252Y0035740D01*
X0057470Y0036095D01*
X0057698Y0036445D01*
X0057934Y0036789D01*
X0058178Y0037127D01*
X0058431Y0037459D01*
X0058692Y0037785D01*
X0058960Y0038104D01*
X0059237Y0038417D01*
X0059521Y0038722D01*
X0059812Y0039021D01*
X0060111Y0039312D01*
X0060416Y0039596D01*
X0060729Y0039873D01*
X0061048Y0040141D01*
X0061374Y0040402D01*
X0061706Y0040655D01*
X0062044Y0040899D01*
X0062388Y0041135D01*
X0062738Y0041363D01*
X0063093Y0041581D01*
X0063454Y0041791D01*
X0063819Y0041993D01*
X0064190Y0042185D01*
X0064565Y0042368D01*
X0064944Y0042542D01*
X0065327Y0042706D01*
X0065715Y0042861D01*
X0066106Y0043006D01*
X0066500Y0043142D01*
X0066898Y0043268D01*
X0067299Y0043384D01*
X0067702Y0043491D01*
X0068108Y0043587D01*
X0068516Y0043673D01*
X0068927Y0043750D01*
X0069339Y0043816D01*
X0069752Y0043872D01*
X0070167Y0043918D01*
X0070582Y0043954D01*
X0070999Y0043980D01*
X0071416Y0043995D01*
X0071833Y0044000D01*
X0072250Y0043995D01*
X0072667Y0043980D01*
X0073084Y0043954D01*
X0073499Y0043918D01*
X0073914Y0043872D01*
X0074327Y0043816D01*
X0074739Y0043750D01*
X0075150Y0043673D01*
X0075558Y0043587D01*
X0075964Y0043491D01*
X0076367Y0043384D01*
X0076768Y0043268D01*
X0077166Y0043142D01*
X0077560Y0043006D01*
X0077951Y0042861D01*
X0078339Y0042706D01*
X0078722Y0042542D01*
X0079101Y0042368D01*
X0079476Y0042185D01*
X0079847Y0041993D01*
X0080212Y0041791D01*
X0080573Y0041581D01*
X0080928Y0041363D01*
X0081278Y0041135D01*
X0081622Y0040899D01*
X0081960Y0040655D01*
X0082292Y0040402D01*
X0082618Y0040141D01*
X0082937Y0039873D01*
X0083250Y0039596D01*
X0083555Y0039312D01*
X0083854Y0039021D01*
X0084145Y0038722D01*
X0084429Y0038417D01*
X0084706Y0038104D01*
X0084974Y0037785D01*
X0085235Y0037459D01*
X0085488Y0037127D01*
X0085732Y0036789D01*
X0085968Y0036445D01*
X0086196Y0036095D01*
X0086414Y0035740D01*
X0086624Y0035379D01*
X0086826Y0035014D01*
X0087018Y0034643D01*
X0087201Y0034268D01*
X0087375Y0033889D01*
X0087539Y0033506D01*
X0087694Y0033118D01*
X0087839Y0032727D01*
X0087975Y0032333D01*
X0088101Y0031935D01*
X0088217Y0031534D01*
X0088324Y0031131D01*
X0088420Y0030725D01*
X0088506Y0030317D01*
X0088583Y0029906D01*
X0088649Y0029494D01*
X0088705Y0029081D01*
X0088751Y0028666D01*
X0088787Y0028251D01*
X0088813Y0027834D01*
X0088828Y0027417D01*
X0088833Y0027000D01*
X0088828Y0026583D01*
X0088813Y0026166D01*
X0088787Y0025749D01*
X0088751Y0025334D01*
X0088705Y0024919D01*
X0088649Y0024506D01*
X0088583Y0024094D01*
X0088506Y0023683D01*
X0088420Y0023275D01*
X0088324Y0022869D01*
X0088217Y0022466D01*
X0088101Y0022065D01*
X0087975Y0021667D01*
X0087839Y0021273D01*
X0087694Y0020882D01*
X0087539Y0020494D01*
X0087375Y0020111D01*
X0087201Y0019732D01*
X0087018Y0019357D01*
X0086826Y0018986D01*
X0086624Y0018621D01*
X0086414Y0018260D01*
X0086196Y0017905D01*
X0085968Y0017555D01*
X0085732Y0017211D01*
X0085488Y0016873D01*
X0085235Y0016541D01*
X0084974Y0016215D01*
X0084706Y0015896D01*
X0084429Y0015583D01*
X0084145Y0015278D01*
X0083854Y0014979D01*
X0083555Y0014688D01*
X0083250Y0014404D01*
X0082937Y0014127D01*
X0082618Y0013859D01*
X0082292Y0013598D01*
X0081960Y0013345D01*
X0081622Y0013101D01*
X0081278Y0012865D01*
X0080928Y0012637D01*
X0080573Y0012419D01*
X0080212Y0012209D01*
X0079847Y0012007D01*
X0079476Y0011815D01*
X0079101Y0011632D01*
X0078722Y0011458D01*
X0078339Y0011294D01*
X0077951Y0011139D01*
X0077560Y0010994D01*
X0077166Y0010858D01*
X0076768Y0010732D01*
X0076367Y0010616D01*
X0075964Y0010509D01*
X0075558Y0010413D01*
X0075150Y0010327D01*
X0074739Y0010250D01*
X0074327Y0010184D01*
X0073914Y0010128D01*
X0073499Y0010082D01*
X0073084Y0010046D01*
X0072667Y0010020D01*
X0072250Y0010005D01*
X0071833Y0010000D01*
X0071416Y0010005D01*
X0070999Y0010020D01*
X0070582Y0010046D01*
X0070167Y0010082D01*
X0069752Y0010128D01*
X0069339Y0010184D01*
X0068927Y0010250D01*
X0068516Y0010327D01*
X0068108Y0010413D01*
X0067702Y0010509D01*
X0067299Y0010616D01*
X0066898Y0010732D01*
X0066500Y0010858D01*
X0066106Y0010994D01*
X0065715Y0011139D01*
X0065327Y0011294D01*
X0064944Y0011458D01*
X0064565Y0011632D01*
X0064190Y0011815D01*
X0063819Y0012007D01*
X0063454Y0012209D01*
X0063093Y0012419D01*
X0062738Y0012637D01*
X0062388Y0012865D01*
X0062044Y0013101D01*
X0061706Y0013345D01*
X0061374Y0013598D01*
X0061048Y0013859D01*
X0060729Y0014127D01*
X0060416Y0014404D01*
X0060111Y0014688D01*
X0059812Y0014979D01*
X0059521Y0015278D01*
X0059237Y0015583D01*
X0058960Y0015896D01*
X0058692Y0016215D01*
X0058431Y0016541D01*
X0058178Y0016873D01*
X0057934Y0017211D01*
X0057698Y0017555D01*
X0057470Y0017905D01*
X0057252Y0018260D01*
X0057042Y0018621D01*
X0056840Y0018986D01*
X0056648Y0019357D01*
X0056465Y0019732D01*
X0056291Y0020111D01*
X0056127Y0020494D01*
X0055972Y0020882D01*
X0055827Y0021273D01*
X0055691Y0021667D01*
X0055565Y0022065D01*
X0055449Y0022466D01*
X0055342Y0022869D01*
X0055246Y0023275D01*
X0055160Y0023683D01*
X0055083Y0024094D01*
X0055017Y0024506D01*
X0054961Y0024919D01*
X0054915Y0025334D01*
X0054879Y0025749D01*
X0054853Y0026166D01*
X0054838Y0026583D01*
X0054833Y0027000D01*
X0132833Y0135500D02*
X0132833Y0158500D01*
X0152833Y0158500D01*
X0152833Y0151000D01*
X0152707Y0150998D01*
X0152582Y0150992D01*
X0152457Y0150982D01*
X0152332Y0150968D01*
X0152207Y0150951D01*
X0152083Y0150929D01*
X0151960Y0150904D01*
X0151838Y0150874D01*
X0151717Y0150841D01*
X0151597Y0150804D01*
X0151478Y0150764D01*
X0151361Y0150719D01*
X0151244Y0150671D01*
X0151130Y0150619D01*
X0151017Y0150564D01*
X0150906Y0150505D01*
X0150797Y0150443D01*
X0150690Y0150377D01*
X0150585Y0150308D01*
X0150482Y0150236D01*
X0150381Y0150161D01*
X0150283Y0150082D01*
X0150188Y0150000D01*
X0150095Y0149916D01*
X0150005Y0149828D01*
X0149917Y0149738D01*
X0149833Y0149645D01*
X0149751Y0149550D01*
X0149672Y0149452D01*
X0149597Y0149351D01*
X0149525Y0149248D01*
X0149456Y0149143D01*
X0149390Y0149036D01*
X0149328Y0148927D01*
X0149269Y0148816D01*
X0149214Y0148703D01*
X0149162Y0148589D01*
X0149114Y0148472D01*
X0149069Y0148355D01*
X0149029Y0148236D01*
X0148992Y0148116D01*
X0148959Y0147995D01*
X0148929Y0147873D01*
X0148904Y0147750D01*
X0148882Y0147626D01*
X0148865Y0147501D01*
X0148851Y0147376D01*
X0148841Y0147251D01*
X0148835Y0147126D01*
X0148833Y0147000D01*
X0148835Y0146874D01*
X0148841Y0146749D01*
X0148851Y0146624D01*
X0148865Y0146499D01*
X0148882Y0146374D01*
X0148904Y0146250D01*
X0148929Y0146127D01*
X0148959Y0146005D01*
X0148992Y0145884D01*
X0149029Y0145764D01*
X0149069Y0145645D01*
X0149114Y0145528D01*
X0149162Y0145411D01*
X0149214Y0145297D01*
X0149269Y0145184D01*
X0149328Y0145073D01*
X0149390Y0144964D01*
X0149456Y0144857D01*
X0149525Y0144752D01*
X0149597Y0144649D01*
X0149672Y0144548D01*
X0149751Y0144450D01*
X0149833Y0144355D01*
X0149917Y0144262D01*
X0150005Y0144172D01*
X0150095Y0144084D01*
X0150188Y0144000D01*
X0150283Y0143918D01*
X0150381Y0143839D01*
X0150482Y0143764D01*
X0150585Y0143692D01*
X0150690Y0143623D01*
X0150797Y0143557D01*
X0150906Y0143495D01*
X0151017Y0143436D01*
X0151130Y0143381D01*
X0151244Y0143329D01*
X0151361Y0143281D01*
X0151478Y0143236D01*
X0151597Y0143196D01*
X0151717Y0143159D01*
X0151838Y0143126D01*
X0151960Y0143096D01*
X0152083Y0143071D01*
X0152207Y0143049D01*
X0152332Y0143032D01*
X0152457Y0143018D01*
X0152582Y0143008D01*
X0152707Y0143002D01*
X0152833Y0143000D01*
X0152833Y0135500D01*
X0132833Y0135500D01*
D14*
X0126833Y0164394D03*
X0032227Y0192000D03*
D15*
X0032333Y0133000D02*
X0027333Y0133000D01*
X0024833Y0130500D01*
X0024833Y0125500D01*
X0027333Y0123000D01*
X0024833Y0120500D01*
X0024833Y0115500D01*
X0027333Y0113000D01*
X0024833Y0110500D01*
X0024833Y0105500D01*
X0027333Y0103000D01*
X0032333Y0103000D01*
X0034833Y0105500D01*
X0034833Y0110500D01*
X0032333Y0113000D01*
X0034833Y0115500D01*
X0034833Y0120500D01*
X0032333Y0123000D01*
X0034833Y0125500D01*
X0034833Y0130500D01*
X0032333Y0133000D01*
X0116833Y0191500D02*
X0119333Y0189000D01*
X0124333Y0189000D01*
X0126833Y0191500D01*
X0129333Y0189000D01*
X0134333Y0189000D01*
X0136833Y0191500D01*
X0139333Y0189000D01*
X0144333Y0189000D01*
X0146833Y0191500D01*
X0149333Y0189000D01*
X0154333Y0189000D01*
X0156833Y0191500D01*
X0159333Y0189000D01*
X0164333Y0189000D01*
X0166833Y0191500D01*
X0169333Y0189000D01*
X0174333Y0189000D01*
X0176833Y0191500D01*
X0179333Y0189000D01*
X0184333Y0189000D01*
X0186833Y0191500D01*
X0189333Y0189000D01*
X0194333Y0189000D01*
X0196833Y0191500D01*
X0196833Y0196500D01*
X0194333Y0199000D01*
X0189333Y0199000D01*
X0186833Y0196500D01*
X0184333Y0199000D01*
X0179333Y0199000D01*
X0176833Y0196500D01*
X0174333Y0199000D01*
X0169333Y0199000D01*
X0166833Y0196500D01*
X0164333Y0199000D01*
X0159333Y0199000D01*
X0156833Y0196500D01*
X0154333Y0199000D01*
X0149333Y0199000D01*
X0146833Y0196500D01*
X0144333Y0199000D01*
X0139333Y0199000D01*
X0136833Y0196500D01*
X0134333Y0199000D01*
X0129333Y0199000D01*
X0126833Y0196500D01*
X0124333Y0199000D01*
X0119333Y0199000D01*
X0116833Y0196500D01*
X0116833Y0191500D01*
X0201833Y0193500D02*
X0201833Y0198500D01*
X0204333Y0201000D01*
X0209333Y0201000D01*
X0211833Y0198500D01*
X0211833Y0193500D01*
X0209333Y0191000D01*
X0211833Y0188500D01*
X0211833Y0183500D01*
X0209333Y0181000D01*
X0211833Y0178500D01*
X0211833Y0173500D01*
X0209333Y0171000D01*
X0204333Y0171000D01*
X0201833Y0173500D01*
X0201833Y0178500D01*
X0204333Y0181000D01*
X0201833Y0183500D01*
X0201833Y0188500D01*
X0204333Y0191000D01*
X0201833Y0193500D01*
M02*
