G75*
%MOIN*%
%OFA0B0*%
%FSLAX25Y25*%
%IPPOS*%
%LPD*%
%AMOC8*
5,1,8,0,0,1.08239X$1,22.5*
%
%ADD10R,0.11811X0.04724*%
%ADD11R,0.04724X0.11811*%
%ADD12R,0.03150X0.05512*%
%ADD13C,0.06000*%
%ADD14R,0.05512X0.03937*%
%ADD15R,0.05906X0.08268*%
%ADD16R,0.05118X0.05906*%
%ADD17R,0.05118X0.06299*%
%ADD18R,0.04724X0.04724*%
%ADD19R,0.06299X0.05118*%
D10*
X0049656Y0113217D03*
X0049656Y0121091D03*
X0049656Y0128965D03*
X0049656Y0136839D03*
X0049656Y0144713D03*
X0049656Y0152587D03*
X0049656Y0160461D03*
X0049656Y0168335D03*
X0114223Y0168335D03*
X0114223Y0160461D03*
X0114223Y0152587D03*
X0114223Y0144713D03*
X0114223Y0136839D03*
X0114223Y0128965D03*
X0114223Y0121091D03*
X0114223Y0113217D03*
D11*
X0063436Y0104949D03*
X0071310Y0104949D03*
X0079184Y0104949D03*
X0087058Y0104949D03*
X0094932Y0104949D03*
X0102806Y0104949D03*
D12*
X0036833Y0142000D03*
X0030833Y0141705D03*
X0024833Y0142000D03*
D13*
X0029833Y0149016D02*
X0031833Y0149016D01*
X0029833Y0149016D02*
X0029833Y0157386D01*
X0031833Y0157386D01*
X0031833Y0149016D01*
X0031833Y0155015D02*
X0029833Y0155015D01*
D14*
X0139503Y0114500D03*
X0148164Y0110760D03*
X0148164Y0118240D03*
D15*
X0152420Y0180500D03*
X0138247Y0180500D03*
D16*
X0035073Y0178500D03*
X0027593Y0178500D03*
X0027593Y0168000D03*
X0035073Y0168000D03*
D17*
X0124093Y0100000D03*
X0131573Y0100000D03*
X0141093Y0100000D03*
X0148573Y0100000D03*
X0165093Y0181000D03*
X0172573Y0181000D03*
X0185093Y0181000D03*
X0192573Y0181000D03*
D18*
X0126833Y0168134D03*
X0126833Y0159866D03*
X0035967Y0192000D03*
X0027699Y0192000D03*
D19*
X0127833Y0120740D03*
X0127833Y0113260D03*
M02*
