G75*
%MOIN*%
%OFA0B0*%
%FSLAX25Y25*%
%IPPOS*%
%LPD*%
%AMOC8*
5,1,8,0,0,1.08239X$1,22.5*
%
%ADD10C,0.13398*%
%ADD11R,0.12611X0.05524*%
%ADD12R,0.05524X0.12611*%
%ADD13C,0.06000*%
%ADD14C,0.05950*%
%ADD15R,0.05950X0.05950*%
%ADD16C,0.09068*%
%ADD17R,0.03950X0.06312*%
%ADD18C,0.06600*%
%ADD19R,0.03937X0.06299*%
%ADD20C,0.08600*%
%ADD21R,0.06312X0.04737*%
%ADD22R,0.06706X0.09068*%
%ADD23R,0.05918X0.06706*%
%ADD24C,0.07800*%
%ADD25R,0.05918X0.07099*%
%ADD26R,0.05524X0.05524*%
%ADD27R,0.07099X0.05918*%
%ADD28C,0.08200*%
%ADD29C,0.04800*%
D10*
X0071833Y0055000D03*
X0122833Y0180000D03*
D11*
X0114223Y0168335D03*
X0114223Y0160461D03*
X0114223Y0152587D03*
X0114223Y0144713D03*
X0114223Y0136839D03*
X0114223Y0128965D03*
X0114223Y0121091D03*
X0114223Y0113217D03*
X0049656Y0113217D03*
X0049656Y0121091D03*
X0049656Y0128965D03*
X0049656Y0136839D03*
X0049656Y0144713D03*
X0049656Y0152587D03*
X0049656Y0160461D03*
X0049656Y0168335D03*
D12*
X0063436Y0104949D03*
X0071310Y0104949D03*
X0079184Y0104949D03*
X0087058Y0104949D03*
X0094932Y0104949D03*
X0102806Y0104949D03*
D13*
X0137833Y0126800D02*
X0137833Y0132000D01*
X0147833Y0132000D02*
X0147833Y0126800D01*
X0147833Y0162000D02*
X0147833Y0167200D01*
X0137833Y0167200D02*
X0137833Y0162000D01*
D14*
X0070833Y0090843D03*
X0070833Y0071157D03*
D15*
X0090888Y0062606D03*
X0090888Y0042921D03*
X0206636Y0022449D03*
X0206636Y0083079D03*
D16*
X0208455Y0106984D03*
X0161211Y0106984D03*
X0161211Y0155016D03*
X0184833Y0162890D03*
X0208455Y0155016D03*
D17*
X0036833Y0142000D03*
X0024833Y0142000D03*
D18*
X0029733Y0148916D02*
X0031933Y0148916D01*
X0029733Y0148916D02*
X0029733Y0157486D01*
X0031933Y0157486D01*
X0031933Y0148916D01*
X0031933Y0155515D02*
X0029733Y0155515D01*
D19*
X0030833Y0141705D03*
D20*
X0033433Y0025200D02*
X0041233Y0025200D01*
X0041233Y0044900D02*
X0033433Y0044900D01*
X0033933Y0067700D02*
X0041733Y0067700D01*
X0041733Y0087400D02*
X0033933Y0087400D01*
D21*
X0139503Y0114500D03*
X0148164Y0110760D03*
X0148164Y0118240D03*
D22*
X0152420Y0180500D03*
X0138247Y0180500D03*
D23*
X0035073Y0178500D03*
X0027593Y0178500D03*
X0027593Y0168000D03*
X0035073Y0168000D03*
D24*
X0068333Y0037000D02*
X0075333Y0037000D01*
X0075333Y0017000D02*
X0068333Y0017000D01*
D25*
X0124093Y0100000D03*
X0131573Y0100000D03*
X0141093Y0100000D03*
X0148573Y0100000D03*
X0165093Y0181000D03*
X0172573Y0181000D03*
X0185093Y0181000D03*
X0192573Y0181000D03*
D26*
X0126833Y0168134D03*
X0126833Y0159866D03*
X0035967Y0192000D03*
X0027699Y0192000D03*
D27*
X0127833Y0120740D03*
X0127833Y0113260D03*
D28*
X0206833Y0176000D03*
X0206833Y0186000D03*
X0206833Y0196000D03*
X0191833Y0194000D03*
X0181833Y0194000D03*
X0171833Y0194000D03*
X0161833Y0194000D03*
X0151833Y0194000D03*
X0141833Y0194000D03*
X0131833Y0194000D03*
X0121833Y0194000D03*
X0029833Y0128000D03*
X0029833Y0118000D03*
X0029833Y0108000D03*
D29*
X0063033Y0074100D03*
X0073833Y0120900D03*
X0078333Y0125500D03*
X0095433Y0125500D03*
X0105333Y0129000D03*
X0085533Y0153300D03*
X0099933Y0162300D03*
X0132333Y0161400D03*
X0144033Y0154200D03*
X0144033Y0148800D03*
X0155733Y0150600D03*
X0169233Y0161400D03*
X0177333Y0169500D03*
X0176433Y0174900D03*
X0185433Y0174900D03*
X0197133Y0159600D03*
X0204333Y0164600D03*
X0198933Y0192900D03*
X0139533Y0187500D03*
X0153033Y0106500D03*
X0181833Y0099300D03*
X0138633Y0056100D03*
X0124033Y0091900D03*
X0040533Y0167700D03*
X0027933Y0185800D03*
M02*
