%
M48
M72
T01C0.02400
T02C0.03150
T03C0.03200
T04C0.04000
T05C0.05118
T06C0.05200
T07C0.12598
%
T01
X63033Y74100
X73833Y120900
X78333Y125500
X95433Y125500
X105333Y129000
X85533Y153300
X99933Y162300
X132333Y161400
X144033Y154200
X144033Y148800
X155733Y150600
X169233Y161400
X177333Y169500
X176433Y174900
X185433Y174900
X197133Y159600
X204333Y164600
X198933Y192900
X139533Y187500
X153033Y106500
X181833Y99300
X138633Y56100
X124033Y91900
X40533Y167700
X27933Y185800
T02
X70833Y90843
X70833Y71157
X90888Y62606
X90888Y42921
X206636Y22449
X206636Y83079
T03
X147833Y132000
X137833Y132000
X137833Y162000
X147833Y162000
X71833Y37000
X71833Y17000
T04
X29833Y108000
X29833Y118000
X29833Y128000
X121833Y194000
X131833Y194000
X141833Y194000
X151833Y194000
X161833Y194000
X171833Y194000
X181833Y194000
X191833Y194000
X206833Y196000
X206833Y186000
X206833Y176000
T05
X208455Y155016
X184833Y162890
X161211Y155016
X161211Y106984
X208455Y106984
T06
X37333Y25200
X37333Y44900
X37833Y67700
X37833Y87400
T07
X71833Y55000
X122833Y180000
M30
