G75*
%MOIN*%
%OFA0B0*%
%FSLAX25Y25*%
%IPPOS*%
%LPD*%
%AMOC8*
5,1,8,0,0,1.08239X$1,22.5*
%
%ADD10C,0.00200*%
%ADD11C,0.00600*%
%ADD12C,0.00500*%
%ADD13C,0.00400*%
%ADD14C,0.02400*%
%ADD15C,0.00800*%
%ADD16R,0.03445X0.01969*%
%ADD17C,0.00700*%
%ADD18R,0.02500X0.04500*%
%ADD19R,0.02500X0.16000*%
%ADD20R,0.40000X0.02000*%
%ADD21R,0.15500X0.00500*%
%ADD22R,0.19000X0.02000*%
%ADD23R,0.08000X0.02000*%
%ADD24R,0.02000X0.02500*%
D10*
X0110233Y0020967D02*
X0110600Y0020600D01*
X0111334Y0020600D01*
X0111701Y0020967D01*
X0112443Y0020600D02*
X0113911Y0020600D01*
X0113177Y0020600D02*
X0113177Y0022802D01*
X0112443Y0022068D01*
X0111701Y0022435D02*
X0111334Y0022802D01*
X0110600Y0022802D01*
X0110233Y0022435D01*
X0110233Y0020967D01*
X0111100Y0035100D02*
X0111834Y0035100D01*
X0112201Y0035467D01*
X0112943Y0036201D02*
X0114411Y0036201D01*
X0114044Y0037302D02*
X0112943Y0036201D01*
X0112201Y0036935D02*
X0111834Y0037302D01*
X0111100Y0037302D01*
X0110733Y0036935D01*
X0110733Y0035467D01*
X0111100Y0035100D01*
X0114044Y0035100D02*
X0114044Y0037302D01*
X0131048Y0081200D02*
X0131048Y0083402D01*
X0131781Y0083402D02*
X0130314Y0083402D01*
X0132523Y0082668D02*
X0133257Y0083402D01*
X0133257Y0081200D01*
X0132523Y0081200D02*
X0133991Y0081200D01*
X0150314Y0089200D02*
X0150314Y0091402D01*
X0151414Y0091402D01*
X0151781Y0091035D01*
X0151781Y0090301D01*
X0151414Y0089934D01*
X0150314Y0089934D01*
X0151048Y0089934D02*
X0151781Y0089200D01*
X0152523Y0089567D02*
X0152890Y0089200D01*
X0153624Y0089200D01*
X0153991Y0089567D01*
X0153991Y0091035D01*
X0153624Y0091402D01*
X0152890Y0091402D01*
X0152523Y0091035D01*
X0152523Y0090668D01*
X0152890Y0090301D01*
X0153991Y0090301D01*
X0184814Y0074402D02*
X0184814Y0072200D01*
X0184814Y0072934D02*
X0185914Y0072934D01*
X0186281Y0073301D01*
X0186281Y0074035D01*
X0185914Y0074402D01*
X0184814Y0074402D01*
X0185548Y0072934D02*
X0186281Y0072200D01*
X0187023Y0072200D02*
X0188491Y0073668D01*
X0188491Y0074035D01*
X0188124Y0074402D01*
X0187390Y0074402D01*
X0187023Y0074035D01*
X0187023Y0072200D02*
X0188491Y0072200D01*
X0198233Y0064701D02*
X0199701Y0064701D01*
X0198967Y0065435D02*
X0198967Y0063967D01*
X0198733Y0059201D02*
X0200201Y0059201D01*
X0198967Y0054935D02*
X0198967Y0053467D01*
X0198233Y0054201D02*
X0199701Y0054201D01*
X0200201Y0049201D02*
X0198733Y0049201D01*
X0198467Y0045435D02*
X0198467Y0043967D01*
X0197733Y0044701D02*
X0199201Y0044701D01*
X0198733Y0039701D02*
X0200201Y0039701D01*
X0190991Y0047700D02*
X0189523Y0047700D01*
X0190257Y0047700D02*
X0190257Y0049902D01*
X0189523Y0049168D01*
X0188781Y0049535D02*
X0188781Y0048801D01*
X0188414Y0048434D01*
X0187314Y0048434D01*
X0188048Y0048434D02*
X0188781Y0047700D01*
X0187314Y0047700D02*
X0187314Y0049902D01*
X0188414Y0049902D01*
X0188781Y0049535D01*
X0175433Y0028858D02*
X0175433Y0027390D01*
X0175433Y0028124D02*
X0173231Y0028124D01*
X0173965Y0027390D01*
X0173598Y0026648D02*
X0173231Y0026281D01*
X0173231Y0025180D01*
X0175433Y0025180D01*
X0175433Y0026281D01*
X0175066Y0026648D01*
X0173598Y0026648D01*
X0200231Y0026757D02*
X0200231Y0027491D01*
X0200598Y0027858D01*
X0202066Y0026390D01*
X0202433Y0026757D01*
X0202433Y0027491D01*
X0202066Y0027858D01*
X0200598Y0027858D01*
X0200231Y0026757D02*
X0200598Y0026390D01*
X0202066Y0026390D01*
X0202433Y0025648D02*
X0202433Y0024180D01*
X0202433Y0024914D02*
X0200231Y0024914D01*
X0200965Y0024180D01*
X0200598Y0023438D02*
X0201332Y0023438D01*
X0201699Y0023071D01*
X0201699Y0021970D01*
X0201699Y0022704D02*
X0202433Y0023438D01*
X0202433Y0021970D02*
X0200231Y0021970D01*
X0200231Y0023071D01*
X0200598Y0023438D01*
X0212594Y0036736D02*
X0216039Y0036736D01*
X0216039Y0035752D01*
X0220960Y0035752D01*
X0222436Y0034276D01*
X0220960Y0035752D02*
X0220960Y0067248D01*
X0222436Y0068724D01*
X0220960Y0067248D02*
X0216039Y0067248D01*
X0216039Y0066264D01*
X0212594Y0066264D01*
X0212594Y0036736D01*
X0216039Y0035752D02*
X0216039Y0033783D01*
X0216039Y0067248D02*
X0216039Y0069217D01*
X0204933Y0108680D02*
X0202731Y0108680D01*
X0202731Y0109781D01*
X0203098Y0110148D01*
X0203832Y0110148D01*
X0204199Y0109781D01*
X0204199Y0108680D01*
X0204199Y0109414D02*
X0204933Y0110148D01*
X0204566Y0110890D02*
X0204199Y0110890D01*
X0203832Y0111257D01*
X0203832Y0111991D01*
X0204199Y0112358D01*
X0204566Y0112358D01*
X0204933Y0111991D01*
X0204933Y0111257D01*
X0204566Y0110890D01*
X0203832Y0111257D02*
X0203465Y0110890D01*
X0203098Y0110890D01*
X0202731Y0111257D01*
X0202731Y0111991D01*
X0203098Y0112358D01*
X0203465Y0112358D01*
X0203832Y0111991D01*
X0205404Y0119500D02*
X0206872Y0119500D01*
X0207614Y0119500D02*
X0209081Y0121702D01*
X0209823Y0121702D02*
X0211291Y0121702D01*
X0210557Y0121702D02*
X0210557Y0119500D01*
X0209081Y0119500D02*
X0207614Y0121702D01*
X0206872Y0121702D02*
X0205404Y0121702D01*
X0205404Y0119500D01*
X0205404Y0120601D02*
X0206138Y0120601D01*
X0201033Y0125467D02*
X0200666Y0125100D01*
X0201033Y0125467D02*
X0201033Y0126201D01*
X0200666Y0126568D01*
X0200299Y0126568D01*
X0199932Y0126201D01*
X0199932Y0125834D01*
X0199932Y0126201D02*
X0199565Y0126568D01*
X0199198Y0126568D01*
X0198831Y0126201D01*
X0198831Y0125467D01*
X0199198Y0125100D01*
X0198831Y0127310D02*
X0200299Y0127310D01*
X0201033Y0128044D01*
X0200299Y0128778D01*
X0198831Y0128778D01*
X0199198Y0129520D02*
X0198831Y0129887D01*
X0198831Y0130621D01*
X0199198Y0130988D01*
X0199565Y0130988D01*
X0199932Y0130621D01*
X0200299Y0130988D01*
X0200666Y0130988D01*
X0201033Y0130621D01*
X0201033Y0129887D01*
X0200666Y0129520D01*
X0199932Y0130254D02*
X0199932Y0130621D01*
X0200299Y0135100D02*
X0200299Y0136201D01*
X0199932Y0136568D01*
X0199198Y0136568D01*
X0198831Y0136201D01*
X0198831Y0135100D01*
X0201033Y0135100D01*
X0200299Y0135834D02*
X0201033Y0136568D01*
X0200666Y0137310D02*
X0201033Y0137677D01*
X0201033Y0138411D01*
X0200666Y0138778D01*
X0200299Y0138778D01*
X0199932Y0138411D01*
X0199932Y0137677D01*
X0199565Y0137310D01*
X0199198Y0137310D01*
X0198831Y0137677D01*
X0198831Y0138411D01*
X0199198Y0138778D01*
X0198831Y0139520D02*
X0198831Y0140988D01*
X0198831Y0140254D02*
X0201033Y0140254D01*
X0200166Y0146100D02*
X0198698Y0146100D01*
X0198331Y0146467D01*
X0198331Y0147201D01*
X0198698Y0147568D01*
X0199432Y0147568D02*
X0199432Y0146834D01*
X0199432Y0147568D02*
X0200166Y0147568D01*
X0200533Y0147201D01*
X0200533Y0146467D01*
X0200166Y0146100D01*
X0200166Y0148310D02*
X0198698Y0148310D01*
X0198331Y0148677D01*
X0198331Y0149411D01*
X0198698Y0149778D01*
X0200166Y0148310D01*
X0200533Y0148677D01*
X0200533Y0149411D01*
X0200166Y0149778D01*
X0198698Y0149778D01*
X0198731Y0155180D02*
X0198731Y0156648D01*
X0198731Y0155914D02*
X0200933Y0155914D01*
X0200933Y0157390D02*
X0199465Y0158858D01*
X0199465Y0157390D02*
X0200933Y0158858D01*
X0200533Y0166100D02*
X0198331Y0166100D01*
X0198331Y0167201D01*
X0198698Y0167568D01*
X0199432Y0167568D01*
X0199799Y0167201D01*
X0199799Y0166100D01*
X0199799Y0166834D02*
X0200533Y0167568D01*
X0200533Y0168310D02*
X0199065Y0169778D01*
X0199065Y0168310D02*
X0200533Y0169778D01*
X0200666Y0176600D02*
X0201033Y0176967D01*
X0201033Y0177701D01*
X0200666Y0178068D01*
X0199932Y0178068D01*
X0199932Y0177334D01*
X0199198Y0178068D02*
X0198831Y0177701D01*
X0198831Y0176967D01*
X0199198Y0176600D01*
X0200666Y0176600D01*
X0190533Y0177068D02*
X0189799Y0176334D01*
X0189799Y0176701D02*
X0189799Y0175600D01*
X0190533Y0175600D02*
X0188331Y0175600D01*
X0188331Y0176701D01*
X0188698Y0177068D01*
X0189432Y0177068D01*
X0189799Y0176701D01*
X0190166Y0177810D02*
X0190533Y0178177D01*
X0190533Y0178911D01*
X0190166Y0179278D01*
X0189799Y0179278D01*
X0189432Y0178911D01*
X0189432Y0178544D01*
X0189432Y0178911D02*
X0189065Y0179278D01*
X0188698Y0179278D01*
X0188331Y0178911D01*
X0188331Y0178177D01*
X0188698Y0177810D01*
X0195231Y0195180D02*
X0195231Y0196281D01*
X0195598Y0196648D01*
X0196332Y0196648D01*
X0196699Y0196281D01*
X0196699Y0195180D01*
X0196699Y0195914D02*
X0197433Y0196648D01*
X0196332Y0197390D02*
X0196332Y0198858D01*
X0195231Y0198491D02*
X0196332Y0197390D01*
X0197433Y0198491D02*
X0195231Y0198491D01*
X0195231Y0195180D02*
X0197433Y0195180D01*
X0190098Y0158358D02*
X0191566Y0156890D01*
X0191933Y0156890D01*
X0191933Y0156148D02*
X0191199Y0155414D01*
X0191199Y0155781D02*
X0191199Y0154680D01*
X0191933Y0154680D02*
X0189731Y0154680D01*
X0189731Y0155781D01*
X0190098Y0156148D01*
X0190832Y0156148D01*
X0191199Y0155781D01*
X0189731Y0156890D02*
X0189731Y0158358D01*
X0190098Y0158358D01*
X0190332Y0136858D02*
X0191066Y0136858D01*
X0191433Y0136491D01*
X0191433Y0135757D01*
X0191066Y0135390D01*
X0190332Y0135390D02*
X0189965Y0136124D01*
X0189965Y0136491D01*
X0190332Y0136858D01*
X0189231Y0136858D02*
X0189231Y0135390D01*
X0190332Y0135390D01*
X0190332Y0134648D02*
X0190699Y0134281D01*
X0190699Y0133180D01*
X0190699Y0133914D02*
X0191433Y0134648D01*
X0190332Y0134648D02*
X0189598Y0134648D01*
X0189231Y0134281D01*
X0189231Y0133180D01*
X0191433Y0133180D01*
X0190666Y0123278D02*
X0190299Y0123278D01*
X0189932Y0122911D01*
X0189932Y0121810D01*
X0190666Y0121810D01*
X0191033Y0122177D01*
X0191033Y0122911D01*
X0190666Y0123278D01*
X0189198Y0122544D02*
X0189932Y0121810D01*
X0189932Y0121068D02*
X0190299Y0120701D01*
X0190299Y0119600D01*
X0190299Y0120334D02*
X0191033Y0121068D01*
X0189932Y0121068D02*
X0189198Y0121068D01*
X0188831Y0120701D01*
X0188831Y0119600D01*
X0191033Y0119600D01*
X0189198Y0122544D02*
X0188831Y0123278D01*
X0105533Y0115201D02*
X0105533Y0114467D01*
X0105166Y0114100D01*
X0104432Y0114467D02*
X0104065Y0114100D01*
X0103698Y0114100D01*
X0103331Y0114467D01*
X0103331Y0115201D01*
X0103698Y0115568D01*
X0104432Y0115201D02*
X0104799Y0115568D01*
X0105166Y0115568D01*
X0105533Y0115201D01*
X0104432Y0115201D02*
X0104432Y0114467D01*
X0104666Y0118600D02*
X0103198Y0118600D01*
X0102831Y0118967D01*
X0102831Y0119701D01*
X0103198Y0120068D01*
X0103932Y0120068D02*
X0103932Y0119334D01*
X0103932Y0120068D02*
X0104666Y0120068D01*
X0105033Y0119701D01*
X0105033Y0118967D01*
X0104666Y0118600D01*
X0104666Y0124100D02*
X0105033Y0124467D01*
X0105033Y0125201D01*
X0104666Y0125568D01*
X0103932Y0125568D01*
X0103565Y0125201D01*
X0103565Y0124834D01*
X0103932Y0124100D01*
X0102831Y0124100D01*
X0102831Y0125568D01*
X0090173Y0126882D02*
X0086728Y0126882D01*
X0086728Y0127866D01*
X0081807Y0127866D01*
X0080330Y0129343D01*
X0081807Y0127866D02*
X0081807Y0111134D01*
X0080330Y0109657D01*
X0081807Y0111134D02*
X0086728Y0111134D01*
X0086728Y0112118D01*
X0090173Y0112118D01*
X0090173Y0126882D01*
X0086728Y0127866D02*
X0086728Y0129835D01*
X0077746Y0125699D02*
X0075544Y0125699D01*
X0075544Y0124231D02*
X0077746Y0125699D01*
X0077746Y0124231D02*
X0075544Y0124231D01*
X0075544Y0123491D02*
X0075544Y0122757D01*
X0075544Y0123124D02*
X0077746Y0123124D01*
X0077746Y0122757D02*
X0077746Y0123491D01*
X0086728Y0111134D02*
X0086728Y0109165D01*
X0087728Y0152626D02*
X0087728Y0154594D01*
X0082807Y0154594D01*
X0081330Y0153118D01*
X0082807Y0154594D02*
X0082807Y0166406D01*
X0081330Y0167882D01*
X0082807Y0166406D02*
X0087728Y0166406D01*
X0087728Y0168374D01*
X0087728Y0166406D02*
X0087728Y0165421D01*
X0091173Y0165421D01*
X0091173Y0155579D01*
X0087728Y0155579D01*
X0087728Y0154594D01*
X0079246Y0157218D02*
X0077044Y0157218D01*
X0077778Y0157952D01*
X0077044Y0158686D01*
X0079246Y0158686D01*
X0078145Y0159428D02*
X0078145Y0160896D01*
X0078879Y0161638D02*
X0079246Y0162005D01*
X0079246Y0162372D01*
X0078879Y0162739D01*
X0077044Y0162739D01*
X0077044Y0162372D02*
X0077044Y0163106D01*
X0077044Y0163848D02*
X0077044Y0164949D01*
X0077411Y0165316D01*
X0078145Y0165316D01*
X0078512Y0164949D01*
X0078512Y0163848D01*
X0079246Y0163848D02*
X0077044Y0163848D01*
X0076133Y0176500D02*
X0036133Y0176500D01*
X0035633Y0188000D02*
X0076633Y0188000D01*
X0076133Y0199500D02*
X0036133Y0199500D01*
X0104733Y0163201D02*
X0106201Y0163201D01*
X0104967Y0158935D02*
X0104967Y0157467D01*
X0104233Y0158201D02*
X0105701Y0158201D01*
D11*
X0105633Y0172500D02*
X0105633Y0181500D01*
X0098633Y0178000D02*
X0078633Y0178000D01*
X0078633Y0173500D01*
X0098633Y0173500D01*
X0098633Y0178000D01*
X0105633Y0172500D02*
X0006633Y0172500D01*
X0006633Y0181500D01*
X0011133Y0180000D02*
X0011133Y0173500D01*
X0013633Y0173500D01*
X0033633Y0173500D01*
X0033633Y0178000D01*
X0013633Y0178000D01*
X0013633Y0175500D01*
X0012133Y0175500D01*
X0012133Y0180000D01*
X0013633Y0175500D02*
X0013633Y0173500D01*
X0007734Y0162900D02*
X0007918Y0162756D01*
X0008107Y0162616D01*
X0008298Y0162481D01*
X0008493Y0162351D01*
X0008691Y0162225D01*
X0008892Y0162105D01*
X0009096Y0161989D01*
X0009303Y0161878D01*
X0009512Y0161773D01*
X0009724Y0161672D01*
X0009938Y0161577D01*
X0010155Y0161487D01*
X0010374Y0161402D01*
X0010594Y0161323D01*
X0010817Y0161249D01*
X0011041Y0161180D01*
X0011267Y0161117D01*
X0011494Y0161060D01*
X0011723Y0161008D01*
X0011953Y0160962D01*
X0012184Y0160921D01*
X0012415Y0160886D01*
X0012648Y0160857D01*
X0012881Y0160833D01*
X0013115Y0160815D01*
X0013349Y0160803D01*
X0013584Y0160796D01*
X0013818Y0160795D01*
X0014052Y0160800D01*
X0014287Y0160811D01*
X0014521Y0160827D01*
X0014754Y0160849D01*
X0014987Y0160877D01*
X0015219Y0160910D01*
X0015450Y0160950D01*
X0015680Y0160994D01*
X0015909Y0161045D01*
X0016137Y0161100D01*
X0016363Y0161162D01*
X0016588Y0161229D01*
X0016811Y0161301D01*
X0017032Y0161379D01*
X0017251Y0161462D01*
X0017468Y0161551D01*
X0017683Y0161645D01*
X0017896Y0161744D01*
X0018106Y0161848D01*
X0018313Y0161957D01*
X0018518Y0162071D01*
X0018720Y0162191D01*
X0018919Y0162315D01*
X0019115Y0162444D01*
X0019307Y0162577D01*
X0019497Y0162716D01*
X0019313Y0162583D02*
X0019388Y0162652D01*
X0019460Y0162723D01*
X0019529Y0162797D01*
X0019595Y0162873D01*
X0019659Y0162952D01*
X0019719Y0163033D01*
X0019777Y0163116D01*
X0019831Y0163202D01*
X0019882Y0163289D01*
X0019930Y0163378D01*
X0019974Y0163470D01*
X0020015Y0163562D01*
X0020052Y0163656D01*
X0020086Y0163752D01*
X0020116Y0163848D01*
X0020142Y0163946D01*
X0020165Y0164045D01*
X0020184Y0164144D01*
X0020199Y0164244D01*
X0020211Y0164345D01*
X0020219Y0164446D01*
X0020222Y0164547D01*
X0020223Y0164648D01*
X0020219Y0164749D01*
X0020211Y0164850D01*
X0020200Y0164951D01*
X0020185Y0165051D01*
X0020166Y0165150D01*
X0020144Y0165249D01*
X0020117Y0165347D01*
X0020087Y0165444D01*
X0020054Y0165539D01*
X0020017Y0165633D01*
X0019976Y0165726D01*
X0019932Y0165817D01*
X0019884Y0165906D01*
X0019834Y0165994D01*
X0019780Y0166080D01*
X0019722Y0166163D01*
X0019662Y0166244D01*
X0019599Y0166323D01*
X0019532Y0166400D01*
X0019133Y0166500D02*
X0007133Y0164000D01*
X0007633Y0163500D02*
X0019633Y0166000D01*
X0021433Y0170000D02*
X0005433Y0170000D01*
X0005433Y0160000D01*
X0021433Y0160000D01*
X0021433Y0170000D01*
X0025133Y0170000D02*
X0041133Y0170000D01*
X0041133Y0160000D01*
X0025133Y0160000D01*
X0025133Y0170000D01*
X0026933Y0166400D02*
X0026868Y0166328D01*
X0026807Y0166254D01*
X0026748Y0166177D01*
X0026693Y0166098D01*
X0026641Y0166017D01*
X0026592Y0165933D01*
X0026547Y0165848D01*
X0026505Y0165761D01*
X0026467Y0165672D01*
X0026433Y0165582D01*
X0026403Y0165490D01*
X0026376Y0165398D01*
X0026353Y0165304D01*
X0026334Y0165209D01*
X0026319Y0165114D01*
X0026308Y0165018D01*
X0026301Y0164922D01*
X0026298Y0164825D01*
X0026299Y0164729D01*
X0026304Y0164632D01*
X0026313Y0164536D01*
X0026326Y0164441D01*
X0026342Y0164345D01*
X0026363Y0164251D01*
X0026388Y0164158D01*
X0026416Y0164066D01*
X0026448Y0163975D01*
X0026484Y0163885D01*
X0026524Y0163797D01*
X0026567Y0163711D01*
X0026614Y0163626D01*
X0026664Y0163544D01*
X0026718Y0163464D01*
X0026774Y0163386D01*
X0026834Y0163310D01*
X0026897Y0163237D01*
X0026963Y0163167D01*
X0027032Y0163099D01*
X0027104Y0163034D01*
X0027178Y0162973D01*
X0027255Y0162914D01*
X0027334Y0162859D01*
X0027415Y0162807D01*
X0027499Y0162758D01*
X0027233Y0163500D02*
X0039233Y0166000D01*
X0038733Y0166500D02*
X0026733Y0164000D01*
X0026734Y0166200D02*
X0026859Y0166351D01*
X0026988Y0166500D01*
X0027121Y0166645D01*
X0027257Y0166786D01*
X0027397Y0166925D01*
X0027539Y0167060D01*
X0027686Y0167191D01*
X0027835Y0167319D01*
X0027987Y0167443D01*
X0028142Y0167564D01*
X0028300Y0167680D01*
X0028461Y0167793D01*
X0028625Y0167902D01*
X0028791Y0168007D01*
X0028960Y0168108D01*
X0029131Y0168205D01*
X0029304Y0168297D01*
X0029480Y0168385D01*
X0029658Y0168469D01*
X0029837Y0168549D01*
X0030019Y0168624D01*
X0030202Y0168695D01*
X0030387Y0168762D01*
X0030574Y0168824D01*
X0030762Y0168881D01*
X0030951Y0168934D01*
X0031141Y0168982D01*
X0031333Y0169026D01*
X0031526Y0169064D01*
X0031719Y0169099D01*
X0031914Y0169128D01*
X0032109Y0169153D01*
X0032304Y0169173D01*
X0032500Y0169188D01*
X0032696Y0169199D01*
X0032893Y0169205D01*
X0033089Y0169206D01*
X0033286Y0169202D01*
X0033482Y0169194D01*
X0033678Y0169180D01*
X0033874Y0169162D01*
X0034069Y0169140D01*
X0034264Y0169112D01*
X0034458Y0169080D01*
X0034651Y0169043D01*
X0034843Y0169002D01*
X0035034Y0168955D01*
X0035224Y0168905D01*
X0035412Y0168849D01*
X0035599Y0168789D01*
X0035785Y0168725D01*
X0035969Y0168656D01*
X0036151Y0168583D01*
X0036332Y0168505D01*
X0036510Y0168423D01*
X0036687Y0168336D01*
X0036861Y0168246D01*
X0037033Y0168151D01*
X0037203Y0168052D01*
X0037370Y0167949D01*
X0037535Y0167841D01*
X0037697Y0167730D01*
X0037857Y0167615D01*
X0038013Y0167496D01*
X0038167Y0167374D01*
X0038317Y0167248D01*
X0038465Y0167118D01*
X0038609Y0166984D01*
X0038750Y0166847D01*
X0038888Y0166707D01*
X0039022Y0166563D01*
X0039153Y0166417D01*
X0039132Y0166400D02*
X0039199Y0166323D01*
X0039262Y0166244D01*
X0039322Y0166163D01*
X0039380Y0166080D01*
X0039434Y0165994D01*
X0039484Y0165906D01*
X0039532Y0165817D01*
X0039576Y0165726D01*
X0039617Y0165633D01*
X0039654Y0165539D01*
X0039687Y0165444D01*
X0039717Y0165347D01*
X0039744Y0165249D01*
X0039766Y0165150D01*
X0039785Y0165051D01*
X0039800Y0164951D01*
X0039811Y0164850D01*
X0039819Y0164749D01*
X0039823Y0164648D01*
X0039822Y0164547D01*
X0039819Y0164446D01*
X0039811Y0164345D01*
X0039799Y0164244D01*
X0039784Y0164144D01*
X0039765Y0164045D01*
X0039742Y0163946D01*
X0039716Y0163848D01*
X0039686Y0163752D01*
X0039652Y0163656D01*
X0039615Y0163562D01*
X0039574Y0163470D01*
X0039530Y0163378D01*
X0039482Y0163289D01*
X0039431Y0163202D01*
X0039377Y0163116D01*
X0039319Y0163033D01*
X0039259Y0162952D01*
X0039195Y0162873D01*
X0039129Y0162797D01*
X0039060Y0162723D01*
X0038988Y0162652D01*
X0038913Y0162583D01*
X0044833Y0160000D02*
X0044833Y0170000D01*
X0060833Y0170000D01*
X0060833Y0160000D01*
X0044833Y0160000D01*
X0046933Y0163500D02*
X0058933Y0166000D01*
X0058433Y0166500D02*
X0046433Y0164000D01*
X0047199Y0162758D02*
X0047115Y0162807D01*
X0047034Y0162859D01*
X0046955Y0162914D01*
X0046878Y0162973D01*
X0046804Y0163034D01*
X0046732Y0163099D01*
X0046663Y0163167D01*
X0046597Y0163237D01*
X0046534Y0163310D01*
X0046474Y0163386D01*
X0046418Y0163464D01*
X0046364Y0163544D01*
X0046314Y0163626D01*
X0046267Y0163711D01*
X0046224Y0163797D01*
X0046184Y0163885D01*
X0046148Y0163975D01*
X0046116Y0164066D01*
X0046088Y0164158D01*
X0046063Y0164251D01*
X0046042Y0164345D01*
X0046026Y0164441D01*
X0046013Y0164536D01*
X0046004Y0164632D01*
X0045999Y0164729D01*
X0045998Y0164825D01*
X0046001Y0164922D01*
X0046008Y0165018D01*
X0046019Y0165114D01*
X0046034Y0165209D01*
X0046053Y0165304D01*
X0046076Y0165398D01*
X0046103Y0165490D01*
X0046133Y0165582D01*
X0046167Y0165672D01*
X0046205Y0165761D01*
X0046247Y0165848D01*
X0046292Y0165933D01*
X0046341Y0166017D01*
X0046393Y0166098D01*
X0046448Y0166177D01*
X0046507Y0166254D01*
X0046568Y0166328D01*
X0046633Y0166400D01*
X0047033Y0162900D02*
X0047218Y0162756D01*
X0047406Y0162616D01*
X0047598Y0162481D01*
X0047793Y0162351D01*
X0047991Y0162225D01*
X0048192Y0162104D01*
X0048396Y0161989D01*
X0048602Y0161878D01*
X0048812Y0161772D01*
X0049023Y0161672D01*
X0049238Y0161577D01*
X0049454Y0161487D01*
X0049673Y0161402D01*
X0049893Y0161323D01*
X0050116Y0161249D01*
X0050340Y0161180D01*
X0050566Y0161117D01*
X0050793Y0161060D01*
X0051022Y0161008D01*
X0051252Y0160962D01*
X0051483Y0160921D01*
X0051715Y0160886D01*
X0051947Y0160857D01*
X0052181Y0160833D01*
X0052414Y0160815D01*
X0052649Y0160803D01*
X0052883Y0160796D01*
X0053117Y0160795D01*
X0053352Y0160800D01*
X0053586Y0160811D01*
X0053820Y0160827D01*
X0054053Y0160849D01*
X0054286Y0160877D01*
X0054518Y0160911D01*
X0054749Y0160950D01*
X0054980Y0160994D01*
X0055209Y0161045D01*
X0055436Y0161101D01*
X0055663Y0161162D01*
X0055887Y0161229D01*
X0056110Y0161301D01*
X0056332Y0161379D01*
X0056551Y0161462D01*
X0056768Y0161551D01*
X0056983Y0161645D01*
X0057195Y0161744D01*
X0057405Y0161848D01*
X0057613Y0161957D01*
X0057817Y0162071D01*
X0058019Y0162191D01*
X0058218Y0162315D01*
X0058414Y0162444D01*
X0058607Y0162578D01*
X0058796Y0162716D01*
X0058613Y0162583D02*
X0058688Y0162652D01*
X0058760Y0162723D01*
X0058829Y0162797D01*
X0058895Y0162873D01*
X0058959Y0162952D01*
X0059019Y0163033D01*
X0059077Y0163116D01*
X0059131Y0163202D01*
X0059182Y0163289D01*
X0059230Y0163378D01*
X0059274Y0163470D01*
X0059315Y0163562D01*
X0059352Y0163656D01*
X0059386Y0163752D01*
X0059416Y0163848D01*
X0059442Y0163946D01*
X0059465Y0164045D01*
X0059484Y0164144D01*
X0059499Y0164244D01*
X0059511Y0164345D01*
X0059519Y0164446D01*
X0059522Y0164547D01*
X0059523Y0164648D01*
X0059519Y0164749D01*
X0059511Y0164850D01*
X0059500Y0164951D01*
X0059485Y0165051D01*
X0059466Y0165150D01*
X0059444Y0165249D01*
X0059417Y0165347D01*
X0059387Y0165444D01*
X0059354Y0165539D01*
X0059317Y0165633D01*
X0059276Y0165726D01*
X0059232Y0165817D01*
X0059184Y0165906D01*
X0059134Y0165994D01*
X0059080Y0166080D01*
X0059022Y0166163D01*
X0058962Y0166244D01*
X0058899Y0166323D01*
X0058832Y0166400D01*
X0062833Y0171000D02*
X0064833Y0171000D01*
X0064833Y0152000D01*
X0062833Y0153000D01*
X0062833Y0159000D01*
X0003433Y0159000D01*
X0003433Y0171000D01*
X0062833Y0171000D01*
X0062833Y0159000D01*
X0062833Y0153000D02*
X0062833Y0149000D01*
X0059333Y0149000D01*
X0059333Y0147500D02*
X0060833Y0147500D01*
X0060833Y0129500D01*
X0044833Y0129500D01*
X0044833Y0147500D01*
X0046433Y0147500D01*
X0046333Y0149000D02*
X0039733Y0149000D01*
X0039633Y0147500D02*
X0041133Y0147500D01*
X0041133Y0129500D01*
X0041133Y0122000D01*
X0044833Y0122000D01*
X0060833Y0122000D01*
X0060833Y0129500D01*
X0062833Y0130500D02*
X0062833Y0149000D01*
X0059333Y0144500D02*
X0059333Y0132000D01*
X0046333Y0132000D01*
X0046333Y0144500D01*
X0039633Y0144500D02*
X0039633Y0132000D01*
X0026633Y0132000D01*
X0026633Y0144500D01*
X0026633Y0147500D02*
X0025133Y0147500D01*
X0025133Y0129500D01*
X0041133Y0129500D01*
X0044833Y0129500D02*
X0044833Y0122000D01*
X0041133Y0122000D02*
X0025133Y0122000D01*
X0021433Y0122000D01*
X0005433Y0122000D01*
X0005433Y0129500D01*
X0021433Y0129500D01*
X0021433Y0147500D01*
X0019933Y0147500D01*
X0019933Y0149000D02*
X0026633Y0149000D01*
X0019933Y0144500D02*
X0019933Y0132000D01*
X0006933Y0132000D01*
X0006933Y0144500D01*
X0006933Y0147500D02*
X0005433Y0147500D01*
X0005433Y0129500D01*
X0005433Y0122000D02*
X0003433Y0122000D01*
X0003433Y0149000D01*
X0006933Y0149000D01*
X0003433Y0149000D02*
X0003433Y0159000D01*
X0007899Y0162758D02*
X0007815Y0162807D01*
X0007734Y0162859D01*
X0007655Y0162914D01*
X0007578Y0162973D01*
X0007504Y0163034D01*
X0007432Y0163099D01*
X0007363Y0163167D01*
X0007297Y0163237D01*
X0007234Y0163310D01*
X0007174Y0163386D01*
X0007118Y0163464D01*
X0007064Y0163544D01*
X0007014Y0163626D01*
X0006967Y0163711D01*
X0006924Y0163797D01*
X0006884Y0163885D01*
X0006848Y0163975D01*
X0006816Y0164066D01*
X0006788Y0164158D01*
X0006763Y0164251D01*
X0006742Y0164345D01*
X0006726Y0164441D01*
X0006713Y0164536D01*
X0006704Y0164632D01*
X0006699Y0164729D01*
X0006698Y0164825D01*
X0006701Y0164922D01*
X0006708Y0165018D01*
X0006719Y0165114D01*
X0006734Y0165209D01*
X0006753Y0165304D01*
X0006776Y0165398D01*
X0006803Y0165490D01*
X0006833Y0165582D01*
X0006867Y0165672D01*
X0006905Y0165761D01*
X0006947Y0165848D01*
X0006992Y0165933D01*
X0007041Y0166017D01*
X0007093Y0166098D01*
X0007148Y0166177D01*
X0007207Y0166254D01*
X0007268Y0166328D01*
X0007333Y0166400D01*
X0007134Y0166200D02*
X0007259Y0166351D01*
X0007388Y0166500D01*
X0007521Y0166645D01*
X0007657Y0166786D01*
X0007797Y0166925D01*
X0007939Y0167060D01*
X0008086Y0167191D01*
X0008235Y0167319D01*
X0008387Y0167443D01*
X0008542Y0167564D01*
X0008700Y0167680D01*
X0008861Y0167793D01*
X0009025Y0167902D01*
X0009191Y0168007D01*
X0009360Y0168108D01*
X0009531Y0168205D01*
X0009704Y0168297D01*
X0009880Y0168385D01*
X0010058Y0168469D01*
X0010237Y0168549D01*
X0010419Y0168624D01*
X0010602Y0168695D01*
X0010787Y0168762D01*
X0010974Y0168824D01*
X0011162Y0168881D01*
X0011351Y0168934D01*
X0011541Y0168982D01*
X0011733Y0169026D01*
X0011926Y0169064D01*
X0012119Y0169099D01*
X0012314Y0169128D01*
X0012509Y0169153D01*
X0012704Y0169173D01*
X0012900Y0169188D01*
X0013096Y0169199D01*
X0013293Y0169205D01*
X0013489Y0169206D01*
X0013686Y0169202D01*
X0013882Y0169194D01*
X0014078Y0169180D01*
X0014274Y0169162D01*
X0014469Y0169140D01*
X0014664Y0169112D01*
X0014858Y0169080D01*
X0015051Y0169043D01*
X0015243Y0169002D01*
X0015434Y0168955D01*
X0015624Y0168905D01*
X0015812Y0168849D01*
X0015999Y0168789D01*
X0016185Y0168725D01*
X0016369Y0168656D01*
X0016551Y0168583D01*
X0016732Y0168505D01*
X0016910Y0168423D01*
X0017087Y0168336D01*
X0017261Y0168246D01*
X0017433Y0168151D01*
X0017603Y0168052D01*
X0017770Y0167949D01*
X0017935Y0167841D01*
X0018097Y0167730D01*
X0018257Y0167615D01*
X0018413Y0167496D01*
X0018567Y0167374D01*
X0018717Y0167248D01*
X0018865Y0167118D01*
X0019009Y0166984D01*
X0019150Y0166847D01*
X0019288Y0166707D01*
X0019422Y0166563D01*
X0019553Y0166417D01*
X0027333Y0162900D02*
X0027518Y0162756D01*
X0027706Y0162616D01*
X0027898Y0162481D01*
X0028093Y0162351D01*
X0028291Y0162225D01*
X0028492Y0162104D01*
X0028696Y0161989D01*
X0028902Y0161878D01*
X0029112Y0161772D01*
X0029323Y0161672D01*
X0029538Y0161577D01*
X0029754Y0161487D01*
X0029973Y0161402D01*
X0030193Y0161323D01*
X0030416Y0161249D01*
X0030640Y0161180D01*
X0030866Y0161117D01*
X0031093Y0161060D01*
X0031322Y0161008D01*
X0031552Y0160962D01*
X0031783Y0160921D01*
X0032015Y0160886D01*
X0032247Y0160857D01*
X0032481Y0160833D01*
X0032714Y0160815D01*
X0032949Y0160803D01*
X0033183Y0160796D01*
X0033417Y0160795D01*
X0033652Y0160800D01*
X0033886Y0160811D01*
X0034120Y0160827D01*
X0034353Y0160849D01*
X0034586Y0160877D01*
X0034818Y0160911D01*
X0035049Y0160950D01*
X0035280Y0160994D01*
X0035509Y0161045D01*
X0035736Y0161101D01*
X0035963Y0161162D01*
X0036187Y0161229D01*
X0036410Y0161301D01*
X0036632Y0161379D01*
X0036851Y0161462D01*
X0037068Y0161551D01*
X0037283Y0161645D01*
X0037495Y0161744D01*
X0037705Y0161848D01*
X0037913Y0161957D01*
X0038117Y0162071D01*
X0038319Y0162191D01*
X0038518Y0162315D01*
X0038714Y0162444D01*
X0038907Y0162578D01*
X0039096Y0162716D01*
X0046434Y0166200D02*
X0046559Y0166351D01*
X0046688Y0166499D01*
X0046821Y0166644D01*
X0046957Y0166786D01*
X0047097Y0166924D01*
X0047239Y0167059D01*
X0047386Y0167191D01*
X0047535Y0167318D01*
X0047687Y0167443D01*
X0047842Y0167563D01*
X0048000Y0167680D01*
X0048161Y0167793D01*
X0048325Y0167901D01*
X0048491Y0168006D01*
X0048660Y0168107D01*
X0048831Y0168204D01*
X0049004Y0168296D01*
X0049180Y0168385D01*
X0049358Y0168469D01*
X0049537Y0168548D01*
X0049719Y0168624D01*
X0049902Y0168694D01*
X0050087Y0168761D01*
X0050273Y0168823D01*
X0050461Y0168880D01*
X0050651Y0168933D01*
X0050841Y0168981D01*
X0051033Y0169025D01*
X0051225Y0169064D01*
X0051419Y0169098D01*
X0051613Y0169127D01*
X0051808Y0169152D01*
X0052004Y0169172D01*
X0052200Y0169187D01*
X0052396Y0169198D01*
X0052592Y0169204D01*
X0052789Y0169205D01*
X0052985Y0169201D01*
X0053182Y0169193D01*
X0053378Y0169179D01*
X0053573Y0169161D01*
X0053768Y0169139D01*
X0053963Y0169111D01*
X0054157Y0169079D01*
X0054350Y0169042D01*
X0054542Y0169001D01*
X0054733Y0168954D01*
X0054923Y0168904D01*
X0055111Y0168848D01*
X0055299Y0168788D01*
X0055484Y0168724D01*
X0055668Y0168655D01*
X0055850Y0168581D01*
X0056031Y0168504D01*
X0056209Y0168422D01*
X0056386Y0168335D01*
X0056560Y0168244D01*
X0056732Y0168150D01*
X0056902Y0168051D01*
X0057069Y0167947D01*
X0057234Y0167840D01*
X0057396Y0167729D01*
X0057556Y0167614D01*
X0057712Y0167495D01*
X0057866Y0167373D01*
X0058016Y0167246D01*
X0058164Y0167117D01*
X0058308Y0166983D01*
X0058449Y0166846D01*
X0058587Y0166706D01*
X0058721Y0166562D01*
X0058851Y0166416D01*
X0078633Y0198000D02*
X0078633Y0202500D01*
X0098633Y0202500D01*
X0101133Y0202500D01*
X0101133Y0196000D01*
X0100133Y0196000D02*
X0100133Y0200500D01*
X0098633Y0200500D01*
X0098633Y0198000D01*
X0078633Y0198000D01*
X0098633Y0200500D02*
X0098633Y0202500D01*
X0105633Y0203500D02*
X0105633Y0194500D01*
X0105633Y0203500D02*
X0006633Y0203500D01*
X0006633Y0194500D01*
X0013633Y0198000D02*
X0033633Y0198000D01*
X0033633Y0202500D01*
X0013633Y0202500D01*
X0013633Y0198000D01*
X0062833Y0130500D02*
X0064833Y0131500D01*
X0064833Y0125000D01*
X0062833Y0126000D01*
X0062833Y0130500D01*
X0062833Y0126000D02*
X0062833Y0122000D01*
X0060833Y0122000D01*
X0025133Y0122000D02*
X0025133Y0129500D01*
X0021433Y0129500D02*
X0021433Y0122000D01*
X0095133Y0041500D02*
X0095133Y0039500D01*
X0094133Y0040500D02*
X0096133Y0040500D01*
X0089133Y0033500D02*
X0089136Y0033745D01*
X0089145Y0033991D01*
X0089160Y0034236D01*
X0089181Y0034480D01*
X0089208Y0034724D01*
X0089241Y0034967D01*
X0089280Y0035210D01*
X0089325Y0035451D01*
X0089376Y0035691D01*
X0089433Y0035930D01*
X0089495Y0036167D01*
X0089564Y0036403D01*
X0089638Y0036637D01*
X0089718Y0036869D01*
X0089803Y0037099D01*
X0089894Y0037327D01*
X0089991Y0037552D01*
X0090093Y0037776D01*
X0090201Y0037996D01*
X0090314Y0038214D01*
X0090432Y0038429D01*
X0090556Y0038641D01*
X0090684Y0038850D01*
X0090818Y0039056D01*
X0090957Y0039258D01*
X0091101Y0039457D01*
X0091250Y0039652D01*
X0091403Y0039844D01*
X0091561Y0040032D01*
X0091723Y0040216D01*
X0091891Y0040395D01*
X0092062Y0040571D01*
X0092238Y0040742D01*
X0092417Y0040910D01*
X0092601Y0041072D01*
X0092789Y0041230D01*
X0092981Y0041383D01*
X0093176Y0041532D01*
X0093375Y0041676D01*
X0093577Y0041815D01*
X0093783Y0041949D01*
X0093992Y0042077D01*
X0094204Y0042201D01*
X0094419Y0042319D01*
X0094637Y0042432D01*
X0094857Y0042540D01*
X0095081Y0042642D01*
X0095306Y0042739D01*
X0095534Y0042830D01*
X0095764Y0042915D01*
X0095996Y0042995D01*
X0096230Y0043069D01*
X0096466Y0043138D01*
X0096703Y0043200D01*
X0096942Y0043257D01*
X0097182Y0043308D01*
X0097423Y0043353D01*
X0097666Y0043392D01*
X0097909Y0043425D01*
X0098153Y0043452D01*
X0098397Y0043473D01*
X0098642Y0043488D01*
X0098888Y0043497D01*
X0099133Y0043500D01*
X0099378Y0043497D01*
X0099624Y0043488D01*
X0099869Y0043473D01*
X0100113Y0043452D01*
X0100357Y0043425D01*
X0100600Y0043392D01*
X0100843Y0043353D01*
X0101084Y0043308D01*
X0101324Y0043257D01*
X0101563Y0043200D01*
X0101800Y0043138D01*
X0102036Y0043069D01*
X0102270Y0042995D01*
X0102502Y0042915D01*
X0102732Y0042830D01*
X0102960Y0042739D01*
X0103185Y0042642D01*
X0103409Y0042540D01*
X0103629Y0042432D01*
X0103847Y0042319D01*
X0104062Y0042201D01*
X0104274Y0042077D01*
X0104483Y0041949D01*
X0104689Y0041815D01*
X0104891Y0041676D01*
X0105090Y0041532D01*
X0105285Y0041383D01*
X0105477Y0041230D01*
X0105665Y0041072D01*
X0105849Y0040910D01*
X0106028Y0040742D01*
X0106204Y0040571D01*
X0106375Y0040395D01*
X0106543Y0040216D01*
X0106705Y0040032D01*
X0106863Y0039844D01*
X0107016Y0039652D01*
X0107165Y0039457D01*
X0107309Y0039258D01*
X0107448Y0039056D01*
X0107582Y0038850D01*
X0107710Y0038641D01*
X0107834Y0038429D01*
X0107952Y0038214D01*
X0108065Y0037996D01*
X0108173Y0037776D01*
X0108275Y0037552D01*
X0108372Y0037327D01*
X0108463Y0037099D01*
X0108548Y0036869D01*
X0108628Y0036637D01*
X0108702Y0036403D01*
X0108771Y0036167D01*
X0108833Y0035930D01*
X0108890Y0035691D01*
X0108941Y0035451D01*
X0108986Y0035210D01*
X0109025Y0034967D01*
X0109058Y0034724D01*
X0109085Y0034480D01*
X0109106Y0034236D01*
X0109121Y0033991D01*
X0109130Y0033745D01*
X0109133Y0033500D01*
X0109130Y0033255D01*
X0109121Y0033009D01*
X0109106Y0032764D01*
X0109085Y0032520D01*
X0109058Y0032276D01*
X0109025Y0032033D01*
X0108986Y0031790D01*
X0108941Y0031549D01*
X0108890Y0031309D01*
X0108833Y0031070D01*
X0108771Y0030833D01*
X0108702Y0030597D01*
X0108628Y0030363D01*
X0108548Y0030131D01*
X0108463Y0029901D01*
X0108372Y0029673D01*
X0108275Y0029448D01*
X0108173Y0029224D01*
X0108065Y0029004D01*
X0107952Y0028786D01*
X0107834Y0028571D01*
X0107710Y0028359D01*
X0107582Y0028150D01*
X0107448Y0027944D01*
X0107309Y0027742D01*
X0107165Y0027543D01*
X0107016Y0027348D01*
X0106863Y0027156D01*
X0106705Y0026968D01*
X0106543Y0026784D01*
X0106375Y0026605D01*
X0106204Y0026429D01*
X0106028Y0026258D01*
X0105849Y0026090D01*
X0105665Y0025928D01*
X0105477Y0025770D01*
X0105285Y0025617D01*
X0105090Y0025468D01*
X0104891Y0025324D01*
X0104689Y0025185D01*
X0104483Y0025051D01*
X0104274Y0024923D01*
X0104062Y0024799D01*
X0103847Y0024681D01*
X0103629Y0024568D01*
X0103409Y0024460D01*
X0103185Y0024358D01*
X0102960Y0024261D01*
X0102732Y0024170D01*
X0102502Y0024085D01*
X0102270Y0024005D01*
X0102036Y0023931D01*
X0101800Y0023862D01*
X0101563Y0023800D01*
X0101324Y0023743D01*
X0101084Y0023692D01*
X0100843Y0023647D01*
X0100600Y0023608D01*
X0100357Y0023575D01*
X0100113Y0023548D01*
X0099869Y0023527D01*
X0099624Y0023512D01*
X0099378Y0023503D01*
X0099133Y0023500D01*
X0098888Y0023503D01*
X0098642Y0023512D01*
X0098397Y0023527D01*
X0098153Y0023548D01*
X0097909Y0023575D01*
X0097666Y0023608D01*
X0097423Y0023647D01*
X0097182Y0023692D01*
X0096942Y0023743D01*
X0096703Y0023800D01*
X0096466Y0023862D01*
X0096230Y0023931D01*
X0095996Y0024005D01*
X0095764Y0024085D01*
X0095534Y0024170D01*
X0095306Y0024261D01*
X0095081Y0024358D01*
X0094857Y0024460D01*
X0094637Y0024568D01*
X0094419Y0024681D01*
X0094204Y0024799D01*
X0093992Y0024923D01*
X0093783Y0025051D01*
X0093577Y0025185D01*
X0093375Y0025324D01*
X0093176Y0025468D01*
X0092981Y0025617D01*
X0092789Y0025770D01*
X0092601Y0025928D01*
X0092417Y0026090D01*
X0092238Y0026258D01*
X0092062Y0026429D01*
X0091891Y0026605D01*
X0091723Y0026784D01*
X0091561Y0026968D01*
X0091403Y0027156D01*
X0091250Y0027348D01*
X0091101Y0027543D01*
X0090957Y0027742D01*
X0090818Y0027944D01*
X0090684Y0028150D01*
X0090556Y0028359D01*
X0090432Y0028571D01*
X0090314Y0028786D01*
X0090201Y0029004D01*
X0090093Y0029224D01*
X0089991Y0029448D01*
X0089894Y0029673D01*
X0089803Y0029901D01*
X0089718Y0030131D01*
X0089638Y0030363D01*
X0089564Y0030597D01*
X0089495Y0030833D01*
X0089433Y0031070D01*
X0089376Y0031309D01*
X0089325Y0031549D01*
X0089280Y0031790D01*
X0089241Y0032033D01*
X0089208Y0032276D01*
X0089181Y0032520D01*
X0089160Y0032764D01*
X0089145Y0033009D01*
X0089136Y0033255D01*
X0089133Y0033500D01*
X0095633Y0020000D02*
X0095633Y0018000D01*
X0094633Y0019000D02*
X0096633Y0019000D01*
X0089633Y0012000D02*
X0089636Y0012245D01*
X0089645Y0012491D01*
X0089660Y0012736D01*
X0089681Y0012980D01*
X0089708Y0013224D01*
X0089741Y0013467D01*
X0089780Y0013710D01*
X0089825Y0013951D01*
X0089876Y0014191D01*
X0089933Y0014430D01*
X0089995Y0014667D01*
X0090064Y0014903D01*
X0090138Y0015137D01*
X0090218Y0015369D01*
X0090303Y0015599D01*
X0090394Y0015827D01*
X0090491Y0016052D01*
X0090593Y0016276D01*
X0090701Y0016496D01*
X0090814Y0016714D01*
X0090932Y0016929D01*
X0091056Y0017141D01*
X0091184Y0017350D01*
X0091318Y0017556D01*
X0091457Y0017758D01*
X0091601Y0017957D01*
X0091750Y0018152D01*
X0091903Y0018344D01*
X0092061Y0018532D01*
X0092223Y0018716D01*
X0092391Y0018895D01*
X0092562Y0019071D01*
X0092738Y0019242D01*
X0092917Y0019410D01*
X0093101Y0019572D01*
X0093289Y0019730D01*
X0093481Y0019883D01*
X0093676Y0020032D01*
X0093875Y0020176D01*
X0094077Y0020315D01*
X0094283Y0020449D01*
X0094492Y0020577D01*
X0094704Y0020701D01*
X0094919Y0020819D01*
X0095137Y0020932D01*
X0095357Y0021040D01*
X0095581Y0021142D01*
X0095806Y0021239D01*
X0096034Y0021330D01*
X0096264Y0021415D01*
X0096496Y0021495D01*
X0096730Y0021569D01*
X0096966Y0021638D01*
X0097203Y0021700D01*
X0097442Y0021757D01*
X0097682Y0021808D01*
X0097923Y0021853D01*
X0098166Y0021892D01*
X0098409Y0021925D01*
X0098653Y0021952D01*
X0098897Y0021973D01*
X0099142Y0021988D01*
X0099388Y0021997D01*
X0099633Y0022000D01*
X0099878Y0021997D01*
X0100124Y0021988D01*
X0100369Y0021973D01*
X0100613Y0021952D01*
X0100857Y0021925D01*
X0101100Y0021892D01*
X0101343Y0021853D01*
X0101584Y0021808D01*
X0101824Y0021757D01*
X0102063Y0021700D01*
X0102300Y0021638D01*
X0102536Y0021569D01*
X0102770Y0021495D01*
X0103002Y0021415D01*
X0103232Y0021330D01*
X0103460Y0021239D01*
X0103685Y0021142D01*
X0103909Y0021040D01*
X0104129Y0020932D01*
X0104347Y0020819D01*
X0104562Y0020701D01*
X0104774Y0020577D01*
X0104983Y0020449D01*
X0105189Y0020315D01*
X0105391Y0020176D01*
X0105590Y0020032D01*
X0105785Y0019883D01*
X0105977Y0019730D01*
X0106165Y0019572D01*
X0106349Y0019410D01*
X0106528Y0019242D01*
X0106704Y0019071D01*
X0106875Y0018895D01*
X0107043Y0018716D01*
X0107205Y0018532D01*
X0107363Y0018344D01*
X0107516Y0018152D01*
X0107665Y0017957D01*
X0107809Y0017758D01*
X0107948Y0017556D01*
X0108082Y0017350D01*
X0108210Y0017141D01*
X0108334Y0016929D01*
X0108452Y0016714D01*
X0108565Y0016496D01*
X0108673Y0016276D01*
X0108775Y0016052D01*
X0108872Y0015827D01*
X0108963Y0015599D01*
X0109048Y0015369D01*
X0109128Y0015137D01*
X0109202Y0014903D01*
X0109271Y0014667D01*
X0109333Y0014430D01*
X0109390Y0014191D01*
X0109441Y0013951D01*
X0109486Y0013710D01*
X0109525Y0013467D01*
X0109558Y0013224D01*
X0109585Y0012980D01*
X0109606Y0012736D01*
X0109621Y0012491D01*
X0109630Y0012245D01*
X0109633Y0012000D01*
X0109630Y0011755D01*
X0109621Y0011509D01*
X0109606Y0011264D01*
X0109585Y0011020D01*
X0109558Y0010776D01*
X0109525Y0010533D01*
X0109486Y0010290D01*
X0109441Y0010049D01*
X0109390Y0009809D01*
X0109333Y0009570D01*
X0109271Y0009333D01*
X0109202Y0009097D01*
X0109128Y0008863D01*
X0109048Y0008631D01*
X0108963Y0008401D01*
X0108872Y0008173D01*
X0108775Y0007948D01*
X0108673Y0007724D01*
X0108565Y0007504D01*
X0108452Y0007286D01*
X0108334Y0007071D01*
X0108210Y0006859D01*
X0108082Y0006650D01*
X0107948Y0006444D01*
X0107809Y0006242D01*
X0107665Y0006043D01*
X0107516Y0005848D01*
X0107363Y0005656D01*
X0107205Y0005468D01*
X0107043Y0005284D01*
X0106875Y0005105D01*
X0106704Y0004929D01*
X0106528Y0004758D01*
X0106349Y0004590D01*
X0106165Y0004428D01*
X0105977Y0004270D01*
X0105785Y0004117D01*
X0105590Y0003968D01*
X0105391Y0003824D01*
X0105189Y0003685D01*
X0104983Y0003551D01*
X0104774Y0003423D01*
X0104562Y0003299D01*
X0104347Y0003181D01*
X0104129Y0003068D01*
X0103909Y0002960D01*
X0103685Y0002858D01*
X0103460Y0002761D01*
X0103232Y0002670D01*
X0103002Y0002585D01*
X0102770Y0002505D01*
X0102536Y0002431D01*
X0102300Y0002362D01*
X0102063Y0002300D01*
X0101824Y0002243D01*
X0101584Y0002192D01*
X0101343Y0002147D01*
X0101100Y0002108D01*
X0100857Y0002075D01*
X0100613Y0002048D01*
X0100369Y0002027D01*
X0100124Y0002012D01*
X0099878Y0002003D01*
X0099633Y0002000D01*
X0099388Y0002003D01*
X0099142Y0002012D01*
X0098897Y0002027D01*
X0098653Y0002048D01*
X0098409Y0002075D01*
X0098166Y0002108D01*
X0097923Y0002147D01*
X0097682Y0002192D01*
X0097442Y0002243D01*
X0097203Y0002300D01*
X0096966Y0002362D01*
X0096730Y0002431D01*
X0096496Y0002505D01*
X0096264Y0002585D01*
X0096034Y0002670D01*
X0095806Y0002761D01*
X0095581Y0002858D01*
X0095357Y0002960D01*
X0095137Y0003068D01*
X0094919Y0003181D01*
X0094704Y0003299D01*
X0094492Y0003423D01*
X0094283Y0003551D01*
X0094077Y0003685D01*
X0093875Y0003824D01*
X0093676Y0003968D01*
X0093481Y0004117D01*
X0093289Y0004270D01*
X0093101Y0004428D01*
X0092917Y0004590D01*
X0092738Y0004758D01*
X0092562Y0004929D01*
X0092391Y0005105D01*
X0092223Y0005284D01*
X0092061Y0005468D01*
X0091903Y0005656D01*
X0091750Y0005848D01*
X0091601Y0006043D01*
X0091457Y0006242D01*
X0091318Y0006444D01*
X0091184Y0006650D01*
X0091056Y0006859D01*
X0090932Y0007071D01*
X0090814Y0007286D01*
X0090701Y0007504D01*
X0090593Y0007724D01*
X0090491Y0007948D01*
X0090394Y0008173D01*
X0090303Y0008401D01*
X0090218Y0008631D01*
X0090138Y0008863D01*
X0090064Y0009097D01*
X0089995Y0009333D01*
X0089933Y0009570D01*
X0089876Y0009809D01*
X0089825Y0010049D01*
X0089780Y0010290D01*
X0089741Y0010533D01*
X0089708Y0010776D01*
X0089681Y0011020D01*
X0089660Y0011264D01*
X0089645Y0011509D01*
X0089636Y0011755D01*
X0089633Y0012000D01*
X0178633Y0020500D02*
X0178633Y0036500D01*
X0178635Y0036560D01*
X0178640Y0036621D01*
X0178649Y0036680D01*
X0178662Y0036739D01*
X0178678Y0036798D01*
X0178698Y0036855D01*
X0178721Y0036910D01*
X0178748Y0036965D01*
X0178777Y0037017D01*
X0178810Y0037068D01*
X0178846Y0037117D01*
X0178884Y0037163D01*
X0178926Y0037207D01*
X0178970Y0037249D01*
X0179016Y0037287D01*
X0179065Y0037323D01*
X0179116Y0037356D01*
X0179168Y0037385D01*
X0179223Y0037412D01*
X0179278Y0037435D01*
X0179335Y0037455D01*
X0179394Y0037471D01*
X0179453Y0037484D01*
X0179512Y0037493D01*
X0179573Y0037498D01*
X0179633Y0037500D01*
X0185633Y0037500D01*
X0185693Y0037498D01*
X0185754Y0037493D01*
X0185813Y0037484D01*
X0185872Y0037471D01*
X0185931Y0037455D01*
X0185988Y0037435D01*
X0186043Y0037412D01*
X0186098Y0037385D01*
X0186150Y0037356D01*
X0186201Y0037323D01*
X0186250Y0037287D01*
X0186296Y0037249D01*
X0186340Y0037207D01*
X0186382Y0037163D01*
X0186420Y0037117D01*
X0186456Y0037068D01*
X0186489Y0037017D01*
X0186518Y0036965D01*
X0186545Y0036910D01*
X0186568Y0036855D01*
X0186588Y0036798D01*
X0186604Y0036739D01*
X0186617Y0036680D01*
X0186626Y0036621D01*
X0186631Y0036560D01*
X0186633Y0036500D01*
X0186633Y0020500D01*
X0186631Y0020440D01*
X0186626Y0020379D01*
X0186617Y0020320D01*
X0186604Y0020261D01*
X0186588Y0020202D01*
X0186568Y0020145D01*
X0186545Y0020090D01*
X0186518Y0020035D01*
X0186489Y0019983D01*
X0186456Y0019932D01*
X0186420Y0019883D01*
X0186382Y0019837D01*
X0186340Y0019793D01*
X0186296Y0019751D01*
X0186250Y0019713D01*
X0186201Y0019677D01*
X0186150Y0019644D01*
X0186098Y0019615D01*
X0186043Y0019588D01*
X0185988Y0019565D01*
X0185931Y0019545D01*
X0185872Y0019529D01*
X0185813Y0019516D01*
X0185754Y0019507D01*
X0185693Y0019502D01*
X0185633Y0019500D01*
X0179633Y0019500D01*
X0179573Y0019502D01*
X0179512Y0019507D01*
X0179453Y0019516D01*
X0179394Y0019529D01*
X0179335Y0019545D01*
X0179278Y0019565D01*
X0179223Y0019588D01*
X0179168Y0019615D01*
X0179116Y0019644D01*
X0179065Y0019677D01*
X0179016Y0019713D01*
X0178970Y0019751D01*
X0178926Y0019793D01*
X0178884Y0019837D01*
X0178846Y0019883D01*
X0178810Y0019932D01*
X0178777Y0019983D01*
X0178748Y0020035D01*
X0178721Y0020090D01*
X0178698Y0020145D01*
X0178678Y0020202D01*
X0178662Y0020261D01*
X0178649Y0020320D01*
X0178640Y0020379D01*
X0178635Y0020440D01*
X0178633Y0020500D01*
X0180133Y0024500D02*
X0182633Y0028500D01*
X0180133Y0028500D01*
X0182633Y0028500D02*
X0185133Y0028500D01*
X0182633Y0028500D02*
X0182633Y0031000D01*
X0182633Y0028500D02*
X0185133Y0024500D01*
X0180133Y0024500D01*
X0182633Y0022500D02*
X0182633Y0028500D01*
X0179633Y0079500D02*
X0187133Y0079500D01*
X0187135Y0079626D01*
X0187141Y0079751D01*
X0187151Y0079876D01*
X0187165Y0080001D01*
X0187182Y0080126D01*
X0187204Y0080250D01*
X0187229Y0080373D01*
X0187259Y0080495D01*
X0187292Y0080616D01*
X0187329Y0080736D01*
X0187369Y0080855D01*
X0187414Y0080972D01*
X0187462Y0081089D01*
X0187514Y0081203D01*
X0187569Y0081316D01*
X0187628Y0081427D01*
X0187690Y0081536D01*
X0187756Y0081643D01*
X0187825Y0081748D01*
X0187897Y0081851D01*
X0187972Y0081952D01*
X0188051Y0082050D01*
X0188133Y0082145D01*
X0188217Y0082238D01*
X0188305Y0082328D01*
X0188395Y0082416D01*
X0188488Y0082500D01*
X0188583Y0082582D01*
X0188681Y0082661D01*
X0188782Y0082736D01*
X0188885Y0082808D01*
X0188990Y0082877D01*
X0189097Y0082943D01*
X0189206Y0083005D01*
X0189317Y0083064D01*
X0189430Y0083119D01*
X0189544Y0083171D01*
X0189661Y0083219D01*
X0189778Y0083264D01*
X0189897Y0083304D01*
X0190017Y0083341D01*
X0190138Y0083374D01*
X0190260Y0083404D01*
X0190383Y0083429D01*
X0190507Y0083451D01*
X0190632Y0083468D01*
X0190757Y0083482D01*
X0190882Y0083492D01*
X0191007Y0083498D01*
X0191133Y0083500D01*
X0191259Y0083498D01*
X0191384Y0083492D01*
X0191509Y0083482D01*
X0191634Y0083468D01*
X0191759Y0083451D01*
X0191883Y0083429D01*
X0192006Y0083404D01*
X0192128Y0083374D01*
X0192249Y0083341D01*
X0192369Y0083304D01*
X0192488Y0083264D01*
X0192605Y0083219D01*
X0192722Y0083171D01*
X0192836Y0083119D01*
X0192949Y0083064D01*
X0193060Y0083005D01*
X0193169Y0082943D01*
X0193276Y0082877D01*
X0193381Y0082808D01*
X0193484Y0082736D01*
X0193585Y0082661D01*
X0193683Y0082582D01*
X0193778Y0082500D01*
X0193871Y0082416D01*
X0193961Y0082328D01*
X0194049Y0082238D01*
X0194133Y0082145D01*
X0194215Y0082050D01*
X0194294Y0081952D01*
X0194369Y0081851D01*
X0194441Y0081748D01*
X0194510Y0081643D01*
X0194576Y0081536D01*
X0194638Y0081427D01*
X0194697Y0081316D01*
X0194752Y0081203D01*
X0194804Y0081089D01*
X0194852Y0080972D01*
X0194897Y0080855D01*
X0194937Y0080736D01*
X0194974Y0080616D01*
X0195007Y0080495D01*
X0195037Y0080373D01*
X0195062Y0080250D01*
X0195084Y0080126D01*
X0195101Y0080001D01*
X0195115Y0079876D01*
X0195125Y0079751D01*
X0195131Y0079626D01*
X0195133Y0079500D01*
X0202633Y0079500D01*
X0202633Y0099500D01*
X0179633Y0099500D01*
X0179633Y0079500D01*
X0205633Y0123000D02*
X0203133Y0125500D01*
X0203133Y0130500D01*
X0205633Y0133000D01*
X0203133Y0135500D01*
X0203133Y0140500D01*
X0205633Y0143000D01*
X0210633Y0143000D01*
X0213133Y0140500D01*
X0213133Y0135500D01*
X0210633Y0133000D01*
X0213133Y0130500D01*
X0213133Y0125500D01*
X0210633Y0123000D01*
X0205633Y0123000D01*
X0205633Y0133000D02*
X0210633Y0133000D01*
X0210633Y0143000D02*
X0213133Y0145500D01*
X0213133Y0150500D01*
X0210633Y0153000D01*
X0213133Y0155500D01*
X0213133Y0160500D01*
X0210633Y0163000D01*
X0213133Y0165500D01*
X0213133Y0170500D01*
X0210633Y0173000D01*
X0213133Y0175500D01*
X0213133Y0180500D01*
X0210633Y0183000D01*
X0205633Y0183000D01*
X0203133Y0180500D01*
X0203133Y0175500D01*
X0205633Y0173000D01*
X0210633Y0173000D01*
X0205633Y0173000D02*
X0203133Y0170500D01*
X0203133Y0165500D01*
X0205633Y0163000D01*
X0210633Y0163000D01*
X0205633Y0163000D02*
X0203133Y0160500D01*
X0203133Y0155500D01*
X0205633Y0153000D01*
X0210633Y0153000D01*
X0205633Y0153000D02*
X0203133Y0150500D01*
X0203133Y0145500D01*
X0205633Y0143000D01*
D12*
X0006157Y0119480D02*
X0006157Y0004520D01*
X0084110Y0004520D01*
X0084110Y0119480D01*
X0006157Y0119480D01*
X0005883Y0151750D02*
X0008886Y0151750D01*
X0007385Y0151750D02*
X0007385Y0156254D01*
X0005883Y0154753D01*
X0025883Y0155503D02*
X0026634Y0156254D01*
X0028135Y0156254D01*
X0028886Y0155503D01*
X0028886Y0154753D01*
X0025883Y0151750D01*
X0028886Y0151750D01*
X0045883Y0152501D02*
X0046634Y0151750D01*
X0048135Y0151750D01*
X0048886Y0152501D01*
X0048886Y0153251D01*
X0048135Y0154002D01*
X0047385Y0154002D01*
X0048135Y0154002D02*
X0048886Y0154753D01*
X0048886Y0155503D01*
X0048135Y0156254D01*
X0046634Y0156254D01*
X0045883Y0155503D01*
X0117244Y0175665D02*
X0117244Y0204406D01*
X0180236Y0204406D01*
X0180236Y0175665D01*
X0180236Y0109917D02*
X0173543Y0109917D01*
X0187634Y0093754D02*
X0186883Y0093003D01*
X0186883Y0090001D01*
X0187634Y0089250D01*
X0189135Y0089250D01*
X0189886Y0090001D01*
X0189886Y0093003D01*
X0189135Y0093754D01*
X0187634Y0093754D01*
X0191487Y0093003D02*
X0191487Y0090001D01*
X0192238Y0089250D01*
X0193739Y0089250D01*
X0194490Y0090001D01*
X0194490Y0093003D02*
X0193739Y0093754D01*
X0192238Y0093754D01*
X0191487Y0093003D01*
X0176645Y0076902D02*
X0115622Y0076902D01*
X0115622Y0002098D01*
X0176645Y0002098D01*
X0176645Y0076902D01*
X0126299Y0109917D02*
X0117244Y0109917D01*
D13*
X0143018Y0133016D02*
X0143886Y0132149D01*
X0145621Y0132149D01*
X0146488Y0133016D01*
X0148175Y0132149D02*
X0148175Y0137353D01*
X0150777Y0137353D01*
X0151644Y0136486D01*
X0151644Y0134751D01*
X0150777Y0133884D01*
X0148175Y0133884D01*
X0146488Y0136486D02*
X0145621Y0137353D01*
X0143886Y0137353D01*
X0143018Y0136486D01*
X0143018Y0133016D01*
X0153331Y0133016D02*
X0154199Y0132149D01*
X0155933Y0132149D01*
X0156801Y0133016D01*
X0156801Y0137353D01*
X0153331Y0137353D02*
X0153331Y0133016D01*
X0157068Y0160511D02*
X0160538Y0160511D01*
X0162224Y0160511D02*
X0165694Y0163981D01*
X0165694Y0164848D01*
X0164827Y0165715D01*
X0163092Y0165715D01*
X0162224Y0164848D01*
X0158803Y0165715D02*
X0158803Y0160511D01*
X0157068Y0163981D02*
X0158803Y0165715D01*
X0162224Y0160511D02*
X0165694Y0160511D01*
X0167381Y0160511D02*
X0170850Y0160511D01*
X0169115Y0163113D02*
X0167381Y0163113D01*
X0167381Y0165715D02*
X0167381Y0160511D01*
X0167381Y0165715D02*
X0170850Y0165715D01*
X0150225Y0163113D02*
X0146755Y0163113D01*
X0139912Y0163113D02*
X0139045Y0162246D01*
X0136442Y0162246D01*
X0134756Y0162246D02*
X0134756Y0161378D01*
X0133888Y0160511D01*
X0132153Y0160511D01*
X0131286Y0161378D01*
X0129599Y0160511D02*
X0126130Y0160511D01*
X0126130Y0165715D01*
X0129599Y0165715D01*
X0131286Y0164848D02*
X0131286Y0163981D01*
X0132153Y0163113D01*
X0133888Y0163113D01*
X0134756Y0162246D01*
X0136442Y0160511D02*
X0136442Y0165715D01*
X0139045Y0165715D01*
X0139912Y0164848D01*
X0139912Y0163113D01*
X0134756Y0164848D02*
X0133888Y0165715D01*
X0132153Y0165715D01*
X0131286Y0164848D01*
X0127864Y0163113D02*
X0126130Y0163113D01*
X0224384Y0062468D02*
X0223617Y0061701D01*
X0223617Y0059399D01*
X0228221Y0059399D01*
X0228221Y0061701D01*
X0227453Y0062468D01*
X0224384Y0062468D01*
X0223617Y0057865D02*
X0223617Y0054795D01*
X0228221Y0054795D01*
X0228221Y0057865D01*
X0225919Y0056330D02*
X0225919Y0054795D01*
X0228221Y0053261D02*
X0228221Y0050191D01*
X0223617Y0050191D01*
X0153679Y0032303D02*
X0153679Y0031786D01*
X0152645Y0030751D01*
X0152645Y0029200D01*
X0152645Y0030751D02*
X0151611Y0031786D01*
X0151611Y0032303D01*
X0150456Y0031268D02*
X0150456Y0029200D01*
X0150456Y0030751D02*
X0148388Y0030751D01*
X0148388Y0031268D02*
X0148388Y0029200D01*
X0147233Y0029200D02*
X0145165Y0029200D01*
X0145165Y0032303D01*
X0144011Y0032303D02*
X0141942Y0032303D01*
X0141942Y0029200D01*
X0144011Y0029200D01*
X0142977Y0030751D02*
X0141942Y0030751D01*
X0140788Y0030751D02*
X0140788Y0031786D01*
X0140271Y0032303D01*
X0138720Y0032303D01*
X0138720Y0029200D01*
X0138720Y0030234D02*
X0140271Y0030234D01*
X0140788Y0030751D01*
X0139754Y0030234D02*
X0140788Y0029200D01*
X0148388Y0031268D02*
X0149422Y0032303D01*
X0150456Y0031268D01*
D14*
X0155433Y0179602D02*
X0129842Y0179602D01*
X0129842Y0181965D01*
X0129842Y0182358D02*
X0129842Y0201650D01*
X0133385Y0201650D01*
X0133385Y0187083D01*
X0137322Y0187083D01*
X0137322Y0201256D01*
X0142047Y0201256D01*
X0142047Y0187083D01*
X0146771Y0187083D01*
X0146771Y0201256D01*
X0151102Y0201256D01*
X0151102Y0187476D01*
X0155433Y0187476D01*
X0155433Y0201256D01*
X0171181Y0201256D01*
D15*
X0102492Y0168472D02*
X0081330Y0168472D01*
X0081330Y0167882D01*
X0081330Y0153118D01*
X0081330Y0152528D01*
X0102492Y0152528D01*
X0102492Y0154594D01*
X0097570Y0154594D01*
X0097570Y0152626D01*
X0087728Y0157547D02*
X0085759Y0158039D01*
X0087728Y0158531D01*
X0087728Y0162469D02*
X0085759Y0162961D01*
X0087728Y0163453D01*
X0097570Y0166406D02*
X0102492Y0166406D01*
X0102492Y0168472D01*
X0097570Y0168374D02*
X0097570Y0166406D01*
X0096570Y0129835D02*
X0096570Y0127866D01*
X0101492Y0127866D01*
X0101492Y0129933D01*
X0080330Y0129933D01*
X0080330Y0129343D01*
X0080330Y0109657D01*
X0080330Y0109067D01*
X0101492Y0109067D01*
X0101492Y0111134D01*
X0096570Y0111134D01*
X0096570Y0109165D01*
X0086728Y0114087D02*
X0084759Y0114579D01*
X0086728Y0115071D01*
X0086728Y0119008D02*
X0084759Y0119500D01*
X0086728Y0119992D01*
X0086728Y0123929D02*
X0084759Y0124421D01*
X0086728Y0124913D01*
X0201275Y0069315D02*
X0201275Y0067248D01*
X0206196Y0067248D01*
X0206196Y0069217D01*
X0201275Y0069315D02*
X0222436Y0069315D01*
X0222436Y0068724D01*
X0222436Y0034276D01*
X0222436Y0033685D01*
X0201275Y0033685D01*
X0201275Y0035752D01*
X0206196Y0035752D01*
X0206196Y0033783D01*
X0216039Y0038705D02*
X0218007Y0039197D01*
X0216039Y0039689D01*
X0216039Y0043626D02*
X0218007Y0044118D01*
X0216039Y0044610D01*
X0216039Y0048547D02*
X0218007Y0049039D01*
X0216039Y0049531D01*
X0216039Y0053469D02*
X0218007Y0053961D01*
X0216039Y0054453D01*
X0216039Y0058390D02*
X0218007Y0058882D01*
X0216039Y0059374D01*
X0216039Y0063311D02*
X0218007Y0063803D01*
X0216039Y0064295D01*
D16*
X0214316Y0063803D03*
X0214316Y0058882D03*
X0214316Y0053961D03*
X0214316Y0049039D03*
X0214316Y0044118D03*
X0214316Y0039197D03*
X0088450Y0114579D03*
X0088450Y0119500D03*
X0088450Y0124421D03*
X0089450Y0158039D03*
X0089450Y0162961D03*
D17*
X0017132Y0164350D02*
X0012929Y0164350D01*
X0015031Y0164350D02*
X0015031Y0170655D01*
X0012929Y0168554D01*
X0010687Y0170655D02*
X0006483Y0170655D01*
X0006483Y0164350D01*
X0006483Y0167503D02*
X0008585Y0167503D01*
X0007887Y0173350D02*
X0003683Y0179655D01*
X0007887Y0179655D02*
X0003683Y0173350D01*
X0010129Y0173350D02*
X0014332Y0173350D01*
X0012231Y0173350D02*
X0012231Y0179655D01*
X0010129Y0177554D01*
D18*
X0034883Y0177750D03*
X0034883Y0198250D03*
X0077383Y0198250D03*
X0077383Y0177750D03*
D19*
X0077383Y0188000D03*
X0034883Y0188000D03*
D20*
X0056133Y0178500D03*
X0056133Y0197500D03*
D21*
X0025883Y0195750D03*
X0025883Y0180250D03*
X0086383Y0180250D03*
X0086383Y0195750D03*
D22*
X0088133Y0197000D03*
X0088133Y0179000D03*
X0024133Y0179000D03*
X0024133Y0197000D03*
D23*
X0182633Y0035000D03*
D24*
X0182633Y0038750D03*
X0182633Y0018250D03*
M02*
