G75*
%MOIN*%
%OFA0B0*%
%FSLAX25Y25*%
%IPPOS*%
%LPD*%
%AMOC8*
5,1,8,0,0,1.08239X$1,22.5*
%
%ADD10C,0.00000*%
%ADD11R,0.03937X0.05512*%
%ADD12C,0.05200*%
%ADD13C,0.08268*%
%ADD14R,0.11811X0.04724*%
%ADD15R,0.04724X0.11811*%
%ADD16C,0.03969*%
%ADD17C,0.07800*%
%ADD18R,0.06299X0.05118*%
%ADD19R,0.05118X0.06299*%
%ADD20C,0.10000*%
%ADD21R,0.04331X0.03937*%
%ADD22R,0.03937X0.04331*%
%ADD23C,0.06000*%
%ADD24C,0.07600*%
%ADD25OC8,0.05200*%
%ADD26C,0.05200*%
%ADD27C,0.01000*%
%ADD28C,0.03962*%
%ADD29C,0.04000*%
%ADD30R,0.03962X0.03962*%
%ADD31C,0.07677*%
%ADD32C,0.15000*%
D10*
X0003633Y0001500D02*
X0003633Y0206461D01*
X0217334Y0206461D01*
X0217334Y0001500D01*
X0003633Y0001500D01*
D11*
X0123393Y0092831D03*
X0130873Y0092831D03*
X0127133Y0084169D03*
D12*
X0170933Y0084500D02*
X0176133Y0084500D01*
X0176133Y0094500D02*
X0170933Y0094500D01*
X0206133Y0094500D02*
X0211333Y0094500D01*
X0211333Y0084500D02*
X0206133Y0084500D01*
X0182633Y0046100D02*
X0182633Y0040900D01*
X0182633Y0016100D02*
X0182633Y0010900D01*
D13*
X0169755Y0015484D03*
X0122511Y0015484D03*
X0122511Y0063516D03*
X0146133Y0071390D03*
X0169755Y0063516D03*
D14*
X0181023Y0116217D03*
X0181023Y0124091D03*
X0181023Y0131965D03*
X0181023Y0139839D03*
X0181023Y0147713D03*
X0181023Y0155587D03*
X0181023Y0163461D03*
X0181023Y0171335D03*
X0116456Y0171335D03*
X0116456Y0163461D03*
X0116456Y0155587D03*
X0116456Y0147713D03*
X0116456Y0139839D03*
X0116456Y0131965D03*
X0116456Y0124091D03*
X0116456Y0116217D03*
D15*
X0130236Y0107949D03*
X0138110Y0107949D03*
X0145984Y0107949D03*
X0153858Y0107949D03*
X0161732Y0107949D03*
X0169606Y0107949D03*
D16*
X0203228Y0063803D02*
X0207196Y0063803D01*
X0207196Y0058882D02*
X0203228Y0058882D01*
X0203228Y0053961D02*
X0207196Y0053961D01*
X0207196Y0049039D02*
X0203228Y0049039D01*
X0203228Y0044118D02*
X0207196Y0044118D01*
X0207196Y0039197D02*
X0203228Y0039197D01*
X0099539Y0114579D02*
X0095570Y0114579D01*
X0095570Y0119500D02*
X0099539Y0119500D01*
X0099539Y0124421D02*
X0095570Y0124421D01*
X0096570Y0158039D02*
X0100539Y0158039D01*
X0100539Y0162961D02*
X0096570Y0162961D01*
D17*
X0052833Y0150400D02*
X0052833Y0142600D01*
X0033133Y0142600D02*
X0033133Y0150400D01*
X0013433Y0150400D02*
X0013433Y0142600D01*
D18*
X0194133Y0030740D03*
X0194133Y0023260D03*
X0209633Y0106760D03*
X0209633Y0114240D03*
D19*
X0152873Y0084000D03*
X0145393Y0084000D03*
D20*
X0100433Y0183000D02*
X0100433Y0193000D01*
X0011833Y0193000D02*
X0011833Y0183000D01*
D21*
X0187133Y0194154D03*
X0187133Y0200846D03*
X0195133Y0179846D03*
X0195133Y0173154D03*
X0195133Y0160346D03*
X0195133Y0153654D03*
X0194633Y0139846D03*
X0194633Y0133154D03*
X0194633Y0124346D03*
X0194633Y0117654D03*
D22*
X0188480Y0067000D03*
X0181787Y0067000D03*
X0181787Y0055000D03*
X0188480Y0055000D03*
D23*
X0205133Y0128000D02*
X0211133Y0128000D01*
X0211133Y0138000D02*
X0205133Y0138000D01*
X0205133Y0148000D02*
X0211133Y0148000D01*
X0211133Y0158000D02*
X0205133Y0158000D01*
X0205133Y0168000D02*
X0211133Y0168000D01*
X0211133Y0178000D02*
X0205133Y0178000D01*
D24*
X0074267Y0115150D03*
X0054582Y0115150D03*
X0053007Y0008850D03*
X0033716Y0008850D03*
X0014031Y0008850D03*
D25*
X0103633Y0012000D03*
X0103133Y0033500D03*
D26*
X0095133Y0033500D03*
X0095633Y0012000D03*
D27*
X0080633Y0027000D01*
X0080633Y0106500D01*
X0084633Y0110500D01*
X0084633Y0119500D01*
X0089555Y0124421D01*
X0097555Y0124421D01*
X0097383Y0124000D01*
X0097554Y0119500D02*
X0097554Y0119500D01*
X0092086Y0119500D01*
X0097554Y0119500D01*
X0098633Y0115250D02*
X0097555Y0114579D01*
X0098633Y0115250D02*
X0103633Y0115250D01*
X0103633Y0137750D01*
X0109883Y0144000D01*
X0124883Y0144000D01*
X0124883Y0137750D01*
X0119883Y0132750D01*
X0117383Y0132750D01*
X0116456Y0131965D01*
X0116133Y0139000D02*
X0112383Y0139000D01*
X0106133Y0132750D01*
X0106133Y0100250D01*
X0102433Y0100353D02*
X0082833Y0100353D01*
X0082833Y0101351D02*
X0102585Y0101351D01*
X0102433Y0100986D02*
X0102433Y0099514D01*
X0102997Y0098154D01*
X0104037Y0097113D01*
X0105397Y0096550D01*
X0106869Y0096550D01*
X0108229Y0097113D01*
X0109270Y0098154D01*
X0109833Y0099514D01*
X0109833Y0100986D01*
X0109270Y0102346D01*
X0108333Y0103283D01*
X0108333Y0109300D01*
X0109545Y0109300D01*
X0110222Y0109300D01*
X0114651Y0104871D01*
X0114048Y0104621D01*
X0113013Y0103585D01*
X0112452Y0102232D01*
X0112452Y0100930D01*
X0083433Y0071911D01*
X0083433Y0062681D01*
X0082948Y0062681D01*
X0082833Y0062566D01*
X0082833Y0105589D01*
X0085545Y0108300D01*
X0086833Y0109589D01*
X0086833Y0118589D01*
X0090466Y0122221D01*
X0092560Y0122221D01*
X0092962Y0121819D01*
X0092864Y0121721D01*
X0092483Y0121150D01*
X0092220Y0120516D01*
X0092086Y0119843D01*
X0092086Y0119500D01*
X0092086Y0119157D01*
X0092220Y0118484D01*
X0092483Y0117850D01*
X0092864Y0117279D01*
X0092962Y0117181D01*
X0092447Y0116666D01*
X0091886Y0115312D01*
X0091886Y0113846D01*
X0092447Y0112492D01*
X0093483Y0111455D01*
X0094837Y0110894D01*
X0100272Y0110894D01*
X0101626Y0111455D01*
X0102662Y0112492D01*
X0102893Y0113050D01*
X0103933Y0113050D01*
X0103933Y0103283D01*
X0102997Y0102346D01*
X0102433Y0100986D01*
X0103000Y0102350D02*
X0082833Y0102350D01*
X0082833Y0103348D02*
X0103933Y0103348D01*
X0103933Y0104347D02*
X0082833Y0104347D01*
X0082833Y0105345D02*
X0103933Y0105345D01*
X0103933Y0106344D02*
X0083588Y0106344D01*
X0084587Y0107342D02*
X0103933Y0107342D01*
X0103933Y0108341D02*
X0085585Y0108341D01*
X0086584Y0109339D02*
X0103933Y0109339D01*
X0103933Y0110338D02*
X0086833Y0110338D01*
X0086833Y0111336D02*
X0093771Y0111336D01*
X0092604Y0112335D02*
X0086833Y0112335D01*
X0086833Y0113333D02*
X0092098Y0113333D01*
X0091886Y0114332D02*
X0086833Y0114332D01*
X0086833Y0115330D02*
X0091894Y0115330D01*
X0092307Y0116329D02*
X0086833Y0116329D01*
X0086833Y0117327D02*
X0092832Y0117327D01*
X0092285Y0118326D02*
X0086833Y0118326D01*
X0087569Y0119324D02*
X0092086Y0119324D01*
X0092182Y0120323D02*
X0088567Y0120323D01*
X0089566Y0121321D02*
X0092597Y0121321D01*
X0092560Y0126621D02*
X0088643Y0126621D01*
X0087355Y0125333D01*
X0082433Y0120411D01*
X0082433Y0111411D01*
X0078433Y0107411D01*
X0078433Y0026089D01*
X0079722Y0024800D01*
X0091431Y0013091D01*
X0091333Y0012855D01*
X0091333Y0011145D01*
X0091988Y0009564D01*
X0093198Y0008355D01*
X0094778Y0007700D01*
X0096489Y0007700D01*
X0098069Y0008355D01*
X0099279Y0009564D01*
X0099569Y0010266D01*
X0101935Y0007900D01*
X0103333Y0007900D01*
X0103333Y0011700D01*
X0103933Y0011700D01*
X0103933Y0007900D01*
X0105332Y0007900D01*
X0107733Y0010302D01*
X0107733Y0011700D01*
X0103933Y0011700D01*
X0103933Y0012300D01*
X0103333Y0012300D01*
X0103333Y0016100D01*
X0101935Y0016100D01*
X0099569Y0013734D01*
X0099279Y0014436D01*
X0098069Y0015645D01*
X0096489Y0016300D01*
X0094778Y0016300D01*
X0094542Y0016202D01*
X0082833Y0027911D01*
X0082833Y0055434D01*
X0082948Y0055319D01*
X0088319Y0055319D01*
X0089314Y0056315D01*
X0089314Y0061685D01*
X0088319Y0062681D01*
X0087833Y0062681D01*
X0087833Y0070089D01*
X0113933Y0096189D01*
X0113933Y0006000D01*
X0057488Y0006000D01*
X0057540Y0006073D01*
X0057919Y0006816D01*
X0058177Y0007609D01*
X0058297Y0008366D01*
X0053492Y0008366D01*
X0053492Y0009335D01*
X0058297Y0009335D01*
X0058177Y0010091D01*
X0057919Y0010885D01*
X0057540Y0011628D01*
X0057050Y0012303D01*
X0056460Y0012893D01*
X0055785Y0013383D01*
X0055042Y0013762D01*
X0054248Y0014020D01*
X0053492Y0014140D01*
X0053492Y0009335D01*
X0052523Y0009335D01*
X0052523Y0014140D01*
X0051766Y0014020D01*
X0050973Y0013762D01*
X0050230Y0013383D01*
X0049555Y0012893D01*
X0048965Y0012303D01*
X0048474Y0011628D01*
X0048096Y0010885D01*
X0047838Y0010091D01*
X0047718Y0009335D01*
X0052523Y0009335D01*
X0052523Y0008366D01*
X0047718Y0008366D01*
X0047838Y0007609D01*
X0048096Y0006816D01*
X0048474Y0006073D01*
X0048527Y0006000D01*
X0038488Y0006000D01*
X0039216Y0007756D01*
X0039216Y0009944D01*
X0038379Y0011966D01*
X0036831Y0013513D01*
X0034810Y0014350D01*
X0032622Y0014350D01*
X0030601Y0013513D01*
X0029053Y0011966D01*
X0028216Y0009944D01*
X0028216Y0007756D01*
X0028944Y0006000D01*
X0018803Y0006000D01*
X0019531Y0007756D01*
X0019531Y0009944D01*
X0018694Y0011966D01*
X0017146Y0013513D01*
X0015125Y0014350D01*
X0012937Y0014350D01*
X0010915Y0013513D01*
X0009368Y0011966D01*
X0008531Y0009944D01*
X0008531Y0007756D01*
X0009259Y0006000D01*
X0008133Y0006000D01*
X0008133Y0126167D01*
X0008996Y0125305D01*
X0011032Y0124461D01*
X0013235Y0124461D01*
X0015271Y0125305D01*
X0016829Y0126863D01*
X0017672Y0128898D01*
X0017672Y0131102D01*
X0016829Y0133137D01*
X0015271Y0134695D01*
X0013235Y0135539D01*
X0011032Y0135539D01*
X0008996Y0134695D01*
X0008133Y0133833D01*
X0008133Y0140762D01*
X0008686Y0139428D01*
X0010261Y0137853D01*
X0012319Y0137000D01*
X0014547Y0137000D01*
X0016605Y0137853D01*
X0018181Y0139428D01*
X0019033Y0141486D01*
X0019033Y0151514D01*
X0018181Y0153572D01*
X0016605Y0155147D01*
X0014547Y0156000D01*
X0012319Y0156000D01*
X0010261Y0155147D01*
X0008686Y0153572D01*
X0008133Y0152238D01*
X0008133Y0177281D01*
X0010501Y0176300D01*
X0013166Y0176300D01*
X0015629Y0177320D01*
X0017513Y0179205D01*
X0018533Y0181667D01*
X0018533Y0194333D01*
X0017513Y0196795D01*
X0015629Y0198680D01*
X0013166Y0199700D01*
X0010501Y0199700D01*
X0008133Y0198719D01*
X0008133Y0201961D01*
X0124633Y0201961D01*
X0124633Y0176500D01*
X0176133Y0176500D01*
X0176133Y0201961D01*
X0183268Y0201961D01*
X0183268Y0198174D01*
X0183942Y0197500D01*
X0183268Y0196826D01*
X0183268Y0191481D01*
X0184264Y0190485D01*
X0186433Y0190485D01*
X0186433Y0185589D01*
X0186642Y0185380D01*
X0185869Y0185700D01*
X0184397Y0185700D01*
X0183037Y0185137D01*
X0181997Y0184096D01*
X0181433Y0182736D01*
X0181433Y0181264D01*
X0181997Y0179904D01*
X0182933Y0178967D01*
X0182933Y0176589D01*
X0184125Y0175397D01*
X0174413Y0175397D01*
X0173418Y0174401D01*
X0173418Y0172450D01*
X0161472Y0172450D01*
X0159722Y0170700D01*
X0158433Y0169411D01*
X0158433Y0161272D01*
X0158346Y0161163D01*
X0158368Y0160967D01*
X0157747Y0160346D01*
X0157183Y0158986D01*
X0157183Y0157514D01*
X0157747Y0156154D01*
X0158787Y0155113D01*
X0160147Y0154550D01*
X0161619Y0154550D01*
X0162979Y0155113D01*
X0164020Y0156154D01*
X0164583Y0157514D01*
X0164583Y0158986D01*
X0164020Y0160346D01*
X0162979Y0161387D01*
X0162833Y0161447D01*
X0162833Y0167589D01*
X0163295Y0168050D01*
X0173636Y0168050D01*
X0174288Y0167398D01*
X0173418Y0166527D01*
X0173418Y0160394D01*
X0174288Y0159524D01*
X0173418Y0158653D01*
X0173418Y0153700D01*
X0171080Y0153700D01*
X0171020Y0153846D01*
X0169979Y0154887D01*
X0168619Y0155450D01*
X0167147Y0155450D01*
X0165787Y0154887D01*
X0164747Y0153846D01*
X0164183Y0152486D01*
X0164183Y0151014D01*
X0164747Y0149654D01*
X0165787Y0148613D01*
X0167147Y0148050D01*
X0168619Y0148050D01*
X0169979Y0148613D01*
X0170666Y0149300D01*
X0173418Y0149300D01*
X0173418Y0146200D01*
X0172722Y0146200D01*
X0171433Y0144911D01*
X0171433Y0141113D01*
X0170619Y0141450D01*
X0169295Y0141450D01*
X0142083Y0168661D01*
X0140795Y0169950D01*
X0138666Y0169950D01*
X0137729Y0170887D01*
X0136369Y0171450D01*
X0135045Y0171450D01*
X0134083Y0172411D01*
X0134083Y0172411D01*
X0132795Y0173700D01*
X0124062Y0173700D01*
X0124062Y0174401D01*
X0123066Y0175397D01*
X0109846Y0175397D01*
X0108851Y0174401D01*
X0108851Y0168268D01*
X0109721Y0167398D01*
X0108851Y0166527D01*
X0108851Y0160394D01*
X0109721Y0159524D01*
X0108851Y0158653D01*
X0108851Y0152520D01*
X0109721Y0151650D01*
X0108851Y0150779D01*
X0108851Y0146079D01*
X0107683Y0144911D01*
X0101433Y0138661D01*
X0101433Y0127624D01*
X0100272Y0128105D01*
X0094837Y0128105D01*
X0093483Y0127545D01*
X0092560Y0126621D01*
X0093251Y0127312D02*
X0058222Y0127312D01*
X0057829Y0126363D02*
X0058672Y0128398D01*
X0058672Y0130602D01*
X0057829Y0132637D01*
X0056271Y0134195D01*
X0054235Y0135039D01*
X0052032Y0135039D01*
X0049996Y0134195D01*
X0048438Y0132637D01*
X0047595Y0130602D01*
X0047595Y0128398D01*
X0048438Y0126363D01*
X0049996Y0124805D01*
X0052032Y0123961D01*
X0054235Y0123961D01*
X0056271Y0124805D01*
X0057829Y0126363D01*
X0057780Y0126314D02*
X0088336Y0126314D01*
X0087337Y0125315D02*
X0056781Y0125315D01*
X0055093Y0124317D02*
X0086339Y0124317D01*
X0085340Y0123318D02*
X0008133Y0123318D01*
X0008133Y0122320D02*
X0084342Y0122320D01*
X0083343Y0121321D02*
X0008133Y0121321D01*
X0008133Y0120323D02*
X0052699Y0120323D01*
X0053488Y0120650D02*
X0051467Y0119812D01*
X0049919Y0118265D01*
X0049082Y0116244D01*
X0049082Y0114056D01*
X0049919Y0112034D01*
X0051467Y0110487D01*
X0053488Y0109650D01*
X0055676Y0109650D01*
X0057698Y0110487D01*
X0059245Y0112034D01*
X0060082Y0114056D01*
X0060082Y0116244D01*
X0059245Y0118265D01*
X0057698Y0119812D01*
X0055676Y0120650D01*
X0053488Y0120650D01*
X0050979Y0119324D02*
X0008133Y0119324D01*
X0008133Y0118326D02*
X0049980Y0118326D01*
X0049531Y0117327D02*
X0008133Y0117327D01*
X0008133Y0116329D02*
X0049117Y0116329D01*
X0049082Y0115330D02*
X0008133Y0115330D01*
X0008133Y0114332D02*
X0049082Y0114332D01*
X0049381Y0113333D02*
X0008133Y0113333D01*
X0008133Y0112335D02*
X0049795Y0112335D01*
X0050617Y0111336D02*
X0008133Y0111336D01*
X0008133Y0110338D02*
X0051827Y0110338D01*
X0057337Y0110338D02*
X0071512Y0110338D01*
X0071152Y0110487D02*
X0073173Y0109650D01*
X0075361Y0109650D01*
X0077383Y0110487D01*
X0078930Y0112034D01*
X0079767Y0114056D01*
X0079767Y0116244D01*
X0078930Y0118265D01*
X0077383Y0119812D01*
X0075361Y0120650D01*
X0073173Y0120650D01*
X0071152Y0119812D01*
X0069605Y0118265D01*
X0068767Y0116244D01*
X0068767Y0114056D01*
X0069605Y0112034D01*
X0071152Y0110487D01*
X0070302Y0111336D02*
X0058547Y0111336D01*
X0059369Y0112335D02*
X0069480Y0112335D01*
X0069066Y0113333D02*
X0059783Y0113333D01*
X0060082Y0114332D02*
X0068767Y0114332D01*
X0068767Y0115330D02*
X0060082Y0115330D01*
X0060047Y0116329D02*
X0068802Y0116329D01*
X0069216Y0117327D02*
X0059633Y0117327D01*
X0059184Y0118326D02*
X0069665Y0118326D01*
X0070664Y0119324D02*
X0058186Y0119324D01*
X0056465Y0120323D02*
X0072384Y0120323D01*
X0076150Y0120323D02*
X0082433Y0120323D01*
X0082433Y0119324D02*
X0077871Y0119324D01*
X0078869Y0118326D02*
X0082433Y0118326D01*
X0082433Y0117327D02*
X0079318Y0117327D01*
X0079732Y0116329D02*
X0082433Y0116329D01*
X0082433Y0115330D02*
X0079767Y0115330D01*
X0079767Y0114332D02*
X0082433Y0114332D01*
X0082433Y0113333D02*
X0079468Y0113333D01*
X0079054Y0112335D02*
X0082433Y0112335D01*
X0082358Y0111336D02*
X0078232Y0111336D01*
X0077022Y0110338D02*
X0081360Y0110338D01*
X0080361Y0109339D02*
X0008133Y0109339D01*
X0008133Y0108341D02*
X0079363Y0108341D01*
X0078433Y0107342D02*
X0008133Y0107342D01*
X0008133Y0106344D02*
X0078433Y0106344D01*
X0078433Y0105345D02*
X0008133Y0105345D01*
X0008133Y0104347D02*
X0078433Y0104347D01*
X0078433Y0103348D02*
X0008133Y0103348D01*
X0008133Y0102350D02*
X0078433Y0102350D01*
X0078433Y0101351D02*
X0008133Y0101351D01*
X0008133Y0100353D02*
X0078433Y0100353D01*
X0078433Y0099354D02*
X0008133Y0099354D01*
X0008133Y0098356D02*
X0078433Y0098356D01*
X0078433Y0097357D02*
X0008133Y0097357D01*
X0008133Y0096359D02*
X0078433Y0096359D01*
X0078433Y0095360D02*
X0008133Y0095360D01*
X0008133Y0094362D02*
X0078433Y0094362D01*
X0078433Y0093363D02*
X0008133Y0093363D01*
X0008133Y0092365D02*
X0078433Y0092365D01*
X0078433Y0091366D02*
X0008133Y0091366D01*
X0008133Y0090368D02*
X0078433Y0090368D01*
X0078433Y0089369D02*
X0008133Y0089369D01*
X0008133Y0088370D02*
X0078433Y0088370D01*
X0078433Y0087372D02*
X0008133Y0087372D01*
X0008133Y0086373D02*
X0078433Y0086373D01*
X0078433Y0085375D02*
X0008133Y0085375D01*
X0008133Y0084376D02*
X0078433Y0084376D01*
X0078433Y0083378D02*
X0008133Y0083378D01*
X0008133Y0082379D02*
X0078433Y0082379D01*
X0078433Y0081381D02*
X0008133Y0081381D01*
X0008133Y0080382D02*
X0078433Y0080382D01*
X0078433Y0079384D02*
X0008133Y0079384D01*
X0008133Y0078385D02*
X0078433Y0078385D01*
X0078433Y0077387D02*
X0008133Y0077387D01*
X0008133Y0076388D02*
X0078433Y0076388D01*
X0078433Y0075390D02*
X0008133Y0075390D01*
X0008133Y0074391D02*
X0078433Y0074391D01*
X0078433Y0073393D02*
X0008133Y0073393D01*
X0008133Y0072394D02*
X0078433Y0072394D01*
X0078433Y0071396D02*
X0008133Y0071396D01*
X0008133Y0070397D02*
X0078433Y0070397D01*
X0078433Y0069399D02*
X0008133Y0069399D01*
X0008133Y0068400D02*
X0078433Y0068400D01*
X0078433Y0067402D02*
X0008133Y0067402D01*
X0008133Y0066403D02*
X0078433Y0066403D01*
X0078433Y0065405D02*
X0008133Y0065405D01*
X0008133Y0064406D02*
X0078433Y0064406D01*
X0078433Y0063408D02*
X0008133Y0063408D01*
X0008133Y0062409D02*
X0078433Y0062409D01*
X0078433Y0061411D02*
X0008133Y0061411D01*
X0008133Y0060412D02*
X0078433Y0060412D01*
X0078433Y0059414D02*
X0008133Y0059414D01*
X0008133Y0058415D02*
X0078433Y0058415D01*
X0078433Y0057417D02*
X0008133Y0057417D01*
X0008133Y0056418D02*
X0078433Y0056418D01*
X0078433Y0055420D02*
X0008133Y0055420D01*
X0008133Y0054421D02*
X0078433Y0054421D01*
X0078433Y0053423D02*
X0008133Y0053423D01*
X0008133Y0052424D02*
X0078433Y0052424D01*
X0078433Y0051426D02*
X0008133Y0051426D01*
X0008133Y0050427D02*
X0078433Y0050427D01*
X0078433Y0049429D02*
X0008133Y0049429D01*
X0008133Y0048430D02*
X0078433Y0048430D01*
X0078433Y0047432D02*
X0008133Y0047432D01*
X0008133Y0046433D02*
X0078433Y0046433D01*
X0078433Y0045434D02*
X0008133Y0045434D01*
X0008133Y0044436D02*
X0078433Y0044436D01*
X0078433Y0043437D02*
X0008133Y0043437D01*
X0008133Y0042439D02*
X0078433Y0042439D01*
X0078433Y0041440D02*
X0008133Y0041440D01*
X0008133Y0040442D02*
X0078433Y0040442D01*
X0078433Y0039443D02*
X0008133Y0039443D01*
X0008133Y0038445D02*
X0078433Y0038445D01*
X0078433Y0037446D02*
X0008133Y0037446D01*
X0008133Y0036448D02*
X0078433Y0036448D01*
X0078433Y0035449D02*
X0008133Y0035449D01*
X0008133Y0034451D02*
X0078433Y0034451D01*
X0078433Y0033452D02*
X0008133Y0033452D01*
X0008133Y0032454D02*
X0078433Y0032454D01*
X0078433Y0031455D02*
X0008133Y0031455D01*
X0008133Y0030457D02*
X0078433Y0030457D01*
X0078433Y0029458D02*
X0008133Y0029458D01*
X0008133Y0028460D02*
X0078433Y0028460D01*
X0078433Y0027461D02*
X0008133Y0027461D01*
X0008133Y0026463D02*
X0078433Y0026463D01*
X0079058Y0025464D02*
X0008133Y0025464D01*
X0008133Y0024466D02*
X0080056Y0024466D01*
X0081055Y0023467D02*
X0008133Y0023467D01*
X0008133Y0022469D02*
X0082053Y0022469D01*
X0083052Y0021470D02*
X0008133Y0021470D01*
X0008133Y0020472D02*
X0084050Y0020472D01*
X0085049Y0019473D02*
X0008133Y0019473D01*
X0008133Y0018475D02*
X0086047Y0018475D01*
X0087046Y0017476D02*
X0008133Y0017476D01*
X0008133Y0016478D02*
X0088044Y0016478D01*
X0089043Y0015479D02*
X0008133Y0015479D01*
X0008133Y0014481D02*
X0090041Y0014481D01*
X0091040Y0013482D02*
X0055591Y0013482D01*
X0056869Y0012484D02*
X0091333Y0012484D01*
X0091333Y0011485D02*
X0057613Y0011485D01*
X0058048Y0010487D02*
X0091606Y0010487D01*
X0092064Y0009488D02*
X0058272Y0009488D01*
X0058138Y0007491D02*
X0113933Y0007491D01*
X0113933Y0006493D02*
X0057754Y0006493D01*
X0056858Y0005000D02*
X0099133Y0005000D01*
X0103633Y0009500D01*
X0103633Y0012000D01*
X0103633Y0032750D01*
X0103133Y0033500D01*
X0103433Y0033452D02*
X0113933Y0033452D01*
X0113933Y0032454D02*
X0107233Y0032454D01*
X0107233Y0031802D02*
X0107233Y0033200D01*
X0103433Y0033200D01*
X0103433Y0029400D01*
X0104832Y0029400D01*
X0107233Y0031802D01*
X0106887Y0031455D02*
X0113933Y0031455D01*
X0113933Y0030457D02*
X0105888Y0030457D01*
X0104890Y0029458D02*
X0113933Y0029458D01*
X0113933Y0028460D02*
X0082833Y0028460D01*
X0082833Y0029458D02*
X0093654Y0029458D01*
X0094278Y0029200D02*
X0095989Y0029200D01*
X0097569Y0029855D01*
X0098779Y0031064D01*
X0099069Y0031766D01*
X0101435Y0029400D01*
X0102833Y0029400D01*
X0102833Y0033200D01*
X0103433Y0033200D01*
X0103433Y0033800D01*
X0102833Y0033800D01*
X0102833Y0037600D01*
X0101435Y0037600D01*
X0099069Y0035234D01*
X0098779Y0035936D01*
X0097569Y0037145D01*
X0095989Y0037800D01*
X0094278Y0037800D01*
X0092698Y0037145D01*
X0091488Y0035936D01*
X0090833Y0034355D01*
X0090833Y0032645D01*
X0091488Y0031064D01*
X0092698Y0029855D01*
X0094278Y0029200D01*
X0096612Y0029458D02*
X0101377Y0029458D01*
X0100378Y0030457D02*
X0098171Y0030457D01*
X0098941Y0031455D02*
X0099380Y0031455D01*
X0102833Y0031455D02*
X0103433Y0031455D01*
X0103433Y0030457D02*
X0102833Y0030457D01*
X0102833Y0029458D02*
X0103433Y0029458D01*
X0103433Y0032454D02*
X0102833Y0032454D01*
X0103433Y0033800D02*
X0107233Y0033800D01*
X0107233Y0035198D01*
X0104832Y0037600D01*
X0103433Y0037600D01*
X0103433Y0033800D01*
X0103433Y0034451D02*
X0102833Y0034451D01*
X0102833Y0035449D02*
X0103433Y0035449D01*
X0103433Y0036448D02*
X0102833Y0036448D01*
X0102833Y0037446D02*
X0103433Y0037446D01*
X0104985Y0037446D02*
X0113933Y0037446D01*
X0113933Y0036448D02*
X0105984Y0036448D01*
X0106982Y0035449D02*
X0113933Y0035449D01*
X0113933Y0034451D02*
X0107233Y0034451D01*
X0101281Y0037446D02*
X0096842Y0037446D01*
X0098267Y0036448D02*
X0100283Y0036448D01*
X0099284Y0035449D02*
X0098980Y0035449D01*
X0093424Y0037446D02*
X0082833Y0037446D01*
X0082833Y0036448D02*
X0092000Y0036448D01*
X0091287Y0035449D02*
X0082833Y0035449D01*
X0082833Y0034451D02*
X0090873Y0034451D01*
X0090833Y0033452D02*
X0082833Y0033452D01*
X0082833Y0032454D02*
X0090912Y0032454D01*
X0091326Y0031455D02*
X0082833Y0031455D01*
X0082833Y0030457D02*
X0092095Y0030457D01*
X0086279Y0024466D02*
X0113933Y0024466D01*
X0113933Y0025464D02*
X0085280Y0025464D01*
X0084282Y0026463D02*
X0113933Y0026463D01*
X0113933Y0027461D02*
X0083283Y0027461D01*
X0087277Y0023467D02*
X0113933Y0023467D01*
X0113933Y0022469D02*
X0088276Y0022469D01*
X0089274Y0021470D02*
X0113933Y0021470D01*
X0113933Y0020472D02*
X0090273Y0020472D01*
X0091271Y0019473D02*
X0113933Y0019473D01*
X0113933Y0018475D02*
X0092270Y0018475D01*
X0093268Y0017476D02*
X0113933Y0017476D01*
X0113933Y0016478D02*
X0094267Y0016478D01*
X0098235Y0015479D02*
X0101314Y0015479D01*
X0100316Y0014481D02*
X0099234Y0014481D01*
X0103333Y0014481D02*
X0103933Y0014481D01*
X0103933Y0015479D02*
X0103333Y0015479D01*
X0103933Y0016100D02*
X0103933Y0012300D01*
X0107733Y0012300D01*
X0107733Y0013698D01*
X0105332Y0016100D01*
X0103933Y0016100D01*
X0105952Y0015479D02*
X0113933Y0015479D01*
X0113933Y0014481D02*
X0106951Y0014481D01*
X0107733Y0013482D02*
X0113933Y0013482D01*
X0113933Y0012484D02*
X0107733Y0012484D01*
X0107733Y0011485D02*
X0113933Y0011485D01*
X0113933Y0010487D02*
X0107733Y0010487D01*
X0106920Y0009488D02*
X0113933Y0009488D01*
X0113933Y0008490D02*
X0105921Y0008490D01*
X0103933Y0008490D02*
X0103333Y0008490D01*
X0103333Y0009488D02*
X0103933Y0009488D01*
X0103933Y0010487D02*
X0103333Y0010487D01*
X0103333Y0011485D02*
X0103933Y0011485D01*
X0103933Y0012484D02*
X0103333Y0012484D01*
X0103333Y0013482D02*
X0103933Y0013482D01*
X0100347Y0009488D02*
X0099203Y0009488D01*
X0098204Y0008490D02*
X0101345Y0008490D01*
X0093063Y0008490D02*
X0053492Y0008490D01*
X0053007Y0008850D02*
X0056858Y0005000D01*
X0052523Y0008490D02*
X0039216Y0008490D01*
X0039216Y0009488D02*
X0047742Y0009488D01*
X0047966Y0010487D02*
X0038991Y0010487D01*
X0038578Y0011485D02*
X0048401Y0011485D01*
X0049145Y0012484D02*
X0037861Y0012484D01*
X0036862Y0013482D02*
X0050423Y0013482D01*
X0052523Y0013482D02*
X0053492Y0013482D01*
X0053492Y0012484D02*
X0052523Y0012484D01*
X0052523Y0011485D02*
X0053492Y0011485D01*
X0053492Y0010487D02*
X0052523Y0010487D01*
X0052523Y0009488D02*
X0053492Y0009488D01*
X0047876Y0007491D02*
X0039106Y0007491D01*
X0038692Y0006493D02*
X0048260Y0006493D01*
X0030570Y0013482D02*
X0017177Y0013482D01*
X0018176Y0012484D02*
X0029571Y0012484D01*
X0028854Y0011485D02*
X0018893Y0011485D01*
X0019306Y0010487D02*
X0028441Y0010487D01*
X0028216Y0009488D02*
X0019531Y0009488D01*
X0019531Y0008490D02*
X0028216Y0008490D01*
X0028326Y0007491D02*
X0019421Y0007491D01*
X0019007Y0006493D02*
X0028740Y0006493D01*
X0010885Y0013482D02*
X0008133Y0013482D01*
X0008133Y0012484D02*
X0009886Y0012484D01*
X0009169Y0011485D02*
X0008133Y0011485D01*
X0008133Y0010487D02*
X0008756Y0010487D01*
X0008531Y0009488D02*
X0008133Y0009488D01*
X0008133Y0008490D02*
X0008531Y0008490D01*
X0008641Y0007491D02*
X0008133Y0007491D01*
X0008133Y0006493D02*
X0009054Y0006493D01*
X0082833Y0038445D02*
X0113933Y0038445D01*
X0113933Y0039443D02*
X0082833Y0039443D01*
X0082833Y0040442D02*
X0113933Y0040442D01*
X0113933Y0041440D02*
X0082833Y0041440D01*
X0082833Y0042439D02*
X0113933Y0042439D01*
X0113933Y0043437D02*
X0082833Y0043437D01*
X0082833Y0044436D02*
X0113933Y0044436D01*
X0113933Y0045434D02*
X0102495Y0045434D01*
X0100963Y0044800D02*
X0104345Y0046201D01*
X0106933Y0048789D01*
X0108333Y0052170D01*
X0108333Y0055830D01*
X0106933Y0059211D01*
X0104345Y0061799D01*
X0100963Y0063200D01*
X0097303Y0063200D01*
X0093922Y0061799D01*
X0091334Y0059211D01*
X0089933Y0055830D01*
X0089933Y0052170D01*
X0091334Y0048789D01*
X0093922Y0046201D01*
X0097303Y0044800D01*
X0100963Y0044800D01*
X0104577Y0046433D02*
X0113933Y0046433D01*
X0113933Y0047432D02*
X0105576Y0047432D01*
X0106574Y0048430D02*
X0113933Y0048430D01*
X0113933Y0049429D02*
X0107198Y0049429D01*
X0107611Y0050427D02*
X0113933Y0050427D01*
X0113933Y0051426D02*
X0108025Y0051426D01*
X0108333Y0052424D02*
X0113933Y0052424D01*
X0113933Y0053423D02*
X0108333Y0053423D01*
X0108333Y0054421D02*
X0113933Y0054421D01*
X0113933Y0055420D02*
X0108333Y0055420D01*
X0108090Y0056418D02*
X0113933Y0056418D01*
X0113933Y0057417D02*
X0107676Y0057417D01*
X0107263Y0058415D02*
X0113933Y0058415D01*
X0113933Y0059414D02*
X0106730Y0059414D01*
X0105732Y0060412D02*
X0113933Y0060412D01*
X0113933Y0061411D02*
X0104733Y0061411D01*
X0102872Y0062409D02*
X0113933Y0062409D01*
X0113933Y0063408D02*
X0087833Y0063408D01*
X0087833Y0064406D02*
X0113933Y0064406D01*
X0113933Y0065405D02*
X0087833Y0065405D01*
X0087833Y0066403D02*
X0113933Y0066403D01*
X0113933Y0067402D02*
X0087833Y0067402D01*
X0087833Y0068400D02*
X0113933Y0068400D01*
X0113933Y0069399D02*
X0087833Y0069399D01*
X0088142Y0070397D02*
X0113933Y0070397D01*
X0113933Y0071396D02*
X0089140Y0071396D01*
X0090139Y0072394D02*
X0113933Y0072394D01*
X0113933Y0073393D02*
X0091137Y0073393D01*
X0092136Y0074391D02*
X0113933Y0074391D01*
X0113933Y0075390D02*
X0093134Y0075390D01*
X0094133Y0076388D02*
X0113933Y0076388D01*
X0113933Y0077387D02*
X0095131Y0077387D01*
X0096130Y0078385D02*
X0113933Y0078385D01*
X0113933Y0079384D02*
X0097128Y0079384D01*
X0098127Y0080382D02*
X0113933Y0080382D01*
X0113933Y0081381D02*
X0099125Y0081381D01*
X0100124Y0082379D02*
X0113933Y0082379D01*
X0113933Y0083378D02*
X0101123Y0083378D01*
X0102121Y0084376D02*
X0113933Y0084376D01*
X0113933Y0085375D02*
X0103120Y0085375D01*
X0104118Y0086373D02*
X0113933Y0086373D01*
X0113933Y0087372D02*
X0105117Y0087372D01*
X0106115Y0088370D02*
X0113933Y0088370D01*
X0113933Y0089369D02*
X0107114Y0089369D01*
X0108112Y0090368D02*
X0113933Y0090368D01*
X0113933Y0091366D02*
X0109111Y0091366D01*
X0110109Y0092365D02*
X0113933Y0092365D01*
X0113933Y0093363D02*
X0111108Y0093363D01*
X0112106Y0094362D02*
X0113933Y0094362D01*
X0113933Y0095360D02*
X0113105Y0095360D01*
X0108879Y0097357D02*
X0108473Y0097357D01*
X0107881Y0096359D02*
X0082833Y0096359D01*
X0082833Y0097357D02*
X0103794Y0097357D01*
X0102913Y0098356D02*
X0082833Y0098356D01*
X0082833Y0099354D02*
X0102500Y0099354D01*
X0106882Y0095360D02*
X0082833Y0095360D01*
X0082833Y0094362D02*
X0105884Y0094362D01*
X0104885Y0093363D02*
X0082833Y0093363D01*
X0082833Y0092365D02*
X0103887Y0092365D01*
X0102888Y0091366D02*
X0082833Y0091366D01*
X0082833Y0090368D02*
X0101890Y0090368D01*
X0100891Y0089369D02*
X0082833Y0089369D01*
X0082833Y0088370D02*
X0099893Y0088370D01*
X0098894Y0087372D02*
X0082833Y0087372D01*
X0082833Y0086373D02*
X0097896Y0086373D01*
X0096897Y0085375D02*
X0082833Y0085375D01*
X0082833Y0084376D02*
X0095898Y0084376D01*
X0094900Y0083378D02*
X0082833Y0083378D01*
X0082833Y0082379D02*
X0093901Y0082379D01*
X0092903Y0081381D02*
X0082833Y0081381D01*
X0082833Y0080382D02*
X0091904Y0080382D01*
X0090906Y0079384D02*
X0082833Y0079384D01*
X0082833Y0078385D02*
X0089907Y0078385D01*
X0088909Y0077387D02*
X0082833Y0077387D01*
X0082833Y0076388D02*
X0087910Y0076388D01*
X0086912Y0075390D02*
X0082833Y0075390D01*
X0082833Y0074391D02*
X0085913Y0074391D01*
X0084915Y0073393D02*
X0082833Y0073393D01*
X0082833Y0072394D02*
X0083916Y0072394D01*
X0083433Y0071396D02*
X0082833Y0071396D01*
X0082833Y0070397D02*
X0083433Y0070397D01*
X0083433Y0069399D02*
X0082833Y0069399D01*
X0082833Y0068400D02*
X0083433Y0068400D01*
X0083433Y0067402D02*
X0082833Y0067402D01*
X0082833Y0066403D02*
X0083433Y0066403D01*
X0083433Y0065405D02*
X0082833Y0065405D01*
X0082833Y0064406D02*
X0083433Y0064406D01*
X0083433Y0063408D02*
X0082833Y0063408D01*
X0085633Y0059000D02*
X0085633Y0071000D01*
X0116133Y0101500D01*
X0119883Y0102750D02*
X0111133Y0111500D01*
X0108633Y0111500D01*
X0108633Y0119000D01*
X0113633Y0124000D01*
X0116133Y0124000D01*
X0116456Y0124091D01*
X0116456Y0116217D02*
X0124850Y0116217D01*
X0128633Y0120000D01*
X0128633Y0131500D01*
X0132633Y0135500D01*
X0139956Y0143289D02*
X0161233Y0143289D01*
X0160235Y0144287D02*
X0138957Y0144287D01*
X0137959Y0145286D02*
X0159236Y0145286D01*
X0158238Y0146284D02*
X0136960Y0146284D01*
X0135962Y0147283D02*
X0157239Y0147283D01*
X0156241Y0148281D02*
X0134963Y0148281D01*
X0134545Y0148700D02*
X0124062Y0148700D01*
X0124062Y0150779D01*
X0123191Y0151650D01*
X0124062Y0152520D01*
X0124062Y0157567D01*
X0127083Y0160589D01*
X0127083Y0164139D01*
X0128229Y0164613D01*
X0129270Y0165654D01*
X0129833Y0167014D01*
X0129833Y0168486D01*
X0129496Y0169300D01*
X0130972Y0169300D01*
X0131933Y0168339D01*
X0131933Y0167014D01*
X0132497Y0165654D01*
X0133537Y0164613D01*
X0134897Y0164050D01*
X0136369Y0164050D01*
X0137729Y0164613D01*
X0138666Y0165550D01*
X0138972Y0165550D01*
X0166183Y0138339D01*
X0166183Y0137014D01*
X0166747Y0135654D01*
X0167787Y0134613D01*
X0169147Y0134050D01*
X0170619Y0134050D01*
X0171979Y0134613D01*
X0172194Y0134828D01*
X0173418Y0133604D01*
X0173418Y0128898D01*
X0174288Y0128028D01*
X0173418Y0127157D01*
X0173418Y0121024D01*
X0174413Y0120028D01*
X0174732Y0120028D01*
X0174539Y0119977D01*
X0174197Y0119779D01*
X0173917Y0119500D01*
X0173720Y0119158D01*
X0173618Y0118776D01*
X0173618Y0116716D01*
X0180523Y0116716D01*
X0180523Y0115717D01*
X0173618Y0115717D01*
X0173618Y0114609D01*
X0172672Y0115554D01*
X0166539Y0115554D01*
X0165669Y0114684D01*
X0164798Y0115554D01*
X0158665Y0115554D01*
X0157795Y0114684D01*
X0156924Y0115554D01*
X0152083Y0115554D01*
X0152083Y0131161D01*
X0135833Y0147411D01*
X0134545Y0148700D01*
X0133633Y0146500D02*
X0117383Y0146500D01*
X0116456Y0147713D01*
X0108851Y0147283D02*
X0093232Y0147283D01*
X0092818Y0148281D02*
X0108851Y0148281D01*
X0108851Y0149280D02*
X0092364Y0149280D01*
X0092433Y0149211D02*
X0089845Y0151799D01*
X0086463Y0153200D01*
X0082803Y0153200D01*
X0079422Y0151799D01*
X0076834Y0149211D01*
X0075433Y0145830D01*
X0075433Y0142170D01*
X0076834Y0138789D01*
X0079422Y0136201D01*
X0082803Y0134800D01*
X0086463Y0134800D01*
X0089845Y0136201D01*
X0092433Y0138789D01*
X0093833Y0142170D01*
X0093833Y0145830D01*
X0092433Y0149211D01*
X0091366Y0150278D02*
X0108851Y0150278D01*
X0109348Y0151277D02*
X0090367Y0151277D01*
X0088696Y0152275D02*
X0109096Y0152275D01*
X0108851Y0153274D02*
X0057704Y0153274D01*
X0057581Y0153572D02*
X0056005Y0155147D01*
X0053947Y0156000D01*
X0051719Y0156000D01*
X0049661Y0155147D01*
X0048086Y0153572D01*
X0047233Y0151514D01*
X0047233Y0141486D01*
X0048086Y0139428D01*
X0049661Y0137853D01*
X0051719Y0137000D01*
X0053947Y0137000D01*
X0056005Y0137853D01*
X0057581Y0139428D01*
X0058433Y0141486D01*
X0058433Y0151514D01*
X0057581Y0153572D01*
X0056881Y0154272D02*
X0108851Y0154272D01*
X0108851Y0155271D02*
X0102981Y0155271D01*
X0102626Y0154916D02*
X0103662Y0155952D01*
X0104223Y0157307D01*
X0104223Y0158772D01*
X0103662Y0160126D01*
X0103147Y0160641D01*
X0103245Y0160740D01*
X0103627Y0161310D01*
X0103889Y0161944D01*
X0104023Y0162617D01*
X0104023Y0162961D01*
X0104023Y0163304D01*
X0103889Y0163977D01*
X0103627Y0164611D01*
X0103245Y0165182D01*
X0102760Y0165667D01*
X0102189Y0166048D01*
X0101555Y0166311D01*
X0100882Y0166445D01*
X0098555Y0166445D01*
X0098555Y0162961D01*
X0104023Y0162961D01*
X0098555Y0162961D01*
X0098555Y0162961D01*
X0098555Y0162961D01*
X0098555Y0166445D01*
X0096227Y0166445D01*
X0095554Y0166311D01*
X0094920Y0166048D01*
X0094349Y0165667D01*
X0093864Y0165182D01*
X0093483Y0164611D01*
X0093220Y0163977D01*
X0093086Y0163304D01*
X0093086Y0162961D01*
X0098554Y0162961D01*
X0098554Y0162961D01*
X0093086Y0162961D01*
X0093086Y0162617D01*
X0093220Y0161944D01*
X0093483Y0161310D01*
X0093864Y0160740D01*
X0093962Y0160641D01*
X0093447Y0160126D01*
X0092886Y0158772D01*
X0092886Y0157307D01*
X0093447Y0155952D01*
X0094483Y0154916D01*
X0095837Y0154355D01*
X0101272Y0154355D01*
X0102626Y0154916D01*
X0103793Y0156269D02*
X0108851Y0156269D01*
X0108851Y0157268D02*
X0104207Y0157268D01*
X0104223Y0158266D02*
X0108851Y0158266D01*
X0109462Y0159265D02*
X0104019Y0159265D01*
X0103525Y0160263D02*
X0108982Y0160263D01*
X0108851Y0161262D02*
X0103594Y0161262D01*
X0103952Y0162260D02*
X0108851Y0162260D01*
X0108851Y0163259D02*
X0104023Y0163259D01*
X0103773Y0164257D02*
X0108851Y0164257D01*
X0108851Y0165256D02*
X0103171Y0165256D01*
X0101692Y0166254D02*
X0108851Y0166254D01*
X0109577Y0167253D02*
X0008133Y0167253D01*
X0008133Y0168251D02*
X0108868Y0168251D01*
X0108851Y0169250D02*
X0008133Y0169250D01*
X0008133Y0170248D02*
X0108851Y0170248D01*
X0108851Y0171247D02*
X0008133Y0171247D01*
X0008133Y0172245D02*
X0108851Y0172245D01*
X0108851Y0173244D02*
X0008133Y0173244D01*
X0008133Y0174242D02*
X0108851Y0174242D01*
X0109691Y0175241D02*
X0008133Y0175241D01*
X0008133Y0176239D02*
X0183283Y0176239D01*
X0182933Y0177238D02*
X0176133Y0177238D01*
X0176133Y0178237D02*
X0182933Y0178237D01*
X0182666Y0179235D02*
X0176133Y0179235D01*
X0176133Y0180234D02*
X0181860Y0180234D01*
X0181447Y0181232D02*
X0176133Y0181232D01*
X0176133Y0182231D02*
X0181433Y0182231D01*
X0181638Y0183229D02*
X0176133Y0183229D01*
X0176133Y0184228D02*
X0182128Y0184228D01*
X0183253Y0185226D02*
X0176133Y0185226D01*
X0176133Y0186225D02*
X0186433Y0186225D01*
X0186433Y0187223D02*
X0176133Y0187223D01*
X0176133Y0188222D02*
X0186433Y0188222D01*
X0186433Y0189220D02*
X0176133Y0189220D01*
X0176133Y0190219D02*
X0186433Y0190219D01*
X0183532Y0191217D02*
X0176133Y0191217D01*
X0176133Y0192216D02*
X0183268Y0192216D01*
X0183268Y0193214D02*
X0176133Y0193214D01*
X0176133Y0194213D02*
X0183268Y0194213D01*
X0183268Y0195211D02*
X0176133Y0195211D01*
X0176133Y0196210D02*
X0183268Y0196210D01*
X0183650Y0197208D02*
X0176133Y0197208D01*
X0176133Y0198207D02*
X0183268Y0198207D01*
X0183268Y0199205D02*
X0176133Y0199205D01*
X0176133Y0200204D02*
X0183268Y0200204D01*
X0183268Y0201202D02*
X0176133Y0201202D01*
X0187133Y0200846D02*
X0190787Y0200846D01*
X0192133Y0199500D01*
X0192133Y0193500D01*
X0196383Y0189250D01*
X0192683Y0189220D02*
X0190833Y0189220D01*
X0190833Y0188222D02*
X0192804Y0188222D01*
X0192683Y0188514D02*
X0193247Y0187154D01*
X0194287Y0186113D01*
X0195647Y0185550D01*
X0197119Y0185550D01*
X0198479Y0186113D01*
X0199520Y0187154D01*
X0200083Y0188514D01*
X0200083Y0189986D01*
X0199520Y0191346D01*
X0198479Y0192387D01*
X0197119Y0192950D01*
X0195795Y0192950D01*
X0194333Y0194411D01*
X0194333Y0200411D01*
X0192987Y0201758D01*
X0192784Y0201961D01*
X0200023Y0201961D01*
X0198933Y0199330D01*
X0198933Y0195670D01*
X0200334Y0192289D01*
X0202922Y0189701D01*
X0206303Y0188300D01*
X0209963Y0188300D01*
X0212834Y0189489D01*
X0212834Y0182179D01*
X0212187Y0182389D01*
X0211487Y0182500D01*
X0208633Y0182500D01*
X0208633Y0178500D01*
X0207633Y0178500D01*
X0207633Y0177500D01*
X0200656Y0177500D01*
X0200744Y0176946D01*
X0200963Y0176273D01*
X0201285Y0175641D01*
X0201701Y0175068D01*
X0202202Y0174568D01*
X0202775Y0174151D01*
X0203406Y0173830D01*
X0204080Y0173611D01*
X0204779Y0173500D01*
X0207633Y0173500D01*
X0207633Y0177500D01*
X0208633Y0177500D01*
X0208633Y0173500D01*
X0211487Y0173500D01*
X0212187Y0173611D01*
X0212834Y0173821D01*
X0212834Y0172383D01*
X0212068Y0172700D01*
X0204198Y0172700D01*
X0202471Y0171984D01*
X0201149Y0170662D01*
X0200433Y0168935D01*
X0200433Y0167065D01*
X0201149Y0165338D01*
X0202471Y0164016D01*
X0204198Y0163300D01*
X0212068Y0163300D01*
X0212834Y0163617D01*
X0212834Y0162383D01*
X0212068Y0162700D01*
X0204198Y0162700D01*
X0202471Y0161984D01*
X0201149Y0160662D01*
X0200433Y0158935D01*
X0200433Y0157065D01*
X0201149Y0155338D01*
X0202471Y0154016D01*
X0204198Y0153300D01*
X0212068Y0153300D01*
X0212834Y0153617D01*
X0212834Y0152383D01*
X0212068Y0152700D01*
X0204198Y0152700D01*
X0202471Y0151984D01*
X0201149Y0150662D01*
X0200433Y0148935D01*
X0200433Y0147065D01*
X0201149Y0145338D01*
X0201754Y0144732D01*
X0199069Y0142046D01*
X0198499Y0142046D01*
X0198499Y0142519D01*
X0197503Y0143515D01*
X0191764Y0143515D01*
X0190768Y0142519D01*
X0190768Y0142450D01*
X0190195Y0142450D01*
X0190833Y0143089D01*
X0190833Y0145589D01*
X0195230Y0149985D01*
X0198003Y0149985D01*
X0198999Y0150981D01*
X0198999Y0156326D01*
X0198325Y0157000D01*
X0198999Y0157674D01*
X0198999Y0163019D01*
X0198003Y0164015D01*
X0197631Y0164015D01*
X0198020Y0164404D01*
X0198583Y0165764D01*
X0198583Y0167236D01*
X0198020Y0168596D01*
X0197131Y0169485D01*
X0198003Y0169485D01*
X0198999Y0170481D01*
X0198999Y0175826D01*
X0198325Y0176500D01*
X0198999Y0177174D01*
X0198999Y0182519D01*
X0198003Y0183515D01*
X0194730Y0183515D01*
X0190833Y0187411D01*
X0190833Y0191316D01*
X0190999Y0191481D01*
X0190999Y0191523D01*
X0192683Y0189839D01*
X0192683Y0188514D01*
X0193218Y0187223D02*
X0191021Y0187223D01*
X0192020Y0186225D02*
X0194176Y0186225D01*
X0193019Y0185226D02*
X0212834Y0185226D01*
X0212834Y0184228D02*
X0194017Y0184228D01*
X0194883Y0180250D02*
X0195133Y0179846D01*
X0194883Y0180250D02*
X0188633Y0186500D01*
X0188633Y0192750D01*
X0187383Y0194000D01*
X0187133Y0194154D01*
X0190833Y0191217D02*
X0191305Y0191217D01*
X0190833Y0190219D02*
X0192303Y0190219D01*
X0195530Y0193214D02*
X0199951Y0193214D01*
X0199537Y0194213D02*
X0194532Y0194213D01*
X0194333Y0195211D02*
X0199123Y0195211D01*
X0198933Y0196210D02*
X0194333Y0196210D01*
X0194333Y0197208D02*
X0198933Y0197208D01*
X0198933Y0198207D02*
X0194333Y0198207D01*
X0194333Y0199205D02*
X0198933Y0199205D01*
X0199295Y0200204D02*
X0194333Y0200204D01*
X0193542Y0201202D02*
X0199709Y0201202D01*
X0192987Y0201758D02*
X0192987Y0201758D01*
X0187383Y0200250D02*
X0187133Y0200846D01*
X0198650Y0192216D02*
X0200407Y0192216D01*
X0199573Y0191217D02*
X0201405Y0191217D01*
X0202404Y0190219D02*
X0199987Y0190219D01*
X0200083Y0189220D02*
X0204082Y0189220D01*
X0199962Y0188222D02*
X0212834Y0188222D01*
X0212834Y0189220D02*
X0212185Y0189220D01*
X0212834Y0187223D02*
X0199549Y0187223D01*
X0198591Y0186225D02*
X0212834Y0186225D01*
X0212834Y0183229D02*
X0198289Y0183229D01*
X0198999Y0182231D02*
X0203591Y0182231D01*
X0203406Y0182170D02*
X0202775Y0181849D01*
X0202202Y0181432D01*
X0201701Y0180932D01*
X0201285Y0180359D01*
X0200963Y0179727D01*
X0200744Y0179054D01*
X0200656Y0178500D01*
X0207633Y0178500D01*
X0207633Y0182500D01*
X0204779Y0182500D01*
X0204080Y0182389D01*
X0203406Y0182170D01*
X0202001Y0181232D02*
X0198999Y0181232D01*
X0198999Y0180234D02*
X0201221Y0180234D01*
X0200803Y0179235D02*
X0198999Y0179235D01*
X0198999Y0178237D02*
X0207633Y0178237D01*
X0207633Y0179235D02*
X0208633Y0179235D01*
X0208633Y0180234D02*
X0207633Y0180234D01*
X0207633Y0181232D02*
X0208633Y0181232D01*
X0208633Y0182231D02*
X0207633Y0182231D01*
X0207633Y0177238D02*
X0208633Y0177238D01*
X0208633Y0176239D02*
X0207633Y0176239D01*
X0207633Y0175241D02*
X0208633Y0175241D01*
X0208633Y0174242D02*
X0207633Y0174242D01*
X0203101Y0172245D02*
X0198999Y0172245D01*
X0198999Y0171247D02*
X0201733Y0171247D01*
X0200977Y0170248D02*
X0198766Y0170248D01*
X0197366Y0169250D02*
X0200564Y0169250D01*
X0200433Y0168251D02*
X0198163Y0168251D01*
X0198576Y0167253D02*
X0200433Y0167253D01*
X0200769Y0166254D02*
X0198583Y0166254D01*
X0198373Y0165256D02*
X0201231Y0165256D01*
X0202229Y0164257D02*
X0197873Y0164257D01*
X0198759Y0163259D02*
X0212834Y0163259D01*
X0203137Y0162260D02*
X0198999Y0162260D01*
X0198999Y0161262D02*
X0201748Y0161262D01*
X0200984Y0160263D02*
X0198999Y0160263D01*
X0198999Y0159265D02*
X0200570Y0159265D01*
X0200433Y0158266D02*
X0198999Y0158266D01*
X0198593Y0157268D02*
X0200433Y0157268D01*
X0200763Y0156269D02*
X0198999Y0156269D01*
X0198999Y0155271D02*
X0201216Y0155271D01*
X0202214Y0154272D02*
X0198999Y0154272D01*
X0198999Y0153274D02*
X0212834Y0153274D01*
X0208133Y0148000D02*
X0199980Y0139846D01*
X0194633Y0139846D01*
X0193633Y0140250D01*
X0181133Y0140250D01*
X0181023Y0139839D01*
X0187758Y0135902D02*
X0188629Y0135031D01*
X0188629Y0128898D01*
X0187758Y0128028D01*
X0188336Y0127450D01*
X0191199Y0127450D01*
X0191764Y0128015D01*
X0197503Y0128015D01*
X0198499Y0127019D01*
X0198499Y0121674D01*
X0197674Y0120849D01*
X0197720Y0120822D01*
X0197999Y0120543D01*
X0198196Y0120201D01*
X0198299Y0119820D01*
X0198299Y0118138D01*
X0195118Y0118138D01*
X0195118Y0117169D01*
X0198299Y0117169D01*
X0198299Y0115488D01*
X0198196Y0115106D01*
X0197999Y0114764D01*
X0197720Y0114485D01*
X0197378Y0114287D01*
X0196996Y0114185D01*
X0195118Y0114185D01*
X0195118Y0117169D01*
X0194149Y0117169D01*
X0194149Y0114185D01*
X0192270Y0114185D01*
X0191889Y0114287D01*
X0191547Y0114485D01*
X0191268Y0114764D01*
X0191070Y0115106D01*
X0190968Y0115488D01*
X0190968Y0117169D01*
X0194149Y0117169D01*
X0194149Y0118138D01*
X0190968Y0118138D01*
X0190968Y0119820D01*
X0191070Y0120201D01*
X0191268Y0120543D01*
X0191547Y0120822D01*
X0191593Y0120849D01*
X0190768Y0121674D01*
X0190768Y0123050D01*
X0188629Y0123050D01*
X0188629Y0121024D01*
X0187633Y0120028D01*
X0187314Y0120028D01*
X0187508Y0119977D01*
X0187850Y0119779D01*
X0188129Y0119500D01*
X0188326Y0119158D01*
X0188429Y0118776D01*
X0188429Y0116716D01*
X0181523Y0116716D01*
X0181523Y0115717D01*
X0188429Y0115717D01*
X0188429Y0113657D01*
X0188326Y0113275D01*
X0188129Y0112933D01*
X0187850Y0112654D01*
X0187508Y0112457D01*
X0187126Y0112354D01*
X0181523Y0112354D01*
X0181523Y0115716D01*
X0180523Y0115716D01*
X0180523Y0112354D01*
X0174920Y0112354D01*
X0174539Y0112457D01*
X0174197Y0112654D01*
X0173917Y0112933D01*
X0173720Y0113275D01*
X0173668Y0113469D01*
X0173668Y0102450D01*
X0183795Y0102450D01*
X0185545Y0100700D01*
X0186833Y0099411D01*
X0186833Y0078589D01*
X0183987Y0075742D01*
X0183987Y0070865D01*
X0184460Y0070865D01*
X0185133Y0070192D01*
X0185807Y0070865D01*
X0191152Y0070865D01*
X0192148Y0069870D01*
X0192148Y0068998D01*
X0192787Y0069637D01*
X0194147Y0070200D01*
X0195619Y0070200D01*
X0196979Y0069637D01*
X0198020Y0068596D01*
X0198583Y0067236D01*
X0198583Y0065764D01*
X0198020Y0064404D01*
X0196979Y0063363D01*
X0195619Y0062800D01*
X0194147Y0062800D01*
X0192787Y0063363D01*
X0192084Y0064066D01*
X0191152Y0063135D01*
X0185807Y0063135D01*
X0185133Y0063808D01*
X0184460Y0063135D01*
X0179114Y0063135D01*
X0178118Y0064130D01*
X0178118Y0069870D01*
X0179114Y0070865D01*
X0179587Y0070865D01*
X0179587Y0077565D01*
X0180876Y0078854D01*
X0182433Y0080411D01*
X0182433Y0097589D01*
X0181972Y0098050D01*
X0178664Y0098050D01*
X0179779Y0096936D01*
X0180433Y0095355D01*
X0180433Y0093645D01*
X0179779Y0092064D01*
X0178569Y0090855D01*
X0176989Y0090200D01*
X0170078Y0090200D01*
X0168498Y0090855D01*
X0167288Y0092064D01*
X0167190Y0092300D01*
X0164285Y0092300D01*
X0157133Y0085148D01*
X0157133Y0080146D01*
X0156137Y0079150D01*
X0149610Y0079150D01*
X0149133Y0079627D01*
X0148656Y0079150D01*
X0142130Y0079150D01*
X0141134Y0080146D01*
X0141134Y0087854D01*
X0142130Y0088850D01*
X0142683Y0088850D01*
X0142683Y0090550D01*
X0139566Y0090550D01*
X0139770Y0090346D01*
X0140333Y0088986D01*
X0140333Y0087514D01*
X0139770Y0086154D01*
X0138833Y0085217D01*
X0138833Y0060411D01*
X0142045Y0057200D01*
X0178118Y0057200D01*
X0178118Y0057870D01*
X0179114Y0058865D01*
X0184460Y0058865D01*
X0185133Y0058192D01*
X0185807Y0058865D01*
X0191152Y0058865D01*
X0192148Y0057870D01*
X0192148Y0056200D01*
X0200257Y0056200D01*
X0200620Y0056563D01*
X0200521Y0056661D01*
X0200140Y0057231D01*
X0199877Y0057866D01*
X0199744Y0058539D01*
X0199744Y0058882D01*
X0205212Y0058882D01*
X0205212Y0058882D01*
X0208751Y0058882D01*
X0210633Y0057000D01*
X0210633Y0051000D01*
X0208633Y0049000D01*
X0205251Y0049000D01*
X0205212Y0049039D01*
X0199744Y0049039D01*
X0199744Y0048696D01*
X0199877Y0048023D01*
X0200140Y0047389D01*
X0200521Y0046818D01*
X0200620Y0046720D01*
X0200104Y0046205D01*
X0199544Y0044851D01*
X0199544Y0043385D01*
X0200104Y0042031D01*
X0200478Y0041657D01*
X0200104Y0041284D01*
X0199544Y0039930D01*
X0199544Y0038464D01*
X0200104Y0037110D01*
X0201141Y0036073D01*
X0202495Y0035513D01*
X0202933Y0035513D01*
X0202933Y0025911D01*
X0198983Y0021961D01*
X0198983Y0026523D01*
X0198506Y0027000D01*
X0198983Y0027477D01*
X0198983Y0034003D01*
X0197987Y0034999D01*
X0190280Y0034999D01*
X0189284Y0034003D01*
X0189284Y0032940D01*
X0156554Y0032940D01*
X0127992Y0061503D01*
X0128345Y0062355D01*
X0128345Y0064676D01*
X0127457Y0066820D01*
X0125816Y0068461D01*
X0124711Y0068919D01*
X0124711Y0079467D01*
X0124958Y0079713D01*
X0129806Y0079713D01*
X0130802Y0080709D01*
X0130802Y0087629D01*
X0130056Y0088375D01*
X0132933Y0088375D01*
X0132933Y0087514D01*
X0133497Y0086154D01*
X0134433Y0085217D01*
X0134433Y0058589D01*
X0138933Y0054089D01*
X0140222Y0052800D01*
X0178118Y0052800D01*
X0178118Y0052130D01*
X0179114Y0051135D01*
X0184460Y0051135D01*
X0185133Y0051808D01*
X0185807Y0051135D01*
X0191152Y0051135D01*
X0191818Y0051800D01*
X0200178Y0051800D01*
X0200620Y0051359D01*
X0200521Y0051260D01*
X0200140Y0050690D01*
X0199877Y0050056D01*
X0199744Y0049383D01*
X0199744Y0049039D01*
X0205212Y0049039D01*
X0205212Y0049039D01*
X0205212Y0049039D01*
X0210681Y0049039D01*
X0210681Y0048696D01*
X0210547Y0048023D01*
X0210284Y0047389D01*
X0209903Y0046818D01*
X0209805Y0046720D01*
X0210320Y0046205D01*
X0210881Y0044851D01*
X0210881Y0043385D01*
X0210320Y0042031D01*
X0209946Y0041657D01*
X0210320Y0041284D01*
X0210881Y0039930D01*
X0210881Y0038464D01*
X0210320Y0037110D01*
X0209283Y0036073D01*
X0207929Y0035513D01*
X0207333Y0035513D01*
X0207333Y0024089D01*
X0206045Y0022800D01*
X0189245Y0006000D01*
X0200246Y0006000D01*
X0198933Y0009170D01*
X0198933Y0012830D01*
X0200334Y0016211D01*
X0202922Y0018799D01*
X0206303Y0020200D01*
X0209963Y0020200D01*
X0212834Y0019011D01*
X0212834Y0080467D01*
X0212189Y0080200D01*
X0205278Y0080200D01*
X0203698Y0080855D01*
X0202488Y0082064D01*
X0202390Y0082300D01*
X0201222Y0082300D01*
X0199933Y0083589D01*
X0199933Y0083589D01*
X0198933Y0084589D01*
X0198933Y0102411D01*
X0204784Y0108262D01*
X0204784Y0110023D01*
X0205261Y0110500D01*
X0204784Y0110977D01*
X0204784Y0117503D01*
X0205780Y0118499D01*
X0206433Y0118499D01*
X0206433Y0123300D01*
X0204198Y0123300D01*
X0202471Y0124016D01*
X0201149Y0125338D01*
X0200433Y0127065D01*
X0200433Y0128935D01*
X0201102Y0130550D01*
X0198499Y0130550D01*
X0198499Y0130481D01*
X0197503Y0129485D01*
X0191764Y0129485D01*
X0190768Y0130481D01*
X0190768Y0135826D01*
X0191442Y0136500D01*
X0190768Y0137174D01*
X0190768Y0138050D01*
X0188629Y0138050D01*
X0188629Y0136772D01*
X0187758Y0135902D01*
X0188155Y0136299D02*
X0191241Y0136299D01*
X0190768Y0135301D02*
X0188359Y0135301D01*
X0188629Y0134302D02*
X0190768Y0134302D01*
X0190768Y0133303D02*
X0188629Y0133303D01*
X0188629Y0132305D02*
X0190768Y0132305D01*
X0190768Y0131306D02*
X0188629Y0131306D01*
X0188629Y0130308D02*
X0190941Y0130308D01*
X0188629Y0129309D02*
X0200588Y0129309D01*
X0200433Y0128311D02*
X0188041Y0128311D01*
X0193633Y0125250D02*
X0194633Y0124346D01*
X0193633Y0125250D02*
X0181133Y0125250D01*
X0181023Y0124091D01*
X0181133Y0116500D02*
X0181023Y0116217D01*
X0172917Y0116217D01*
X0170633Y0118500D01*
X0172896Y0115330D02*
X0173618Y0115330D01*
X0173618Y0117327D02*
X0152083Y0117327D01*
X0152083Y0116329D02*
X0180523Y0116329D01*
X0181133Y0116500D02*
X0193633Y0116500D01*
X0194633Y0117654D01*
X0194883Y0116500D01*
X0198633Y0112750D01*
X0198633Y0059000D01*
X0204883Y0059000D01*
X0205212Y0058882D01*
X0199744Y0058882D01*
X0199744Y0059225D01*
X0199877Y0059898D01*
X0200140Y0060532D01*
X0200521Y0061103D01*
X0200620Y0061201D01*
X0200104Y0061716D01*
X0199544Y0063070D01*
X0199544Y0064536D01*
X0200104Y0065890D01*
X0201141Y0066927D01*
X0202495Y0067487D01*
X0207929Y0067487D01*
X0209283Y0066927D01*
X0210320Y0065890D01*
X0210881Y0064536D01*
X0210881Y0063070D01*
X0210320Y0061716D01*
X0209805Y0061201D01*
X0209903Y0061103D01*
X0210284Y0060532D01*
X0210547Y0059898D01*
X0210681Y0059225D01*
X0210681Y0058882D01*
X0205212Y0058882D01*
X0205212Y0058882D01*
X0210681Y0058882D01*
X0210681Y0058539D01*
X0210547Y0057866D01*
X0210284Y0057231D01*
X0209903Y0056661D01*
X0209805Y0056563D01*
X0210320Y0056048D01*
X0210881Y0054693D01*
X0210881Y0053228D01*
X0210320Y0051874D01*
X0209805Y0051359D01*
X0209903Y0051260D01*
X0210284Y0050690D01*
X0210547Y0050056D01*
X0210681Y0049383D01*
X0210681Y0049039D01*
X0205212Y0049039D01*
X0205212Y0053961D02*
X0204883Y0054000D01*
X0188633Y0054000D01*
X0188480Y0055000D01*
X0192148Y0056418D02*
X0200475Y0056418D01*
X0200063Y0057417D02*
X0192148Y0057417D01*
X0191603Y0058415D02*
X0199768Y0058415D01*
X0199781Y0059414D02*
X0173904Y0059414D01*
X0174701Y0060211D02*
X0175589Y0062355D01*
X0175589Y0064676D01*
X0174701Y0066820D01*
X0173060Y0068461D01*
X0170916Y0069350D01*
X0168595Y0069350D01*
X0166451Y0068461D01*
X0164810Y0066820D01*
X0163922Y0064676D01*
X0163922Y0062355D01*
X0164810Y0060211D01*
X0166451Y0058570D01*
X0168595Y0057682D01*
X0170916Y0057682D01*
X0173060Y0058570D01*
X0174701Y0060211D01*
X0174784Y0060412D02*
X0200090Y0060412D01*
X0200410Y0061411D02*
X0175198Y0061411D01*
X0175589Y0062409D02*
X0199817Y0062409D01*
X0199544Y0063408D02*
X0197024Y0063408D01*
X0198021Y0064406D02*
X0199544Y0064406D01*
X0199903Y0065405D02*
X0198434Y0065405D01*
X0198583Y0066403D02*
X0200618Y0066403D01*
X0202288Y0067402D02*
X0198515Y0067402D01*
X0198101Y0068400D02*
X0212834Y0068400D01*
X0212834Y0067402D02*
X0208136Y0067402D01*
X0209807Y0066403D02*
X0212834Y0066403D01*
X0212834Y0065405D02*
X0210521Y0065405D01*
X0210881Y0064406D02*
X0212834Y0064406D01*
X0212834Y0063408D02*
X0210881Y0063408D01*
X0210607Y0062409D02*
X0212834Y0062409D01*
X0212834Y0061411D02*
X0210014Y0061411D01*
X0210334Y0060412D02*
X0212834Y0060412D01*
X0212834Y0059414D02*
X0210643Y0059414D01*
X0210656Y0058415D02*
X0212834Y0058415D01*
X0212834Y0057417D02*
X0210361Y0057417D01*
X0209949Y0056418D02*
X0212834Y0056418D01*
X0212834Y0055420D02*
X0210580Y0055420D01*
X0210881Y0054421D02*
X0212834Y0054421D01*
X0212834Y0053423D02*
X0210881Y0053423D01*
X0210548Y0052424D02*
X0212834Y0052424D01*
X0212834Y0051426D02*
X0209872Y0051426D01*
X0210393Y0050427D02*
X0212834Y0050427D01*
X0212834Y0049429D02*
X0210671Y0049429D01*
X0210628Y0048430D02*
X0212834Y0048430D01*
X0212834Y0047432D02*
X0210302Y0047432D01*
X0210092Y0046433D02*
X0212834Y0046433D01*
X0212834Y0045434D02*
X0210639Y0045434D01*
X0210881Y0044436D02*
X0212834Y0044436D01*
X0212834Y0043437D02*
X0210881Y0043437D01*
X0210489Y0042439D02*
X0212834Y0042439D01*
X0212834Y0041440D02*
X0210163Y0041440D01*
X0210668Y0040442D02*
X0212834Y0040442D01*
X0212834Y0039443D02*
X0210881Y0039443D01*
X0210873Y0038445D02*
X0212834Y0038445D01*
X0212834Y0037446D02*
X0210459Y0037446D01*
X0209658Y0036448D02*
X0212834Y0036448D01*
X0212834Y0035449D02*
X0207333Y0035449D01*
X0207333Y0034451D02*
X0212834Y0034451D01*
X0212834Y0033452D02*
X0207333Y0033452D01*
X0207333Y0032454D02*
X0212834Y0032454D01*
X0212834Y0031455D02*
X0207333Y0031455D01*
X0207333Y0030457D02*
X0212834Y0030457D01*
X0212834Y0029458D02*
X0207333Y0029458D01*
X0207333Y0028460D02*
X0212834Y0028460D01*
X0212834Y0027461D02*
X0207333Y0027461D01*
X0207333Y0026463D02*
X0212834Y0026463D01*
X0212834Y0025464D02*
X0207333Y0025464D01*
X0207333Y0024466D02*
X0212834Y0024466D01*
X0212834Y0023467D02*
X0206712Y0023467D01*
X0205713Y0022469D02*
X0212834Y0022469D01*
X0212834Y0021470D02*
X0204715Y0021470D01*
X0203716Y0020472D02*
X0212834Y0020472D01*
X0212834Y0019473D02*
X0211718Y0019473D01*
X0204549Y0019473D02*
X0202718Y0019473D01*
X0202597Y0018475D02*
X0201719Y0018475D01*
X0201599Y0017476D02*
X0200721Y0017476D01*
X0200600Y0016478D02*
X0199722Y0016478D01*
X0200031Y0015479D02*
X0198724Y0015479D01*
X0199617Y0014481D02*
X0197725Y0014481D01*
X0196727Y0013482D02*
X0199203Y0013482D01*
X0198933Y0012484D02*
X0195728Y0012484D01*
X0194730Y0011485D02*
X0198933Y0011485D01*
X0198933Y0010487D02*
X0193731Y0010487D01*
X0192733Y0009488D02*
X0198933Y0009488D01*
X0199215Y0008490D02*
X0191734Y0008490D01*
X0190736Y0007491D02*
X0199629Y0007491D01*
X0200042Y0006493D02*
X0189737Y0006493D01*
X0186633Y0006500D02*
X0205133Y0025000D01*
X0205133Y0039118D01*
X0205212Y0039197D01*
X0202933Y0035449D02*
X0154045Y0035449D01*
X0155044Y0034451D02*
X0189731Y0034451D01*
X0189284Y0033452D02*
X0156042Y0033452D01*
X0153047Y0036448D02*
X0200766Y0036448D01*
X0199965Y0037446D02*
X0185261Y0037446D01*
X0185069Y0037255D02*
X0186279Y0038464D01*
X0186933Y0040045D01*
X0186933Y0046955D01*
X0186279Y0048536D01*
X0185069Y0049745D01*
X0183489Y0050400D01*
X0181778Y0050400D01*
X0180198Y0049745D01*
X0178988Y0048536D01*
X0178333Y0046955D01*
X0178333Y0040045D01*
X0178988Y0038464D01*
X0180198Y0037255D01*
X0181778Y0036600D01*
X0183489Y0036600D01*
X0185069Y0037255D01*
X0186259Y0038445D02*
X0199551Y0038445D01*
X0199544Y0039443D02*
X0186684Y0039443D01*
X0186933Y0040442D02*
X0199756Y0040442D01*
X0200261Y0041440D02*
X0186933Y0041440D01*
X0186933Y0042439D02*
X0199936Y0042439D01*
X0199544Y0043437D02*
X0186933Y0043437D01*
X0186933Y0044436D02*
X0199544Y0044436D01*
X0199785Y0045434D02*
X0186933Y0045434D01*
X0186933Y0046433D02*
X0200332Y0046433D01*
X0200122Y0047432D02*
X0186736Y0047432D01*
X0186322Y0048430D02*
X0199797Y0048430D01*
X0199753Y0049429D02*
X0185386Y0049429D01*
X0185516Y0051426D02*
X0184750Y0051426D01*
X0181787Y0055000D02*
X0141133Y0055000D01*
X0136633Y0059500D01*
X0136633Y0088250D01*
X0140333Y0088370D02*
X0141651Y0088370D01*
X0141134Y0087372D02*
X0140274Y0087372D01*
X0139861Y0086373D02*
X0141134Y0086373D01*
X0141134Y0085375D02*
X0138991Y0085375D01*
X0138833Y0084376D02*
X0141134Y0084376D01*
X0141134Y0083378D02*
X0138833Y0083378D01*
X0138833Y0082379D02*
X0141134Y0082379D01*
X0141134Y0081381D02*
X0138833Y0081381D01*
X0138833Y0080382D02*
X0141134Y0080382D01*
X0141896Y0079384D02*
X0138833Y0079384D01*
X0138833Y0078385D02*
X0180407Y0078385D01*
X0179587Y0077387D02*
X0138833Y0077387D01*
X0138833Y0076388D02*
X0142956Y0076388D01*
X0142829Y0076335D02*
X0141188Y0074694D01*
X0140299Y0072550D01*
X0140299Y0070229D01*
X0141188Y0068085D01*
X0142829Y0066444D01*
X0144973Y0065556D01*
X0147294Y0065556D01*
X0149438Y0066444D01*
X0151079Y0068085D01*
X0151967Y0070229D01*
X0151967Y0072550D01*
X0151079Y0074694D01*
X0149438Y0076335D01*
X0147294Y0077224D01*
X0144973Y0077224D01*
X0142829Y0076335D01*
X0141883Y0075390D02*
X0138833Y0075390D01*
X0138833Y0074391D02*
X0141062Y0074391D01*
X0140649Y0073393D02*
X0138833Y0073393D01*
X0138833Y0072394D02*
X0140299Y0072394D01*
X0140299Y0071396D02*
X0138833Y0071396D01*
X0138833Y0070397D02*
X0140299Y0070397D01*
X0140643Y0069399D02*
X0138833Y0069399D01*
X0138833Y0068400D02*
X0141057Y0068400D01*
X0141871Y0067402D02*
X0138833Y0067402D01*
X0138833Y0066403D02*
X0142927Y0066403D01*
X0138833Y0065405D02*
X0164223Y0065405D01*
X0163922Y0064406D02*
X0138833Y0064406D01*
X0138833Y0063408D02*
X0163922Y0063408D01*
X0163922Y0062409D02*
X0138833Y0062409D01*
X0138833Y0061411D02*
X0164313Y0061411D01*
X0164726Y0060412D02*
X0138833Y0060412D01*
X0139831Y0059414D02*
X0165607Y0059414D01*
X0166825Y0058415D02*
X0140829Y0058415D01*
X0141828Y0057417D02*
X0178118Y0057417D01*
X0178664Y0058415D02*
X0172686Y0058415D01*
X0175589Y0063408D02*
X0178841Y0063408D01*
X0178118Y0064406D02*
X0175589Y0064406D01*
X0175287Y0065405D02*
X0178118Y0065405D01*
X0178118Y0066403D02*
X0174874Y0066403D01*
X0174120Y0067402D02*
X0178118Y0067402D01*
X0178118Y0068400D02*
X0173121Y0068400D01*
X0166390Y0068400D02*
X0157965Y0068400D01*
X0158479Y0068613D02*
X0159520Y0069654D01*
X0160083Y0071014D01*
X0160083Y0072486D01*
X0159520Y0073846D01*
X0158479Y0074887D01*
X0157119Y0075450D01*
X0155647Y0075450D01*
X0154287Y0074887D01*
X0153247Y0073846D01*
X0152683Y0072486D01*
X0152683Y0071014D01*
X0153247Y0069654D01*
X0154287Y0068613D01*
X0155647Y0068050D01*
X0157119Y0068050D01*
X0158479Y0068613D01*
X0159265Y0069399D02*
X0178118Y0069399D01*
X0178646Y0070397D02*
X0159828Y0070397D01*
X0160083Y0071396D02*
X0179587Y0071396D01*
X0179587Y0072394D02*
X0160083Y0072394D01*
X0159708Y0073393D02*
X0179587Y0073393D01*
X0179587Y0074391D02*
X0158975Y0074391D01*
X0157265Y0075390D02*
X0179587Y0075390D01*
X0179587Y0076388D02*
X0149310Y0076388D01*
X0150384Y0075390D02*
X0155502Y0075390D01*
X0153792Y0074391D02*
X0151205Y0074391D01*
X0151618Y0073393D02*
X0153059Y0073393D01*
X0152683Y0072394D02*
X0151967Y0072394D01*
X0151967Y0071396D02*
X0152683Y0071396D01*
X0152939Y0070397D02*
X0151967Y0070397D01*
X0151623Y0069399D02*
X0153502Y0069399D01*
X0154802Y0068400D02*
X0151210Y0068400D01*
X0150396Y0067402D02*
X0165391Y0067402D01*
X0164637Y0066403D02*
X0149339Y0066403D01*
X0160633Y0059000D02*
X0162633Y0061000D01*
X0162633Y0082500D01*
X0166633Y0083645D02*
X0166633Y0085355D01*
X0167288Y0086936D01*
X0168498Y0088145D01*
X0170078Y0088800D01*
X0176989Y0088800D01*
X0178569Y0088145D01*
X0179779Y0086936D01*
X0180433Y0085355D01*
X0180433Y0083645D01*
X0179779Y0082064D01*
X0178569Y0080855D01*
X0176989Y0080200D01*
X0170078Y0080200D01*
X0168498Y0080855D01*
X0167288Y0082064D01*
X0166633Y0083645D01*
X0166744Y0083378D02*
X0157133Y0083378D01*
X0157133Y0084376D02*
X0166633Y0084376D01*
X0166641Y0085375D02*
X0157360Y0085375D01*
X0158358Y0086373D02*
X0167055Y0086373D01*
X0167724Y0087372D02*
X0159357Y0087372D01*
X0160355Y0088370D02*
X0169041Y0088370D01*
X0169674Y0090368D02*
X0162352Y0090368D01*
X0163351Y0091366D02*
X0167986Y0091366D01*
X0163373Y0094500D02*
X0176133Y0094500D01*
X0180018Y0096359D02*
X0182433Y0096359D01*
X0182433Y0097357D02*
X0179357Y0097357D01*
X0180431Y0095360D02*
X0182433Y0095360D01*
X0182433Y0094362D02*
X0180433Y0094362D01*
X0180317Y0093363D02*
X0182433Y0093363D01*
X0182433Y0092365D02*
X0179903Y0092365D01*
X0179080Y0091366D02*
X0182433Y0091366D01*
X0182433Y0090368D02*
X0177393Y0090368D01*
X0178026Y0088370D02*
X0182433Y0088370D01*
X0182433Y0087372D02*
X0179342Y0087372D01*
X0180012Y0086373D02*
X0182433Y0086373D01*
X0182433Y0085375D02*
X0180425Y0085375D01*
X0180433Y0084376D02*
X0182433Y0084376D01*
X0182433Y0083378D02*
X0180323Y0083378D01*
X0179909Y0082379D02*
X0182433Y0082379D01*
X0182433Y0081381D02*
X0179095Y0081381D01*
X0177429Y0080382D02*
X0182404Y0080382D01*
X0181406Y0079384D02*
X0156370Y0079384D01*
X0157133Y0080382D02*
X0169638Y0080382D01*
X0167971Y0081381D02*
X0157133Y0081381D01*
X0157133Y0082379D02*
X0167157Y0082379D01*
X0161354Y0089369D02*
X0182433Y0089369D01*
X0186833Y0089369D02*
X0198933Y0089369D01*
X0198933Y0088370D02*
X0186833Y0088370D01*
X0186833Y0087372D02*
X0198933Y0087372D01*
X0198933Y0086373D02*
X0186833Y0086373D01*
X0186833Y0085375D02*
X0198933Y0085375D01*
X0199146Y0084376D02*
X0186833Y0084376D01*
X0186833Y0083378D02*
X0200144Y0083378D01*
X0201143Y0082379D02*
X0186833Y0082379D01*
X0186833Y0081381D02*
X0203171Y0081381D01*
X0204838Y0080382D02*
X0186833Y0080382D01*
X0186833Y0079384D02*
X0212834Y0079384D01*
X0212834Y0080382D02*
X0212629Y0080382D01*
X0212834Y0078385D02*
X0186630Y0078385D01*
X0185631Y0077387D02*
X0212834Y0077387D01*
X0212834Y0076388D02*
X0184633Y0076388D01*
X0183987Y0075390D02*
X0212834Y0075390D01*
X0212834Y0074391D02*
X0183987Y0074391D01*
X0183987Y0073393D02*
X0212834Y0073393D01*
X0212834Y0072394D02*
X0183987Y0072394D01*
X0183987Y0071396D02*
X0212834Y0071396D01*
X0212834Y0070397D02*
X0191621Y0070397D01*
X0192148Y0069399D02*
X0192550Y0069399D01*
X0194883Y0066500D02*
X0188633Y0066500D01*
X0188480Y0067000D01*
X0185339Y0070397D02*
X0184928Y0070397D01*
X0181133Y0067750D02*
X0181787Y0067000D01*
X0181787Y0076654D01*
X0184633Y0079500D01*
X0184633Y0098500D01*
X0182883Y0100250D01*
X0149883Y0100250D01*
X0149883Y0130250D01*
X0133633Y0146500D01*
X0140954Y0142290D02*
X0162232Y0142290D01*
X0163230Y0141292D02*
X0141953Y0141292D01*
X0142952Y0140293D02*
X0164229Y0140293D01*
X0165227Y0139295D02*
X0143950Y0139295D01*
X0144949Y0138296D02*
X0166183Y0138296D01*
X0166183Y0137298D02*
X0145947Y0137298D01*
X0146946Y0136299D02*
X0166479Y0136299D01*
X0167100Y0135301D02*
X0147944Y0135301D01*
X0148943Y0134302D02*
X0168539Y0134302D01*
X0171228Y0134302D02*
X0172720Y0134302D01*
X0173418Y0133303D02*
X0149941Y0133303D01*
X0150940Y0132305D02*
X0173418Y0132305D01*
X0173418Y0131306D02*
X0151938Y0131306D01*
X0152083Y0130308D02*
X0173418Y0130308D01*
X0173418Y0129309D02*
X0152083Y0129309D01*
X0152083Y0128311D02*
X0174005Y0128311D01*
X0173573Y0127312D02*
X0152083Y0127312D01*
X0152083Y0126314D02*
X0173418Y0126314D01*
X0173418Y0125315D02*
X0152083Y0125315D01*
X0152083Y0124317D02*
X0173418Y0124317D01*
X0173418Y0123318D02*
X0152083Y0123318D01*
X0152083Y0122320D02*
X0173418Y0122320D01*
X0173418Y0121321D02*
X0152083Y0121321D01*
X0152083Y0120323D02*
X0174119Y0120323D01*
X0173816Y0119324D02*
X0152083Y0119324D01*
X0152083Y0118326D02*
X0173618Y0118326D01*
X0173668Y0113333D02*
X0173704Y0113333D01*
X0173668Y0112335D02*
X0204784Y0112335D01*
X0204784Y0113333D02*
X0188342Y0113333D01*
X0188429Y0114332D02*
X0191812Y0114332D01*
X0191010Y0115330D02*
X0188429Y0115330D01*
X0188429Y0117327D02*
X0194149Y0117327D01*
X0195118Y0117327D02*
X0204784Y0117327D01*
X0204784Y0116329D02*
X0198299Y0116329D01*
X0198257Y0115330D02*
X0204784Y0115330D01*
X0204784Y0114332D02*
X0197455Y0114332D01*
X0195118Y0114332D02*
X0194149Y0114332D01*
X0194149Y0115330D02*
X0195118Y0115330D01*
X0195118Y0116329D02*
X0194149Y0116329D01*
X0198299Y0118326D02*
X0205606Y0118326D01*
X0206433Y0119324D02*
X0198299Y0119324D01*
X0198126Y0120323D02*
X0206433Y0120323D01*
X0206433Y0121321D02*
X0198146Y0121321D01*
X0198499Y0122320D02*
X0206433Y0122320D01*
X0204154Y0123318D02*
X0198499Y0123318D01*
X0198499Y0124317D02*
X0202170Y0124317D01*
X0201171Y0125315D02*
X0198499Y0125315D01*
X0198499Y0126314D02*
X0200744Y0126314D01*
X0200433Y0127312D02*
X0198205Y0127312D01*
X0198326Y0130308D02*
X0201002Y0130308D01*
X0194883Y0132750D02*
X0194633Y0133154D01*
X0194883Y0132750D02*
X0207383Y0132750D01*
X0207383Y0129000D01*
X0208133Y0128000D01*
X0208633Y0127750D01*
X0208633Y0115250D01*
X0209633Y0114240D01*
X0204784Y0111336D02*
X0173668Y0111336D01*
X0173668Y0110338D02*
X0205098Y0110338D01*
X0204784Y0109339D02*
X0173668Y0109339D01*
X0173668Y0108341D02*
X0204784Y0108341D01*
X0203864Y0107342D02*
X0173668Y0107342D01*
X0173668Y0106344D02*
X0202866Y0106344D01*
X0201867Y0105345D02*
X0173668Y0105345D01*
X0173668Y0104347D02*
X0200869Y0104347D01*
X0199870Y0103348D02*
X0173668Y0103348D01*
X0168402Y0098050D02*
X0167288Y0096936D01*
X0167190Y0096700D01*
X0162462Y0096700D01*
X0161173Y0095411D01*
X0154612Y0088850D01*
X0149610Y0088850D01*
X0149133Y0088373D01*
X0148656Y0088850D01*
X0147083Y0088850D01*
X0147083Y0093661D01*
X0145795Y0094950D01*
X0134542Y0094950D01*
X0134542Y0096291D01*
X0133546Y0097287D01*
X0128201Y0097287D01*
X0127205Y0096291D01*
X0127205Y0089371D01*
X0127950Y0088625D01*
X0125747Y0088625D01*
X0125941Y0088677D01*
X0126283Y0088875D01*
X0126562Y0089154D01*
X0126759Y0089496D01*
X0126862Y0089877D01*
X0126862Y0092346D01*
X0123877Y0092346D01*
X0123877Y0088575D01*
X0124410Y0088575D01*
X0123465Y0087629D01*
X0123465Y0084443D01*
X0121600Y0082578D01*
X0120311Y0081289D01*
X0120311Y0068919D01*
X0119207Y0068461D01*
X0118333Y0067588D01*
X0118333Y0095589D01*
X0120795Y0098050D01*
X0122083Y0099339D01*
X0122083Y0103661D01*
X0113590Y0112154D01*
X0123066Y0112154D01*
X0124062Y0113150D01*
X0124062Y0114017D01*
X0125761Y0114017D01*
X0126173Y0114429D01*
X0126173Y0101339D01*
X0127169Y0100343D01*
X0133302Y0100343D01*
X0134173Y0101214D01*
X0135043Y0100343D01*
X0141176Y0100343D01*
X0142047Y0101214D01*
X0142917Y0100343D01*
X0147683Y0100343D01*
X0147683Y0099339D01*
X0148972Y0098050D01*
X0168402Y0098050D01*
X0167709Y0097357D02*
X0120102Y0097357D01*
X0120504Y0096787D02*
X0120224Y0096508D01*
X0120027Y0096166D01*
X0119925Y0095784D01*
X0119925Y0093315D01*
X0122909Y0093315D01*
X0122909Y0097087D01*
X0121227Y0097087D01*
X0120846Y0096984D01*
X0120504Y0096787D01*
X0120138Y0096359D02*
X0119103Y0096359D01*
X0118333Y0095360D02*
X0119925Y0095360D01*
X0119925Y0094362D02*
X0118333Y0094362D01*
X0118333Y0093363D02*
X0119925Y0093363D01*
X0119925Y0092346D02*
X0119925Y0089877D01*
X0120027Y0089496D01*
X0120224Y0089154D01*
X0120504Y0088875D01*
X0120846Y0088677D01*
X0121227Y0088575D01*
X0122909Y0088575D01*
X0122909Y0092346D01*
X0123877Y0092346D01*
X0123877Y0093315D01*
X0122909Y0093315D01*
X0122909Y0092346D01*
X0119925Y0092346D01*
X0119925Y0091366D02*
X0118333Y0091366D01*
X0118333Y0090368D02*
X0119925Y0090368D01*
X0120100Y0089369D02*
X0118333Y0089369D01*
X0118333Y0088370D02*
X0124206Y0088370D01*
X0123877Y0089369D02*
X0122909Y0089369D01*
X0122909Y0090368D02*
X0123877Y0090368D01*
X0123877Y0091366D02*
X0122909Y0091366D01*
X0122909Y0092365D02*
X0118333Y0092365D01*
X0122909Y0093363D02*
X0123877Y0093363D01*
X0123877Y0093315D02*
X0123877Y0097087D01*
X0125559Y0097087D01*
X0125941Y0096984D01*
X0126283Y0096787D01*
X0126562Y0096508D01*
X0126759Y0096166D01*
X0126862Y0095784D01*
X0126862Y0093315D01*
X0123877Y0093315D01*
X0123393Y0092831D02*
X0123633Y0094000D01*
X0127633Y0098000D01*
X0146133Y0098000D01*
X0149633Y0094500D01*
X0149883Y0094500D01*
X0147083Y0093363D02*
X0159125Y0093363D01*
X0158127Y0092365D02*
X0147083Y0092365D01*
X0147083Y0091366D02*
X0157128Y0091366D01*
X0156130Y0090368D02*
X0147083Y0090368D01*
X0147083Y0089369D02*
X0155131Y0089369D01*
X0152873Y0084000D02*
X0163373Y0094500D01*
X0162121Y0096359D02*
X0134474Y0096359D01*
X0134542Y0095360D02*
X0161122Y0095360D01*
X0160124Y0094362D02*
X0146383Y0094362D01*
X0144883Y0092750D02*
X0144883Y0084000D01*
X0145393Y0084000D01*
X0148890Y0079384D02*
X0149377Y0079384D01*
X0142683Y0089369D02*
X0140175Y0089369D01*
X0139748Y0090368D02*
X0142683Y0090368D01*
X0144883Y0092750D02*
X0131133Y0092750D01*
X0130873Y0092831D01*
X0127205Y0092365D02*
X0123877Y0092365D01*
X0123877Y0094362D02*
X0122909Y0094362D01*
X0122909Y0095360D02*
X0123877Y0095360D01*
X0123877Y0096359D02*
X0122909Y0096359D01*
X0121100Y0098356D02*
X0148666Y0098356D01*
X0147683Y0099354D02*
X0122083Y0099354D01*
X0122083Y0100353D02*
X0127160Y0100353D01*
X0126173Y0101351D02*
X0122083Y0101351D01*
X0122083Y0102350D02*
X0126173Y0102350D01*
X0126173Y0103348D02*
X0122083Y0103348D01*
X0121398Y0104347D02*
X0126173Y0104347D01*
X0126173Y0105345D02*
X0120399Y0105345D01*
X0119401Y0106344D02*
X0126173Y0106344D01*
X0126173Y0107342D02*
X0118402Y0107342D01*
X0117404Y0108341D02*
X0126173Y0108341D01*
X0126173Y0109339D02*
X0116405Y0109339D01*
X0115407Y0110338D02*
X0126173Y0110338D01*
X0126173Y0111336D02*
X0114408Y0111336D01*
X0111181Y0108341D02*
X0108333Y0108341D01*
X0108333Y0107342D02*
X0112180Y0107342D01*
X0113178Y0106344D02*
X0108333Y0106344D01*
X0108333Y0105345D02*
X0114177Y0105345D01*
X0113774Y0104347D02*
X0108333Y0104347D01*
X0108333Y0103348D02*
X0112914Y0103348D01*
X0112501Y0102350D02*
X0109266Y0102350D01*
X0109682Y0101351D02*
X0112452Y0101351D01*
X0111875Y0100353D02*
X0109833Y0100353D01*
X0109767Y0099354D02*
X0110876Y0099354D01*
X0109878Y0098356D02*
X0109353Y0098356D01*
X0116133Y0096500D02*
X0119883Y0100250D01*
X0119883Y0102750D01*
X0116133Y0096500D02*
X0116133Y0006500D01*
X0186633Y0006500D01*
X0183633Y0012750D02*
X0182633Y0013500D01*
X0183633Y0012750D02*
X0193633Y0022750D01*
X0194133Y0023260D01*
X0198983Y0023467D02*
X0200489Y0023467D01*
X0199491Y0022469D02*
X0198983Y0022469D01*
X0198983Y0024466D02*
X0201488Y0024466D01*
X0202486Y0025464D02*
X0198983Y0025464D01*
X0198983Y0026463D02*
X0202933Y0026463D01*
X0202933Y0027461D02*
X0198967Y0027461D01*
X0198983Y0028460D02*
X0202933Y0028460D01*
X0202933Y0029458D02*
X0198983Y0029458D01*
X0198983Y0030457D02*
X0202933Y0030457D01*
X0202933Y0031455D02*
X0198983Y0031455D01*
X0198983Y0032454D02*
X0202933Y0032454D01*
X0202933Y0033452D02*
X0198983Y0033452D01*
X0198535Y0034451D02*
X0202933Y0034451D01*
X0194133Y0030740D02*
X0155643Y0030740D01*
X0123633Y0062750D01*
X0122511Y0063516D01*
X0122511Y0080378D01*
X0126133Y0084000D01*
X0127133Y0084169D01*
X0130802Y0084376D02*
X0134433Y0084376D01*
X0134433Y0083378D02*
X0130802Y0083378D01*
X0130802Y0082379D02*
X0134433Y0082379D01*
X0134433Y0081381D02*
X0130802Y0081381D01*
X0130475Y0080382D02*
X0134433Y0080382D01*
X0134433Y0079384D02*
X0124711Y0079384D01*
X0124711Y0078385D02*
X0134433Y0078385D01*
X0134433Y0077387D02*
X0124711Y0077387D01*
X0124711Y0076388D02*
X0134433Y0076388D01*
X0134433Y0075390D02*
X0124711Y0075390D01*
X0124711Y0074391D02*
X0134433Y0074391D01*
X0134433Y0073393D02*
X0124711Y0073393D01*
X0124711Y0072394D02*
X0134433Y0072394D01*
X0134433Y0071396D02*
X0124711Y0071396D01*
X0124711Y0070397D02*
X0134433Y0070397D01*
X0134433Y0069399D02*
X0124711Y0069399D01*
X0125877Y0068400D02*
X0134433Y0068400D01*
X0134433Y0067402D02*
X0126876Y0067402D01*
X0127630Y0066403D02*
X0134433Y0066403D01*
X0134433Y0065405D02*
X0128043Y0065405D01*
X0128345Y0064406D02*
X0134433Y0064406D01*
X0134433Y0063408D02*
X0128345Y0063408D01*
X0128345Y0062409D02*
X0134433Y0062409D01*
X0134433Y0061411D02*
X0128084Y0061411D01*
X0129082Y0060412D02*
X0134433Y0060412D01*
X0134433Y0059414D02*
X0130081Y0059414D01*
X0131079Y0058415D02*
X0134607Y0058415D01*
X0135605Y0057417D02*
X0132078Y0057417D01*
X0133076Y0056418D02*
X0136604Y0056418D01*
X0137602Y0055420D02*
X0134075Y0055420D01*
X0135073Y0054421D02*
X0138601Y0054421D01*
X0139599Y0053423D02*
X0136072Y0053423D01*
X0137071Y0052424D02*
X0178118Y0052424D01*
X0178823Y0051426D02*
X0138069Y0051426D01*
X0139068Y0050427D02*
X0200031Y0050427D01*
X0200553Y0051426D02*
X0191443Y0051426D01*
X0185357Y0058415D02*
X0184910Y0058415D01*
X0181787Y0055000D02*
X0181133Y0055250D01*
X0179881Y0049429D02*
X0140066Y0049429D01*
X0141065Y0048430D02*
X0178944Y0048430D01*
X0178531Y0047432D02*
X0142063Y0047432D01*
X0143062Y0046433D02*
X0178333Y0046433D01*
X0178333Y0045434D02*
X0144060Y0045434D01*
X0145059Y0044436D02*
X0178333Y0044436D01*
X0178333Y0043437D02*
X0146057Y0043437D01*
X0147056Y0042439D02*
X0178333Y0042439D01*
X0178333Y0041440D02*
X0148054Y0041440D01*
X0149053Y0040442D02*
X0178333Y0040442D01*
X0178582Y0039443D02*
X0150051Y0039443D01*
X0151050Y0038445D02*
X0179007Y0038445D01*
X0180006Y0037446D02*
X0152048Y0037446D01*
X0184733Y0063408D02*
X0185534Y0063408D01*
X0191425Y0063408D02*
X0192743Y0063408D01*
X0197217Y0069399D02*
X0212834Y0069399D01*
X0206133Y0084500D02*
X0202133Y0084500D01*
X0201133Y0085500D01*
X0201133Y0101500D01*
X0206393Y0106760D01*
X0209633Y0106760D01*
X0198933Y0102350D02*
X0183895Y0102350D01*
X0184893Y0101351D02*
X0198933Y0101351D01*
X0198933Y0100353D02*
X0185892Y0100353D01*
X0186833Y0099354D02*
X0198933Y0099354D01*
X0198933Y0098356D02*
X0186833Y0098356D01*
X0186833Y0097357D02*
X0198933Y0097357D01*
X0198933Y0096359D02*
X0186833Y0096359D01*
X0186833Y0095360D02*
X0198933Y0095360D01*
X0198933Y0094362D02*
X0186833Y0094362D01*
X0186833Y0093363D02*
X0198933Y0093363D01*
X0198933Y0092365D02*
X0186833Y0092365D01*
X0186833Y0091366D02*
X0198933Y0091366D01*
X0198933Y0090368D02*
X0186833Y0090368D01*
X0181523Y0113333D02*
X0180523Y0113333D01*
X0180523Y0114332D02*
X0181523Y0114332D01*
X0181523Y0115330D02*
X0180523Y0115330D01*
X0181523Y0116329D02*
X0190968Y0116329D01*
X0190968Y0118326D02*
X0188429Y0118326D01*
X0188230Y0119324D02*
X0190968Y0119324D01*
X0191141Y0120323D02*
X0187927Y0120323D01*
X0188629Y0121321D02*
X0191120Y0121321D01*
X0190768Y0122320D02*
X0188629Y0122320D01*
X0181023Y0131965D02*
X0179883Y0132750D01*
X0177383Y0132750D01*
X0173633Y0136500D01*
X0173633Y0144000D01*
X0188633Y0144000D01*
X0188633Y0146500D01*
X0194883Y0152750D01*
X0195133Y0153654D01*
X0198296Y0150278D02*
X0200990Y0150278D01*
X0200576Y0149280D02*
X0194524Y0149280D01*
X0193526Y0148281D02*
X0200433Y0148281D01*
X0200433Y0147283D02*
X0192527Y0147283D01*
X0191529Y0146284D02*
X0200757Y0146284D01*
X0201201Y0145286D02*
X0190833Y0145286D01*
X0190833Y0144287D02*
X0201309Y0144287D01*
X0200311Y0143289D02*
X0197729Y0143289D01*
X0198499Y0142290D02*
X0199312Y0142290D01*
X0191537Y0143289D02*
X0190833Y0143289D01*
X0190768Y0137298D02*
X0188629Y0137298D01*
X0189633Y0151500D02*
X0168133Y0151500D01*
X0167883Y0151750D01*
X0164488Y0150278D02*
X0160466Y0150278D01*
X0159468Y0151277D02*
X0164183Y0151277D01*
X0164183Y0152275D02*
X0158469Y0152275D01*
X0157471Y0153274D02*
X0164510Y0153274D01*
X0165173Y0154272D02*
X0156472Y0154272D01*
X0155474Y0155271D02*
X0158630Y0155271D01*
X0157699Y0156269D02*
X0154475Y0156269D01*
X0153477Y0157268D02*
X0157285Y0157268D01*
X0157183Y0158266D02*
X0152478Y0158266D01*
X0151480Y0159265D02*
X0157299Y0159265D01*
X0157712Y0160263D02*
X0150481Y0160263D01*
X0149483Y0161262D02*
X0158425Y0161262D01*
X0158433Y0162260D02*
X0148484Y0162260D01*
X0147486Y0163259D02*
X0158433Y0163259D01*
X0158433Y0164257D02*
X0146487Y0164257D01*
X0145489Y0165256D02*
X0158433Y0165256D01*
X0158433Y0166254D02*
X0144490Y0166254D01*
X0143492Y0167253D02*
X0158433Y0167253D01*
X0158433Y0168251D02*
X0142493Y0168251D01*
X0141495Y0169250D02*
X0158433Y0169250D01*
X0159270Y0170248D02*
X0138367Y0170248D01*
X0136860Y0171247D02*
X0160269Y0171247D01*
X0161267Y0172245D02*
X0134249Y0172245D01*
X0133251Y0173244D02*
X0173418Y0173244D01*
X0173418Y0174242D02*
X0124062Y0174242D01*
X0123222Y0175241D02*
X0174258Y0175241D01*
X0179883Y0170250D02*
X0162383Y0170250D01*
X0160633Y0168500D01*
X0160633Y0160500D01*
X0160883Y0158250D01*
X0163104Y0161262D02*
X0173418Y0161262D01*
X0173418Y0162260D02*
X0162833Y0162260D01*
X0162833Y0163259D02*
X0173418Y0163259D01*
X0173418Y0164257D02*
X0162833Y0164257D01*
X0162833Y0165256D02*
X0173418Y0165256D01*
X0173418Y0166254D02*
X0162833Y0166254D01*
X0162833Y0167253D02*
X0174143Y0167253D01*
X0179883Y0170250D02*
X0181023Y0171335D01*
X0185133Y0177500D02*
X0185133Y0182000D01*
X0185133Y0177500D02*
X0188633Y0174000D01*
X0194883Y0174000D01*
X0195133Y0173154D01*
X0198585Y0176239D02*
X0200980Y0176239D01*
X0200698Y0177238D02*
X0198999Y0177238D01*
X0198999Y0175241D02*
X0201576Y0175241D01*
X0202649Y0174242D02*
X0198999Y0174242D01*
X0198999Y0173244D02*
X0212834Y0173244D01*
X0212834Y0182231D02*
X0212675Y0182231D01*
X0194883Y0166500D02*
X0190133Y0166500D01*
X0187633Y0164000D01*
X0181133Y0164000D01*
X0181023Y0163461D01*
X0173549Y0160263D02*
X0164054Y0160263D01*
X0164468Y0159265D02*
X0174029Y0159265D01*
X0173418Y0158266D02*
X0164583Y0158266D01*
X0164481Y0157268D02*
X0173418Y0157268D01*
X0173418Y0156269D02*
X0164068Y0156269D01*
X0163137Y0155271D02*
X0166715Y0155271D01*
X0169052Y0155271D02*
X0173418Y0155271D01*
X0173418Y0154272D02*
X0170594Y0154272D01*
X0170646Y0149280D02*
X0173418Y0149280D01*
X0173418Y0148281D02*
X0169177Y0148281D01*
X0166589Y0148281D02*
X0162463Y0148281D01*
X0161465Y0149280D02*
X0165121Y0149280D01*
X0163462Y0147283D02*
X0173418Y0147283D01*
X0173418Y0146284D02*
X0164460Y0146284D01*
X0165459Y0145286D02*
X0171808Y0145286D01*
X0171433Y0144287D02*
X0166457Y0144287D01*
X0167456Y0143289D02*
X0171433Y0143289D01*
X0171433Y0142290D02*
X0168454Y0142290D01*
X0171002Y0141292D02*
X0171433Y0141292D01*
X0169883Y0137750D02*
X0139883Y0167750D01*
X0135633Y0167750D01*
X0131883Y0171500D01*
X0117383Y0171500D01*
X0116456Y0171335D01*
X0124633Y0177238D02*
X0104031Y0177238D01*
X0104229Y0177320D02*
X0106113Y0179205D01*
X0107133Y0181667D01*
X0107133Y0194333D01*
X0106113Y0196795D01*
X0104229Y0198680D01*
X0101766Y0199700D01*
X0099101Y0199700D01*
X0096638Y0198680D01*
X0094753Y0196795D01*
X0093733Y0194333D01*
X0093733Y0181667D01*
X0094753Y0179205D01*
X0096638Y0177320D01*
X0099101Y0176300D01*
X0101766Y0176300D01*
X0104229Y0177320D01*
X0105145Y0178237D02*
X0124633Y0178237D01*
X0124633Y0179235D02*
X0106126Y0179235D01*
X0106539Y0180234D02*
X0124633Y0180234D01*
X0124633Y0181232D02*
X0106953Y0181232D01*
X0107133Y0182231D02*
X0124633Y0182231D01*
X0124633Y0183229D02*
X0107133Y0183229D01*
X0107133Y0184228D02*
X0124633Y0184228D01*
X0124633Y0185226D02*
X0107133Y0185226D01*
X0107133Y0186225D02*
X0124633Y0186225D01*
X0124633Y0187223D02*
X0107133Y0187223D01*
X0107133Y0188222D02*
X0124633Y0188222D01*
X0124633Y0189220D02*
X0107133Y0189220D01*
X0107133Y0190219D02*
X0124633Y0190219D01*
X0124633Y0191217D02*
X0107133Y0191217D01*
X0107133Y0192216D02*
X0124633Y0192216D01*
X0124633Y0193214D02*
X0107133Y0193214D01*
X0107133Y0194213D02*
X0124633Y0194213D01*
X0124633Y0195211D02*
X0106769Y0195211D01*
X0106356Y0196210D02*
X0124633Y0196210D01*
X0124633Y0197208D02*
X0105700Y0197208D01*
X0104702Y0198207D02*
X0124633Y0198207D01*
X0124633Y0199205D02*
X0102960Y0199205D01*
X0097906Y0199205D02*
X0014360Y0199205D01*
X0016102Y0198207D02*
X0096165Y0198207D01*
X0095166Y0197208D02*
X0017100Y0197208D01*
X0017756Y0196210D02*
X0094511Y0196210D01*
X0094097Y0195211D02*
X0018169Y0195211D01*
X0018533Y0194213D02*
X0093733Y0194213D01*
X0093733Y0193214D02*
X0018533Y0193214D01*
X0018533Y0192216D02*
X0093733Y0192216D01*
X0093733Y0191217D02*
X0018533Y0191217D01*
X0018533Y0190219D02*
X0093733Y0190219D01*
X0093733Y0189220D02*
X0018533Y0189220D01*
X0018533Y0188222D02*
X0093733Y0188222D01*
X0093733Y0187223D02*
X0018533Y0187223D01*
X0018533Y0186225D02*
X0093733Y0186225D01*
X0093733Y0185226D02*
X0018533Y0185226D01*
X0018533Y0184228D02*
X0093733Y0184228D01*
X0093733Y0183229D02*
X0018533Y0183229D01*
X0018533Y0182231D02*
X0093733Y0182231D01*
X0093914Y0181232D02*
X0018353Y0181232D01*
X0017939Y0180234D02*
X0094327Y0180234D01*
X0094741Y0179235D02*
X0017526Y0179235D01*
X0016545Y0178237D02*
X0095722Y0178237D01*
X0096836Y0177238D02*
X0015431Y0177238D01*
X0008236Y0177238D02*
X0008133Y0177238D01*
X0008133Y0166254D02*
X0095417Y0166254D01*
X0093938Y0165256D02*
X0008133Y0165256D01*
X0008133Y0164257D02*
X0093336Y0164257D01*
X0093086Y0163259D02*
X0008133Y0163259D01*
X0008133Y0162260D02*
X0093157Y0162260D01*
X0093515Y0161262D02*
X0008133Y0161262D01*
X0008133Y0160263D02*
X0093584Y0160263D01*
X0093090Y0159265D02*
X0008133Y0159265D01*
X0008133Y0158266D02*
X0092886Y0158266D01*
X0092902Y0157268D02*
X0008133Y0157268D01*
X0008133Y0156269D02*
X0093316Y0156269D01*
X0094129Y0155271D02*
X0055708Y0155271D01*
X0058118Y0152275D02*
X0080571Y0152275D01*
X0078899Y0151277D02*
X0058433Y0151277D01*
X0058433Y0150278D02*
X0077901Y0150278D01*
X0076902Y0149280D02*
X0058433Y0149280D01*
X0058433Y0148281D02*
X0076449Y0148281D01*
X0076035Y0147283D02*
X0058433Y0147283D01*
X0058433Y0146284D02*
X0075621Y0146284D01*
X0075433Y0145286D02*
X0058433Y0145286D01*
X0058433Y0144287D02*
X0075433Y0144287D01*
X0075433Y0143289D02*
X0058433Y0143289D01*
X0058433Y0142290D02*
X0075433Y0142290D01*
X0075797Y0141292D02*
X0058353Y0141292D01*
X0057939Y0140293D02*
X0076211Y0140293D01*
X0076624Y0139295D02*
X0057447Y0139295D01*
X0056449Y0138296D02*
X0077327Y0138296D01*
X0078325Y0137298D02*
X0054666Y0137298D01*
X0051001Y0137298D02*
X0034966Y0137298D01*
X0034247Y0137000D02*
X0036305Y0137853D01*
X0037881Y0139428D01*
X0038733Y0141486D01*
X0038733Y0151514D01*
X0037881Y0153572D01*
X0036305Y0155147D01*
X0034247Y0156000D01*
X0032019Y0156000D01*
X0029961Y0155147D01*
X0028386Y0153572D01*
X0027533Y0151514D01*
X0027533Y0141486D01*
X0028386Y0139428D01*
X0029961Y0137853D01*
X0032019Y0137000D01*
X0034247Y0137000D01*
X0033532Y0135039D02*
X0031496Y0134195D01*
X0029938Y0132637D01*
X0029095Y0130602D01*
X0029095Y0128398D01*
X0029938Y0126363D01*
X0031496Y0124805D01*
X0033532Y0123961D01*
X0035735Y0123961D01*
X0037771Y0124805D01*
X0039329Y0126363D01*
X0040172Y0128398D01*
X0040172Y0130602D01*
X0039329Y0132637D01*
X0037771Y0134195D01*
X0035735Y0135039D01*
X0033532Y0135039D01*
X0031753Y0134302D02*
X0015664Y0134302D01*
X0016663Y0133303D02*
X0030604Y0133303D01*
X0029800Y0132305D02*
X0017173Y0132305D01*
X0017587Y0131306D02*
X0029387Y0131306D01*
X0029095Y0130308D02*
X0017672Y0130308D01*
X0017672Y0129309D02*
X0029095Y0129309D01*
X0029131Y0128311D02*
X0017429Y0128311D01*
X0017015Y0127312D02*
X0029545Y0127312D01*
X0029987Y0126314D02*
X0016280Y0126314D01*
X0015281Y0125315D02*
X0030985Y0125315D01*
X0032673Y0124317D02*
X0008133Y0124317D01*
X0008133Y0125315D02*
X0008985Y0125315D01*
X0008603Y0134302D02*
X0008133Y0134302D01*
X0008133Y0135301D02*
X0010457Y0135301D01*
X0011601Y0137298D02*
X0008133Y0137298D01*
X0008133Y0138296D02*
X0009818Y0138296D01*
X0008819Y0139295D02*
X0008133Y0139295D01*
X0008133Y0140293D02*
X0008327Y0140293D01*
X0008133Y0136299D02*
X0079324Y0136299D01*
X0081595Y0135301D02*
X0013810Y0135301D01*
X0015266Y0137298D02*
X0031301Y0137298D01*
X0029518Y0138296D02*
X0017049Y0138296D01*
X0018047Y0139295D02*
X0028519Y0139295D01*
X0028027Y0140293D02*
X0018539Y0140293D01*
X0018953Y0141292D02*
X0027614Y0141292D01*
X0027533Y0142290D02*
X0019033Y0142290D01*
X0019033Y0143289D02*
X0027533Y0143289D01*
X0027533Y0144287D02*
X0019033Y0144287D01*
X0019033Y0145286D02*
X0027533Y0145286D01*
X0027533Y0146284D02*
X0019033Y0146284D01*
X0019033Y0147283D02*
X0027533Y0147283D01*
X0027533Y0148281D02*
X0019033Y0148281D01*
X0019033Y0149280D02*
X0027533Y0149280D01*
X0027533Y0150278D02*
X0019033Y0150278D01*
X0019033Y0151277D02*
X0027533Y0151277D01*
X0027849Y0152275D02*
X0018718Y0152275D01*
X0018304Y0153274D02*
X0028262Y0153274D01*
X0029086Y0154272D02*
X0017481Y0154272D01*
X0016308Y0155271D02*
X0030259Y0155271D01*
X0036008Y0155271D02*
X0049959Y0155271D01*
X0048786Y0154272D02*
X0037181Y0154272D01*
X0038004Y0153274D02*
X0047962Y0153274D01*
X0047549Y0152275D02*
X0038418Y0152275D01*
X0038733Y0151277D02*
X0047233Y0151277D01*
X0047233Y0150278D02*
X0038733Y0150278D01*
X0038733Y0149280D02*
X0047233Y0149280D01*
X0047233Y0148281D02*
X0038733Y0148281D01*
X0038733Y0147283D02*
X0047233Y0147283D01*
X0047233Y0146284D02*
X0038733Y0146284D01*
X0038733Y0145286D02*
X0047233Y0145286D01*
X0047233Y0144287D02*
X0038733Y0144287D01*
X0038733Y0143289D02*
X0047233Y0143289D01*
X0047233Y0142290D02*
X0038733Y0142290D01*
X0038653Y0141292D02*
X0047314Y0141292D01*
X0047727Y0140293D02*
X0038239Y0140293D01*
X0037747Y0139295D02*
X0048219Y0139295D01*
X0049218Y0138296D02*
X0036749Y0138296D01*
X0037513Y0134302D02*
X0050253Y0134302D01*
X0049104Y0133303D02*
X0038663Y0133303D01*
X0039466Y0132305D02*
X0048300Y0132305D01*
X0047887Y0131306D02*
X0039880Y0131306D01*
X0040172Y0130308D02*
X0047595Y0130308D01*
X0047595Y0129309D02*
X0040172Y0129309D01*
X0040136Y0128311D02*
X0047631Y0128311D01*
X0048045Y0127312D02*
X0039722Y0127312D01*
X0039280Y0126314D02*
X0048487Y0126314D01*
X0049485Y0125315D02*
X0038281Y0125315D01*
X0036593Y0124317D02*
X0051173Y0124317D01*
X0058636Y0128311D02*
X0101433Y0128311D01*
X0101433Y0129309D02*
X0058672Y0129309D01*
X0058672Y0130308D02*
X0101433Y0130308D01*
X0101433Y0131306D02*
X0058380Y0131306D01*
X0057966Y0132305D02*
X0101433Y0132305D01*
X0101433Y0133303D02*
X0057163Y0133303D01*
X0056013Y0134302D02*
X0101433Y0134302D01*
X0101433Y0135301D02*
X0087672Y0135301D01*
X0089943Y0136299D02*
X0101433Y0136299D01*
X0101433Y0137298D02*
X0090942Y0137298D01*
X0091940Y0138296D02*
X0101433Y0138296D01*
X0102067Y0139295D02*
X0092642Y0139295D01*
X0093056Y0140293D02*
X0103065Y0140293D01*
X0104064Y0141292D02*
X0093469Y0141292D01*
X0093833Y0142290D02*
X0105062Y0142290D01*
X0106061Y0143289D02*
X0093833Y0143289D01*
X0093833Y0144287D02*
X0107059Y0144287D01*
X0108058Y0145286D02*
X0093833Y0145286D01*
X0093645Y0146284D02*
X0108851Y0146284D01*
X0116456Y0139839D02*
X0116133Y0139000D01*
X0124062Y0149280D02*
X0155242Y0149280D01*
X0154244Y0150278D02*
X0124062Y0150278D01*
X0123564Y0151277D02*
X0153245Y0151277D01*
X0152247Y0152275D02*
X0123817Y0152275D01*
X0124062Y0153274D02*
X0151248Y0153274D01*
X0150250Y0154272D02*
X0124062Y0154272D01*
X0124062Y0155271D02*
X0149251Y0155271D01*
X0148253Y0156269D02*
X0124062Y0156269D01*
X0124062Y0157268D02*
X0147254Y0157268D01*
X0146256Y0158266D02*
X0124761Y0158266D01*
X0125759Y0159265D02*
X0145257Y0159265D01*
X0144259Y0160263D02*
X0126758Y0160263D01*
X0127083Y0161262D02*
X0143260Y0161262D01*
X0142262Y0162260D02*
X0127083Y0162260D01*
X0127083Y0163259D02*
X0141263Y0163259D01*
X0140265Y0164257D02*
X0136870Y0164257D01*
X0138372Y0165256D02*
X0139266Y0165256D01*
X0134397Y0164257D02*
X0127370Y0164257D01*
X0128872Y0165256D02*
X0132895Y0165256D01*
X0132248Y0166254D02*
X0129519Y0166254D01*
X0129833Y0167253D02*
X0131933Y0167253D01*
X0131933Y0168251D02*
X0129833Y0168251D01*
X0129517Y0169250D02*
X0131022Y0169250D01*
X0126133Y0167750D02*
X0124883Y0166500D01*
X0124883Y0161500D01*
X0119883Y0156500D01*
X0117383Y0156500D01*
X0116456Y0155587D01*
X0098555Y0163259D02*
X0098555Y0163259D01*
X0098555Y0164257D02*
X0098555Y0164257D01*
X0098555Y0165256D02*
X0098555Y0165256D01*
X0098555Y0166254D02*
X0098555Y0166254D01*
X0124633Y0200204D02*
X0008133Y0200204D01*
X0008133Y0201202D02*
X0124633Y0201202D01*
X0190633Y0160000D02*
X0190633Y0152500D01*
X0189633Y0151500D01*
X0190633Y0160000D02*
X0190883Y0160250D01*
X0194883Y0160250D01*
X0195133Y0160346D01*
X0198999Y0152275D02*
X0203173Y0152275D01*
X0201763Y0151277D02*
X0198999Y0151277D01*
X0166315Y0115330D02*
X0165022Y0115330D01*
X0158441Y0115330D02*
X0157148Y0115330D01*
X0142908Y0100353D02*
X0141185Y0100353D01*
X0135034Y0100353D02*
X0133311Y0100353D01*
X0127273Y0096359D02*
X0126648Y0096359D01*
X0126862Y0095360D02*
X0127205Y0095360D01*
X0127205Y0094362D02*
X0126862Y0094362D01*
X0126862Y0093363D02*
X0127205Y0093363D01*
X0127205Y0091366D02*
X0126862Y0091366D01*
X0126862Y0090368D02*
X0127205Y0090368D01*
X0127207Y0089369D02*
X0126686Y0089369D01*
X0123465Y0087372D02*
X0118333Y0087372D01*
X0118333Y0086373D02*
X0123465Y0086373D01*
X0123465Y0085375D02*
X0118333Y0085375D01*
X0118333Y0084376D02*
X0123398Y0084376D01*
X0122400Y0083378D02*
X0118333Y0083378D01*
X0118333Y0082379D02*
X0121401Y0082379D01*
X0120403Y0081381D02*
X0118333Y0081381D01*
X0118333Y0080382D02*
X0120311Y0080382D01*
X0120311Y0079384D02*
X0118333Y0079384D01*
X0118333Y0078385D02*
X0120311Y0078385D01*
X0120311Y0077387D02*
X0118333Y0077387D01*
X0118333Y0076388D02*
X0120311Y0076388D01*
X0120311Y0075390D02*
X0118333Y0075390D01*
X0118333Y0074391D02*
X0120311Y0074391D01*
X0120311Y0073393D02*
X0118333Y0073393D01*
X0118333Y0072394D02*
X0120311Y0072394D01*
X0120311Y0071396D02*
X0118333Y0071396D01*
X0118333Y0070397D02*
X0120311Y0070397D01*
X0120311Y0069399D02*
X0118333Y0069399D01*
X0118333Y0068400D02*
X0119145Y0068400D01*
X0130802Y0085375D02*
X0134276Y0085375D01*
X0133406Y0086373D02*
X0130802Y0086373D01*
X0130802Y0087372D02*
X0132992Y0087372D01*
X0132933Y0088370D02*
X0130061Y0088370D01*
X0126173Y0112335D02*
X0123246Y0112335D01*
X0124062Y0113333D02*
X0126173Y0113333D01*
X0126173Y0114332D02*
X0126076Y0114332D01*
X0103933Y0112335D02*
X0102505Y0112335D01*
X0101338Y0111336D02*
X0103933Y0111336D01*
X0095394Y0062409D02*
X0088590Y0062409D01*
X0089314Y0061411D02*
X0093533Y0061411D01*
X0092535Y0060412D02*
X0089314Y0060412D01*
X0089314Y0059414D02*
X0091536Y0059414D01*
X0091004Y0058415D02*
X0089314Y0058415D01*
X0089314Y0057417D02*
X0090591Y0057417D01*
X0090177Y0056418D02*
X0089314Y0056418D01*
X0089933Y0055420D02*
X0088419Y0055420D01*
X0089933Y0054421D02*
X0082833Y0054421D01*
X0082833Y0053423D02*
X0089933Y0053423D01*
X0089933Y0052424D02*
X0082833Y0052424D01*
X0082833Y0051426D02*
X0090242Y0051426D01*
X0090655Y0050427D02*
X0082833Y0050427D01*
X0082833Y0049429D02*
X0091069Y0049429D01*
X0091693Y0048430D02*
X0082833Y0048430D01*
X0082833Y0047432D02*
X0092691Y0047432D01*
X0093690Y0046433D02*
X0082833Y0046433D01*
X0082833Y0045434D02*
X0095772Y0045434D01*
X0082847Y0055420D02*
X0082833Y0055420D01*
X0008149Y0152275D02*
X0008133Y0152275D01*
X0008133Y0153274D02*
X0008562Y0153274D01*
X0008133Y0154272D02*
X0009386Y0154272D01*
X0010559Y0155271D02*
X0008133Y0155271D01*
X0008133Y0199205D02*
X0009306Y0199205D01*
X0193633Y0031500D02*
X0194133Y0030740D01*
D28*
X0160633Y0059000D03*
X0162633Y0082500D03*
X0170633Y0118500D03*
X0132633Y0135500D03*
X0116133Y0101500D03*
D29*
X0106133Y0100250D03*
X0136633Y0088250D03*
X0149883Y0094500D03*
X0156383Y0071750D03*
X0194883Y0066500D03*
X0169883Y0137750D03*
X0167883Y0151750D03*
X0160883Y0158250D03*
X0135633Y0167750D03*
X0126133Y0167750D03*
X0185133Y0182000D03*
X0196383Y0189250D03*
X0194883Y0166500D03*
D30*
X0085633Y0059000D03*
D31*
X0053133Y0129500D03*
X0034633Y0129500D03*
X0012133Y0130000D03*
D32*
X0084633Y0144000D03*
X0099133Y0054000D03*
X0208133Y0011000D03*
X0208133Y0197500D03*
M02*
