G75*
%MOIN*%
%OFA0B0*%
%FSLAX25Y25*%
%IPPOS*%
%LPD*%
%AMOC8*
5,1,8,0,0,1.08239X$1,22.5*
%
%ADD10R,0.03937X0.05512*%
%ADD11R,0.11811X0.04724*%
%ADD12R,0.04724X0.11811*%
%ADD13R,0.06299X0.05118*%
%ADD14R,0.05118X0.06299*%
%ADD15R,0.04331X0.03937*%
%ADD16R,0.03937X0.04331*%
D10*
X0123393Y0092831D03*
X0130873Y0092831D03*
X0127133Y0084169D03*
D11*
X0116456Y0116217D03*
X0116456Y0124091D03*
X0116456Y0131965D03*
X0116456Y0139839D03*
X0116456Y0147713D03*
X0116456Y0155587D03*
X0116456Y0163461D03*
X0116456Y0171335D03*
X0181023Y0171335D03*
X0181023Y0163461D03*
X0181023Y0155587D03*
X0181023Y0147713D03*
X0181023Y0139839D03*
X0181023Y0131965D03*
X0181023Y0124091D03*
X0181023Y0116217D03*
D12*
X0169606Y0107949D03*
X0161732Y0107949D03*
X0153858Y0107949D03*
X0145984Y0107949D03*
X0138110Y0107949D03*
X0130236Y0107949D03*
D13*
X0209633Y0106760D03*
X0209633Y0114240D03*
X0194133Y0030740D03*
X0194133Y0023260D03*
D14*
X0152873Y0084000D03*
X0145393Y0084000D03*
D15*
X0194633Y0117654D03*
X0194633Y0124346D03*
X0194633Y0133154D03*
X0194633Y0139846D03*
X0195133Y0153654D03*
X0195133Y0160346D03*
X0195133Y0173154D03*
X0195133Y0179846D03*
X0187133Y0194154D03*
X0187133Y0200846D03*
D16*
X0188480Y0067000D03*
X0181787Y0067000D03*
X0181787Y0055000D03*
X0188480Y0055000D03*
M02*
