G75*
%MOIN*%
%OFA0B0*%
%FSLAX25Y25*%
%IPPOS*%
%LPD*%
%AMOC8*
5,1,8,0,0,1.08239X$1,22.5*
%
%ADD10R,0.04737X0.06312*%
%ADD11C,0.06000*%
%ADD12C,0.09068*%
%ADD13R,0.12611X0.05524*%
%ADD14R,0.05524X0.12611*%
%ADD15C,0.04769*%
%ADD16C,0.08600*%
%ADD17R,0.07099X0.05918*%
%ADD18R,0.05918X0.07099*%
%ADD19C,0.10800*%
%ADD20R,0.05131X0.04737*%
%ADD21R,0.04737X0.05131*%
%ADD22C,0.06800*%
%ADD23C,0.08400*%
%ADD24OC8,0.06000*%
%ADD25C,0.06000*%
%ADD26C,0.04762*%
%ADD27C,0.04800*%
%ADD28R,0.04762X0.04762*%
%ADD29C,0.08477*%
%ADD30C,0.15800*%
D10*
X0123393Y0092831D03*
X0130873Y0092831D03*
X0127133Y0084169D03*
D11*
X0170933Y0084500D02*
X0176133Y0084500D01*
X0176133Y0094500D02*
X0170933Y0094500D01*
X0206133Y0094500D02*
X0211333Y0094500D01*
X0211333Y0084500D02*
X0206133Y0084500D01*
X0182633Y0046100D02*
X0182633Y0040900D01*
X0182633Y0016100D02*
X0182633Y0010900D01*
D12*
X0169755Y0015484D03*
X0122511Y0015484D03*
X0122511Y0063516D03*
X0146133Y0071390D03*
X0169755Y0063516D03*
D13*
X0181023Y0116217D03*
X0181023Y0124091D03*
X0181023Y0131965D03*
X0181023Y0139839D03*
X0181023Y0147713D03*
X0181023Y0155587D03*
X0181023Y0163461D03*
X0181023Y0171335D03*
X0116456Y0171335D03*
X0116456Y0163461D03*
X0116456Y0155587D03*
X0116456Y0147713D03*
X0116456Y0139839D03*
X0116456Y0131965D03*
X0116456Y0124091D03*
X0116456Y0116217D03*
D14*
X0130236Y0107949D03*
X0138110Y0107949D03*
X0145984Y0107949D03*
X0153858Y0107949D03*
X0161732Y0107949D03*
X0169606Y0107949D03*
D15*
X0203228Y0063803D02*
X0207196Y0063803D01*
X0207196Y0058882D02*
X0203228Y0058882D01*
X0203228Y0053961D02*
X0207196Y0053961D01*
X0207196Y0049039D02*
X0203228Y0049039D01*
X0203228Y0044118D02*
X0207196Y0044118D01*
X0207196Y0039197D02*
X0203228Y0039197D01*
X0099539Y0114579D02*
X0095570Y0114579D01*
X0095570Y0119500D02*
X0099539Y0119500D01*
X0099539Y0124421D02*
X0095570Y0124421D01*
X0096570Y0158039D02*
X0100539Y0158039D01*
X0100539Y0162961D02*
X0096570Y0162961D01*
D16*
X0052833Y0150400D02*
X0052833Y0142600D01*
X0033133Y0142600D02*
X0033133Y0150400D01*
X0013433Y0150400D02*
X0013433Y0142600D01*
D17*
X0194133Y0030740D03*
X0194133Y0023260D03*
X0209633Y0106760D03*
X0209633Y0114240D03*
D18*
X0152873Y0084000D03*
X0145393Y0084000D03*
D19*
X0100433Y0183000D02*
X0100433Y0193000D01*
X0011833Y0193000D02*
X0011833Y0183000D01*
D20*
X0187133Y0194154D03*
X0187133Y0200846D03*
X0195133Y0179846D03*
X0195133Y0173154D03*
X0195133Y0160346D03*
X0195133Y0153654D03*
X0194633Y0139846D03*
X0194633Y0133154D03*
X0194633Y0124346D03*
X0194633Y0117654D03*
D21*
X0188480Y0067000D03*
X0181787Y0067000D03*
X0181787Y0055000D03*
X0188480Y0055000D03*
D22*
X0205133Y0128000D02*
X0211133Y0128000D01*
X0211133Y0138000D02*
X0205133Y0138000D01*
X0205133Y0148000D02*
X0211133Y0148000D01*
X0211133Y0158000D02*
X0205133Y0158000D01*
X0205133Y0168000D02*
X0211133Y0168000D01*
X0211133Y0178000D02*
X0205133Y0178000D01*
D23*
X0014031Y0008850D03*
X0033716Y0008850D03*
X0053007Y0008850D03*
X0054582Y0115150D03*
X0074267Y0115150D03*
D24*
X0103133Y0033500D03*
X0103633Y0012000D03*
D25*
X0095633Y0012000D03*
X0095133Y0033500D03*
D26*
X0160633Y0059000D03*
X0162633Y0082500D03*
X0170633Y0118500D03*
X0132633Y0135500D03*
X0116133Y0101500D03*
D27*
X0106133Y0100250D03*
X0136633Y0088250D03*
X0149883Y0094500D03*
X0156383Y0071750D03*
X0194883Y0066500D03*
X0169883Y0137750D03*
X0167883Y0151750D03*
X0160883Y0158250D03*
X0135633Y0167750D03*
X0126133Y0167750D03*
X0185133Y0182000D03*
X0196383Y0189250D03*
X0194883Y0166500D03*
D28*
X0085633Y0059000D03*
D29*
X0053133Y0129500D03*
X0034633Y0129500D03*
X0012133Y0130000D03*
D30*
X0084633Y0144000D03*
X0099133Y0054000D03*
X0208133Y0011000D03*
X0208133Y0197500D03*
M02*
