G75*
%MOIN*%
%OFA0B0*%
%FSLAX25Y25*%
%IPPOS*%
%LPD*%
%AMOC8*
5,1,8,0,0,1.08239X$1,22.5*
%
%ADD10C,0.06000*%
%ADD11C,0.09068*%
%ADD12R,0.05918X0.06706*%
%ADD13C,0.04769*%
%ADD14C,0.08600*%
%ADD15R,0.05052X0.04934*%
%ADD16R,0.09599X0.05599*%
%ADD17R,0.09461X0.14973*%
%ADD18C,0.10800*%
%ADD19C,0.06800*%
%ADD20C,0.08400*%
%ADD21OC8,0.06000*%
%ADD22C,0.06000*%
%ADD23C,0.04762*%
%ADD24C,0.04800*%
%ADD25R,0.04762X0.04762*%
%ADD26C,0.08477*%
%ADD27C,0.15800*%
D10*
X0170933Y0084500D02*
X0176133Y0084500D01*
X0176133Y0094500D02*
X0170933Y0094500D01*
X0206133Y0094500D02*
X0211333Y0094500D01*
X0211333Y0084500D02*
X0206133Y0084500D01*
X0182633Y0046100D02*
X0182633Y0040900D01*
X0182633Y0016100D02*
X0182633Y0010900D01*
D11*
X0169755Y0015484D03*
X0122511Y0015484D03*
X0122511Y0063516D03*
X0146133Y0071390D03*
X0169755Y0063516D03*
D12*
X0153873Y0123500D03*
X0146393Y0123500D03*
D13*
X0099539Y0124421D02*
X0095570Y0124421D01*
X0095570Y0119500D02*
X0099539Y0119500D01*
X0099539Y0114579D02*
X0095570Y0114579D01*
X0096570Y0158039D02*
X0100539Y0158039D01*
X0100539Y0162961D02*
X0096570Y0162961D01*
X0203228Y0063803D02*
X0207196Y0063803D01*
X0207196Y0058882D02*
X0203228Y0058882D01*
X0203228Y0053961D02*
X0207196Y0053961D01*
X0207196Y0049039D02*
X0203228Y0049039D01*
X0203228Y0044118D02*
X0207196Y0044118D01*
X0207196Y0039197D02*
X0203228Y0039197D01*
D14*
X0052833Y0142600D02*
X0052833Y0150400D01*
X0033133Y0150400D02*
X0033133Y0142600D01*
X0013433Y0142600D02*
X0013433Y0150400D01*
D15*
X0081133Y0028945D03*
X0081133Y0022055D03*
X0081133Y0012945D03*
X0081133Y0006055D03*
D16*
X0069834Y0021177D03*
X0069834Y0030276D03*
X0069834Y0039374D03*
D17*
X0045433Y0030276D03*
D18*
X0011833Y0183000D02*
X0011833Y0193000D01*
X0100433Y0193000D02*
X0100433Y0183000D01*
D19*
X0205133Y0178000D02*
X0211133Y0178000D01*
X0211133Y0168000D02*
X0205133Y0168000D01*
X0205133Y0158000D02*
X0211133Y0158000D01*
X0211133Y0148000D02*
X0205133Y0148000D01*
X0205133Y0138000D02*
X0211133Y0138000D01*
X0211133Y0128000D02*
X0205133Y0128000D01*
D20*
X0014031Y0008850D03*
X0033716Y0008850D03*
X0053007Y0008850D03*
X0054582Y0115150D03*
X0074267Y0115150D03*
D21*
X0103133Y0033500D03*
X0103633Y0012000D03*
D22*
X0095633Y0012000D03*
X0095133Y0033500D03*
D23*
X0160633Y0059000D03*
X0162633Y0082500D03*
X0170633Y0118500D03*
X0132633Y0135500D03*
X0116133Y0101500D03*
D24*
X0106133Y0100250D03*
X0136633Y0088250D03*
X0149883Y0094500D03*
X0156383Y0071750D03*
X0194883Y0066500D03*
X0169883Y0137750D03*
X0167883Y0151750D03*
X0160883Y0158250D03*
X0135633Y0167750D03*
X0126133Y0167750D03*
X0185133Y0182000D03*
X0196383Y0189250D03*
X0194883Y0166500D03*
D25*
X0085633Y0059000D03*
D26*
X0053133Y0129500D03*
X0034633Y0129500D03*
X0012133Y0130000D03*
D27*
X0084633Y0144000D03*
X0099133Y0054000D03*
X0208133Y0011000D03*
X0208133Y0197500D03*
M02*
