%
M48
M72
T01C0.01969
T02C0.02362
T03C0.02400
T04C0.03200
T05C0.03937
T06C0.04000
T07C0.05118
T08C0.05200
T09C0.07874
%
T01
X97555Y114579
X97555Y119500
X97555Y124421
X98555Y158039
X98555Y162961
X205212Y63803
X205212Y58882
X205212Y53961
X205212Y49039
X205212Y44118
X205212Y39197
T02
X160633Y59000
X162633Y82500
X170633Y118500
X132633Y135500
X116133Y101500
X85633Y59000
T03
X106133Y100250
X136633Y88250
X149883Y94500
X156383Y71750
X194883Y66500
X169883Y137750
X167883Y151750
X160883Y158250
X135633Y167750
X126133Y167750
X185133Y182000
X196383Y189250
X194883Y166500
T04
X206133Y94500
X206133Y84500
X176133Y84500
X176133Y94500
X182633Y43500
X182633Y13500
X103633Y12000
X95633Y12000
X95133Y33500
X103133Y33500
T05
X14031Y8850
X33716Y8850
X53007Y8850
X54582Y115150
X74267Y115150
T06
X208133Y128000
X208133Y138000
X208133Y148000
X208133Y158000
X208133Y168000
X208133Y178000
T07
X146133Y71390
X122511Y63516
X169755Y63516
X169755Y15484
X122511Y15484
X53133Y129500
X34633Y129500
X12133Y130000
T08
X13433Y146500
X33133Y146500
X52833Y146500
X11833Y188000
X100433Y188000
T09
X84633Y144000
X99133Y54000
X208133Y11000
X208133Y197500
M30
