G75*
%MOIN*%
%OFA0B0*%
%FSLAX25Y25*%
%IPPOS*%
%LPD*%
%AMOC8*
5,1,8,0,0,1.08239X$1,22.5*
%
%ADD10C,0.05200*%
%ADD11C,0.08268*%
%ADD12R,0.05118X0.05906*%
%ADD13C,0.03969*%
%ADD14C,0.07800*%
%ADD15R,0.04252X0.04134*%
%ADD16R,0.08799X0.04799*%
%ADD17R,0.08661X0.14173*%
%ADD18C,0.10000*%
%ADD19C,0.06000*%
%ADD20C,0.07600*%
%ADD21OC8,0.05200*%
%ADD22C,0.05200*%
%ADD23C,0.01000*%
%ADD24C,0.03962*%
%ADD25C,0.04000*%
%ADD26R,0.03962X0.03962*%
%ADD27C,0.06600*%
%ADD28C,0.07677*%
%ADD29C,0.15000*%
D10*
X0170933Y0084500D02*
X0176133Y0084500D01*
X0176133Y0094500D02*
X0170933Y0094500D01*
X0206133Y0094500D02*
X0211333Y0094500D01*
X0211333Y0084500D02*
X0206133Y0084500D01*
X0182633Y0046100D02*
X0182633Y0040900D01*
X0182633Y0016100D02*
X0182633Y0010900D01*
D11*
X0169755Y0015484D03*
X0122511Y0015484D03*
X0122511Y0063516D03*
X0146133Y0071390D03*
X0169755Y0063516D03*
D12*
X0153873Y0123500D03*
X0146393Y0123500D03*
D13*
X0099539Y0124421D02*
X0095570Y0124421D01*
X0095570Y0119500D02*
X0099539Y0119500D01*
X0099539Y0114579D02*
X0095570Y0114579D01*
X0096570Y0158039D02*
X0100539Y0158039D01*
X0100539Y0162961D02*
X0096570Y0162961D01*
X0203228Y0063803D02*
X0207196Y0063803D01*
X0207196Y0058882D02*
X0203228Y0058882D01*
X0203228Y0053961D02*
X0207196Y0053961D01*
X0207196Y0049039D02*
X0203228Y0049039D01*
X0203228Y0044118D02*
X0207196Y0044118D01*
X0207196Y0039197D02*
X0203228Y0039197D01*
D14*
X0052833Y0142600D02*
X0052833Y0150400D01*
X0033133Y0150400D02*
X0033133Y0142600D01*
X0013433Y0142600D02*
X0013433Y0150400D01*
D15*
X0081133Y0028945D03*
X0081133Y0022055D03*
X0081133Y0012945D03*
X0081133Y0006055D03*
D16*
X0069834Y0021177D03*
X0069834Y0030276D03*
X0069834Y0039374D03*
D17*
X0045433Y0030276D03*
D18*
X0011833Y0183000D02*
X0011833Y0193000D01*
X0100433Y0193000D02*
X0100433Y0183000D01*
D19*
X0205133Y0178000D02*
X0211133Y0178000D01*
X0211133Y0168000D02*
X0205133Y0168000D01*
X0205133Y0158000D02*
X0211133Y0158000D01*
X0211133Y0148000D02*
X0205133Y0148000D01*
X0205133Y0138000D02*
X0211133Y0138000D01*
X0211133Y0128000D02*
X0205133Y0128000D01*
D20*
X0074267Y0115150D03*
X0054582Y0115150D03*
X0053007Y0008850D03*
X0033716Y0008850D03*
X0014031Y0008850D03*
D21*
X0103633Y0012000D03*
X0103133Y0033500D03*
D22*
X0095133Y0033500D03*
X0095633Y0012000D03*
D23*
X0008133Y0006000D02*
X0008133Y0123416D01*
X0009139Y0123000D01*
X0015128Y0123000D01*
X0016966Y0123761D01*
X0018372Y0125168D01*
X0018633Y0125798D01*
X0018633Y0118005D01*
X0019395Y0116168D01*
X0072301Y0063261D01*
X0074139Y0062500D01*
X0082767Y0062500D01*
X0081952Y0061685D01*
X0081952Y0061200D01*
X0062722Y0061200D01*
X0061433Y0059911D01*
X0061433Y0032450D01*
X0051463Y0032450D01*
X0051463Y0038066D01*
X0050467Y0039062D01*
X0040398Y0039062D01*
X0039402Y0038066D01*
X0039402Y0022485D01*
X0040398Y0021489D01*
X0050467Y0021489D01*
X0051463Y0022485D01*
X0051463Y0028050D01*
X0063735Y0028050D01*
X0063735Y0027172D01*
X0064730Y0026176D01*
X0072346Y0026176D01*
X0072722Y0025800D01*
X0073245Y0025277D01*
X0064730Y0025277D01*
X0063735Y0024281D01*
X0063735Y0023377D01*
X0059899Y0023377D01*
X0058610Y0022088D01*
X0055722Y0019200D01*
X0021269Y0019200D01*
X0019981Y0017911D01*
X0016040Y0013971D01*
X0015125Y0014350D01*
X0012937Y0014350D01*
X0010915Y0013513D01*
X0009368Y0011966D01*
X0008531Y0009944D01*
X0008531Y0007756D01*
X0009259Y0006000D01*
X0008133Y0006000D01*
X0008133Y0006493D02*
X0009054Y0006493D01*
X0008641Y0007491D02*
X0008133Y0007491D01*
X0008133Y0008490D02*
X0008531Y0008490D01*
X0008531Y0009488D02*
X0008133Y0009488D01*
X0008133Y0010487D02*
X0008756Y0010487D01*
X0009169Y0011485D02*
X0008133Y0011485D01*
X0008133Y0012484D02*
X0009886Y0012484D01*
X0010885Y0013482D02*
X0008133Y0013482D01*
X0008133Y0014481D02*
X0016550Y0014481D01*
X0017548Y0015479D02*
X0008133Y0015479D01*
X0008133Y0016478D02*
X0018547Y0016478D01*
X0019545Y0017476D02*
X0008133Y0017476D01*
X0008133Y0018475D02*
X0020544Y0018475D01*
X0022181Y0017000D02*
X0056633Y0017000D01*
X0060810Y0021177D01*
X0069834Y0021177D01*
X0070334Y0021177D01*
X0074011Y0017500D01*
X0085633Y0017500D01*
X0090633Y0012500D01*
X0090633Y0012000D01*
X0084688Y0006055D01*
X0081133Y0006055D01*
X0077307Y0006000D02*
X0077307Y0006800D01*
X0058111Y0006800D01*
X0057780Y0006000D01*
X0077307Y0006000D01*
X0077307Y0006493D02*
X0057984Y0006493D01*
X0057987Y0011200D02*
X0057670Y0011966D01*
X0056123Y0013513D01*
X0054101Y0014350D01*
X0051913Y0014350D01*
X0049892Y0013513D01*
X0048345Y0011966D01*
X0047507Y0009944D01*
X0047507Y0007756D01*
X0048235Y0006000D01*
X0038488Y0006000D01*
X0039216Y0007756D01*
X0039216Y0009944D01*
X0038379Y0011966D01*
X0036831Y0013513D01*
X0034810Y0014350D01*
X0032622Y0014350D01*
X0030601Y0013513D01*
X0029053Y0011966D01*
X0028216Y0009944D01*
X0028216Y0007756D01*
X0028944Y0006000D01*
X0018803Y0006000D01*
X0019531Y0007756D01*
X0019531Y0009944D01*
X0019152Y0010860D01*
X0023092Y0014800D01*
X0057545Y0014800D01*
X0061722Y0018977D01*
X0063735Y0018977D01*
X0063735Y0018073D01*
X0064730Y0017078D01*
X0071322Y0017078D01*
X0073100Y0015300D01*
X0077307Y0015300D01*
X0077307Y0012035D01*
X0076472Y0011200D01*
X0057987Y0011200D01*
X0057869Y0011485D02*
X0076757Y0011485D01*
X0077307Y0012484D02*
X0057152Y0012484D01*
X0056154Y0013482D02*
X0077307Y0013482D01*
X0077307Y0014481D02*
X0022772Y0014481D01*
X0021774Y0013482D02*
X0030570Y0013482D01*
X0029571Y0012484D02*
X0020775Y0012484D01*
X0019777Y0011485D02*
X0028854Y0011485D01*
X0028441Y0010487D02*
X0019306Y0010487D01*
X0019531Y0009488D02*
X0028216Y0009488D01*
X0028216Y0008490D02*
X0019531Y0008490D01*
X0019421Y0007491D02*
X0028326Y0007491D01*
X0028740Y0006493D02*
X0019007Y0006493D01*
X0014031Y0008850D02*
X0022181Y0017000D01*
X0008133Y0019473D02*
X0055995Y0019473D01*
X0056994Y0020472D02*
X0008133Y0020472D01*
X0008133Y0021470D02*
X0057992Y0021470D01*
X0058991Y0022469D02*
X0051447Y0022469D01*
X0051463Y0023467D02*
X0063735Y0023467D01*
X0063919Y0024466D02*
X0051463Y0024466D01*
X0051463Y0025464D02*
X0073058Y0025464D01*
X0073633Y0028000D02*
X0073633Y0030250D01*
X0069883Y0030250D01*
X0069834Y0030276D01*
X0068633Y0030250D01*
X0063633Y0030250D01*
X0063633Y0059000D01*
X0085633Y0059000D01*
X0085633Y0043000D01*
X0095133Y0033500D01*
X0098267Y0036448D02*
X0100000Y0036448D01*
X0098779Y0035936D02*
X0097569Y0037145D01*
X0095989Y0037800D01*
X0094278Y0037800D01*
X0094042Y0037702D01*
X0087833Y0043911D01*
X0087833Y0055319D01*
X0088319Y0055319D01*
X0089314Y0056315D01*
X0089314Y0061685D01*
X0088500Y0062500D01*
X0095613Y0062500D01*
X0093922Y0061799D01*
X0091334Y0059211D01*
X0089933Y0055830D01*
X0089933Y0052170D01*
X0091334Y0048789D01*
X0093922Y0046201D01*
X0097303Y0044800D01*
X0100963Y0044800D01*
X0104345Y0046201D01*
X0106933Y0048789D01*
X0108133Y0051687D01*
X0108133Y0046505D01*
X0108895Y0044668D01*
X0117511Y0036051D01*
X0117511Y0018658D01*
X0116677Y0016645D01*
X0116677Y0014324D01*
X0117566Y0012180D01*
X0119207Y0010539D01*
X0121351Y0009650D01*
X0123672Y0009650D01*
X0125816Y0010539D01*
X0127457Y0012180D01*
X0128345Y0014324D01*
X0128345Y0016645D01*
X0127511Y0018658D01*
X0127511Y0039117D01*
X0126750Y0040954D01*
X0125344Y0042361D01*
X0118133Y0049571D01*
X0118133Y0059643D01*
X0119207Y0058570D01*
X0121351Y0057682D01*
X0123672Y0057682D01*
X0125816Y0058570D01*
X0127457Y0060211D01*
X0128345Y0062355D01*
X0128345Y0064676D01*
X0127457Y0066820D01*
X0125816Y0068461D01*
X0123672Y0069350D01*
X0121351Y0069350D01*
X0119207Y0068461D01*
X0117566Y0066820D01*
X0116780Y0064924D01*
X0115966Y0065739D01*
X0115966Y0065739D01*
X0110204Y0071500D01*
X0139062Y0071500D01*
X0140299Y0070263D01*
X0140299Y0070229D01*
X0141188Y0068085D01*
X0142829Y0066444D01*
X0144973Y0065556D01*
X0147294Y0065556D01*
X0149438Y0066444D01*
X0151079Y0068085D01*
X0151967Y0070229D01*
X0151967Y0072550D01*
X0151610Y0073412D01*
X0152683Y0072339D01*
X0152683Y0071014D01*
X0153247Y0069654D01*
X0154287Y0068613D01*
X0155647Y0068050D01*
X0156972Y0068050D01*
X0163706Y0061316D01*
X0164352Y0061316D01*
X0164810Y0060211D01*
X0166451Y0058570D01*
X0168595Y0057682D01*
X0170916Y0057682D01*
X0173060Y0058570D01*
X0174701Y0060211D01*
X0174841Y0060550D01*
X0180183Y0060550D01*
X0180183Y0049731D01*
X0178988Y0048536D01*
X0178333Y0046955D01*
X0178333Y0040045D01*
X0178988Y0038464D01*
X0180198Y0037255D01*
X0181778Y0036600D01*
X0183489Y0036600D01*
X0185069Y0037255D01*
X0186279Y0038464D01*
X0186933Y0040045D01*
X0186933Y0046955D01*
X0186279Y0048536D01*
X0185069Y0049745D01*
X0184583Y0049947D01*
X0184583Y0063661D01*
X0183295Y0064950D01*
X0178333Y0064950D01*
X0178333Y0080757D01*
X0178569Y0080855D01*
X0179779Y0082064D01*
X0180433Y0083645D01*
X0180433Y0085355D01*
X0179779Y0086936D01*
X0178569Y0088145D01*
X0176989Y0088800D01*
X0170078Y0088800D01*
X0168498Y0088145D01*
X0167288Y0086936D01*
X0166633Y0085355D01*
X0166633Y0083645D01*
X0167288Y0082064D01*
X0168498Y0080855D01*
X0170078Y0080200D01*
X0173933Y0080200D01*
X0173933Y0067588D01*
X0173060Y0068461D01*
X0170916Y0069350D01*
X0168595Y0069350D01*
X0166451Y0068461D01*
X0164810Y0066820D01*
X0164697Y0066548D01*
X0160083Y0071161D01*
X0160083Y0072486D01*
X0159520Y0073846D01*
X0158479Y0074887D01*
X0157119Y0075450D01*
X0155795Y0075450D01*
X0146833Y0084411D01*
X0145545Y0085700D01*
X0139316Y0085700D01*
X0139770Y0086154D01*
X0140333Y0087514D01*
X0140333Y0088986D01*
X0139770Y0090346D01*
X0138833Y0091283D01*
X0138833Y0091911D01*
X0137545Y0093200D01*
X0134945Y0095800D01*
X0143722Y0095800D01*
X0145933Y0093589D01*
X0146484Y0093038D01*
X0146747Y0092404D01*
X0147787Y0091363D01*
X0149147Y0090800D01*
X0150619Y0090800D01*
X0151979Y0091363D01*
X0153020Y0092404D01*
X0153391Y0093300D01*
X0159722Y0093300D01*
X0160433Y0092589D01*
X0160433Y0085506D01*
X0159513Y0084585D01*
X0158952Y0083232D01*
X0158952Y0081768D01*
X0159513Y0080415D01*
X0160548Y0079379D01*
X0161901Y0078819D01*
X0163366Y0078819D01*
X0164719Y0079379D01*
X0165754Y0080415D01*
X0166314Y0081768D01*
X0166314Y0083232D01*
X0165754Y0084585D01*
X0164833Y0085506D01*
X0164833Y0094411D01*
X0162833Y0096411D01*
X0162833Y0117651D01*
X0158133Y0122352D01*
X0158133Y0123300D01*
X0168222Y0123300D01*
X0168433Y0123089D01*
X0168433Y0121506D01*
X0167513Y0120585D01*
X0166952Y0119232D01*
X0166952Y0117768D01*
X0167513Y0116415D01*
X0168548Y0115379D01*
X0169901Y0114819D01*
X0171366Y0114819D01*
X0172719Y0115379D01*
X0173754Y0116415D01*
X0174314Y0117768D01*
X0174314Y0119232D01*
X0173754Y0120585D01*
X0172833Y0121506D01*
X0172833Y0124911D01*
X0171545Y0126200D01*
X0170045Y0127700D01*
X0157589Y0127700D01*
X0157137Y0128153D01*
X0150610Y0128153D01*
X0150133Y0127676D01*
X0149656Y0128153D01*
X0148833Y0128153D01*
X0148833Y0128911D01*
X0147545Y0130200D01*
X0140045Y0137700D01*
X0135639Y0137700D01*
X0134719Y0138621D01*
X0133366Y0139181D01*
X0131901Y0139181D01*
X0130548Y0138621D01*
X0129513Y0137585D01*
X0128952Y0136232D01*
X0128952Y0134768D01*
X0129513Y0133415D01*
X0130548Y0132379D01*
X0131901Y0131819D01*
X0133366Y0131819D01*
X0134719Y0132379D01*
X0135639Y0133300D01*
X0138222Y0133300D01*
X0143369Y0128153D01*
X0143130Y0128153D01*
X0142134Y0127157D01*
X0142134Y0125700D01*
X0137222Y0125700D01*
X0129383Y0117861D01*
X0127833Y0119411D01*
X0127833Y0138589D01*
X0131545Y0142300D01*
X0141222Y0142300D01*
X0154222Y0129300D01*
X0200585Y0129300D01*
X0200433Y0128935D01*
X0200433Y0127065D01*
X0201149Y0125338D01*
X0202471Y0124016D01*
X0204198Y0123300D01*
X0212068Y0123300D01*
X0212834Y0123617D01*
X0212834Y0098533D01*
X0212189Y0098800D01*
X0205278Y0098800D01*
X0203698Y0098145D01*
X0202488Y0096936D01*
X0202183Y0096200D01*
X0190222Y0096200D01*
X0188933Y0094911D01*
X0188933Y0054339D01*
X0190222Y0053050D01*
X0199544Y0043728D01*
X0199544Y0043385D01*
X0200104Y0042031D01*
X0200478Y0041657D01*
X0200104Y0041284D01*
X0199544Y0039930D01*
X0199544Y0038464D01*
X0200104Y0037110D01*
X0201141Y0036073D01*
X0202495Y0035513D01*
X0207929Y0035513D01*
X0209283Y0036073D01*
X0210320Y0037110D01*
X0210881Y0038464D01*
X0210881Y0039930D01*
X0210320Y0041284D01*
X0209946Y0041657D01*
X0210320Y0042031D01*
X0210881Y0043385D01*
X0210881Y0044851D01*
X0210320Y0046205D01*
X0209946Y0046579D01*
X0210320Y0046952D01*
X0210881Y0048307D01*
X0210881Y0049772D01*
X0210320Y0051126D01*
X0209946Y0051500D01*
X0210320Y0051874D01*
X0210881Y0053228D01*
X0210881Y0054693D01*
X0210320Y0056048D01*
X0209946Y0056421D01*
X0210320Y0056795D01*
X0210881Y0058149D01*
X0210881Y0059615D01*
X0210320Y0060969D01*
X0209946Y0061343D01*
X0210320Y0061716D01*
X0210881Y0063070D01*
X0210881Y0064536D01*
X0210320Y0065890D01*
X0209283Y0066927D01*
X0207929Y0067487D01*
X0202495Y0067487D01*
X0201141Y0066927D01*
X0200414Y0066200D01*
X0198583Y0066200D01*
X0198583Y0067236D01*
X0198020Y0068596D01*
X0196979Y0069637D01*
X0195619Y0070200D01*
X0194147Y0070200D01*
X0193333Y0069863D01*
X0193333Y0091800D01*
X0202752Y0091800D01*
X0203698Y0090855D01*
X0205278Y0090200D01*
X0212189Y0090200D01*
X0212834Y0090467D01*
X0212834Y0088533D01*
X0212189Y0088800D01*
X0205278Y0088800D01*
X0203698Y0088145D01*
X0202488Y0086936D01*
X0201833Y0085355D01*
X0201833Y0083645D01*
X0202488Y0082064D01*
X0203698Y0080855D01*
X0205278Y0080200D01*
X0212189Y0080200D01*
X0212834Y0080467D01*
X0212834Y0019011D01*
X0209963Y0020200D01*
X0206303Y0020200D01*
X0202922Y0018799D01*
X0200334Y0016211D01*
X0198933Y0012830D01*
X0198933Y0009170D01*
X0200246Y0006000D01*
X0156745Y0006000D01*
X0161545Y0010800D01*
X0162833Y0012089D01*
X0162833Y0055994D01*
X0163754Y0056915D01*
X0164314Y0058268D01*
X0164314Y0059732D01*
X0163754Y0061085D01*
X0162719Y0062121D01*
X0161366Y0062681D01*
X0159901Y0062681D01*
X0158548Y0062121D01*
X0157513Y0061085D01*
X0156952Y0059732D01*
X0156952Y0058268D01*
X0157513Y0056915D01*
X0158433Y0055994D01*
X0158433Y0013911D01*
X0153222Y0008700D01*
X0108045Y0008700D01*
X0107230Y0009515D01*
X0107933Y0010219D01*
X0107933Y0013781D01*
X0105414Y0016300D01*
X0101852Y0016300D01*
X0099486Y0013934D01*
X0099279Y0014436D01*
X0098069Y0015645D01*
X0096489Y0016300D01*
X0094778Y0016300D01*
X0093198Y0015645D01*
X0091988Y0014436D01*
X0091936Y0014309D01*
X0091545Y0014700D01*
X0086545Y0019700D01*
X0084959Y0019700D01*
X0084959Y0024826D01*
X0084286Y0025500D01*
X0084959Y0026174D01*
X0084959Y0026800D01*
X0086222Y0026800D01*
X0088933Y0024089D01*
X0090222Y0022800D01*
X0100545Y0022800D01*
X0101545Y0023800D01*
X0102833Y0025089D01*
X0102833Y0029200D01*
X0104914Y0029200D01*
X0107433Y0031719D01*
X0107433Y0035281D01*
X0104914Y0037800D01*
X0101352Y0037800D01*
X0098986Y0035434D01*
X0098779Y0035936D01*
X0098980Y0035449D02*
X0099002Y0035449D01*
X0100999Y0037446D02*
X0096842Y0037446D01*
X0093300Y0038445D02*
X0115117Y0038445D01*
X0114119Y0039443D02*
X0092301Y0039443D01*
X0091303Y0040442D02*
X0113120Y0040442D01*
X0112122Y0041440D02*
X0090304Y0041440D01*
X0089306Y0042439D02*
X0111123Y0042439D01*
X0110125Y0043437D02*
X0088307Y0043437D01*
X0087833Y0044436D02*
X0109126Y0044436D01*
X0108577Y0045434D02*
X0102495Y0045434D01*
X0104577Y0046433D02*
X0108163Y0046433D01*
X0108133Y0047432D02*
X0105576Y0047432D01*
X0106574Y0048430D02*
X0108133Y0048430D01*
X0108133Y0049429D02*
X0107198Y0049429D01*
X0107611Y0050427D02*
X0108133Y0050427D01*
X0108133Y0051426D02*
X0108025Y0051426D01*
X0108133Y0056313D02*
X0106933Y0059211D01*
X0104345Y0061799D01*
X0102653Y0062500D01*
X0105062Y0062500D01*
X0108133Y0059429D01*
X0108133Y0056313D01*
X0108133Y0056418D02*
X0108090Y0056418D01*
X0108133Y0057417D02*
X0107676Y0057417D01*
X0107263Y0058415D02*
X0108133Y0058415D01*
X0108133Y0059414D02*
X0106730Y0059414D01*
X0107150Y0060412D02*
X0105732Y0060412D01*
X0106152Y0061411D02*
X0104733Y0061411D01*
X0105153Y0062409D02*
X0102872Y0062409D01*
X0095394Y0062409D02*
X0088590Y0062409D01*
X0089314Y0061411D02*
X0093533Y0061411D01*
X0092535Y0060412D02*
X0089314Y0060412D01*
X0089314Y0059414D02*
X0091536Y0059414D01*
X0091004Y0058415D02*
X0089314Y0058415D01*
X0089314Y0057417D02*
X0090591Y0057417D01*
X0090177Y0056418D02*
X0089314Y0056418D01*
X0089933Y0055420D02*
X0088419Y0055420D01*
X0087833Y0054421D02*
X0089933Y0054421D01*
X0089933Y0053423D02*
X0087833Y0053423D01*
X0087833Y0052424D02*
X0089933Y0052424D01*
X0090242Y0051426D02*
X0087833Y0051426D01*
X0087833Y0050427D02*
X0090655Y0050427D01*
X0091069Y0049429D02*
X0087833Y0049429D01*
X0087833Y0048430D02*
X0091693Y0048430D01*
X0092691Y0047432D02*
X0087833Y0047432D01*
X0087833Y0046433D02*
X0093690Y0046433D01*
X0095772Y0045434D02*
X0087833Y0045434D01*
X0083433Y0045434D02*
X0065833Y0045434D01*
X0065833Y0044436D02*
X0083433Y0044436D01*
X0083433Y0043437D02*
X0074974Y0043437D01*
X0074938Y0043474D02*
X0065833Y0043474D01*
X0065833Y0056800D01*
X0081952Y0056800D01*
X0081952Y0056315D01*
X0082948Y0055319D01*
X0083433Y0055319D01*
X0083433Y0042089D01*
X0084722Y0040800D01*
X0090931Y0034591D01*
X0090833Y0034355D01*
X0090833Y0032645D01*
X0091488Y0031064D01*
X0092698Y0029855D01*
X0094278Y0029200D01*
X0095989Y0029200D01*
X0097569Y0029855D01*
X0098433Y0030719D01*
X0098433Y0027200D01*
X0092045Y0027200D01*
X0088045Y0031200D01*
X0084959Y0031200D01*
X0084959Y0031716D01*
X0083963Y0032712D01*
X0083333Y0032712D01*
X0083333Y0035911D01*
X0082045Y0037200D01*
X0078045Y0041200D01*
X0075934Y0041200D01*
X0075934Y0042478D01*
X0074938Y0043474D01*
X0075934Y0042439D02*
X0083433Y0042439D01*
X0084082Y0041440D02*
X0075934Y0041440D01*
X0077133Y0039000D02*
X0081133Y0035000D01*
X0081133Y0029000D01*
X0087133Y0029000D01*
X0091133Y0025000D01*
X0099633Y0025000D01*
X0100633Y0026000D01*
X0100633Y0030500D01*
X0103133Y0033000D01*
X0103133Y0033500D01*
X0106267Y0036448D02*
X0117114Y0036448D01*
X0117511Y0035449D02*
X0107265Y0035449D01*
X0107433Y0034451D02*
X0117511Y0034451D01*
X0117511Y0033452D02*
X0107433Y0033452D01*
X0107433Y0032454D02*
X0117511Y0032454D01*
X0117511Y0031455D02*
X0107170Y0031455D01*
X0106171Y0030457D02*
X0117511Y0030457D01*
X0117511Y0029458D02*
X0105173Y0029458D01*
X0102833Y0028460D02*
X0117511Y0028460D01*
X0117511Y0027461D02*
X0102833Y0027461D01*
X0102833Y0026463D02*
X0117511Y0026463D01*
X0117511Y0025464D02*
X0102833Y0025464D01*
X0102210Y0024466D02*
X0117511Y0024466D01*
X0117511Y0023467D02*
X0101212Y0023467D01*
X0098433Y0027461D02*
X0091783Y0027461D01*
X0090785Y0028460D02*
X0098433Y0028460D01*
X0098433Y0029458D02*
X0096612Y0029458D01*
X0098171Y0030457D02*
X0098433Y0030457D01*
X0093654Y0029458D02*
X0089786Y0029458D01*
X0088788Y0030457D02*
X0092095Y0030457D01*
X0091326Y0031455D02*
X0084959Y0031455D01*
X0084221Y0032454D02*
X0090912Y0032454D01*
X0090833Y0033452D02*
X0083333Y0033452D01*
X0083333Y0034451D02*
X0090873Y0034451D01*
X0090073Y0035449D02*
X0083333Y0035449D01*
X0082797Y0036448D02*
X0089074Y0036448D01*
X0088076Y0037446D02*
X0081798Y0037446D01*
X0080800Y0038445D02*
X0087077Y0038445D01*
X0086079Y0039443D02*
X0079801Y0039443D01*
X0078803Y0040442D02*
X0085080Y0040442D01*
X0083433Y0046433D02*
X0065833Y0046433D01*
X0065833Y0047432D02*
X0083433Y0047432D01*
X0083433Y0048430D02*
X0065833Y0048430D01*
X0065833Y0049429D02*
X0083433Y0049429D01*
X0083433Y0050427D02*
X0065833Y0050427D01*
X0065833Y0051426D02*
X0083433Y0051426D01*
X0083433Y0052424D02*
X0065833Y0052424D01*
X0065833Y0053423D02*
X0083433Y0053423D01*
X0083433Y0054421D02*
X0065833Y0054421D01*
X0065833Y0055420D02*
X0082847Y0055420D01*
X0081952Y0056418D02*
X0065833Y0056418D01*
X0061433Y0056418D02*
X0008133Y0056418D01*
X0008133Y0055420D02*
X0061433Y0055420D01*
X0061433Y0054421D02*
X0008133Y0054421D01*
X0008133Y0053423D02*
X0061433Y0053423D01*
X0061433Y0052424D02*
X0008133Y0052424D01*
X0008133Y0051426D02*
X0061433Y0051426D01*
X0061433Y0050427D02*
X0008133Y0050427D01*
X0008133Y0049429D02*
X0061433Y0049429D01*
X0061433Y0048430D02*
X0008133Y0048430D01*
X0008133Y0047432D02*
X0061433Y0047432D01*
X0061433Y0046433D02*
X0008133Y0046433D01*
X0008133Y0045434D02*
X0061433Y0045434D01*
X0061433Y0044436D02*
X0008133Y0044436D01*
X0008133Y0043437D02*
X0061433Y0043437D01*
X0061433Y0042439D02*
X0008133Y0042439D01*
X0008133Y0041440D02*
X0061433Y0041440D01*
X0061433Y0040442D02*
X0008133Y0040442D01*
X0008133Y0039443D02*
X0061433Y0039443D01*
X0061433Y0038445D02*
X0051085Y0038445D01*
X0051463Y0037446D02*
X0061433Y0037446D01*
X0061433Y0036448D02*
X0051463Y0036448D01*
X0051463Y0035449D02*
X0061433Y0035449D01*
X0061433Y0034451D02*
X0051463Y0034451D01*
X0051463Y0033452D02*
X0061433Y0033452D01*
X0061433Y0032454D02*
X0051463Y0032454D01*
X0051463Y0027461D02*
X0063735Y0027461D01*
X0064444Y0026463D02*
X0051463Y0026463D01*
X0046133Y0030250D02*
X0045433Y0030276D01*
X0046133Y0030250D02*
X0063633Y0030250D01*
X0065833Y0034375D02*
X0065833Y0035274D01*
X0074938Y0035274D01*
X0075934Y0036270D01*
X0075934Y0036800D01*
X0076222Y0036800D01*
X0078933Y0034089D01*
X0078933Y0032712D01*
X0078303Y0032712D01*
X0077307Y0031716D01*
X0077307Y0027437D01*
X0075934Y0028811D01*
X0075934Y0033379D01*
X0074938Y0034375D01*
X0065833Y0034375D01*
X0065833Y0034451D02*
X0078571Y0034451D01*
X0078933Y0033452D02*
X0075861Y0033452D01*
X0075934Y0032454D02*
X0078045Y0032454D01*
X0077307Y0031455D02*
X0075934Y0031455D01*
X0075934Y0030457D02*
X0077307Y0030457D01*
X0077307Y0029458D02*
X0075934Y0029458D01*
X0076285Y0028460D02*
X0077307Y0028460D01*
X0077283Y0027461D02*
X0077307Y0027461D01*
X0077133Y0024500D02*
X0073633Y0028000D01*
X0077133Y0024500D02*
X0077133Y0022500D01*
X0080883Y0022500D01*
X0081133Y0022750D01*
X0081133Y0022055D01*
X0084959Y0022469D02*
X0117511Y0022469D01*
X0117511Y0021470D02*
X0084959Y0021470D01*
X0084959Y0020472D02*
X0117511Y0020472D01*
X0117511Y0019473D02*
X0086771Y0019473D01*
X0087770Y0018475D02*
X0117435Y0018475D01*
X0117022Y0017476D02*
X0088768Y0017476D01*
X0089767Y0016478D02*
X0116677Y0016478D01*
X0116677Y0015479D02*
X0106235Y0015479D01*
X0107234Y0014481D02*
X0116677Y0014481D01*
X0117026Y0013482D02*
X0107933Y0013482D01*
X0107933Y0012484D02*
X0117440Y0012484D01*
X0118260Y0011485D02*
X0107933Y0011485D01*
X0107933Y0010487D02*
X0119332Y0010487D01*
X0125690Y0010487D02*
X0155009Y0010487D01*
X0156007Y0011485D02*
X0126762Y0011485D01*
X0127583Y0012484D02*
X0157006Y0012484D01*
X0158004Y0013482D02*
X0127996Y0013482D01*
X0128345Y0014481D02*
X0158433Y0014481D01*
X0158433Y0015479D02*
X0128345Y0015479D01*
X0128345Y0016478D02*
X0158433Y0016478D01*
X0158433Y0017476D02*
X0128001Y0017476D01*
X0127587Y0018475D02*
X0158433Y0018475D01*
X0158433Y0019473D02*
X0127511Y0019473D01*
X0127511Y0020472D02*
X0158433Y0020472D01*
X0158433Y0021470D02*
X0127511Y0021470D01*
X0127511Y0022469D02*
X0158433Y0022469D01*
X0158433Y0023467D02*
X0127511Y0023467D01*
X0127511Y0024466D02*
X0158433Y0024466D01*
X0158433Y0025464D02*
X0127511Y0025464D01*
X0127511Y0026463D02*
X0158433Y0026463D01*
X0158433Y0027461D02*
X0127511Y0027461D01*
X0127511Y0028460D02*
X0158433Y0028460D01*
X0158433Y0029458D02*
X0127511Y0029458D01*
X0127511Y0030457D02*
X0158433Y0030457D01*
X0158433Y0031455D02*
X0127511Y0031455D01*
X0127511Y0032454D02*
X0158433Y0032454D01*
X0158433Y0033452D02*
X0127511Y0033452D01*
X0127511Y0034451D02*
X0158433Y0034451D01*
X0158433Y0035449D02*
X0127511Y0035449D01*
X0127511Y0036448D02*
X0158433Y0036448D01*
X0158433Y0037446D02*
X0127511Y0037446D01*
X0127511Y0038445D02*
X0158433Y0038445D01*
X0158433Y0039443D02*
X0127376Y0039443D01*
X0126962Y0040442D02*
X0158433Y0040442D01*
X0158433Y0041440D02*
X0126264Y0041440D01*
X0125265Y0042439D02*
X0158433Y0042439D01*
X0158433Y0043437D02*
X0124267Y0043437D01*
X0123268Y0044436D02*
X0158433Y0044436D01*
X0158433Y0045434D02*
X0122270Y0045434D01*
X0121271Y0046433D02*
X0158433Y0046433D01*
X0158433Y0047432D02*
X0120273Y0047432D01*
X0119274Y0048430D02*
X0158433Y0048430D01*
X0158433Y0049429D02*
X0118276Y0049429D01*
X0118133Y0050427D02*
X0158433Y0050427D01*
X0158433Y0051426D02*
X0118133Y0051426D01*
X0118133Y0052424D02*
X0158433Y0052424D01*
X0158433Y0053423D02*
X0118133Y0053423D01*
X0118133Y0054421D02*
X0158433Y0054421D01*
X0158433Y0055420D02*
X0118133Y0055420D01*
X0118133Y0056418D02*
X0158009Y0056418D01*
X0157305Y0057417D02*
X0118133Y0057417D01*
X0118133Y0058415D02*
X0119581Y0058415D01*
X0118363Y0059414D02*
X0118133Y0059414D01*
X0116979Y0065405D02*
X0116300Y0065405D01*
X0115301Y0066403D02*
X0117393Y0066403D01*
X0118147Y0067402D02*
X0114303Y0067402D01*
X0113304Y0068400D02*
X0119145Y0068400D01*
X0125877Y0068400D02*
X0141057Y0068400D01*
X0140643Y0069399D02*
X0112306Y0069399D01*
X0111307Y0070397D02*
X0140165Y0070397D01*
X0139166Y0071396D02*
X0110309Y0071396D01*
X0102022Y0081500D02*
X0094704Y0081500D01*
X0069133Y0107071D01*
X0069133Y0113172D01*
X0069605Y0112034D01*
X0071152Y0110487D01*
X0073173Y0109650D01*
X0075361Y0109650D01*
X0077383Y0110487D01*
X0078930Y0112034D01*
X0079767Y0114056D01*
X0079767Y0116244D01*
X0079133Y0117774D01*
X0079133Y0130995D01*
X0078372Y0132832D01*
X0072133Y0139071D01*
X0072133Y0164429D01*
X0075966Y0168261D01*
X0077372Y0169668D01*
X0077536Y0170064D01*
X0078506Y0171034D01*
X0078695Y0171491D01*
X0080622Y0173418D01*
X0090204Y0183000D01*
X0093733Y0183000D01*
X0093733Y0181667D01*
X0094753Y0179205D01*
X0096638Y0177320D01*
X0099101Y0176300D01*
X0101766Y0176300D01*
X0104229Y0177320D01*
X0106113Y0179205D01*
X0107133Y0181667D01*
X0107133Y0194333D01*
X0106113Y0196795D01*
X0104229Y0198680D01*
X0101766Y0199700D01*
X0099101Y0199700D01*
X0096638Y0198680D01*
X0094753Y0196795D01*
X0093733Y0194333D01*
X0093733Y0193000D01*
X0087139Y0193000D01*
X0085301Y0192239D01*
X0074133Y0181071D01*
X0064372Y0190832D01*
X0062966Y0192239D01*
X0061128Y0193000D01*
X0027139Y0193000D01*
X0025301Y0192239D01*
X0020801Y0187739D01*
X0019395Y0186332D01*
X0018633Y0184495D01*
X0018633Y0163202D01*
X0018372Y0163832D01*
X0016966Y0165239D01*
X0016833Y0165294D01*
X0016833Y0178525D01*
X0017513Y0179205D01*
X0018533Y0181667D01*
X0018533Y0194333D01*
X0017513Y0196795D01*
X0015629Y0198680D01*
X0013166Y0199700D01*
X0010501Y0199700D01*
X0008133Y0198719D01*
X0008133Y0201961D01*
X0124633Y0201961D01*
X0124633Y0176500D01*
X0176133Y0176500D01*
X0176133Y0201961D01*
X0200023Y0201961D01*
X0198933Y0199330D01*
X0198933Y0195670D01*
X0200334Y0192289D01*
X0202922Y0189701D01*
X0206303Y0188300D01*
X0209963Y0188300D01*
X0212834Y0189489D01*
X0212834Y0182383D01*
X0212068Y0182700D01*
X0204198Y0182700D01*
X0202471Y0181984D01*
X0201149Y0180662D01*
X0200433Y0178935D01*
X0200433Y0177065D01*
X0201149Y0175338D01*
X0201504Y0174982D01*
X0198972Y0172450D01*
X0195195Y0172450D01*
X0197295Y0174550D01*
X0198583Y0175839D01*
X0198583Y0186217D01*
X0199520Y0187154D01*
X0200083Y0188514D01*
X0200083Y0189986D01*
X0199520Y0191346D01*
X0198479Y0192387D01*
X0197119Y0192950D01*
X0195647Y0192950D01*
X0194287Y0192387D01*
X0193247Y0191346D01*
X0192683Y0189986D01*
X0192683Y0188514D01*
X0193247Y0187154D01*
X0194183Y0186217D01*
X0194183Y0177661D01*
X0191472Y0174950D01*
X0184583Y0174950D01*
X0184583Y0178300D01*
X0185869Y0178300D01*
X0187229Y0178863D01*
X0188270Y0179904D01*
X0188833Y0181264D01*
X0188833Y0182736D01*
X0188270Y0184096D01*
X0187229Y0185137D01*
X0185869Y0185700D01*
X0184397Y0185700D01*
X0183037Y0185137D01*
X0181997Y0184096D01*
X0181433Y0182736D01*
X0181433Y0181411D01*
X0180183Y0180161D01*
X0180183Y0176161D01*
X0177722Y0173700D01*
X0128972Y0173700D01*
X0126722Y0171450D01*
X0125397Y0171450D01*
X0124037Y0170887D01*
X0122997Y0169846D01*
X0122433Y0168486D01*
X0122433Y0167014D01*
X0122771Y0166200D01*
X0102346Y0166200D01*
X0101272Y0166645D01*
X0095837Y0166645D01*
X0094483Y0166084D01*
X0093447Y0165048D01*
X0093007Y0163985D01*
X0091722Y0162700D01*
X0090433Y0161411D01*
X0090433Y0155089D01*
X0101433Y0144089D01*
X0101433Y0127624D01*
X0100272Y0128105D01*
X0094837Y0128105D01*
X0093483Y0127545D01*
X0092447Y0126508D01*
X0092319Y0126200D01*
X0090222Y0126200D01*
X0088933Y0124911D01*
X0088933Y0094589D01*
X0090222Y0093300D01*
X0102022Y0081500D01*
X0101143Y0082379D02*
X0093825Y0082379D01*
X0092826Y0083378D02*
X0100144Y0083378D01*
X0099146Y0084376D02*
X0091828Y0084376D01*
X0090829Y0085375D02*
X0098147Y0085375D01*
X0097149Y0086373D02*
X0089831Y0086373D01*
X0088832Y0087372D02*
X0096150Y0087372D01*
X0095152Y0088370D02*
X0087834Y0088370D01*
X0086835Y0089369D02*
X0094153Y0089369D01*
X0093155Y0090368D02*
X0085837Y0090368D01*
X0084838Y0091366D02*
X0092156Y0091366D01*
X0091158Y0092365D02*
X0083840Y0092365D01*
X0082841Y0093363D02*
X0090159Y0093363D01*
X0089160Y0094362D02*
X0081843Y0094362D01*
X0080844Y0095360D02*
X0088933Y0095360D01*
X0088933Y0096359D02*
X0079846Y0096359D01*
X0078847Y0097357D02*
X0088933Y0097357D01*
X0088933Y0098356D02*
X0077849Y0098356D01*
X0076850Y0099354D02*
X0088933Y0099354D01*
X0088933Y0100353D02*
X0075852Y0100353D01*
X0074853Y0101351D02*
X0088933Y0101351D01*
X0088933Y0102350D02*
X0073855Y0102350D01*
X0072856Y0103348D02*
X0088933Y0103348D01*
X0088933Y0104347D02*
X0071858Y0104347D01*
X0070859Y0105345D02*
X0088933Y0105345D01*
X0088933Y0106344D02*
X0069861Y0106344D01*
X0069133Y0107342D02*
X0088933Y0107342D01*
X0088933Y0108341D02*
X0069133Y0108341D01*
X0069133Y0109339D02*
X0088933Y0109339D01*
X0088933Y0110338D02*
X0077022Y0110338D01*
X0078232Y0111336D02*
X0088933Y0111336D01*
X0088933Y0112335D02*
X0079054Y0112335D01*
X0079468Y0113333D02*
X0088933Y0113333D01*
X0088933Y0114332D02*
X0079767Y0114332D01*
X0079767Y0115330D02*
X0088933Y0115330D01*
X0088933Y0116329D02*
X0079732Y0116329D01*
X0079318Y0117327D02*
X0088933Y0117327D01*
X0088933Y0118326D02*
X0079133Y0118326D01*
X0079133Y0119324D02*
X0088933Y0119324D01*
X0088933Y0120323D02*
X0079133Y0120323D01*
X0079133Y0121321D02*
X0088933Y0121321D01*
X0088933Y0122320D02*
X0079133Y0122320D01*
X0079133Y0123318D02*
X0088933Y0123318D01*
X0088933Y0124317D02*
X0079133Y0124317D01*
X0079133Y0125315D02*
X0089337Y0125315D01*
X0091133Y0124000D02*
X0091133Y0095500D01*
X0103133Y0083500D01*
X0144633Y0083500D01*
X0156383Y0071750D01*
X0164618Y0063516D01*
X0169755Y0063516D01*
X0169883Y0062750D01*
X0176133Y0062750D01*
X0176133Y0084500D01*
X0179095Y0081381D02*
X0188933Y0081381D01*
X0188933Y0082379D02*
X0179909Y0082379D01*
X0180323Y0083378D02*
X0188933Y0083378D01*
X0188933Y0084376D02*
X0180433Y0084376D01*
X0180425Y0085375D02*
X0188933Y0085375D01*
X0188933Y0086373D02*
X0180012Y0086373D01*
X0179342Y0087372D02*
X0188933Y0087372D01*
X0188933Y0088370D02*
X0178026Y0088370D01*
X0177393Y0090368D02*
X0188933Y0090368D01*
X0188933Y0091366D02*
X0179080Y0091366D01*
X0178569Y0090855D02*
X0179779Y0092064D01*
X0180433Y0093645D01*
X0180433Y0095355D01*
X0179779Y0096936D01*
X0178569Y0098145D01*
X0176989Y0098800D01*
X0170078Y0098800D01*
X0168498Y0098145D01*
X0167288Y0096936D01*
X0166633Y0095355D01*
X0166633Y0093645D01*
X0167288Y0092064D01*
X0168498Y0090855D01*
X0170078Y0090200D01*
X0176989Y0090200D01*
X0178569Y0090855D01*
X0179903Y0092365D02*
X0188933Y0092365D01*
X0188933Y0093363D02*
X0180317Y0093363D01*
X0180433Y0094362D02*
X0188933Y0094362D01*
X0189382Y0095360D02*
X0180431Y0095360D01*
X0180018Y0096359D02*
X0202249Y0096359D01*
X0202909Y0097357D02*
X0179357Y0097357D01*
X0178062Y0098356D02*
X0204205Y0098356D01*
X0206133Y0094500D02*
X0206133Y0094000D01*
X0191133Y0094000D01*
X0191133Y0055250D01*
X0201133Y0045250D01*
X0204883Y0045250D01*
X0205212Y0044118D01*
X0210092Y0046433D02*
X0212834Y0046433D01*
X0212834Y0045434D02*
X0210639Y0045434D01*
X0210881Y0044436D02*
X0212834Y0044436D01*
X0212834Y0043437D02*
X0210881Y0043437D01*
X0210489Y0042439D02*
X0212834Y0042439D01*
X0212834Y0041440D02*
X0210163Y0041440D01*
X0210668Y0040442D02*
X0212834Y0040442D01*
X0212834Y0039443D02*
X0210881Y0039443D01*
X0210873Y0038445D02*
X0212834Y0038445D01*
X0212834Y0037446D02*
X0210459Y0037446D01*
X0209658Y0036448D02*
X0212834Y0036448D01*
X0212834Y0035449D02*
X0162833Y0035449D01*
X0162833Y0034451D02*
X0212834Y0034451D01*
X0212834Y0033452D02*
X0162833Y0033452D01*
X0162833Y0032454D02*
X0212834Y0032454D01*
X0212834Y0031455D02*
X0162833Y0031455D01*
X0162833Y0030457D02*
X0212834Y0030457D01*
X0212834Y0029458D02*
X0162833Y0029458D01*
X0162833Y0028460D02*
X0212834Y0028460D01*
X0212834Y0027461D02*
X0162833Y0027461D01*
X0162833Y0026463D02*
X0212834Y0026463D01*
X0212834Y0025464D02*
X0162833Y0025464D01*
X0162833Y0024466D02*
X0212834Y0024466D01*
X0212834Y0023467D02*
X0162833Y0023467D01*
X0162833Y0022469D02*
X0212834Y0022469D01*
X0212834Y0021470D02*
X0162833Y0021470D01*
X0162833Y0020472D02*
X0166552Y0020472D01*
X0166451Y0020430D02*
X0164810Y0018789D01*
X0163922Y0016645D01*
X0163922Y0014324D01*
X0164810Y0012180D01*
X0166451Y0010539D01*
X0168595Y0009650D01*
X0170916Y0009650D01*
X0173060Y0010539D01*
X0174701Y0012180D01*
X0175589Y0014324D01*
X0175589Y0016645D01*
X0174701Y0018789D01*
X0173060Y0020430D01*
X0170916Y0021318D01*
X0168595Y0021318D01*
X0166451Y0020430D01*
X0165494Y0019473D02*
X0162833Y0019473D01*
X0162833Y0018475D02*
X0164680Y0018475D01*
X0164266Y0017476D02*
X0162833Y0017476D01*
X0162833Y0016478D02*
X0163922Y0016478D01*
X0163922Y0015479D02*
X0162833Y0015479D01*
X0162833Y0014481D02*
X0163922Y0014481D01*
X0164270Y0013482D02*
X0162833Y0013482D01*
X0162833Y0012484D02*
X0164684Y0012484D01*
X0165504Y0011485D02*
X0162230Y0011485D01*
X0161545Y0010800D02*
X0161545Y0010800D01*
X0161231Y0010487D02*
X0166576Y0010487D01*
X0172935Y0010487D02*
X0178333Y0010487D01*
X0178333Y0010045D02*
X0178988Y0008464D01*
X0180198Y0007255D01*
X0181778Y0006600D01*
X0183489Y0006600D01*
X0185069Y0007255D01*
X0186279Y0008464D01*
X0186933Y0010045D01*
X0186933Y0016955D01*
X0186279Y0018536D01*
X0185069Y0019745D01*
X0183489Y0020400D01*
X0181778Y0020400D01*
X0180198Y0019745D01*
X0178988Y0018536D01*
X0178333Y0016955D01*
X0178333Y0010045D01*
X0178564Y0009488D02*
X0160233Y0009488D01*
X0159234Y0008490D02*
X0178977Y0008490D01*
X0179961Y0007491D02*
X0158236Y0007491D01*
X0157237Y0006493D02*
X0200042Y0006493D01*
X0199629Y0007491D02*
X0185306Y0007491D01*
X0186289Y0008490D02*
X0199215Y0008490D01*
X0198933Y0009488D02*
X0186703Y0009488D01*
X0186933Y0010487D02*
X0198933Y0010487D01*
X0198933Y0011485D02*
X0186933Y0011485D01*
X0186933Y0012484D02*
X0198933Y0012484D01*
X0199203Y0013482D02*
X0186933Y0013482D01*
X0186933Y0014481D02*
X0199617Y0014481D01*
X0200031Y0015479D02*
X0186933Y0015479D01*
X0186933Y0016478D02*
X0200600Y0016478D01*
X0201599Y0017476D02*
X0186718Y0017476D01*
X0186304Y0018475D02*
X0202597Y0018475D01*
X0204549Y0019473D02*
X0185341Y0019473D01*
X0179925Y0019473D02*
X0174017Y0019473D01*
X0174831Y0018475D02*
X0178963Y0018475D01*
X0178549Y0017476D02*
X0175245Y0017476D01*
X0175589Y0016478D02*
X0178333Y0016478D01*
X0178333Y0015479D02*
X0175589Y0015479D01*
X0175589Y0014481D02*
X0178333Y0014481D01*
X0178333Y0013482D02*
X0175241Y0013482D01*
X0174827Y0012484D02*
X0178333Y0012484D01*
X0178333Y0011485D02*
X0174007Y0011485D01*
X0172959Y0020472D02*
X0212834Y0020472D01*
X0212834Y0019473D02*
X0211718Y0019473D01*
X0200766Y0036448D02*
X0162833Y0036448D01*
X0162833Y0037446D02*
X0180006Y0037446D01*
X0179007Y0038445D02*
X0162833Y0038445D01*
X0162833Y0039443D02*
X0178582Y0039443D01*
X0178333Y0040442D02*
X0162833Y0040442D01*
X0162833Y0041440D02*
X0178333Y0041440D01*
X0178333Y0042439D02*
X0162833Y0042439D01*
X0162833Y0043437D02*
X0178333Y0043437D01*
X0178333Y0044436D02*
X0162833Y0044436D01*
X0162833Y0045434D02*
X0178333Y0045434D01*
X0178333Y0046433D02*
X0162833Y0046433D01*
X0162833Y0047432D02*
X0178531Y0047432D01*
X0178944Y0048430D02*
X0162833Y0048430D01*
X0162833Y0049429D02*
X0179881Y0049429D01*
X0180183Y0050427D02*
X0162833Y0050427D01*
X0162833Y0051426D02*
X0180183Y0051426D01*
X0180183Y0052424D02*
X0162833Y0052424D01*
X0162833Y0053423D02*
X0180183Y0053423D01*
X0180183Y0054421D02*
X0162833Y0054421D01*
X0162833Y0055420D02*
X0180183Y0055420D01*
X0180183Y0056418D02*
X0163257Y0056418D01*
X0163962Y0057417D02*
X0180183Y0057417D01*
X0180183Y0058415D02*
X0172686Y0058415D01*
X0173904Y0059414D02*
X0180183Y0059414D01*
X0180183Y0060412D02*
X0174784Y0060412D01*
X0176133Y0062750D02*
X0182383Y0062750D01*
X0182383Y0044000D01*
X0182633Y0043500D01*
X0186933Y0043437D02*
X0199544Y0043437D01*
X0199936Y0042439D02*
X0186933Y0042439D01*
X0186933Y0041440D02*
X0200261Y0041440D01*
X0199756Y0040442D02*
X0186933Y0040442D01*
X0186684Y0039443D02*
X0199544Y0039443D01*
X0199551Y0038445D02*
X0186259Y0038445D01*
X0185261Y0037446D02*
X0199965Y0037446D01*
X0198836Y0044436D02*
X0186933Y0044436D01*
X0186933Y0045434D02*
X0197838Y0045434D01*
X0196839Y0046433D02*
X0186933Y0046433D01*
X0186736Y0047432D02*
X0195841Y0047432D01*
X0194842Y0048430D02*
X0186322Y0048430D01*
X0185386Y0049429D02*
X0193844Y0049429D01*
X0192845Y0050427D02*
X0184583Y0050427D01*
X0184583Y0051426D02*
X0191846Y0051426D01*
X0190848Y0052424D02*
X0184583Y0052424D01*
X0184583Y0053423D02*
X0189849Y0053423D01*
X0188933Y0054421D02*
X0184583Y0054421D01*
X0184583Y0055420D02*
X0188933Y0055420D01*
X0188933Y0056418D02*
X0184583Y0056418D01*
X0184583Y0057417D02*
X0188933Y0057417D01*
X0188933Y0058415D02*
X0184583Y0058415D01*
X0184583Y0059414D02*
X0188933Y0059414D01*
X0188933Y0060412D02*
X0184583Y0060412D01*
X0184583Y0061411D02*
X0188933Y0061411D01*
X0188933Y0062409D02*
X0184583Y0062409D01*
X0184583Y0063408D02*
X0188933Y0063408D01*
X0188933Y0064406D02*
X0183838Y0064406D01*
X0188933Y0065405D02*
X0178333Y0065405D01*
X0178333Y0066403D02*
X0188933Y0066403D01*
X0188933Y0067402D02*
X0178333Y0067402D01*
X0178333Y0068400D02*
X0188933Y0068400D01*
X0188933Y0069399D02*
X0178333Y0069399D01*
X0178333Y0070397D02*
X0188933Y0070397D01*
X0188933Y0071396D02*
X0178333Y0071396D01*
X0178333Y0072394D02*
X0188933Y0072394D01*
X0188933Y0073393D02*
X0178333Y0073393D01*
X0178333Y0074391D02*
X0188933Y0074391D01*
X0188933Y0075390D02*
X0178333Y0075390D01*
X0178333Y0076388D02*
X0188933Y0076388D01*
X0188933Y0077387D02*
X0178333Y0077387D01*
X0178333Y0078385D02*
X0188933Y0078385D01*
X0188933Y0079384D02*
X0178333Y0079384D01*
X0178333Y0080382D02*
X0188933Y0080382D01*
X0193333Y0080382D02*
X0204838Y0080382D01*
X0203171Y0081381D02*
X0193333Y0081381D01*
X0193333Y0082379D02*
X0202357Y0082379D01*
X0201944Y0083378D02*
X0193333Y0083378D01*
X0193333Y0084376D02*
X0201833Y0084376D01*
X0201841Y0085375D02*
X0193333Y0085375D01*
X0193333Y0086373D02*
X0202255Y0086373D01*
X0202924Y0087372D02*
X0193333Y0087372D01*
X0193333Y0088370D02*
X0204241Y0088370D01*
X0204874Y0090368D02*
X0193333Y0090368D01*
X0193333Y0091366D02*
X0203186Y0091366D01*
X0212593Y0090368D02*
X0212834Y0090368D01*
X0212834Y0089369D02*
X0193333Y0089369D01*
X0188933Y0089369D02*
X0164833Y0089369D01*
X0164833Y0088370D02*
X0169041Y0088370D01*
X0167724Y0087372D02*
X0164833Y0087372D01*
X0164833Y0086373D02*
X0167055Y0086373D01*
X0166641Y0085375D02*
X0164964Y0085375D01*
X0165840Y0084376D02*
X0166633Y0084376D01*
X0166744Y0083378D02*
X0166254Y0083378D01*
X0166314Y0082379D02*
X0167157Y0082379D01*
X0167971Y0081381D02*
X0166154Y0081381D01*
X0165722Y0080382D02*
X0169638Y0080382D01*
X0173933Y0079384D02*
X0164723Y0079384D01*
X0162633Y0082500D02*
X0162633Y0093500D01*
X0160633Y0095500D01*
X0150883Y0095500D01*
X0149883Y0094500D01*
X0148133Y0094500D01*
X0144633Y0098000D01*
X0123883Y0098000D01*
X0123633Y0097750D01*
X0112383Y0097750D01*
X0112383Y0116250D01*
X0109633Y0119000D01*
X0103633Y0119000D01*
X0098055Y0119000D01*
X0097555Y0119500D01*
X0097383Y0124000D02*
X0097555Y0124421D01*
X0097383Y0124000D02*
X0091133Y0124000D01*
X0092366Y0126314D02*
X0079133Y0126314D01*
X0079133Y0127312D02*
X0093251Y0127312D01*
X0101433Y0128311D02*
X0079133Y0128311D01*
X0079133Y0129309D02*
X0101433Y0129309D01*
X0101433Y0130308D02*
X0079133Y0130308D01*
X0079004Y0131306D02*
X0101433Y0131306D01*
X0101433Y0132305D02*
X0078591Y0132305D01*
X0077901Y0133303D02*
X0101433Y0133303D01*
X0101433Y0134302D02*
X0076902Y0134302D01*
X0075904Y0135301D02*
X0081595Y0135301D01*
X0082803Y0134800D02*
X0086463Y0134800D01*
X0089845Y0136201D01*
X0092433Y0138789D01*
X0093833Y0142170D01*
X0093833Y0145830D01*
X0092433Y0149211D01*
X0089845Y0151799D01*
X0086463Y0153200D01*
X0082803Y0153200D01*
X0079422Y0151799D01*
X0076834Y0149211D01*
X0075433Y0145830D01*
X0075433Y0142170D01*
X0076834Y0138789D01*
X0079422Y0136201D01*
X0082803Y0134800D01*
X0079324Y0136299D02*
X0074905Y0136299D01*
X0073907Y0137298D02*
X0078325Y0137298D01*
X0077327Y0138296D02*
X0072908Y0138296D01*
X0072133Y0139295D02*
X0076624Y0139295D01*
X0076211Y0140293D02*
X0072133Y0140293D01*
X0072133Y0141292D02*
X0075797Y0141292D01*
X0075433Y0142290D02*
X0072133Y0142290D01*
X0072133Y0143289D02*
X0075433Y0143289D01*
X0075433Y0144287D02*
X0072133Y0144287D01*
X0072133Y0145286D02*
X0075433Y0145286D01*
X0075621Y0146284D02*
X0072133Y0146284D01*
X0072133Y0147283D02*
X0076035Y0147283D01*
X0076449Y0148281D02*
X0072133Y0148281D01*
X0072133Y0149280D02*
X0076902Y0149280D01*
X0077901Y0150278D02*
X0072133Y0150278D01*
X0072133Y0151277D02*
X0078899Y0151277D01*
X0080571Y0152275D02*
X0072133Y0152275D01*
X0072133Y0153274D02*
X0092248Y0153274D01*
X0091250Y0154272D02*
X0072133Y0154272D01*
X0072133Y0155271D02*
X0090433Y0155271D01*
X0090433Y0156269D02*
X0072133Y0156269D01*
X0072133Y0157268D02*
X0090433Y0157268D01*
X0090433Y0158266D02*
X0072133Y0158266D01*
X0072133Y0159265D02*
X0090433Y0159265D01*
X0090433Y0160263D02*
X0072133Y0160263D01*
X0072133Y0161262D02*
X0090433Y0161262D01*
X0091282Y0162260D02*
X0072133Y0162260D01*
X0072133Y0163259D02*
X0092281Y0163259D01*
X0093120Y0164257D02*
X0072133Y0164257D01*
X0072960Y0165256D02*
X0093655Y0165256D01*
X0094895Y0166254D02*
X0073959Y0166254D01*
X0074957Y0167253D02*
X0122433Y0167253D01*
X0122433Y0168251D02*
X0075956Y0168251D01*
X0076954Y0169250D02*
X0122750Y0169250D01*
X0123399Y0170248D02*
X0077721Y0170248D01*
X0078594Y0171247D02*
X0124907Y0171247D01*
X0127517Y0172245D02*
X0079450Y0172245D01*
X0080448Y0173244D02*
X0128516Y0173244D01*
X0129883Y0171500D02*
X0126133Y0167750D01*
X0122748Y0166254D02*
X0102214Y0166254D01*
X0098633Y0164000D02*
X0098555Y0163921D01*
X0098555Y0162961D01*
X0097594Y0162961D01*
X0097383Y0162750D01*
X0097133Y0163000D01*
X0095133Y0163000D01*
X0092633Y0160500D01*
X0092633Y0156000D01*
X0103633Y0145000D01*
X0103633Y0119000D01*
X0102528Y0116800D02*
X0108722Y0116800D01*
X0110183Y0115339D01*
X0110183Y0099311D01*
X0109833Y0099661D01*
X0109833Y0100986D01*
X0109270Y0102346D01*
X0108229Y0103387D01*
X0106869Y0103950D01*
X0105397Y0103950D01*
X0104037Y0103387D01*
X0102997Y0102346D01*
X0102433Y0100986D01*
X0102433Y0099514D01*
X0102997Y0098154D01*
X0104037Y0097113D01*
X0105397Y0096550D01*
X0106722Y0096550D01*
X0110183Y0093089D01*
X0111472Y0091800D01*
X0132722Y0091800D01*
X0133836Y0090686D01*
X0133497Y0090346D01*
X0132933Y0088986D01*
X0132933Y0087514D01*
X0133497Y0086154D01*
X0133951Y0085700D01*
X0104045Y0085700D01*
X0093333Y0096411D01*
X0093333Y0111605D01*
X0093483Y0111455D01*
X0094837Y0110894D01*
X0100272Y0110894D01*
X0101626Y0111455D01*
X0102662Y0112492D01*
X0103223Y0113846D01*
X0103223Y0115312D01*
X0102662Y0116666D01*
X0102528Y0116800D01*
X0102802Y0116329D02*
X0109193Y0116329D01*
X0110183Y0115330D02*
X0103215Y0115330D01*
X0103223Y0114332D02*
X0110183Y0114332D01*
X0110183Y0113333D02*
X0103011Y0113333D01*
X0102505Y0112335D02*
X0110183Y0112335D01*
X0110183Y0111336D02*
X0101338Y0111336D01*
X0093771Y0111336D02*
X0093333Y0111336D01*
X0093333Y0110338D02*
X0110183Y0110338D01*
X0110183Y0109339D02*
X0093333Y0109339D01*
X0093333Y0108341D02*
X0110183Y0108341D01*
X0110183Y0107342D02*
X0093333Y0107342D01*
X0093333Y0106344D02*
X0110183Y0106344D01*
X0110183Y0105345D02*
X0093333Y0105345D01*
X0093333Y0104347D02*
X0110183Y0104347D01*
X0110183Y0103348D02*
X0108268Y0103348D01*
X0109266Y0102350D02*
X0110183Y0102350D01*
X0110183Y0101351D02*
X0109682Y0101351D01*
X0109833Y0100353D02*
X0110183Y0100353D01*
X0110140Y0099354D02*
X0110183Y0099354D01*
X0106913Y0096359D02*
X0093386Y0096359D01*
X0093333Y0097357D02*
X0103794Y0097357D01*
X0102913Y0098356D02*
X0093333Y0098356D01*
X0093333Y0099354D02*
X0102500Y0099354D01*
X0102433Y0100353D02*
X0093333Y0100353D01*
X0093333Y0101351D02*
X0102585Y0101351D01*
X0103000Y0102350D02*
X0093333Y0102350D01*
X0093333Y0103348D02*
X0103999Y0103348D01*
X0106133Y0100250D02*
X0112383Y0094000D01*
X0133633Y0094000D01*
X0136633Y0091000D01*
X0136633Y0088250D01*
X0140333Y0088370D02*
X0160433Y0088370D01*
X0160433Y0087372D02*
X0140274Y0087372D01*
X0139861Y0086373D02*
X0160433Y0086373D01*
X0160302Y0085375D02*
X0145870Y0085375D01*
X0146868Y0084376D02*
X0159426Y0084376D01*
X0159013Y0083378D02*
X0147867Y0083378D01*
X0148865Y0082379D02*
X0158952Y0082379D01*
X0159112Y0081381D02*
X0149864Y0081381D01*
X0150862Y0080382D02*
X0159545Y0080382D01*
X0160544Y0079384D02*
X0151861Y0079384D01*
X0152859Y0078385D02*
X0173933Y0078385D01*
X0173933Y0077387D02*
X0153858Y0077387D01*
X0154856Y0076388D02*
X0173933Y0076388D01*
X0173933Y0075390D02*
X0157265Y0075390D01*
X0158975Y0074391D02*
X0173933Y0074391D01*
X0173933Y0073393D02*
X0159708Y0073393D01*
X0160083Y0072394D02*
X0173933Y0072394D01*
X0173933Y0071396D02*
X0160083Y0071396D01*
X0160847Y0070397D02*
X0173933Y0070397D01*
X0173933Y0069399D02*
X0161846Y0069399D01*
X0162844Y0068400D02*
X0166390Y0068400D01*
X0165391Y0067402D02*
X0163843Y0067402D01*
X0159617Y0065405D02*
X0128043Y0065405D01*
X0128345Y0064406D02*
X0160616Y0064406D01*
X0161614Y0063408D02*
X0128345Y0063408D01*
X0128345Y0062409D02*
X0159245Y0062409D01*
X0157838Y0061411D02*
X0127954Y0061411D01*
X0127540Y0060412D02*
X0157234Y0060412D01*
X0156952Y0059414D02*
X0126660Y0059414D01*
X0125442Y0058415D02*
X0156952Y0058415D01*
X0160633Y0059000D02*
X0160633Y0013000D01*
X0154133Y0006500D01*
X0107133Y0006500D01*
X0103633Y0010000D01*
X0103633Y0012000D01*
X0101063Y0008490D02*
X0098204Y0008490D01*
X0098069Y0008355D02*
X0099279Y0009564D01*
X0099486Y0010066D01*
X0101852Y0007700D01*
X0102822Y0007700D01*
X0104522Y0006000D01*
X0087745Y0006000D01*
X0091545Y0009800D01*
X0091890Y0009800D01*
X0091988Y0009564D01*
X0093198Y0008355D01*
X0094778Y0007700D01*
X0096489Y0007700D01*
X0098069Y0008355D01*
X0099203Y0009488D02*
X0100064Y0009488D01*
X0103031Y0007491D02*
X0089236Y0007491D01*
X0090234Y0008490D02*
X0093063Y0008490D01*
X0092064Y0009488D02*
X0091233Y0009488D01*
X0090633Y0012000D02*
X0095633Y0012000D01*
X0099234Y0014481D02*
X0100033Y0014481D01*
X0101031Y0015479D02*
X0098235Y0015479D01*
X0093031Y0015479D02*
X0090765Y0015479D01*
X0091764Y0014481D02*
X0092033Y0014481D01*
X0087772Y0012250D02*
X0084654Y0009132D01*
X0084286Y0009500D01*
X0084959Y0010174D01*
X0084959Y0015063D01*
X0087772Y0012250D01*
X0087538Y0012484D02*
X0084959Y0012484D01*
X0084959Y0013482D02*
X0086540Y0013482D01*
X0085541Y0014481D02*
X0084959Y0014481D01*
X0084959Y0011485D02*
X0087007Y0011485D01*
X0086009Y0010487D02*
X0084959Y0010487D01*
X0085010Y0009488D02*
X0084297Y0009488D01*
X0081133Y0012750D02*
X0081133Y0012945D01*
X0081133Y0012750D02*
X0077383Y0009000D01*
X0053633Y0009000D01*
X0053007Y0008850D01*
X0048031Y0006493D02*
X0038692Y0006493D01*
X0039106Y0007491D02*
X0047617Y0007491D01*
X0047507Y0008490D02*
X0039216Y0008490D01*
X0039216Y0009488D02*
X0047507Y0009488D01*
X0047732Y0010487D02*
X0038991Y0010487D01*
X0038578Y0011485D02*
X0048146Y0011485D01*
X0048862Y0012484D02*
X0037861Y0012484D01*
X0036862Y0013482D02*
X0049861Y0013482D01*
X0058224Y0015479D02*
X0072921Y0015479D01*
X0071922Y0016478D02*
X0059222Y0016478D01*
X0060221Y0017476D02*
X0064332Y0017476D01*
X0063735Y0018475D02*
X0061219Y0018475D01*
X0075934Y0019700D02*
X0075934Y0020588D01*
X0076222Y0020300D01*
X0077307Y0020300D01*
X0077307Y0019700D01*
X0075934Y0019700D01*
X0075934Y0020472D02*
X0076050Y0020472D01*
X0084959Y0023467D02*
X0089555Y0023467D01*
X0088556Y0024466D02*
X0084959Y0024466D01*
X0084321Y0025464D02*
X0087558Y0025464D01*
X0086559Y0026463D02*
X0084959Y0026463D01*
X0081133Y0028945D02*
X0081133Y0029000D01*
X0077573Y0035449D02*
X0075113Y0035449D01*
X0075934Y0036448D02*
X0076574Y0036448D01*
X0077133Y0039000D02*
X0069883Y0039000D01*
X0069834Y0039374D01*
X0061433Y0057417D02*
X0008133Y0057417D01*
X0008133Y0058415D02*
X0061433Y0058415D01*
X0061433Y0059414D02*
X0008133Y0059414D01*
X0008133Y0060412D02*
X0061934Y0060412D01*
X0068161Y0067402D02*
X0008133Y0067402D01*
X0008133Y0068400D02*
X0067162Y0068400D01*
X0066163Y0069399D02*
X0008133Y0069399D01*
X0008133Y0070397D02*
X0065165Y0070397D01*
X0064166Y0071396D02*
X0008133Y0071396D01*
X0008133Y0072394D02*
X0063168Y0072394D01*
X0062169Y0073393D02*
X0008133Y0073393D01*
X0008133Y0074391D02*
X0061171Y0074391D01*
X0060172Y0075390D02*
X0008133Y0075390D01*
X0008133Y0076388D02*
X0059174Y0076388D01*
X0058175Y0077387D02*
X0008133Y0077387D01*
X0008133Y0078385D02*
X0057177Y0078385D01*
X0056178Y0079384D02*
X0008133Y0079384D01*
X0008133Y0080382D02*
X0055180Y0080382D01*
X0054181Y0081381D02*
X0008133Y0081381D01*
X0008133Y0082379D02*
X0053183Y0082379D01*
X0052184Y0083378D02*
X0008133Y0083378D01*
X0008133Y0084376D02*
X0051186Y0084376D01*
X0050187Y0085375D02*
X0008133Y0085375D01*
X0008133Y0086373D02*
X0049189Y0086373D01*
X0048190Y0087372D02*
X0008133Y0087372D01*
X0008133Y0088370D02*
X0047192Y0088370D01*
X0046193Y0089369D02*
X0008133Y0089369D01*
X0008133Y0090368D02*
X0045195Y0090368D01*
X0044196Y0091366D02*
X0008133Y0091366D01*
X0008133Y0092365D02*
X0043198Y0092365D01*
X0042199Y0093363D02*
X0008133Y0093363D01*
X0008133Y0094362D02*
X0041201Y0094362D01*
X0040202Y0095360D02*
X0008133Y0095360D01*
X0008133Y0096359D02*
X0039204Y0096359D01*
X0038205Y0097357D02*
X0008133Y0097357D01*
X0008133Y0098356D02*
X0037207Y0098356D01*
X0036208Y0099354D02*
X0008133Y0099354D01*
X0008133Y0100353D02*
X0035210Y0100353D01*
X0034211Y0101351D02*
X0008133Y0101351D01*
X0008133Y0102350D02*
X0033213Y0102350D01*
X0032214Y0103348D02*
X0008133Y0103348D01*
X0008133Y0104347D02*
X0031216Y0104347D01*
X0030217Y0105345D02*
X0008133Y0105345D01*
X0008133Y0106344D02*
X0029219Y0106344D01*
X0028220Y0107342D02*
X0008133Y0107342D01*
X0008133Y0108341D02*
X0027222Y0108341D01*
X0026223Y0109339D02*
X0008133Y0109339D01*
X0008133Y0110338D02*
X0025225Y0110338D01*
X0024226Y0111336D02*
X0008133Y0111336D01*
X0008133Y0112335D02*
X0023227Y0112335D01*
X0022229Y0113333D02*
X0008133Y0113333D01*
X0008133Y0114332D02*
X0021230Y0114332D01*
X0020232Y0115330D02*
X0008133Y0115330D01*
X0008133Y0116329D02*
X0019328Y0116329D01*
X0018914Y0117327D02*
X0008133Y0117327D01*
X0008133Y0118326D02*
X0018633Y0118326D01*
X0018633Y0119324D02*
X0008133Y0119324D01*
X0008133Y0120323D02*
X0018633Y0120323D01*
X0018633Y0121321D02*
X0008133Y0121321D01*
X0008133Y0122320D02*
X0018633Y0122320D01*
X0018633Y0123318D02*
X0015897Y0123318D01*
X0017521Y0124317D02*
X0018633Y0124317D01*
X0018633Y0125315D02*
X0018433Y0125315D01*
X0008370Y0123318D02*
X0008133Y0123318D01*
X0028633Y0123318D02*
X0029244Y0123318D01*
X0029472Y0123090D02*
X0030008Y0122473D01*
X0030172Y0122391D01*
X0040395Y0112168D01*
X0041801Y0110761D01*
X0043639Y0110000D01*
X0052642Y0110000D01*
X0053488Y0109650D01*
X0055676Y0109650D01*
X0057698Y0110487D01*
X0059133Y0111923D01*
X0059133Y0104005D01*
X0059895Y0102168D01*
X0061301Y0100761D01*
X0088395Y0073668D01*
X0089562Y0072500D01*
X0077204Y0072500D01*
X0028633Y0121071D01*
X0028633Y0123929D01*
X0028895Y0123668D01*
X0028895Y0123668D01*
X0029472Y0123090D01*
X0030242Y0122320D02*
X0028633Y0122320D01*
X0028633Y0121321D02*
X0031241Y0121321D01*
X0032239Y0120323D02*
X0029382Y0120323D01*
X0030380Y0119324D02*
X0033238Y0119324D01*
X0034236Y0118326D02*
X0031379Y0118326D01*
X0032377Y0117327D02*
X0035235Y0117327D01*
X0036233Y0116329D02*
X0033376Y0116329D01*
X0034374Y0115330D02*
X0037232Y0115330D01*
X0038230Y0114332D02*
X0035373Y0114332D01*
X0036371Y0113333D02*
X0039229Y0113333D01*
X0040227Y0112335D02*
X0037370Y0112335D01*
X0038368Y0111336D02*
X0041226Y0111336D01*
X0042823Y0110338D02*
X0039367Y0110338D01*
X0040365Y0109339D02*
X0059133Y0109339D01*
X0059133Y0108341D02*
X0041364Y0108341D01*
X0042362Y0107342D02*
X0059133Y0107342D01*
X0059133Y0106344D02*
X0043361Y0106344D01*
X0044359Y0105345D02*
X0059133Y0105345D01*
X0059133Y0104347D02*
X0045358Y0104347D01*
X0046356Y0103348D02*
X0059406Y0103348D01*
X0059819Y0102350D02*
X0047355Y0102350D01*
X0048353Y0101351D02*
X0060711Y0101351D01*
X0061710Y0100353D02*
X0049352Y0100353D01*
X0050350Y0099354D02*
X0062708Y0099354D01*
X0063707Y0098356D02*
X0051349Y0098356D01*
X0052347Y0097357D02*
X0064705Y0097357D01*
X0065704Y0096359D02*
X0053346Y0096359D01*
X0054344Y0095360D02*
X0066702Y0095360D01*
X0067701Y0094362D02*
X0055343Y0094362D01*
X0056341Y0093363D02*
X0068699Y0093363D01*
X0069698Y0092365D02*
X0057340Y0092365D01*
X0058338Y0091366D02*
X0070696Y0091366D01*
X0071695Y0090368D02*
X0059337Y0090368D01*
X0060335Y0089369D02*
X0072693Y0089369D01*
X0073692Y0088370D02*
X0061334Y0088370D01*
X0062332Y0087372D02*
X0074690Y0087372D01*
X0075689Y0086373D02*
X0063331Y0086373D01*
X0064329Y0085375D02*
X0076687Y0085375D01*
X0077686Y0084376D02*
X0065328Y0084376D01*
X0066326Y0083378D02*
X0078684Y0083378D01*
X0079683Y0082379D02*
X0067325Y0082379D01*
X0068323Y0081381D02*
X0080681Y0081381D01*
X0081680Y0080382D02*
X0069322Y0080382D01*
X0070320Y0079384D02*
X0082678Y0079384D01*
X0083677Y0078385D02*
X0071319Y0078385D01*
X0072318Y0077387D02*
X0084675Y0077387D01*
X0085674Y0076388D02*
X0073316Y0076388D01*
X0074315Y0075390D02*
X0086672Y0075390D01*
X0087671Y0074391D02*
X0075313Y0074391D01*
X0076312Y0073393D02*
X0088669Y0073393D01*
X0082676Y0062409D02*
X0008133Y0062409D01*
X0008133Y0061411D02*
X0081952Y0061411D01*
X0072155Y0063408D02*
X0008133Y0063408D01*
X0008133Y0064406D02*
X0071156Y0064406D01*
X0070158Y0065405D02*
X0008133Y0065405D01*
X0008133Y0066403D02*
X0069159Y0066403D01*
X0096382Y0093363D02*
X0109909Y0093363D01*
X0110908Y0092365D02*
X0097380Y0092365D01*
X0098379Y0091366D02*
X0133156Y0091366D01*
X0133518Y0090368D02*
X0099377Y0090368D01*
X0100376Y0089369D02*
X0133092Y0089369D01*
X0132933Y0088370D02*
X0101374Y0088370D01*
X0102373Y0087372D02*
X0132992Y0087372D01*
X0133406Y0086373D02*
X0103371Y0086373D01*
X0108910Y0094362D02*
X0095383Y0094362D01*
X0094385Y0095360D02*
X0107912Y0095360D01*
X0116133Y0101500D02*
X0129383Y0114750D01*
X0125633Y0118500D01*
X0125633Y0139500D01*
X0130633Y0144500D01*
X0142133Y0144500D01*
X0155133Y0131500D01*
X0204883Y0131500D01*
X0207383Y0129000D01*
X0208133Y0128000D01*
X0206795Y0132700D02*
X0206195Y0133300D01*
X0212068Y0133300D01*
X0212834Y0133617D01*
X0212834Y0132383D01*
X0212068Y0132700D01*
X0206795Y0132700D01*
X0203233Y0133700D02*
X0156045Y0133700D01*
X0144333Y0145411D01*
X0143045Y0146700D01*
X0129722Y0146700D01*
X0124722Y0141700D01*
X0123433Y0140411D01*
X0123433Y0117589D01*
X0126272Y0114750D01*
X0116703Y0105181D01*
X0115401Y0105181D01*
X0114583Y0104842D01*
X0114583Y0117161D01*
X0111833Y0119911D01*
X0110545Y0121200D01*
X0105833Y0121200D01*
X0105833Y0145911D01*
X0104545Y0147200D01*
X0097389Y0154355D01*
X0101272Y0154355D01*
X0102626Y0154916D01*
X0103549Y0155839D01*
X0151183Y0155839D01*
X0156433Y0150589D01*
X0157722Y0149300D01*
X0165101Y0149300D01*
X0165787Y0148613D01*
X0167147Y0148050D01*
X0168619Y0148050D01*
X0169979Y0148613D01*
X0171020Y0149654D01*
X0171583Y0151014D01*
X0171583Y0152486D01*
X0171020Y0153846D01*
X0169979Y0154887D01*
X0168619Y0155450D01*
X0167147Y0155450D01*
X0165787Y0154887D01*
X0164747Y0153846D01*
X0164686Y0153700D01*
X0159545Y0153700D01*
X0153005Y0160239D01*
X0103549Y0160239D01*
X0103289Y0160500D01*
X0103662Y0160874D01*
X0104046Y0161800D01*
X0159785Y0161800D01*
X0158787Y0161387D01*
X0157747Y0160346D01*
X0157183Y0158986D01*
X0157183Y0157514D01*
X0157747Y0156154D01*
X0158787Y0155113D01*
X0160147Y0154550D01*
X0161619Y0154550D01*
X0162979Y0155113D01*
X0163916Y0156050D01*
X0200854Y0156050D01*
X0201149Y0155338D01*
X0202471Y0154016D01*
X0204198Y0153300D01*
X0212068Y0153300D01*
X0212834Y0153617D01*
X0212834Y0152383D01*
X0212068Y0152700D01*
X0204198Y0152700D01*
X0202471Y0151984D01*
X0201149Y0150662D01*
X0200433Y0148935D01*
X0200433Y0147065D01*
X0201149Y0145338D01*
X0202471Y0144016D01*
X0204198Y0143300D01*
X0212068Y0143300D01*
X0212834Y0143617D01*
X0212834Y0142383D01*
X0212068Y0142700D01*
X0204198Y0142700D01*
X0202471Y0141984D01*
X0201149Y0140662D01*
X0200854Y0139950D01*
X0172916Y0139950D01*
X0171979Y0140887D01*
X0170619Y0141450D01*
X0169147Y0141450D01*
X0167787Y0140887D01*
X0166747Y0139846D01*
X0166183Y0138486D01*
X0166183Y0137014D01*
X0166747Y0135654D01*
X0167787Y0134613D01*
X0169147Y0134050D01*
X0170619Y0134050D01*
X0171979Y0134613D01*
X0172916Y0135550D01*
X0201061Y0135550D01*
X0201149Y0135338D01*
X0202471Y0134016D01*
X0203233Y0133700D01*
X0202185Y0134302D02*
X0171228Y0134302D01*
X0172666Y0135301D02*
X0201186Y0135301D01*
X0200996Y0140293D02*
X0172573Y0140293D01*
X0171002Y0141292D02*
X0201778Y0141292D01*
X0203209Y0142290D02*
X0147454Y0142290D01*
X0146456Y0143289D02*
X0212834Y0143289D01*
X0208133Y0138000D02*
X0207383Y0137750D01*
X0169883Y0137750D01*
X0166479Y0136299D02*
X0153446Y0136299D01*
X0154444Y0135301D02*
X0167100Y0135301D01*
X0168539Y0134302D02*
X0155443Y0134302D01*
X0152447Y0137298D02*
X0166183Y0137298D01*
X0166183Y0138296D02*
X0151449Y0138296D01*
X0150450Y0139295D02*
X0166518Y0139295D01*
X0167194Y0140293D02*
X0149452Y0140293D01*
X0148453Y0141292D02*
X0168765Y0141292D01*
X0169177Y0148281D02*
X0200433Y0148281D01*
X0200433Y0147283D02*
X0104462Y0147283D01*
X0103463Y0148281D02*
X0166589Y0148281D01*
X0165121Y0149280D02*
X0102465Y0149280D01*
X0101466Y0150278D02*
X0156744Y0150278D01*
X0155745Y0151277D02*
X0100468Y0151277D01*
X0099469Y0152275D02*
X0154747Y0152275D01*
X0153748Y0153274D02*
X0098471Y0153274D01*
X0097472Y0154272D02*
X0152750Y0154272D01*
X0151751Y0155271D02*
X0102981Y0155271D01*
X0098555Y0158039D02*
X0152094Y0158039D01*
X0158633Y0151500D01*
X0167633Y0151500D01*
X0167883Y0151750D01*
X0170646Y0149280D02*
X0200576Y0149280D01*
X0200990Y0150278D02*
X0171279Y0150278D01*
X0171583Y0151277D02*
X0201763Y0151277D01*
X0203173Y0152275D02*
X0171583Y0152275D01*
X0171257Y0153274D02*
X0212834Y0153274D01*
X0208133Y0158000D02*
X0207883Y0158250D01*
X0160883Y0158250D01*
X0157183Y0158266D02*
X0154978Y0158266D01*
X0153980Y0159265D02*
X0157299Y0159265D01*
X0157712Y0160263D02*
X0103525Y0160263D01*
X0103823Y0161262D02*
X0158663Y0161262D01*
X0161981Y0161800D02*
X0179545Y0161800D01*
X0180833Y0163089D01*
X0185795Y0168050D01*
X0191521Y0168050D01*
X0191183Y0167236D01*
X0191183Y0165764D01*
X0191747Y0164404D01*
X0192787Y0163363D01*
X0194147Y0162800D01*
X0195619Y0162800D01*
X0196979Y0163363D01*
X0197916Y0164300D01*
X0202187Y0164300D01*
X0202471Y0164016D01*
X0204198Y0163300D01*
X0212068Y0163300D01*
X0212834Y0163617D01*
X0212834Y0162383D01*
X0212068Y0162700D01*
X0204198Y0162700D01*
X0202471Y0161984D01*
X0201149Y0160662D01*
X0201061Y0160450D01*
X0163916Y0160450D01*
X0162979Y0161387D01*
X0161981Y0161800D01*
X0163104Y0161262D02*
X0201748Y0161262D01*
X0203137Y0162260D02*
X0180005Y0162260D01*
X0181003Y0163259D02*
X0193040Y0163259D01*
X0191893Y0164257D02*
X0182002Y0164257D01*
X0183000Y0165256D02*
X0191394Y0165256D01*
X0191183Y0166254D02*
X0183999Y0166254D01*
X0184997Y0167253D02*
X0191190Y0167253D01*
X0194883Y0166500D02*
X0202133Y0166500D01*
X0203633Y0168000D01*
X0208133Y0168000D01*
X0212068Y0172700D02*
X0212834Y0172383D01*
X0212834Y0173617D01*
X0212068Y0173300D01*
X0206045Y0173300D01*
X0205445Y0172700D01*
X0212068Y0172700D01*
X0212834Y0173244D02*
X0205989Y0173244D01*
X0207383Y0177750D02*
X0208133Y0178000D01*
X0207383Y0177750D02*
X0199883Y0170250D01*
X0184883Y0170250D01*
X0178633Y0164000D01*
X0098633Y0164000D01*
X0093247Y0152275D02*
X0088696Y0152275D01*
X0090367Y0151277D02*
X0094245Y0151277D01*
X0095244Y0150278D02*
X0091366Y0150278D01*
X0092364Y0149280D02*
X0096242Y0149280D01*
X0097241Y0148281D02*
X0092818Y0148281D01*
X0093232Y0147283D02*
X0098239Y0147283D01*
X0099238Y0146284D02*
X0093645Y0146284D01*
X0093833Y0145286D02*
X0100236Y0145286D01*
X0101235Y0144287D02*
X0093833Y0144287D01*
X0093833Y0143289D02*
X0101433Y0143289D01*
X0101433Y0142290D02*
X0093833Y0142290D01*
X0093469Y0141292D02*
X0101433Y0141292D01*
X0101433Y0140293D02*
X0093056Y0140293D01*
X0092642Y0139295D02*
X0101433Y0139295D01*
X0101433Y0138296D02*
X0091940Y0138296D01*
X0090942Y0137298D02*
X0101433Y0137298D01*
X0101433Y0136299D02*
X0089943Y0136299D01*
X0087672Y0135301D02*
X0101433Y0135301D01*
X0105833Y0135301D02*
X0123433Y0135301D01*
X0123433Y0136299D02*
X0105833Y0136299D01*
X0105833Y0137298D02*
X0123433Y0137298D01*
X0123433Y0138296D02*
X0105833Y0138296D01*
X0105833Y0139295D02*
X0123433Y0139295D01*
X0123433Y0140293D02*
X0105833Y0140293D01*
X0105833Y0141292D02*
X0124314Y0141292D01*
X0125312Y0142290D02*
X0105833Y0142290D01*
X0105833Y0143289D02*
X0126311Y0143289D01*
X0127309Y0144287D02*
X0105833Y0144287D01*
X0105833Y0145286D02*
X0128308Y0145286D01*
X0129306Y0146284D02*
X0105460Y0146284D01*
X0105833Y0134302D02*
X0123433Y0134302D01*
X0123433Y0133303D02*
X0105833Y0133303D01*
X0105833Y0132305D02*
X0123433Y0132305D01*
X0123433Y0131306D02*
X0105833Y0131306D01*
X0105833Y0130308D02*
X0123433Y0130308D01*
X0123433Y0129309D02*
X0105833Y0129309D01*
X0105833Y0128311D02*
X0123433Y0128311D01*
X0123433Y0127312D02*
X0105833Y0127312D01*
X0105833Y0126314D02*
X0123433Y0126314D01*
X0123433Y0125315D02*
X0105833Y0125315D01*
X0105833Y0124317D02*
X0123433Y0124317D01*
X0123433Y0123318D02*
X0105833Y0123318D01*
X0105833Y0122320D02*
X0123433Y0122320D01*
X0123433Y0121321D02*
X0105833Y0121321D01*
X0111422Y0120323D02*
X0123433Y0120323D01*
X0123433Y0119324D02*
X0112420Y0119324D01*
X0113419Y0118326D02*
X0123433Y0118326D01*
X0123695Y0117327D02*
X0114417Y0117327D01*
X0114583Y0116329D02*
X0124693Y0116329D01*
X0125692Y0115330D02*
X0114583Y0115330D01*
X0114583Y0114332D02*
X0125854Y0114332D01*
X0124855Y0113333D02*
X0114583Y0113333D01*
X0114583Y0112335D02*
X0123857Y0112335D01*
X0122858Y0111336D02*
X0114583Y0111336D01*
X0114583Y0110338D02*
X0121860Y0110338D01*
X0120861Y0109339D02*
X0114583Y0109339D01*
X0114583Y0108341D02*
X0119863Y0108341D01*
X0118864Y0107342D02*
X0114583Y0107342D01*
X0114583Y0106344D02*
X0117866Y0106344D01*
X0116867Y0105345D02*
X0114583Y0105345D01*
X0119814Y0102070D02*
X0119814Y0100768D01*
X0119476Y0099950D01*
X0122722Y0099950D01*
X0122972Y0100200D01*
X0145545Y0100200D01*
X0148014Y0097731D01*
X0149147Y0098200D01*
X0150619Y0098200D01*
X0151826Y0097700D01*
X0158433Y0097700D01*
X0158433Y0115829D01*
X0155415Y0118847D01*
X0150610Y0118847D01*
X0150133Y0119324D01*
X0149656Y0118847D01*
X0143130Y0118847D01*
X0142134Y0119843D01*
X0142134Y0121300D01*
X0139045Y0121300D01*
X0130295Y0112550D01*
X0119814Y0102070D01*
X0120094Y0102350D02*
X0158433Y0102350D01*
X0158433Y0103348D02*
X0121093Y0103348D01*
X0122091Y0104347D02*
X0158433Y0104347D01*
X0158433Y0105345D02*
X0123090Y0105345D01*
X0124088Y0106344D02*
X0158433Y0106344D01*
X0158433Y0107342D02*
X0125087Y0107342D01*
X0126085Y0108341D02*
X0158433Y0108341D01*
X0158433Y0109339D02*
X0127084Y0109339D01*
X0128082Y0110338D02*
X0158433Y0110338D01*
X0158433Y0111336D02*
X0129081Y0111336D01*
X0130079Y0112335D02*
X0158433Y0112335D01*
X0158433Y0113333D02*
X0131078Y0113333D01*
X0132076Y0114332D02*
X0158433Y0114332D01*
X0158433Y0115330D02*
X0133075Y0115330D01*
X0134073Y0116329D02*
X0157933Y0116329D01*
X0156935Y0117327D02*
X0135072Y0117327D01*
X0136070Y0118326D02*
X0155936Y0118326D01*
X0159163Y0121321D02*
X0168249Y0121321D01*
X0168433Y0122320D02*
X0158165Y0122320D01*
X0160162Y0120323D02*
X0167404Y0120323D01*
X0166990Y0119324D02*
X0161160Y0119324D01*
X0162159Y0118326D02*
X0166952Y0118326D01*
X0167135Y0117327D02*
X0162833Y0117327D01*
X0162833Y0116329D02*
X0167599Y0116329D01*
X0168666Y0115330D02*
X0162833Y0115330D01*
X0162833Y0114332D02*
X0212834Y0114332D01*
X0212834Y0115330D02*
X0172600Y0115330D01*
X0173668Y0116329D02*
X0212834Y0116329D01*
X0212834Y0117327D02*
X0174132Y0117327D01*
X0174314Y0118326D02*
X0212834Y0118326D01*
X0212834Y0119324D02*
X0174276Y0119324D01*
X0173863Y0120323D02*
X0212834Y0120323D01*
X0212834Y0121321D02*
X0173018Y0121321D01*
X0172833Y0122320D02*
X0212834Y0122320D01*
X0212834Y0123318D02*
X0212113Y0123318D01*
X0204154Y0123318D02*
X0172833Y0123318D01*
X0172833Y0124317D02*
X0202170Y0124317D01*
X0201171Y0125315D02*
X0172429Y0125315D01*
X0171431Y0126314D02*
X0200744Y0126314D01*
X0200433Y0127312D02*
X0170432Y0127312D01*
X0169133Y0125500D02*
X0155873Y0125500D01*
X0153873Y0123500D01*
X0160633Y0116740D01*
X0160633Y0095500D01*
X0162886Y0096359D02*
X0167049Y0096359D01*
X0166635Y0095360D02*
X0163885Y0095360D01*
X0164833Y0094362D02*
X0166633Y0094362D01*
X0166750Y0093363D02*
X0164833Y0093363D01*
X0164833Y0092365D02*
X0167164Y0092365D01*
X0167986Y0091366D02*
X0164833Y0091366D01*
X0164833Y0090368D02*
X0169674Y0090368D01*
X0167709Y0097357D02*
X0162833Y0097357D01*
X0162833Y0098356D02*
X0169005Y0098356D01*
X0162833Y0099354D02*
X0212834Y0099354D01*
X0212834Y0100353D02*
X0162833Y0100353D01*
X0162833Y0101351D02*
X0212834Y0101351D01*
X0212834Y0102350D02*
X0162833Y0102350D01*
X0162833Y0103348D02*
X0212834Y0103348D01*
X0212834Y0104347D02*
X0162833Y0104347D01*
X0162833Y0105345D02*
X0212834Y0105345D01*
X0212834Y0106344D02*
X0162833Y0106344D01*
X0162833Y0107342D02*
X0212834Y0107342D01*
X0212834Y0108341D02*
X0162833Y0108341D01*
X0162833Y0109339D02*
X0212834Y0109339D01*
X0212834Y0110338D02*
X0162833Y0110338D01*
X0162833Y0111336D02*
X0212834Y0111336D01*
X0212834Y0112335D02*
X0162833Y0112335D01*
X0162833Y0113333D02*
X0212834Y0113333D01*
X0200433Y0128311D02*
X0148833Y0128311D01*
X0148435Y0129309D02*
X0154213Y0129309D01*
X0153214Y0130308D02*
X0147437Y0130308D01*
X0146438Y0131306D02*
X0152216Y0131306D01*
X0151217Y0132305D02*
X0145440Y0132305D01*
X0144441Y0133303D02*
X0150219Y0133303D01*
X0149220Y0134302D02*
X0143443Y0134302D01*
X0142444Y0135301D02*
X0148222Y0135301D01*
X0147223Y0136299D02*
X0141446Y0136299D01*
X0140447Y0137298D02*
X0146225Y0137298D01*
X0145226Y0138296D02*
X0135043Y0138296D01*
X0132633Y0135500D02*
X0139133Y0135500D01*
X0146633Y0128000D01*
X0146633Y0123740D01*
X0146393Y0123500D01*
X0138133Y0123500D01*
X0129383Y0114750D01*
X0128919Y0118326D02*
X0129848Y0118326D01*
X0130846Y0119324D02*
X0127920Y0119324D01*
X0127833Y0120323D02*
X0131845Y0120323D01*
X0132843Y0121321D02*
X0127833Y0121321D01*
X0127833Y0122320D02*
X0133842Y0122320D01*
X0134840Y0123318D02*
X0127833Y0123318D01*
X0127833Y0124317D02*
X0135839Y0124317D01*
X0136837Y0125315D02*
X0127833Y0125315D01*
X0127833Y0126314D02*
X0142134Y0126314D01*
X0142290Y0127312D02*
X0127833Y0127312D01*
X0127833Y0128311D02*
X0143211Y0128311D01*
X0142213Y0129309D02*
X0127833Y0129309D01*
X0127833Y0130308D02*
X0141214Y0130308D01*
X0140216Y0131306D02*
X0127833Y0131306D01*
X0127833Y0132305D02*
X0130728Y0132305D01*
X0129624Y0133303D02*
X0127833Y0133303D01*
X0127833Y0134302D02*
X0129145Y0134302D01*
X0128952Y0135301D02*
X0127833Y0135301D01*
X0127833Y0136299D02*
X0128980Y0136299D01*
X0129394Y0137298D02*
X0127833Y0137298D01*
X0127833Y0138296D02*
X0130224Y0138296D01*
X0128539Y0139295D02*
X0144227Y0139295D01*
X0143229Y0140293D02*
X0129538Y0140293D01*
X0130536Y0141292D02*
X0142230Y0141292D01*
X0141232Y0142290D02*
X0131535Y0142290D01*
X0134539Y0132305D02*
X0139217Y0132305D01*
X0138067Y0120323D02*
X0142134Y0120323D01*
X0142653Y0119324D02*
X0137069Y0119324D01*
X0119814Y0101351D02*
X0158433Y0101351D01*
X0158433Y0100353D02*
X0119642Y0100353D01*
X0135385Y0095360D02*
X0144162Y0095360D01*
X0145160Y0094362D02*
X0136383Y0094362D01*
X0137382Y0093363D02*
X0146159Y0093363D01*
X0146786Y0092365D02*
X0138380Y0092365D01*
X0138833Y0091366D02*
X0147785Y0091366D01*
X0151982Y0091366D02*
X0160433Y0091366D01*
X0160433Y0090368D02*
X0139748Y0090368D01*
X0140175Y0089369D02*
X0160433Y0089369D01*
X0160433Y0092365D02*
X0152980Y0092365D01*
X0158433Y0098356D02*
X0147389Y0098356D01*
X0146390Y0099354D02*
X0158433Y0099354D01*
X0143722Y0081300D02*
X0142611Y0081300D01*
X0143966Y0080739D01*
X0147613Y0077091D01*
X0148155Y0076867D01*
X0143722Y0081300D01*
X0144322Y0080382D02*
X0144640Y0080382D01*
X0145320Y0079384D02*
X0145638Y0079384D01*
X0146319Y0078385D02*
X0146637Y0078385D01*
X0147318Y0077387D02*
X0147635Y0077387D01*
X0151618Y0073393D02*
X0151629Y0073393D01*
X0151967Y0072394D02*
X0152628Y0072394D01*
X0152683Y0071396D02*
X0151967Y0071396D01*
X0151967Y0070397D02*
X0152939Y0070397D01*
X0153502Y0069399D02*
X0151623Y0069399D01*
X0151210Y0068400D02*
X0154802Y0068400D01*
X0157620Y0067402D02*
X0150396Y0067402D01*
X0149339Y0066403D02*
X0158619Y0066403D01*
X0162022Y0062409D02*
X0162613Y0062409D01*
X0163429Y0061411D02*
X0163611Y0061411D01*
X0164033Y0060412D02*
X0164726Y0060412D01*
X0164314Y0059414D02*
X0165607Y0059414D01*
X0166825Y0058415D02*
X0164314Y0058415D01*
X0173121Y0068400D02*
X0173933Y0068400D01*
X0193333Y0070397D02*
X0212834Y0070397D01*
X0212834Y0069399D02*
X0197217Y0069399D01*
X0198101Y0068400D02*
X0212834Y0068400D01*
X0212834Y0067402D02*
X0208136Y0067402D01*
X0209807Y0066403D02*
X0212834Y0066403D01*
X0212834Y0065405D02*
X0210521Y0065405D01*
X0210881Y0064406D02*
X0212834Y0064406D01*
X0212834Y0063408D02*
X0210881Y0063408D01*
X0210607Y0062409D02*
X0212834Y0062409D01*
X0212834Y0061411D02*
X0210014Y0061411D01*
X0210550Y0060412D02*
X0212834Y0060412D01*
X0212834Y0059414D02*
X0210881Y0059414D01*
X0210881Y0058415D02*
X0212834Y0058415D01*
X0212834Y0057417D02*
X0210577Y0057417D01*
X0209949Y0056418D02*
X0212834Y0056418D01*
X0212834Y0055420D02*
X0210580Y0055420D01*
X0210881Y0054421D02*
X0212834Y0054421D01*
X0212834Y0053423D02*
X0210881Y0053423D01*
X0210548Y0052424D02*
X0212834Y0052424D01*
X0212834Y0051426D02*
X0210020Y0051426D01*
X0210609Y0050427D02*
X0212834Y0050427D01*
X0212834Y0049429D02*
X0210881Y0049429D01*
X0210881Y0048430D02*
X0212834Y0048430D01*
X0212834Y0047432D02*
X0210518Y0047432D01*
X0200478Y0051500D02*
X0200104Y0051126D01*
X0199596Y0049899D01*
X0193333Y0056161D01*
X0193333Y0063137D01*
X0194147Y0062800D01*
X0195472Y0062800D01*
X0196472Y0061800D01*
X0200070Y0061800D01*
X0200104Y0061716D01*
X0200478Y0061343D01*
X0200104Y0060969D01*
X0199544Y0059615D01*
X0199544Y0058149D01*
X0200104Y0056795D01*
X0200478Y0056421D01*
X0200104Y0056048D01*
X0199544Y0054693D01*
X0199544Y0053228D01*
X0200104Y0051874D01*
X0200478Y0051500D01*
X0200404Y0051426D02*
X0198069Y0051426D01*
X0197071Y0052424D02*
X0199876Y0052424D01*
X0199544Y0053423D02*
X0196072Y0053423D01*
X0195073Y0054421D02*
X0199544Y0054421D01*
X0199844Y0055420D02*
X0194075Y0055420D01*
X0193333Y0056418D02*
X0200475Y0056418D01*
X0199847Y0057417D02*
X0193333Y0057417D01*
X0193333Y0058415D02*
X0199544Y0058415D01*
X0199544Y0059414D02*
X0193333Y0059414D01*
X0193333Y0060412D02*
X0199874Y0060412D01*
X0200410Y0061411D02*
X0193333Y0061411D01*
X0193333Y0062409D02*
X0195863Y0062409D01*
X0197383Y0064000D02*
X0194883Y0066500D01*
X0197383Y0064000D02*
X0204883Y0064000D01*
X0205212Y0063803D01*
X0202288Y0067402D02*
X0198515Y0067402D01*
X0198583Y0066403D02*
X0200618Y0066403D01*
X0193333Y0071396D02*
X0212834Y0071396D01*
X0212834Y0072394D02*
X0193333Y0072394D01*
X0193333Y0073393D02*
X0212834Y0073393D01*
X0212834Y0074391D02*
X0193333Y0074391D01*
X0193333Y0075390D02*
X0212834Y0075390D01*
X0212834Y0076388D02*
X0193333Y0076388D01*
X0193333Y0077387D02*
X0212834Y0077387D01*
X0212834Y0078385D02*
X0193333Y0078385D01*
X0193333Y0079384D02*
X0212834Y0079384D01*
X0212834Y0080382D02*
X0212629Y0080382D01*
X0199815Y0050427D02*
X0199068Y0050427D01*
X0154010Y0009488D02*
X0107256Y0009488D01*
X0104029Y0006493D02*
X0088237Y0006493D01*
X0105268Y0037446D02*
X0116116Y0037446D01*
X0127630Y0066403D02*
X0142927Y0066403D01*
X0141871Y0067402D02*
X0126876Y0067402D01*
X0170633Y0118500D02*
X0170633Y0124000D01*
X0169133Y0125500D01*
X0145457Y0144287D02*
X0202199Y0144287D01*
X0201201Y0145286D02*
X0144459Y0145286D01*
X0143460Y0146284D02*
X0200757Y0146284D01*
X0202214Y0154272D02*
X0170594Y0154272D01*
X0169052Y0155271D02*
X0201216Y0155271D01*
X0202229Y0164257D02*
X0197873Y0164257D01*
X0196727Y0163259D02*
X0212834Y0163259D01*
X0200765Y0174242D02*
X0196987Y0174242D01*
X0195989Y0173244D02*
X0199766Y0173244D01*
X0201246Y0175241D02*
X0197986Y0175241D01*
X0198583Y0176239D02*
X0200775Y0176239D01*
X0200433Y0177238D02*
X0198583Y0177238D01*
X0198583Y0178237D02*
X0200433Y0178237D01*
X0200558Y0179235D02*
X0198583Y0179235D01*
X0198583Y0180234D02*
X0200971Y0180234D01*
X0201719Y0181232D02*
X0198583Y0181232D01*
X0198583Y0182231D02*
X0203065Y0182231D01*
X0198583Y0183229D02*
X0212834Y0183229D01*
X0212834Y0184228D02*
X0198583Y0184228D01*
X0198583Y0185226D02*
X0212834Y0185226D01*
X0212834Y0186225D02*
X0198591Y0186225D01*
X0199549Y0187223D02*
X0212834Y0187223D01*
X0212834Y0188222D02*
X0199962Y0188222D01*
X0200083Y0189220D02*
X0204082Y0189220D01*
X0202404Y0190219D02*
X0199987Y0190219D01*
X0199573Y0191217D02*
X0201405Y0191217D01*
X0200407Y0192216D02*
X0198650Y0192216D01*
X0199951Y0193214D02*
X0176133Y0193214D01*
X0176133Y0192216D02*
X0194116Y0192216D01*
X0193193Y0191217D02*
X0176133Y0191217D01*
X0176133Y0190219D02*
X0192780Y0190219D01*
X0192683Y0189220D02*
X0176133Y0189220D01*
X0176133Y0188222D02*
X0192804Y0188222D01*
X0193218Y0187223D02*
X0176133Y0187223D01*
X0176133Y0186225D02*
X0194176Y0186225D01*
X0194183Y0185226D02*
X0187013Y0185226D01*
X0188138Y0184228D02*
X0194183Y0184228D01*
X0194183Y0183229D02*
X0188629Y0183229D01*
X0188833Y0182231D02*
X0194183Y0182231D01*
X0194183Y0181232D02*
X0188820Y0181232D01*
X0188406Y0180234D02*
X0194183Y0180234D01*
X0194183Y0179235D02*
X0187601Y0179235D01*
X0185133Y0182000D02*
X0182383Y0179250D01*
X0182383Y0175250D01*
X0178633Y0171500D01*
X0129883Y0171500D01*
X0130795Y0169300D02*
X0132271Y0169300D01*
X0131933Y0168486D01*
X0131933Y0167014D01*
X0132271Y0166200D01*
X0129496Y0166200D01*
X0129833Y0167014D01*
X0129833Y0168339D01*
X0130795Y0169300D01*
X0130745Y0169250D02*
X0132250Y0169250D01*
X0131933Y0168251D02*
X0129833Y0168251D01*
X0129833Y0167253D02*
X0131933Y0167253D01*
X0132248Y0166254D02*
X0129519Y0166254D01*
X0135633Y0167750D02*
X0178633Y0167750D01*
X0183633Y0172750D01*
X0192383Y0172750D01*
X0196383Y0176750D01*
X0196383Y0189250D01*
X0199537Y0194213D02*
X0176133Y0194213D01*
X0176133Y0195211D02*
X0199123Y0195211D01*
X0198933Y0196210D02*
X0176133Y0196210D01*
X0176133Y0197208D02*
X0198933Y0197208D01*
X0198933Y0198207D02*
X0176133Y0198207D01*
X0176133Y0199205D02*
X0198933Y0199205D01*
X0199295Y0200204D02*
X0176133Y0200204D01*
X0176133Y0201202D02*
X0199709Y0201202D01*
X0212185Y0189220D02*
X0212834Y0189220D01*
X0194183Y0178237D02*
X0184583Y0178237D01*
X0184583Y0177238D02*
X0193760Y0177238D01*
X0192762Y0176239D02*
X0184583Y0176239D01*
X0184583Y0175241D02*
X0191763Y0175241D01*
X0181254Y0181232D02*
X0176133Y0181232D01*
X0176133Y0180234D02*
X0180256Y0180234D01*
X0180183Y0179235D02*
X0176133Y0179235D01*
X0176133Y0178237D02*
X0180183Y0178237D01*
X0180183Y0177238D02*
X0176133Y0177238D01*
X0179263Y0175241D02*
X0082445Y0175241D01*
X0081447Y0174242D02*
X0178265Y0174242D01*
X0180183Y0176239D02*
X0083444Y0176239D01*
X0084442Y0177238D02*
X0096836Y0177238D01*
X0095722Y0178237D02*
X0085441Y0178237D01*
X0086439Y0179235D02*
X0094741Y0179235D01*
X0094327Y0180234D02*
X0087438Y0180234D01*
X0088436Y0181232D02*
X0093914Y0181232D01*
X0093733Y0182231D02*
X0089435Y0182231D01*
X0082282Y0189220D02*
X0065984Y0189220D01*
X0064986Y0190219D02*
X0083281Y0190219D01*
X0084279Y0191217D02*
X0063987Y0191217D01*
X0062989Y0192216D02*
X0085278Y0192216D01*
X0081284Y0188222D02*
X0066983Y0188222D01*
X0067981Y0187223D02*
X0080285Y0187223D01*
X0079287Y0186225D02*
X0068980Y0186225D01*
X0069978Y0185226D02*
X0078288Y0185226D01*
X0077290Y0184228D02*
X0070977Y0184228D01*
X0071975Y0183229D02*
X0076291Y0183229D01*
X0075293Y0182231D02*
X0072974Y0182231D01*
X0073972Y0181232D02*
X0074294Y0181232D01*
X0076133Y0176500D02*
X0073883Y0174250D01*
X0076133Y0176500D02*
X0076383Y0176250D01*
X0067312Y0173750D02*
X0062895Y0169332D01*
X0062133Y0167495D01*
X0062133Y0136005D01*
X0062895Y0134168D01*
X0064301Y0132761D01*
X0069133Y0127929D01*
X0069133Y0117128D01*
X0069133Y0117128D01*
X0069133Y0125495D01*
X0068372Y0127332D01*
X0066372Y0129332D01*
X0064966Y0130739D01*
X0063128Y0131500D01*
X0060133Y0131500D01*
X0060133Y0162495D01*
X0059372Y0164332D01*
X0057966Y0165739D01*
X0056128Y0166500D01*
X0050139Y0166500D01*
X0048301Y0165739D01*
X0046895Y0164332D01*
X0046133Y0162495D01*
X0046133Y0125505D01*
X0046895Y0123668D01*
X0048301Y0122261D01*
X0050139Y0121500D01*
X0059133Y0121500D01*
X0059133Y0118377D01*
X0057698Y0119812D01*
X0055676Y0120650D01*
X0053488Y0120650D01*
X0051920Y0120000D01*
X0046704Y0120000D01*
X0041633Y0125071D01*
X0041633Y0161995D01*
X0040872Y0163832D01*
X0039466Y0165239D01*
X0037628Y0166000D01*
X0035639Y0166000D01*
X0033628Y0166000D01*
X0031639Y0166000D01*
X0029801Y0165239D01*
X0028633Y0164071D01*
X0028633Y0181429D01*
X0030204Y0183000D01*
X0058062Y0183000D01*
X0067312Y0173750D01*
X0066820Y0174242D02*
X0028633Y0174242D01*
X0028633Y0173244D02*
X0066806Y0173244D01*
X0065808Y0172245D02*
X0028633Y0172245D01*
X0028633Y0171247D02*
X0064809Y0171247D01*
X0063811Y0170248D02*
X0028633Y0170248D01*
X0028633Y0169250D02*
X0062860Y0169250D01*
X0062447Y0168251D02*
X0028633Y0168251D01*
X0028633Y0167253D02*
X0062133Y0167253D01*
X0062133Y0166254D02*
X0056721Y0166254D01*
X0058449Y0165256D02*
X0062133Y0165256D01*
X0062133Y0164257D02*
X0059403Y0164257D01*
X0059817Y0163259D02*
X0062133Y0163259D01*
X0062133Y0162260D02*
X0060133Y0162260D01*
X0060133Y0161262D02*
X0062133Y0161262D01*
X0062133Y0160263D02*
X0060133Y0160263D01*
X0060133Y0159265D02*
X0062133Y0159265D01*
X0062133Y0158266D02*
X0060133Y0158266D01*
X0060133Y0157268D02*
X0062133Y0157268D01*
X0062133Y0156269D02*
X0060133Y0156269D01*
X0060133Y0155271D02*
X0062133Y0155271D01*
X0062133Y0154272D02*
X0060133Y0154272D01*
X0060133Y0153274D02*
X0062133Y0153274D01*
X0062133Y0152275D02*
X0060133Y0152275D01*
X0060133Y0151277D02*
X0062133Y0151277D01*
X0062133Y0150278D02*
X0060133Y0150278D01*
X0060133Y0149280D02*
X0062133Y0149280D01*
X0062133Y0148281D02*
X0060133Y0148281D01*
X0060133Y0147283D02*
X0062133Y0147283D01*
X0062133Y0146284D02*
X0060133Y0146284D01*
X0060133Y0145286D02*
X0062133Y0145286D01*
X0062133Y0144287D02*
X0060133Y0144287D01*
X0060133Y0143289D02*
X0062133Y0143289D01*
X0062133Y0142290D02*
X0060133Y0142290D01*
X0060133Y0141292D02*
X0062133Y0141292D01*
X0062133Y0140293D02*
X0060133Y0140293D01*
X0060133Y0139295D02*
X0062133Y0139295D01*
X0062133Y0138296D02*
X0060133Y0138296D01*
X0060133Y0137298D02*
X0062133Y0137298D01*
X0062133Y0136299D02*
X0060133Y0136299D01*
X0060133Y0135301D02*
X0062425Y0135301D01*
X0062839Y0134302D02*
X0060133Y0134302D01*
X0060133Y0133303D02*
X0063759Y0133303D01*
X0064757Y0132305D02*
X0060133Y0132305D01*
X0063595Y0131306D02*
X0065756Y0131306D01*
X0065396Y0130308D02*
X0066754Y0130308D01*
X0066395Y0129309D02*
X0067753Y0129309D01*
X0067393Y0128311D02*
X0068751Y0128311D01*
X0068380Y0127312D02*
X0069133Y0127312D01*
X0069133Y0126314D02*
X0068794Y0126314D01*
X0069133Y0125315D02*
X0069133Y0125315D01*
X0069133Y0124317D02*
X0069133Y0124317D01*
X0069133Y0123318D02*
X0069133Y0123318D01*
X0069133Y0122320D02*
X0069133Y0122320D01*
X0069133Y0121321D02*
X0069133Y0121321D01*
X0069133Y0120323D02*
X0069133Y0120323D01*
X0069133Y0119324D02*
X0069133Y0119324D01*
X0069133Y0118326D02*
X0069133Y0118326D01*
X0069133Y0117327D02*
X0069133Y0117327D01*
X0069133Y0112335D02*
X0069480Y0112335D01*
X0069133Y0111336D02*
X0070302Y0111336D01*
X0069133Y0110338D02*
X0071512Y0110338D01*
X0059133Y0110338D02*
X0057337Y0110338D01*
X0058547Y0111336D02*
X0059133Y0111336D01*
X0059133Y0119324D02*
X0058186Y0119324D01*
X0059133Y0120323D02*
X0056465Y0120323D01*
X0059133Y0121321D02*
X0045383Y0121321D01*
X0046382Y0120323D02*
X0052699Y0120323D01*
X0048242Y0122320D02*
X0044385Y0122320D01*
X0043386Y0123318D02*
X0047244Y0123318D01*
X0046626Y0124317D02*
X0042387Y0124317D01*
X0041633Y0125315D02*
X0046212Y0125315D01*
X0046133Y0126314D02*
X0041633Y0126314D01*
X0041633Y0127312D02*
X0046133Y0127312D01*
X0046133Y0128311D02*
X0041633Y0128311D01*
X0041633Y0129309D02*
X0046133Y0129309D01*
X0046133Y0130308D02*
X0041633Y0130308D01*
X0041633Y0131306D02*
X0046133Y0131306D01*
X0046133Y0132305D02*
X0041633Y0132305D01*
X0041633Y0133303D02*
X0046133Y0133303D01*
X0046133Y0134302D02*
X0041633Y0134302D01*
X0041633Y0135301D02*
X0046133Y0135301D01*
X0046133Y0136299D02*
X0041633Y0136299D01*
X0041633Y0137298D02*
X0046133Y0137298D01*
X0046133Y0138296D02*
X0041633Y0138296D01*
X0041633Y0139295D02*
X0046133Y0139295D01*
X0046133Y0140293D02*
X0041633Y0140293D01*
X0041633Y0141292D02*
X0046133Y0141292D01*
X0046133Y0142290D02*
X0041633Y0142290D01*
X0041633Y0143289D02*
X0046133Y0143289D01*
X0046133Y0144287D02*
X0041633Y0144287D01*
X0041633Y0145286D02*
X0046133Y0145286D01*
X0046133Y0146284D02*
X0041633Y0146284D01*
X0041633Y0147283D02*
X0046133Y0147283D01*
X0046133Y0148281D02*
X0041633Y0148281D01*
X0041633Y0149280D02*
X0046133Y0149280D01*
X0046133Y0150278D02*
X0041633Y0150278D01*
X0041633Y0151277D02*
X0046133Y0151277D01*
X0046133Y0152275D02*
X0041633Y0152275D01*
X0041633Y0153274D02*
X0046133Y0153274D01*
X0046133Y0154272D02*
X0041633Y0154272D01*
X0041633Y0155271D02*
X0046133Y0155271D01*
X0046133Y0156269D02*
X0041633Y0156269D01*
X0041633Y0157268D02*
X0046133Y0157268D01*
X0046133Y0158266D02*
X0041633Y0158266D01*
X0041633Y0159265D02*
X0046133Y0159265D01*
X0046133Y0160263D02*
X0041633Y0160263D01*
X0041633Y0161262D02*
X0046133Y0161262D01*
X0046133Y0162260D02*
X0041523Y0162260D01*
X0041110Y0163259D02*
X0046450Y0163259D01*
X0046864Y0164257D02*
X0040447Y0164257D01*
X0039424Y0165256D02*
X0047818Y0165256D01*
X0049546Y0166254D02*
X0028633Y0166254D01*
X0028633Y0165256D02*
X0029842Y0165256D01*
X0028820Y0164257D02*
X0028633Y0164257D01*
X0018633Y0164257D02*
X0017947Y0164257D01*
X0018610Y0163259D02*
X0018633Y0163259D01*
X0018633Y0165256D02*
X0016924Y0165256D01*
X0016833Y0166254D02*
X0018633Y0166254D01*
X0018633Y0167253D02*
X0016833Y0167253D01*
X0016833Y0168251D02*
X0018633Y0168251D01*
X0018633Y0169250D02*
X0016833Y0169250D01*
X0016833Y0170248D02*
X0018633Y0170248D01*
X0018633Y0171247D02*
X0016833Y0171247D01*
X0016833Y0172245D02*
X0018633Y0172245D01*
X0018633Y0173244D02*
X0016833Y0173244D01*
X0016833Y0174242D02*
X0018633Y0174242D01*
X0018633Y0175241D02*
X0016833Y0175241D01*
X0016833Y0176239D02*
X0018633Y0176239D01*
X0018633Y0177238D02*
X0016833Y0177238D01*
X0016833Y0178237D02*
X0018633Y0178237D01*
X0018633Y0179235D02*
X0017526Y0179235D01*
X0017939Y0180234D02*
X0018633Y0180234D01*
X0018633Y0181232D02*
X0018353Y0181232D01*
X0018533Y0182231D02*
X0018633Y0182231D01*
X0018633Y0183229D02*
X0018533Y0183229D01*
X0018533Y0184228D02*
X0018633Y0184228D01*
X0018533Y0185226D02*
X0018936Y0185226D01*
X0018533Y0186225D02*
X0019350Y0186225D01*
X0018533Y0187223D02*
X0020285Y0187223D01*
X0021284Y0188222D02*
X0018533Y0188222D01*
X0018533Y0189220D02*
X0022282Y0189220D01*
X0023281Y0190219D02*
X0018533Y0190219D01*
X0018533Y0191217D02*
X0024279Y0191217D01*
X0025278Y0192216D02*
X0018533Y0192216D01*
X0018533Y0193214D02*
X0093733Y0193214D01*
X0093733Y0194213D02*
X0018533Y0194213D01*
X0018169Y0195211D02*
X0094097Y0195211D01*
X0094511Y0196210D02*
X0017756Y0196210D01*
X0017100Y0197208D02*
X0095166Y0197208D01*
X0096165Y0198207D02*
X0016102Y0198207D01*
X0014360Y0199205D02*
X0097906Y0199205D01*
X0102960Y0199205D02*
X0124633Y0199205D01*
X0124633Y0198207D02*
X0104702Y0198207D01*
X0105700Y0197208D02*
X0124633Y0197208D01*
X0124633Y0196210D02*
X0106356Y0196210D01*
X0106769Y0195211D02*
X0124633Y0195211D01*
X0124633Y0194213D02*
X0107133Y0194213D01*
X0107133Y0193214D02*
X0124633Y0193214D01*
X0124633Y0192216D02*
X0107133Y0192216D01*
X0107133Y0191217D02*
X0124633Y0191217D01*
X0124633Y0190219D02*
X0107133Y0190219D01*
X0107133Y0189220D02*
X0124633Y0189220D01*
X0124633Y0188222D02*
X0107133Y0188222D01*
X0107133Y0187223D02*
X0124633Y0187223D01*
X0124633Y0186225D02*
X0107133Y0186225D01*
X0107133Y0185226D02*
X0124633Y0185226D01*
X0124633Y0184228D02*
X0107133Y0184228D01*
X0107133Y0183229D02*
X0124633Y0183229D01*
X0124633Y0182231D02*
X0107133Y0182231D01*
X0106953Y0181232D02*
X0124633Y0181232D01*
X0124633Y0180234D02*
X0106539Y0180234D01*
X0106126Y0179235D02*
X0124633Y0179235D01*
X0124633Y0178237D02*
X0105145Y0178237D01*
X0104031Y0177238D02*
X0124633Y0177238D01*
X0124633Y0200204D02*
X0008133Y0200204D01*
X0008133Y0201202D02*
X0124633Y0201202D01*
X0155977Y0157268D02*
X0157285Y0157268D01*
X0156975Y0156269D02*
X0157699Y0156269D01*
X0157974Y0155271D02*
X0158630Y0155271D01*
X0158972Y0154272D02*
X0165173Y0154272D01*
X0166715Y0155271D02*
X0163137Y0155271D01*
X0176133Y0182231D02*
X0181433Y0182231D01*
X0181638Y0183229D02*
X0176133Y0183229D01*
X0176133Y0184228D02*
X0182128Y0184228D01*
X0183253Y0185226D02*
X0176133Y0185226D01*
X0212077Y0133303D02*
X0212834Y0133303D01*
X0065821Y0175241D02*
X0028633Y0175241D01*
X0028633Y0176239D02*
X0064823Y0176239D01*
X0063824Y0177238D02*
X0028633Y0177238D01*
X0028633Y0178237D02*
X0062826Y0178237D01*
X0061827Y0179235D02*
X0028633Y0179235D01*
X0028633Y0180234D02*
X0060829Y0180234D01*
X0059830Y0181232D02*
X0028633Y0181232D01*
X0029435Y0182231D02*
X0058832Y0182231D01*
X0009306Y0199205D02*
X0008133Y0199205D01*
X0008133Y0038445D02*
X0039780Y0038445D01*
X0039402Y0037446D02*
X0008133Y0037446D01*
X0008133Y0036448D02*
X0039402Y0036448D01*
X0039402Y0035449D02*
X0008133Y0035449D01*
X0008133Y0034451D02*
X0039402Y0034451D01*
X0039402Y0033452D02*
X0008133Y0033452D01*
X0008133Y0032454D02*
X0039402Y0032454D01*
X0039402Y0031455D02*
X0008133Y0031455D01*
X0008133Y0030457D02*
X0039402Y0030457D01*
X0039402Y0029458D02*
X0008133Y0029458D01*
X0008133Y0028460D02*
X0039402Y0028460D01*
X0039402Y0027461D02*
X0008133Y0027461D01*
X0008133Y0026463D02*
X0039402Y0026463D01*
X0039402Y0025464D02*
X0008133Y0025464D01*
X0008133Y0024466D02*
X0039402Y0024466D01*
X0039402Y0023467D02*
X0008133Y0023467D01*
X0008133Y0022469D02*
X0039418Y0022469D01*
D24*
X0116133Y0101500D03*
X0132633Y0135500D03*
X0170633Y0118500D03*
X0162633Y0082500D03*
X0160633Y0059000D03*
D25*
X0156383Y0071750D03*
X0136633Y0088250D03*
X0149883Y0094500D03*
X0106133Y0100250D03*
X0167883Y0151750D03*
X0160883Y0158250D03*
X0169883Y0137750D03*
X0194883Y0166500D03*
X0185133Y0182000D03*
X0196383Y0189250D03*
X0135633Y0167750D03*
X0126133Y0167750D03*
X0194883Y0066500D03*
D26*
X0085633Y0059000D03*
D27*
X0075133Y0067500D02*
X0107133Y0067500D01*
X0113133Y0061500D01*
X0113133Y0047500D01*
X0122511Y0038122D01*
X0122511Y0015484D01*
X0075133Y0067500D02*
X0023633Y0119000D01*
X0023633Y0183500D01*
X0028133Y0188000D01*
X0060133Y0188000D01*
X0073133Y0175000D01*
X0073133Y0172500D01*
X0067133Y0166500D01*
X0067133Y0137000D01*
X0074133Y0130000D01*
X0074133Y0115283D01*
X0074267Y0115150D01*
X0064133Y0124500D02*
X0064133Y0105000D01*
X0092633Y0076500D01*
X0141133Y0076500D01*
X0146133Y0071500D01*
X0146133Y0071390D01*
X0064133Y0124500D02*
X0062133Y0126500D01*
X0055133Y0126500D01*
X0055133Y0161500D01*
X0051133Y0161500D01*
X0051133Y0127000D01*
X0054133Y0127000D01*
X0052833Y0128300D01*
X0052833Y0146500D01*
X0036633Y0161000D02*
X0036633Y0125500D01*
X0033133Y0126500D02*
X0044633Y0115000D01*
X0054433Y0115000D01*
X0054582Y0115150D01*
X0054633Y0126500D02*
X0051133Y0126500D01*
X0054133Y0127000D02*
X0054633Y0126500D01*
X0055133Y0126500D01*
X0034633Y0129500D02*
X0033133Y0126500D01*
X0032633Y0127000D02*
X0032633Y0146500D01*
X0032633Y0147000D01*
X0033133Y0147000D01*
X0032633Y0147000D02*
X0032633Y0161000D01*
X0036633Y0161000D01*
X0033133Y0146500D02*
X0032633Y0146500D01*
X0033133Y0146500D02*
X0034633Y0129500D01*
X0014133Y0128000D02*
X0014133Y0161000D01*
X0011833Y0148100D02*
X0013433Y0146500D01*
X0011633Y0147000D02*
X0011633Y0128000D01*
X0010133Y0128000D01*
X0010133Y0192500D01*
X0011833Y0188000D02*
X0011833Y0148100D01*
X0012133Y0130000D02*
X0012633Y0130000D01*
X0012633Y0128000D01*
X0014133Y0128000D01*
X0012633Y0128000D02*
X0011633Y0128000D01*
X0073133Y0175000D02*
X0073883Y0174250D01*
X0074267Y0173866D01*
X0074133Y0174000D02*
X0076383Y0176250D01*
X0088133Y0188000D01*
X0100433Y0188000D01*
D28*
X0053133Y0129500D03*
X0034633Y0129500D03*
X0012133Y0130000D03*
D29*
X0084633Y0144000D03*
X0099133Y0054000D03*
X0208133Y0011000D03*
X0208133Y0197500D03*
M02*
